solid CATIA STL
  facet normal  0.000000e+000  0.000000e+000 -1.000000e+000
    outer loop
      vertex  2.764787e+000  7.778174e-002  1.056500e+002
      vertex  1.335919e+000 -1.351087e+000  1.056500e+002
      vertex  7.778174e-002  2.764787e+000  1.056500e+002
    endloop
  endfacet
  facet normal  0.000000e+000  -0.000000e+000 -1.000000e+000
    outer loop
      vertex  7.778174e-002  2.764787e+000  1.056500e+002
      vertex  1.335919e+000 -1.351087e+000  1.056500e+002
      vertex -1.351087e+000  1.335919e+000  1.056500e+002
    endloop
  endfacet
  facet normal -7.071068e-001 -7.071068e-001  -0.000000e+000
    outer loop
      vertex -1.414214e-001 -2.828427e+000  1.092687e+002
      vertex -1.414214e-001 -2.828427e+000  1.112405e+002
      vertex -2.828427e+000 -1.414214e-001  1.092687e+002
    endloop
  endfacet
  facet normal -7.071068e-001 -7.071068e-001  0.000000e+000
    outer loop
      vertex -2.828427e+000 -1.414214e-001  1.092687e+002
      vertex -1.414214e-001 -2.828427e+000  1.112405e+002
      vertex -2.828427e+000 -1.414214e-001  1.112405e+002
    endloop
  endfacet
  facet normal -7.071066e-001  7.071069e-001  0.000000e+000
    outer loop
      vertex  1.138442e+000  3.825448e+000  1.230405e+002
      vertex  1.138442e+000  3.825448e+000  1.243589e+002
      vertex  1.934461e+000  4.621467e+000  1.243589e+002
    endloop
  endfacet
  facet normal -7.071066e-001  7.071069e-001  0.000000e+000
    outer loop
      vertex  1.138442e+000  3.825448e+000  1.230405e+002
      vertex  1.934461e+000  4.621467e+000  1.243589e+002
      vertex  1.934461e+000  4.621467e+000  1.232674e+002
    endloop
  endfacet
  facet normal -7.071066e-001  7.071069e-001  0.000000e+000
    outer loop
      vertex  1.138442e+000  3.825448e+000  1.230405e+002
      vertex  1.934461e+000  4.621467e+000  1.232674e+002
      vertex  1.934461e+000  4.621467e+000  1.222405e+002
    endloop
  endfacet
  facet normal -7.071068e-001  7.071068e-001 -2.611010e-007
    outer loop
      vertex  1.138442e+000  3.825448e+000  1.230405e+002
      vertex  1.934461e+000  4.621467e+000  1.222405e+002
      vertex -2.192031e+000  4.949747e-001  1.230405e+002
    endloop
  endfacet
  facet normal -7.071067e-001  7.071067e-001  0.000000e+000
    outer loop
      vertex -2.192031e+000  4.949747e-001  1.209405e+002
      vertex -2.192031e+000  4.949747e-001  1.230405e+002
      vertex  7.778174e-002  2.764787e+000  1.213091e+002
    endloop
  endfacet
  facet normal -7.071068e-001  7.071068e-001  0.000000e+000
    outer loop
      vertex -2.192031e+000  4.949747e-001  1.209405e+002
      vertex  7.778174e-002  2.764787e+000  1.213091e+002
      vertex -3.007716e+000 -3.207107e-001  1.207940e+002
    endloop
  endfacet
  facet normal -7.071067e-001  7.071068e-001  2.250463e-007
    outer loop
      vertex -2.192031e+000  4.949747e-001  1.209405e+002
      vertex -3.007716e+000 -3.207107e-001  1.207940e+002
      vertex -2.893015e+000 -2.060097e-001  1.209024e+002
    endloop
  endfacet
  facet normal -7.071067e-001  7.071069e-001 -1.636967e-006
    outer loop
      vertex -2.192031e+000  4.949747e-001  1.209405e+002
      vertex -2.893015e+000 -2.060097e-001  1.209024e+002
      vertex -2.757716e+000 -7.071068e-002  1.209405e+002
    endloop
  endfacet
  facet normal -7.071068e-001  7.071068e-001  0.000000e+000
    outer loop
      vertex -3.111270e+000 -4.242641e-001  1.147405e+002
      vertex -3.111270e+000 -4.242641e-001  1.204405e+002
      vertex -1.343503e+000  1.343503e+000  1.185819e+002
    endloop
  endfacet
  facet normal -7.071068e-001  7.071068e-001  0.000000e+000
    outer loop
      vertex -3.111270e+000 -4.242641e-001  1.147405e+002
      vertex -1.343503e+000  1.343503e+000  1.185819e+002
      vertex -1.343503e+000  1.343503e+000  1.116314e+002
    endloop
  endfacet
  facet normal -7.071068e-001  7.071068e-001 -2.535506e-008
    outer loop
      vertex -3.111270e+000 -4.242641e-001  1.147405e+002
      vertex -1.343503e+000  1.343503e+000  1.116314e+002
      vertex -4.550756e+000 -1.863751e+000  1.112405e+002
    endloop
  endfacet
  facet normal -7.071068e-001  7.071067e-001  0.000000e+000
    outer loop
      vertex -3.111270e+000 -4.242641e-001  1.147405e+002
      vertex -4.550756e+000 -1.863751e+000  1.112405e+002
      vertex -4.550756e+000 -1.863751e+000  1.147405e+002
    endloop
  endfacet
  facet normal -7.071068e-001  7.071068e-001  3.539696e-007
    outer loop
      vertex -2.192031e+000  4.949747e-001  1.230405e+002
      vertex  1.934461e+000  4.621467e+000  1.222405e+002
      vertex -5.222182e-001  2.164788e+000  1.222405e+002
    endloop
  endfacet
  facet normal -7.071068e-001  7.071068e-001  1.073952e-007
    outer loop
      vertex -2.192031e+000  4.949747e-001  1.230405e+002
      vertex -5.222182e-001  2.164788e+000  1.222405e+002
      vertex  3.636039e-002  2.723366e+000  1.214505e+002
    endloop
  endfacet
  facet normal -7.071080e-001  7.071056e-001 -3.238333e-006
    outer loop
      vertex -2.192031e+000  4.949747e-001  1.230405e+002
      vertex  3.636039e-002  2.723366e+000  1.214505e+002
      vertex  6.701668e-002  2.754022e+000  1.213856e+002
    endloop
  endfacet
  facet normal -7.071067e-001  7.071068e-001  1.534965e-007
    outer loop
      vertex -2.192031e+000  4.949747e-001  1.230405e+002
      vertex  6.701668e-002  2.754022e+000  1.213856e+002
      vertex  7.778174e-002  2.764787e+000  1.213091e+002
    endloop
  endfacet
  facet normal -7.071068e-001  7.071068e-001  0.000000e+000
    outer loop
      vertex  7.778174e-002  2.764787e+000  1.056500e+002
      vertex -1.351087e+000  1.335919e+000  1.056500e+002
      vertex  7.778174e-002  2.764787e+000  1.081500e+002
    endloop
  endfacet
  facet normal -7.071068e-001  7.071068e-001  2.763696e-008
    outer loop
      vertex  7.778174e-002  2.764787e+000  1.081500e+002
      vertex -1.351087e+000  1.335919e+000  1.056500e+002
      vertex -2.828427e+000 -1.414214e-001  1.092687e+002
    endloop
  endfacet
  facet normal -7.071068e-001  7.071068e-001  0.000000e+000
    outer loop
      vertex  7.778174e-002  2.764787e+000  1.081500e+002
      vertex -2.828427e+000 -1.414214e-001  1.092687e+002
      vertex -1.343503e+000  1.343503e+000  1.116314e+002
    endloop
  endfacet
  facet normal -7.071068e-001  7.071068e-001  0.000000e+000
    outer loop
      vertex -1.343503e+000  1.343503e+000  1.116314e+002
      vertex -2.828427e+000 -1.414214e-001  1.092687e+002
      vertex -2.828427e+000 -1.414214e-001  1.112405e+002
    endloop
  endfacet
  facet normal -7.071068e-001  7.071068e-001  0.000000e+000
    outer loop
      vertex -1.343503e+000  1.343503e+000  1.116314e+002
      vertex -2.828427e+000 -1.414214e-001  1.112405e+002
      vertex -4.550756e+000 -1.863751e+000  1.112405e+002
    endloop
  endfacet
  facet normal -7.071068e-001  7.071068e-001 -4.339467e-008
    outer loop
      vertex -1.343503e+000  1.343503e+000  1.185819e+002
      vertex -3.111270e+000 -4.242641e-001  1.204405e+002
      vertex  7.778174e-002  2.764787e+000  1.205919e+002
    endloop
  endfacet
  facet normal -7.071068e-001  7.071068e-001  0.000000e+000
    outer loop
      vertex  7.778174e-002  2.764787e+000  1.205919e+002
      vertex -3.111270e+000 -4.242641e-001  1.204405e+002
      vertex -3.084357e+000 -3.973514e-001  1.206318e+002
    endloop
  endfacet
  facet normal -7.071068e-001  7.071068e-001  0.000000e+000
    outer loop
      vertex  7.778174e-002  2.764787e+000  1.205919e+002
      vertex -3.084357e+000 -3.973514e-001  1.206318e+002
      vertex  7.778174e-002  2.764787e+000  1.213091e+002
    endloop
  endfacet
  facet normal -7.071068e-001  7.071068e-001  0.000000e+000
    outer loop
      vertex  7.778174e-002  2.764787e+000  1.213091e+002
      vertex -3.084357e+000 -3.973514e-001  1.206318e+002
      vertex -3.007716e+000 -3.207107e-001  1.207940e+002
    endloop
  endfacet
  facet normal  7.071069e-001 -7.071067e-001  1.688624e-007
    outer loop
      vertex  4.949747e-001 -2.192031e+000  1.242889e+002
      vertex  2.764787e+000  7.778174e-002  1.213091e+002
      vertex  2.754022e+000  6.701668e-002  1.213856e+002
    endloop
  endfacet
  facet normal  7.071033e-001 -7.071102e-001 -5.373829e-006
    outer loop
      vertex  4.949747e-001 -2.192031e+000  1.242889e+002
      vertex  2.754022e+000  6.701668e-002  1.213856e+002
      vertex  2.723366e+000  3.636039e-002  1.214505e+002
    endloop
  endfacet
  facet normal  7.071071e-001 -7.071065e-001  5.356769e-007
    outer loop
      vertex  4.949747e-001 -2.192031e+000  1.242889e+002
      vertex  2.723366e+000  3.636039e-002  1.214505e+002
      vertex  2.164788e+000 -5.222182e-001  1.222405e+002
    endloop
  endfacet
  facet normal  7.071068e-001 -7.071068e-001  9.709115e-008
    outer loop
      vertex  4.949747e-001 -2.192031e+000  1.242889e+002
      vertex  2.164788e+000 -5.222182e-001  1.222405e+002
      vertex  4.621467e+000  1.934461e+000  1.222405e+002
    endloop
  endfacet
  facet normal  7.071068e-001 -7.071068e-001  0.000000e+000
    outer loop
      vertex  4.949747e-001 -2.192031e+000  1.242889e+002
      vertex  4.621467e+000  1.934461e+000  1.222405e+002
      vertex  4.621467e+000  1.934461e+000  1.232674e+002
    endloop
  endfacet
  facet normal  7.071068e-001 -7.071068e-001  0.000000e+000
    outer loop
      vertex  4.949747e-001 -2.192031e+000  1.242889e+002
      vertex  4.621467e+000  1.934461e+000  1.232674e+002
      vertex  4.621467e+000  1.934461e+000  1.243589e+002
    endloop
  endfacet
  facet normal  7.071068e-001 -7.071066e-001 -1.247678e-005
    outer loop
      vertex  4.949747e-001 -2.192031e+000  1.242889e+002
      vertex  4.621467e+000  1.934461e+000  1.243589e+002
      vertex  3.825448e+000  1.138442e+000  1.243589e+002
    endloop
  endfacet
  facet normal  7.071068e-001 -7.071068e-001  0.000000e+000
    outer loop
      vertex  4.949747e-001 -2.192031e+000  1.242889e+002
      vertex  3.825448e+000  1.138442e+000  1.243589e+002
      vertex  3.825448e+000  1.138442e+000  1.248589e+002
    endloop
  endfacet
  facet normal  7.071069e-001 -7.071067e-001 -1.636967e-006
    outer loop
      vertex  4.949747e-001 -2.192031e+000  1.209405e+002
      vertex -7.071068e-002 -2.757716e+000  1.209405e+002
      vertex -2.060097e-001 -2.893015e+000  1.209024e+002
    endloop
  endfacet
  facet normal  7.071068e-001 -7.071067e-001  2.419237e-007
    outer loop
      vertex  4.949747e-001 -2.192031e+000  1.209405e+002
      vertex -2.060097e-001 -2.893015e+000  1.209024e+002
      vertex -3.207107e-001 -3.007716e+000  1.207940e+002
    endloop
  endfacet
  facet normal  7.071061e-001 -7.071075e-001  8.199545e-006
    outer loop
      vertex  4.949747e-001 -2.192031e+000  1.209405e+002
      vertex -3.207107e-001 -3.007716e+000  1.207940e+002
      vertex  2.764787e+000  7.778174e-002  1.213091e+002
    endloop
  endfacet
  facet normal  7.071068e-001 -7.071068e-001  0.000000e+000
    outer loop
      vertex  4.949747e-001 -2.192031e+000  1.209405e+002
      vertex  2.764787e+000  7.778174e-002  1.213091e+002
      vertex  4.949747e-001 -2.192031e+000  1.242889e+002
    endloop
  endfacet
  facet normal  7.071067e-001 -7.071068e-001  0.000000e+000
    outer loop
      vertex -4.242641e-001 -3.111270e+000  1.147405e+002
      vertex -1.863751e+000 -4.550756e+000  1.147405e+002
      vertex -1.863751e+000 -4.550756e+000  1.112405e+002
    endloop
  endfacet
  facet normal  7.071068e-001 -7.071068e-001 -2.535506e-008
    outer loop
      vertex -4.242641e-001 -3.111270e+000  1.147405e+002
      vertex -1.863751e+000 -4.550756e+000  1.112405e+002
      vertex  1.343503e+000 -1.343503e+000  1.116314e+002
    endloop
  endfacet
  facet normal  7.071068e-001 -7.071068e-001  0.000000e+000
    outer loop
      vertex -4.242641e-001 -3.111270e+000  1.147405e+002
      vertex  1.343503e+000 -1.343503e+000  1.116314e+002
      vertex  1.343503e+000 -1.343503e+000  1.185819e+002
    endloop
  endfacet
  facet normal  7.071068e-001 -7.071068e-001  0.000000e+000
    outer loop
      vertex -4.242641e-001 -3.111270e+000  1.147405e+002
      vertex  1.343503e+000 -1.343503e+000  1.185819e+002
      vertex -4.242641e-001 -3.111270e+000  1.204405e+002
    endloop
  endfacet
  facet normal  7.071067e-001 -7.071068e-001  5.781434e-007
    outer loop
      vertex -3.207107e-001 -3.007716e+000  1.207940e+002
      vertex -3.973514e-001 -3.084357e+000  1.206318e+002
      vertex  2.764787e+000  7.778174e-002  1.213091e+002
    endloop
  endfacet
  facet normal  7.071068e-001 -7.071068e-001  0.000000e+000
    outer loop
      vertex  2.764787e+000  7.778174e-002  1.213091e+002
      vertex -3.973514e-001 -3.084357e+000  1.206318e+002
      vertex  2.764787e+000  7.778174e-002  1.205919e+002
    endloop
  endfacet
  facet normal  7.071068e-001 -7.071068e-001  1.108781e-007
    outer loop
      vertex -3.973514e-001 -3.084357e+000  1.206318e+002
      vertex -4.242641e-001 -3.111270e+000  1.204405e+002
      vertex  2.764787e+000  7.778174e-002  1.205919e+002
    endloop
  endfacet
  facet normal  7.071068e-001 -7.071068e-001  4.339467e-008
    outer loop
      vertex  2.764787e+000  7.778174e-002  1.205919e+002
      vertex -4.242641e-001 -3.111270e+000  1.204405e+002
      vertex  1.343503e+000 -1.343503e+000  1.185819e+002
    endloop
  endfacet
  facet normal  7.071068e-001 -7.071068e-001  0.000000e+000
    outer loop
      vertex -1.863751e+000 -4.550756e+000  1.112405e+002
      vertex -1.414214e-001 -2.828427e+000  1.112405e+002
      vertex  1.343503e+000 -1.343503e+000  1.116314e+002
    endloop
  endfacet
  facet normal  7.071068e-001 -7.071068e-001  0.000000e+000
    outer loop
      vertex  1.343503e+000 -1.343503e+000  1.116314e+002
      vertex -1.414214e-001 -2.828427e+000  1.112405e+002
      vertex -1.414214e-001 -2.828427e+000  1.092687e+002
    endloop
  endfacet
  facet normal  7.071068e-001 -7.071068e-001  0.000000e+000
    outer loop
      vertex  1.343503e+000 -1.343503e+000  1.116314e+002
      vertex -1.414214e-001 -2.828427e+000  1.092687e+002
      vertex  2.764787e+000  7.778174e-002  1.081500e+002
    endloop
  endfacet
  facet normal  7.071068e-001 -7.071068e-001  2.763696e-008
    outer loop
      vertex  2.764787e+000  7.778174e-002  1.081500e+002
      vertex -1.414214e-001 -2.828427e+000  1.092687e+002
      vertex  1.335919e+000 -1.351087e+000  1.056500e+002
    endloop
  endfacet
  facet normal  7.071068e-001 -7.071068e-001  0.000000e+000
    outer loop
      vertex  2.764787e+000  7.778174e-002  1.081500e+002
      vertex  1.335919e+000 -1.351087e+000  1.056500e+002
      vertex  2.764787e+000  7.778174e-002  1.056500e+002
    endloop
  endfacet
  facet normal -6.123725e-001 -6.123725e-001 -5.000000e-001
    outer loop
      vertex  1.335919e+000 -1.351087e+000  1.056500e+002
      vertex -1.414214e-001 -2.828427e+000  1.092687e+002
      vertex -1.351087e+000  1.335919e+000  1.056500e+002
    endloop
  endfacet
  facet normal -6.123725e-001 -6.123725e-001 -5.000000e-001
    outer loop
      vertex -1.351087e+000  1.335919e+000  1.056500e+002
      vertex -1.414214e-001 -2.828427e+000  1.092687e+002
      vertex -2.828427e+000 -1.414214e-001  1.092687e+002
    endloop
  endfacet
  facet normal  7.071068e-001  7.071068e-001  -0.000000e+000
    outer loop
      vertex  1.343503e+000 -1.343503e+000  1.185819e+002
      vertex  1.343503e+000 -1.343503e+000  1.116314e+002
      vertex -1.343503e+000  1.343503e+000  1.185819e+002
    endloop
  endfacet
  facet normal  7.071068e-001  7.071068e-001  0.000000e+000
    outer loop
      vertex -1.343503e+000  1.343503e+000  1.185819e+002
      vertex  1.343503e+000 -1.343503e+000  1.116314e+002
      vertex -1.343503e+000  1.343503e+000  1.116314e+002
    endloop
  endfacet
  facet normal  7.071068e-001  7.071068e-001  -0.000000e+000
    outer loop
      vertex  2.764787e+000  7.778174e-002  1.081500e+002
      vertex  2.764787e+000  7.778174e-002  1.056500e+002
      vertex  7.778174e-002  2.764787e+000  1.081500e+002
    endloop
  endfacet
  facet normal  7.071068e-001  7.071068e-001  0.000000e+000
    outer loop
      vertex  7.778174e-002  2.764787e+000  1.081500e+002
      vertex  2.764787e+000  7.778174e-002  1.056500e+002
      vertex  7.778174e-002  2.764787e+000  1.056500e+002
    endloop
  endfacet
  facet normal  6.123725e-001  6.123725e-001  5.000000e-001
    outer loop
      vertex  1.343503e+000 -1.343503e+000  1.116314e+002
      vertex  2.764787e+000  7.778174e-002  1.081500e+002
      vertex -1.343503e+000  1.343503e+000  1.116314e+002
    endloop
  endfacet
  facet normal  6.123725e-001  6.123724e-001  5.000000e-001
    outer loop
      vertex -1.343503e+000  1.343503e+000  1.116314e+002
      vertex  2.764787e+000  7.778174e-002  1.081500e+002
      vertex  7.778174e-002  2.764787e+000  1.081500e+002
    endloop
  endfacet
  facet normal  0.000000e+000  -0.000000e+000  1.000000e+000
    outer loop
      vertex  1.421285e+000  3.542605e+000  1.245589e+002
      vertex  3.684026e+000  1.279863e+000  1.245589e+002
      vertex  4.534525e+000  2.130363e+000  1.245589e+002
    endloop
  endfacet
  facet normal  0.000000e+000  0.000000e+000  1.000000e+000
    outer loop
      vertex  1.421285e+000  3.542605e+000  1.245589e+002
      vertex  4.534525e+000  2.130363e+000  1.245589e+002
      vertex  4.386692e+000  2.420249e+000  1.245589e+002
    endloop
  endfacet
  facet normal  0.000000e+000  0.000000e+000  1.000000e+000
    outer loop
      vertex  1.421285e+000  3.542605e+000  1.245589e+002
      vertex  4.386692e+000  2.420249e+000  1.245589e+002
      vertex  4.184689e+000  2.754720e+000  1.245589e+002
    endloop
  endfacet
  facet normal  0.000000e+000  0.000000e+000  1.000000e+000
    outer loop
      vertex  1.421285e+000  3.542605e+000  1.245589e+002
      vertex  4.184689e+000  2.754720e+000  1.245589e+002
      vertex  4.071186e+000  2.919855e+000  1.245589e+002
    endloop
  endfacet
  facet normal  0.000000e+000  0.000000e+000  1.000000e+000
    outer loop
      vertex  1.421285e+000  3.542605e+000  1.245589e+002
      vertex  4.071186e+000  2.919855e+000  1.245589e+002
      vertex  3.821351e+000  3.239970e+000  1.245589e+002
    endloop
  endfacet
  facet normal  0.000000e+000  0.000000e+000  1.000000e+000
    outer loop
      vertex  1.421285e+000  3.542605e+000  1.245589e+002
      vertex  3.821351e+000  3.239970e+000  1.245589e+002
      vertex  3.542605e+000  3.542605e+000  1.245589e+002
    endloop
  endfacet
  facet normal  0.000000e+000  0.000000e+000  9.999999e-001
    outer loop
      vertex  1.421285e+000  3.542605e+000  1.245589e+002
      vertex  3.542605e+000  3.542605e+000  1.245589e+002
      vertex  3.239970e+000  3.821351e+000  1.245589e+002
    endloop
  endfacet
  facet normal  0.000000e+000  0.000000e+000  1.000000e+000
    outer loop
      vertex  1.421285e+000  3.542605e+000  1.245589e+002
      vertex  3.239970e+000  3.821351e+000  1.245589e+002
      vertex  2.919855e+000  4.071186e+000  1.245589e+002
    endloop
  endfacet
  facet normal  0.000000e+000  0.000000e+000  1.000000e+000
    outer loop
      vertex  1.421285e+000  3.542605e+000  1.245589e+002
      vertex  2.919855e+000  4.071186e+000  1.245589e+002
      vertex  2.754720e+000  4.184689e+000  1.245589e+002
    endloop
  endfacet
  facet normal  0.000000e+000  0.000000e+000  1.000000e+000
    outer loop
      vertex  1.421285e+000  3.542605e+000  1.245589e+002
      vertex  2.754720e+000  4.184689e+000  1.245589e+002
      vertex  2.420249e+000  4.386692e+000  1.245589e+002
    endloop
  endfacet
  facet normal  0.000000e+000  0.000000e+000  1.000000e+000
    outer loop
      vertex  1.421285e+000  3.542605e+000  1.245589e+002
      vertex  2.420249e+000  4.386692e+000  1.245589e+002
      vertex  2.130363e+000  4.534525e+000  1.245589e+002
    endloop
  endfacet
  facet normal  0.000000e+000  0.000000e+000  1.000000e+000
    outer loop
      vertex  1.421285e+000  3.542605e+000  1.245589e+002
      vertex  2.130363e+000  4.534525e+000  1.245589e+002
      vertex  1.279863e+000  3.684026e+000  1.245589e+002
    endloop
  endfacet
  facet normal -7.071069e-001 -7.071066e-001  0.000000e+000
    outer loop
      vertex  1.138442e+000  3.825448e+000  1.230405e+002
      vertex  1.421285e+000  3.542605e+000  1.230405e+002
      vertex  1.421285e+000  3.542605e+000  1.245589e+002
    endloop
  endfacet
  facet normal -7.071065e-001 -7.071071e-001 -1.665384e-007
    outer loop
      vertex  1.138442e+000  3.825448e+000  1.230405e+002
      vertex  1.421285e+000  3.542605e+000  1.245589e+002
      vertex  1.279863e+000  3.684026e+000  1.245589e+002
    endloop
  endfacet
  facet normal -7.071068e-001 -7.071068e-001 -1.150872e-007
    outer loop
      vertex  1.138442e+000  3.825448e+000  1.230405e+002
      vertex  1.279863e+000  3.684026e+000  1.245589e+002
      vertex  1.209153e+000  3.754737e+000  1.245321e+002
    endloop
  endfacet
  facet normal -7.071085e-001 -7.071052e-001  4.434066e-008
    outer loop
      vertex  1.138442e+000  3.825448e+000  1.230405e+002
      vertex  1.209153e+000  3.754737e+000  1.245321e+002
      vertex  1.157389e+000  3.806501e+000  1.244589e+002
    endloop
  endfacet
  facet normal -7.071068e-001 -7.071068e-001  0.000000e+000
    outer loop
      vertex  1.138442e+000  3.825448e+000  1.230405e+002
      vertex  1.157389e+000  3.806501e+000  1.244589e+002
      vertex  1.138442e+000  3.825448e+000  1.243589e+002
    endloop
  endfacet
  facet normal  5.169777e-001  8.559972e-001  1.693036e-003
    outer loop
      vertex  2.500635e+000  4.341304e+000  1.229605e+002
      vertex  2.420249e+000  4.386692e+000  1.245589e+002
      vertex  2.754720e+000  4.184689e+000  1.245589e+002
    endloop
  endfacet
  facet normal  5.277929e-001  8.493728e-001 -6.752022e-004
    outer loop
      vertex  2.754720e+000  4.184689e+000  1.245589e+002
      vertex  2.786609e+000  4.163522e+000  1.228587e+002
      vertex  2.500635e+000  4.341304e+000  1.229605e+002
    endloop
  endfacet
  facet normal  4.142415e-001  9.101670e-001  -0.000000e+000
    outer loop
      vertex  2.214284e+000  4.494112e+000  1.230962e+002
      vertex  1.934461e+000  4.621467e+000  1.232674e+002
      vertex  1.934461e+000  4.621467e+000  1.243589e+002
    endloop
  endfacet
  facet normal  4.068463e-001  9.134945e-001 -1.974412e-003
    outer loop
      vertex  2.214284e+000  4.494112e+000  1.230962e+002
      vertex  1.934461e+000  4.621467e+000  1.243589e+002
      vertex  1.936945e+000  4.620429e+000  1.243904e+002
    endloop
  endfacet
  facet normal  3.986089e-001  9.171118e-001 -4.092743e-003
    outer loop
      vertex  2.214284e+000  4.494112e+000  1.230962e+002
      vertex  1.936945e+000  4.620429e+000  1.243904e+002
      vertex  1.970903e+000  4.606044e+000  1.244744e+002
    endloop
  endfacet
  facet normal  4.025993e-001  9.153705e-001 -3.246594e-003
    outer loop
      vertex  2.214284e+000  4.494112e+000  1.230962e+002
      vertex  1.970903e+000  4.606044e+000  1.244744e+002
      vertex  2.039414e+000  4.576129e+000  1.245356e+002
    endloop
  endfacet
  facet normal  4.162471e-001  9.092507e-001 -1.239826e-003
    outer loop
      vertex  2.214284e+000  4.494112e+000  1.230962e+002
      vertex  2.039414e+000  4.576129e+000  1.245356e+002
      vertex  2.130363e+000  4.534525e+000  1.245589e+002
    endloop
  endfacet
  facet normal  4.543048e-001  8.908451e-001  1.452217e-003
    outer loop
      vertex  2.214284e+000  4.494112e+000  1.230962e+002
      vertex  2.130363e+000  4.534525e+000  1.245589e+002
      vertex  2.420249e+000  4.386692e+000  1.245589e+002
    endloop
  endfacet
  facet normal  4.702781e-001  8.825172e-001 -1.408576e-003
    outer loop
      vertex  2.214284e+000  4.494112e+000  1.230962e+002
      vertex  2.420249e+000  4.386692e+000  1.245589e+002
      vertex  2.500635e+000  4.341304e+000  1.229605e+002
    endloop
  endfacet
  facet normal  6.529680e-001  7.573851e-001 -7.468821e-004
    outer loop
      vertex  3.363850e+000  3.712764e+000  1.227477e+002
      vertex  3.177417e+000  3.873515e+000  1.227696e+002
      vertex  3.239970e+000  3.821351e+000  1.245589e+002
    endloop
  endfacet
  facet normal  6.153193e-001  7.882767e-001  1.469879e-003
    outer loop
      vertex  3.239970e+000  3.821351e+000  1.245589e+002
      vertex  3.177417e+000  3.873515e+000  1.227696e+002
      vertex  2.984504e+000  4.024032e+000  1.228064e+002
    endloop
  endfacet
  facet normal  6.152536e-001  7.883279e-001  1.485388e-003
    outer loop
      vertex  3.239970e+000  3.821351e+000  1.245589e+002
      vertex  2.984504e+000  4.024032e+000  1.228064e+002
      vertex  2.919855e+000  4.071186e+000  1.245589e+002
    endloop
  endfacet
  facet normal  5.759963e-001  8.174520e-001 -7.464700e-004
    outer loop
      vertex  2.919855e+000  4.071186e+000  1.245589e+002
      vertex  2.984504e+000  4.024032e+000  1.228064e+002
      vertex  2.786609e+000  4.163522e+000  1.228587e+002
    endloop
  endfacet
  facet normal  5.664359e-001  8.241057e-001  3.641292e-004
    outer loop
      vertex  2.919855e+000  4.071186e+000  1.245589e+002
      vertex  2.786609e+000  4.163522e+000  1.228587e+002
      vertex  2.754720e+000  4.184689e+000  1.245589e+002
    endloop
  endfacet
  facet normal  6.894761e-001  7.243084e-001  0.000000e+000
    outer loop
      vertex  3.542605e+000  3.542605e+000  1.227405e+002
      vertex  3.363850e+000  3.712764e+000  1.227477e+002
      vertex  3.542605e+000  3.542605e+000  1.245589e+002
    endloop
  endfacet
  facet normal  6.774783e-001  7.355394e-001  2.239245e-003
    outer loop
      vertex  3.542605e+000  3.542605e+000  1.245589e+002
      vertex  3.363850e+000  3.712764e+000  1.227477e+002
      vertex  3.239970e+000  3.821351e+000  1.245589e+002
    endloop
  endfacet
  facet normal -7.049025e-001  7.049028e-001  7.889613e-002
    outer loop
      vertex  1.934461e+000  4.621467e+000  1.243589e+002
      vertex  1.138442e+000  3.825448e+000  1.243589e+002
      vertex  1.936945e+000  4.620429e+000  1.243904e+002
    endloop
  endfacet
  facet normal -6.866040e-001  6.794022e-001  2.588196e-001
    outer loop
      vertex  1.936945e+000  4.620429e+000  1.243904e+002
      vertex  1.138442e+000  3.825448e+000  1.243589e+002
      vertex  1.157389e+000  3.806501e+000  1.244589e+002
    endloop
  endfacet
  facet normal -6.529634e-001  6.571026e-001  3.766360e-001
    outer loop
      vertex  1.936945e+000  4.620429e+000  1.243904e+002
      vertex  1.157389e+000  3.806501e+000  1.244589e+002
      vertex  1.970903e+000  4.606044e+000  1.244744e+002
    endloop
  endfacet
  facet normal -4.695634e-001  4.632597e-001  7.515988e-001
    outer loop
      vertex  1.970903e+000  4.606044e+000  1.244744e+002
      vertex  1.157389e+000  3.806501e+000  1.244589e+002
      vertex  2.039414e+000  4.576129e+000  1.245356e+002
    endloop
  endfacet
  facet normal -4.987965e-001  5.011942e-001  7.071114e-001
    outer loop
      vertex  2.039414e+000  4.576129e+000  1.245356e+002
      vertex  1.157389e+000  3.806501e+000  1.244589e+002
      vertex  1.209153e+000  3.754737e+000  1.245321e+002
    endloop
  endfacet
  facet normal -1.714776e-001  1.692276e-001  9.705449e-001
    outer loop
      vertex  2.039414e+000  4.576129e+000  1.245356e+002
      vertex  1.209153e+000  3.754737e+000  1.245321e+002
      vertex  2.130363e+000  4.534525e+000  1.245589e+002
    endloop
  endfacet
  facet normal -1.830097e-001  1.830097e-001  9.659269e-001
    outer loop
      vertex  2.130363e+000  4.534525e+000  1.245589e+002
      vertex  1.209153e+000  3.754737e+000  1.245321e+002
      vertex  1.279863e+000  3.684026e+000  1.245589e+002
    endloop
  endfacet
  facet normal  8.559973e-001  5.169774e-001  1.692896e-003
    outer loop
      vertex  4.386692e+000  2.420249e+000  1.245589e+002
      vertex  4.341310e+000  2.500626e+000  1.229605e+002
      vertex  4.184689e+000  2.754720e+000  1.245589e+002
    endloop
  endfacet
  facet normal  8.825178e-001  4.702770e-001 -1.408414e-003
    outer loop
      vertex  4.494115e+000  2.214279e+000  1.230962e+002
      vertex  4.341310e+000  2.500626e+000  1.229605e+002
      vertex  4.386692e+000  2.420249e+000  1.245589e+002
    endloop
  endfacet
  facet normal  8.908451e-001  4.543049e-001  1.452270e-003
    outer loop
      vertex  4.494115e+000  2.214279e+000  1.230962e+002
      vertex  4.386692e+000  2.420249e+000  1.245589e+002
      vertex  4.534525e+000  2.130363e+000  1.245589e+002
    endloop
  endfacet
  facet normal  9.104963e-001  4.135149e-001 -1.430805e-003
    outer loop
      vertex  4.621467e+000  1.934461e+000  1.232674e+002
      vertex  4.494115e+000  2.214279e+000  1.230962e+002
      vertex  4.534525e+000  2.130363e+000  1.245589e+002
    endloop
  endfacet
  facet normal  9.066101e-001  4.219590e-001 -2.973276e-003
    outer loop
      vertex  4.621467e+000  1.934461e+000  1.232674e+002
      vertex  4.534525e+000  2.130363e+000  1.245589e+002
      vertex  4.549788e+000  2.097549e+000  1.245560e+002
    endloop
  endfacet
  facet normal  9.123119e-001  4.094950e-001 -1.078623e-003
    outer loop
      vertex  4.621467e+000  1.934461e+000  1.232674e+002
      vertex  4.549788e+000  2.097549e+000  1.245560e+002
      vertex  4.592533e+000  2.002196e+000  1.245095e+002
    endloop
  endfacet
  facet normal  9.186423e-001  3.950902e-001 -1.455947e-004
    outer loop
      vertex  4.621467e+000  1.934461e+000  1.232674e+002
      vertex  4.592533e+000  2.002196e+000  1.245095e+002
      vertex  4.612571e+000  1.955581e+000  1.244486e+002
    endloop
  endfacet
  facet normal  9.215813e-001  3.881854e-001  0.000000e+000
    outer loop
      vertex  4.621467e+000  1.934461e+000  1.232674e+002
      vertex  4.612571e+000  1.955581e+000  1.244486e+002
      vertex  4.621467e+000  1.934461e+000  1.243589e+002
    endloop
  endfacet
  facet normal  7.573860e-001  6.529669e-001 -7.469417e-004
    outer loop
      vertex  3.873521e+000  3.177411e+000  1.227696e+002
      vertex  3.712766e+000  3.363847e+000  1.227477e+002
      vertex  3.821351e+000  3.239970e+000  1.245589e+002
    endloop
  endfacet
  facet normal  7.242277e-001  6.895508e-001  3.743103e-003
    outer loop
      vertex  3.821351e+000  3.239970e+000  1.245589e+002
      vertex  3.712766e+000  3.363847e+000  1.227477e+002
      vertex  3.542605e+000  3.542605e+000  1.227405e+002
    endloop
  endfacet
  facet normal  7.355413e-001  6.774799e-001  -0.000000e+000
    outer loop
      vertex  3.821351e+000  3.239970e+000  1.245589e+002
      vertex  3.542605e+000  3.542605e+000  1.227405e+002
      vertex  3.542605e+000  3.542605e+000  1.245589e+002
    endloop
  endfacet
  facet normal  8.493741e-001  5.277908e-001 -6.750243e-004
    outer loop
      vertex  4.341310e+000  2.500626e+000  1.229605e+002
      vertex  4.163531e+000  2.786595e+000  1.228587e+002
      vertex  4.184689e+000  2.754720e+000  1.245589e+002
    endloop
  endfacet
  facet normal  8.172827e-001  5.762366e-001  6.325581e-004
    outer loop
      vertex  4.184689e+000  2.754720e+000  1.245589e+002
      vertex  4.163531e+000  2.786595e+000  1.228587e+002
      vertex  4.024040e+000  2.984494e+000  1.228065e+002
    endloop
  endfacet
  facet normal  8.241048e-001  5.664361e-001 -1.277811e-003
    outer loop
      vertex  4.184689e+000  2.754720e+000  1.245589e+002
      vertex  4.024040e+000  2.984494e+000  1.228065e+002
      vertex  4.071186e+000  2.919855e+000  1.245589e+002
    endloop
  endfacet
  facet normal  7.882755e-001  6.153206e-001  1.489189e-003
    outer loop
      vertex  4.071186e+000  2.919855e+000  1.245589e+002
      vertex  4.024040e+000  2.984494e+000  1.228065e+002
      vertex  3.873521e+000  3.177411e+000  1.227696e+002
    endloop
  endfacet
  facet normal  7.883279e-001  6.152536e-001  1.473768e-003
    outer loop
      vertex  4.071186e+000  2.919855e+000  1.245589e+002
      vertex  3.873521e+000  3.177411e+000  1.227696e+002
      vertex  3.821351e+000  3.239970e+000  1.245589e+002
    endloop
  endfacet
  facet normal  7.071096e-001  7.071039e-001 -2.023291e-006
    outer loop
      vertex  1.427622e+000  3.536267e+000  1.247171e+002
      vertex  1.478292e+000  3.485598e+000  1.248191e+002
      vertex  1.421285e+000  3.542605e+000  1.246575e+002
    endloop
  endfacet
  facet normal  7.071068e-001  7.071068e-001  -0.000000e+000
    outer loop
      vertex  3.825448e+000  1.138442e+000  1.248589e+002
      vertex  3.825448e+000  1.138442e+000  1.243589e+002
      vertex  3.806501e+000  1.157389e+000  1.244589e+002
    endloop
  endfacet
  facet normal  7.071052e-001  7.071083e-001  1.445825e-007
    outer loop
      vertex  3.825448e+000  1.138442e+000  1.248589e+002
      vertex  3.806501e+000  1.157389e+000  1.244589e+002
      vertex  3.754737e+000  1.209153e+000  1.245321e+002
    endloop
  endfacet
  facet normal  7.071067e-001  7.071069e-001 -4.767852e-007
    outer loop
      vertex  3.825448e+000  1.138442e+000  1.248589e+002
      vertex  3.754737e+000  1.209153e+000  1.245321e+002
      vertex  3.684026e+000  1.279863e+000  1.245589e+002
    endloop
  endfacet
  facet normal  7.071068e-001  7.071068e-001 -5.619523e-007
    outer loop
      vertex  3.825448e+000  1.138442e+000  1.248589e+002
      vertex  3.684026e+000  1.279863e+000  1.245589e+002
      vertex  1.421285e+000  3.542605e+000  1.245589e+002
    endloop
  endfacet
  facet normal  7.071068e-001  7.071068e-001  3.512201e-008
    outer loop
      vertex  3.825448e+000  1.138442e+000  1.248589e+002
      vertex  1.421285e+000  3.542605e+000  1.245589e+002
      vertex  1.562706e+000  3.401184e+000  1.248589e+002
    endloop
  endfacet
  facet normal  7.071068e-001  7.071068e-001  0.000000e+000
    outer loop
      vertex  1.421285e+000  3.542605e+000  1.246575e+002
      vertex  1.478292e+000  3.485598e+000  1.248191e+002
      vertex  1.421285e+000  3.542605e+000  1.245589e+002
    endloop
  endfacet
  facet normal  7.071068e-001  7.071068e-001  0.000000e+000
    outer loop
      vertex  1.421285e+000  3.542605e+000  1.245589e+002
      vertex  1.478292e+000  3.485598e+000  1.248191e+002
      vertex  1.517729e+000  3.446160e+000  1.248485e+002
    endloop
  endfacet
  facet normal  7.071068e-001  7.071068e-001  0.000000e+000
    outer loop
      vertex  1.421285e+000  3.542605e+000  1.245589e+002
      vertex  1.517729e+000  3.446160e+000  1.248485e+002
      vertex  1.562706e+000  3.401184e+000  1.248589e+002
    endloop
  endfacet
  facet normal -8.496028e-002 -8.496028e-002  9.927555e-001
    outer loop
      vertex -1.767767e+000  7.071068e-002  1.242889e+002
      vertex  4.949747e-001 -2.192031e+000  1.242889e+002
      vertex  1.562706e+000  3.401184e+000  1.248589e+002
    endloop
  endfacet
  facet normal -8.496027e-002 -8.496027e-002  9.927555e-001
    outer loop
      vertex  1.562706e+000  3.401184e+000  1.248589e+002
      vertex  4.949747e-001 -2.192031e+000  1.242889e+002
      vertex  3.825448e+000  1.138442e+000  1.248589e+002
    endloop
  endfacet
  facet normal  6.830121e-001 -6.830118e-001  2.588229e-001
    outer loop
      vertex  3.825448e+000  1.138442e+000  1.243589e+002
      vertex  4.621467e+000  1.934461e+000  1.243589e+002
      vertex  3.806501e+000  1.157389e+000  1.244589e+002
    endloop
  endfacet
  facet normal  6.861549e-001 -6.899408e-001  2.305932e-001
    outer loop
      vertex  3.806501e+000  1.157389e+000  1.244589e+002
      vertex  4.621467e+000  1.934461e+000  1.243589e+002
      vertex  4.612571e+000  1.955581e+000  1.244486e+002
    endloop
  endfacet
  facet normal  5.020950e-001 -4.978926e-001  7.071093e-001
    outer loop
      vertex  3.806501e+000  1.157389e+000  1.244589e+002
      vertex  4.612571e+000  1.955581e+000  1.244486e+002
      vertex  3.754737e+000  1.209153e+000  1.245321e+002
    endloop
  endfacet
  facet normal  5.513598e-001 -5.649455e-001  6.138722e-001
    outer loop
      vertex  3.754737e+000  1.209153e+000  1.245321e+002
      vertex  4.612571e+000  1.955581e+000  1.244486e+002
      vertex  4.592533e+000  2.002196e+000  1.245095e+002
    endloop
  endfacet
  facet normal  3.095977e-001 -3.013175e-001  9.018631e-001
    outer loop
      vertex  3.754737e+000  1.209153e+000  1.245321e+002
      vertex  4.592533e+000  2.002196e+000  1.245095e+002
      vertex  4.549788e+000  2.097549e+000  1.245560e+002
    endloop
  endfacet
  facet normal  6.024287e-002 -6.024287e-002  9.963642e-001
    outer loop
      vertex  4.534525e+000  2.130363e+000  1.245589e+002
      vertex  3.684026e+000  1.279863e+000  1.245589e+002
      vertex  4.549788e+000  2.097549e+000  1.245560e+002
    endloop
  endfacet
  facet normal  1.794489e-001 -1.865658e-001  9.659148e-001
    outer loop
      vertex  4.549788e+000  2.097549e+000  1.245560e+002
      vertex  3.684026e+000  1.279863e+000  1.245589e+002
      vertex  3.754737e+000  1.209153e+000  1.245321e+002
    endloop
  endfacet
  facet normal -7.071068e-001  7.071068e-001  0.000000e+000
    outer loop
      vertex  1.421285e+000  3.542605e+000  1.230405e+002
      vertex -1.909188e+000  2.121320e-001  1.230405e+002
      vertex  1.421285e+000  3.542605e+000  1.245589e+002
    endloop
  endfacet
  facet normal -7.071068e-001  7.071068e-001  0.000000e+000
    outer loop
      vertex  1.421285e+000  3.542605e+000  1.245589e+002
      vertex -1.909188e+000  2.121320e-001  1.230405e+002
      vertex -1.909188e+000  2.121320e-001  1.240874e+002
    endloop
  endfacet
  facet normal -7.071068e-001  7.071068e-001  0.000000e+000
    outer loop
      vertex  1.421285e+000  3.542605e+000  1.245589e+002
      vertex -1.909188e+000  2.121320e-001  1.240874e+002
      vertex  1.421285e+000  3.542605e+000  1.246575e+002
    endloop
  endfacet
  facet normal -7.071068e-001 -7.071068e-001  -0.000000e+000
    outer loop
      vertex  4.949747e-001 -2.192031e+000  1.209405e+002
      vertex  4.949747e-001 -2.192031e+000  1.242889e+002
      vertex -1.767767e+000  7.071068e-002  1.242889e+002
    endloop
  endfacet
  facet normal -7.071065e-001 -7.071071e-001  4.224402e-007
    outer loop
      vertex  4.949747e-001 -2.192031e+000  1.209405e+002
      vertex -1.767767e+000  7.071068e-002  1.242889e+002
      vertex -1.811620e+000  1.145638e-001  1.242790e+002
    endloop
  endfacet
  facet normal -7.071072e-001 -7.071063e-001 -7.063189e-007
    outer loop
      vertex  4.949747e-001 -2.192031e+000  1.209405e+002
      vertex -1.811620e+000  1.145638e-001  1.242790e+002
      vertex -1.851196e+000  1.541401e-001  1.242501e+002
    endloop
  endfacet
  facet normal -7.071067e-001 -7.071069e-001  1.182322e-007
    outer loop
      vertex  4.949747e-001 -2.192031e+000  1.209405e+002
      vertex -1.851196e+000  1.541401e-001  1.242501e+002
      vertex -1.882522e+000  1.854656e-001  1.242052e+002
    endloop
  endfacet
  facet normal -7.071068e-001 -7.071068e-001 -8.051368e-008
    outer loop
      vertex  4.949747e-001 -2.192031e+000  1.209405e+002
      vertex -1.882522e+000  1.854656e-001  1.242052e+002
      vertex -1.909188e+000  2.121320e-001  1.240874e+002
    endloop
  endfacet
  facet normal -7.071068e-001 -7.071068e-001  -0.000000e+000
    outer loop
      vertex  4.949747e-001 -2.192031e+000  1.209405e+002
      vertex -1.909188e+000  2.121320e-001  1.240874e+002
      vertex -1.909188e+000  2.121320e-001  1.230405e+002
    endloop
  endfacet
  facet normal -7.071068e-001 -7.071067e-001 -1.705945e-007
    outer loop
      vertex  4.949747e-001 -2.192031e+000  1.209405e+002
      vertex -1.909188e+000  2.121320e-001  1.230405e+002
      vertex -2.192031e+000  4.949747e-001  1.230405e+002
    endloop
  endfacet
  facet normal -7.071068e-001 -7.071068e-001  -0.000000e+000
    outer loop
      vertex  4.949747e-001 -2.192031e+000  1.209405e+002
      vertex -2.192031e+000  4.949747e-001  1.230405e+002
      vertex -2.192031e+000  4.949747e-001  1.209405e+002
    endloop
  endfacet
  facet normal -1.949487e-001  2.713640e-002  9.804380e-001
    outer loop
      vertex -1.767767e+000  7.071068e-002  1.242889e+002
      vertex  1.562706e+000  3.401184e+000  1.248589e+002
      vertex -1.811620e+000  1.145638e-001  1.242790e+002
    endloop
  endfacet
  facet normal -1.977431e-001  3.011960e-002  9.797910e-001
    outer loop
      vertex -1.811620e+000  1.145638e-001  1.242790e+002
      vertex  1.562706e+000  3.401184e+000  1.248589e+002
      vertex  1.517729e+000  3.446160e+000  1.248485e+002
    endloop
  endfacet
  facet normal -3.978890e-001  2.465600e-001  8.836812e-001
    outer loop
      vertex -1.811620e+000  1.145638e-001  1.242790e+002
      vertex  1.517729e+000  3.446160e+000  1.248485e+002
      vertex -1.851196e+000  1.541401e-001  1.242501e+002
    endloop
  endfacet
  facet normal -4.028179e-001  2.523062e-001  8.798177e-001
    outer loop
      vertex -1.851196e+000  1.541401e-001  1.242501e+002
      vertex  1.517729e+000  3.446160e+000  1.248485e+002
      vertex  1.478292e+000  3.485598e+000  1.248191e+002
    endloop
  endfacet
  facet normal -5.616093e-001  4.417877e-001  6.995847e-001
    outer loop
      vertex -1.851196e+000  1.541401e-001  1.242501e+002
      vertex  1.478292e+000  3.485598e+000  1.248191e+002
      vertex -1.882522e+000  1.854656e-001  1.242052e+002
    endloop
  endfacet
  facet normal -7.118574e-001  6.864213e-001  1.486096e-001
    outer loop
      vertex  1.421285e+000  3.542605e+000  1.246575e+002
      vertex -1.909188e+000  2.121320e-001  1.240874e+002
      vertex  1.427622e+000  3.536267e+000  1.247171e+002
    endloop
  endfacet
  facet normal -7.004290e-001  6.453611e-001  3.048088e-001
    outer loop
      vertex  1.427622e+000  3.536267e+000  1.247171e+002
      vertex -1.909188e+000  2.121320e-001  1.240874e+002
      vertex -1.882522e+000  1.854656e-001  1.242052e+002
    endloop
  endfacet
  facet normal -6.248971e-001  5.296909e-001  5.735252e-001
    outer loop
      vertex  1.427622e+000  3.536267e+000  1.247171e+002
      vertex -1.882522e+000  1.854656e-001  1.242052e+002
      vertex  1.478292e+000  3.485598e+000  1.248191e+002
    endloop
  endfacet
  facet normal  0.000000e+000  0.000000e+000  1.000000e+000
    outer loop
      vertex  1.138442e+000  3.825448e+000  1.230405e+002
      vertex -2.192031e+000  4.949747e-001  1.230405e+002
      vertex  1.421285e+000  3.542605e+000  1.230405e+002
    endloop
  endfacet
  facet normal  0.000000e+000  0.000000e+000  1.000000e+000
    outer loop
      vertex  1.421285e+000  3.542605e+000  1.230405e+002
      vertex -2.192031e+000  4.949747e-001  1.230405e+002
      vertex -1.909188e+000  2.121320e-001  1.230405e+002
    endloop
  endfacet
  facet normal  0.000000e+000  0.000000e+000  9.999999e-001
    outer loop
      vertex -7.071068e-002 -2.757716e+000  1.209405e+002
      vertex  4.949747e-001 -2.192031e+000  1.209405e+002
      vertex -2.757716e+000 -7.071068e-002  1.209405e+002
    endloop
  endfacet
  facet normal  -0.000000e+000  0.000000e+000  1.000000e+000
    outer loop
      vertex -2.757716e+000 -7.071068e-002  1.209405e+002
      vertex  4.949747e-001 -2.192031e+000  1.209405e+002
      vertex -2.192031e+000  4.949747e-001  1.209405e+002
    endloop
  endfacet
  facet normal -7.071068e-001 -7.071068e-001  -0.000000e+000
    outer loop
      vertex -4.242641e-001 -3.111270e+000  1.147405e+002
      vertex -4.242641e-001 -3.111270e+000  1.204405e+002
      vertex -3.111270e+000 -4.242641e-001  1.147405e+002
    endloop
  endfacet
  facet normal -7.071068e-001 -7.071068e-001  0.000000e+000
    outer loop
      vertex -3.111270e+000 -4.242641e-001  1.147405e+002
      vertex -4.242641e-001 -3.111270e+000  1.204405e+002
      vertex -3.111270e+000 -4.242641e-001  1.204405e+002
    endloop
  endfacet
  facet normal -1.379596e-001 -1.379596e-001  9.807825e-001
    outer loop
      vertex -7.071068e-002 -2.757716e+000  1.209405e+002
      vertex -2.757716e+000 -7.071068e-002  1.209405e+002
      vertex -2.060097e-001 -2.893015e+000  1.209024e+002
    endloop
  endfacet
  facet normal -1.379596e-001 -1.379596e-001  9.807825e-001
    outer loop
      vertex -2.060097e-001 -2.893015e+000  1.209024e+002
      vertex -2.757716e+000 -7.071068e-002  1.209405e+002
      vertex -2.893015e+000 -2.060097e-001  1.209024e+002
    endloop
  endfacet
  facet normal -3.928393e-001 -3.928393e-001  8.314772e-001
    outer loop
      vertex -2.060097e-001 -2.893015e+000  1.209024e+002
      vertex -2.893015e+000 -2.060097e-001  1.209024e+002
      vertex -3.207107e-001 -3.007716e+000  1.207940e+002
    endloop
  endfacet
  facet normal -3.928393e-001 -3.928393e-001  8.314772e-001
    outer loop
      vertex -3.207107e-001 -3.007716e+000  1.207940e+002
      vertex -2.893015e+000 -2.060097e-001  1.209024e+002
      vertex -3.007716e+000 -3.207107e-001  1.207940e+002
    endloop
  endfacet
  facet normal -5.879426e-001 -5.879426e-001  5.555601e-001
    outer loop
      vertex -3.207107e-001 -3.007716e+000  1.207940e+002
      vertex -3.007716e+000 -3.207107e-001  1.207940e+002
      vertex -3.973514e-001 -3.084357e+000  1.206318e+002
    endloop
  endfacet
  facet normal -5.879426e-001 -5.879426e-001  5.555601e-001
    outer loop
      vertex -3.973514e-001 -3.084357e+000  1.206318e+002
      vertex -3.007716e+000 -3.207107e-001  1.207940e+002
      vertex -3.084357e+000 -3.973514e-001  1.206318e+002
    endloop
  endfacet
  facet normal -6.935194e-001 -6.935194e-001  1.950938e-001
    outer loop
      vertex -3.973514e-001 -3.084357e+000  1.206318e+002
      vertex -3.084357e+000 -3.973514e-001  1.206318e+002
      vertex -4.242641e-001 -3.111270e+000  1.204405e+002
    endloop
  endfacet
  facet normal -6.935194e-001 -6.935194e-001  1.950938e-001
    outer loop
      vertex -4.242641e-001 -3.111270e+000  1.204405e+002
      vertex -3.084357e+000 -3.973514e-001  1.206318e+002
      vertex -3.111270e+000 -4.242641e-001  1.204405e+002
    endloop
  endfacet
  facet normal  4.999993e-001  4.999993e-001  7.071077e-001
    outer loop
      vertex  2.164788e+000 -5.222182e-001  1.222405e+002
      vertex  2.723366e+000  3.636039e-002  1.214505e+002
      vertex -5.222182e-001  2.164788e+000  1.222405e+002
    endloop
  endfacet
  facet normal  4.999993e-001  4.999994e-001  7.071077e-001
    outer loop
      vertex -5.222182e-001  2.164788e+000  1.222405e+002
      vertex  2.723366e+000  3.636039e-002  1.214505e+002
      vertex  3.636039e-002  2.723366e+000  1.214505e+002
    endloop
  endfacet
  facet normal  7.071068e-001  7.071068e-001  -0.000000e+000
    outer loop
      vertex  2.764787e+000  7.778174e-002  1.213091e+002
      vertex  2.764787e+000  7.778174e-002  1.205919e+002
      vertex  7.778174e-002  2.764787e+000  1.213091e+002
    endloop
  endfacet
  facet normal  7.071068e-001  7.071068e-001  0.000000e+000
    outer loop
      vertex  7.778174e-002  2.764787e+000  1.213091e+002
      vertex  2.764787e+000  7.778174e-002  1.205919e+002
      vertex  7.778174e-002  2.764787e+000  1.205919e+002
    endloop
  endfacet
  facet normal  6.935177e-001  6.935177e-001  1.951059e-001
    outer loop
      vertex  2.764787e+000  7.778174e-002  1.213091e+002
      vertex  7.778174e-002  2.764787e+000  1.213091e+002
      vertex  2.754022e+000  6.701668e-002  1.213856e+002
    endloop
  endfacet
  facet normal  6.935177e-001  6.935177e-001  1.951059e-001
    outer loop
      vertex  2.754022e+000  6.701668e-002  1.213856e+002
      vertex  7.778174e-002  2.764787e+000  1.213091e+002
      vertex  6.701668e-002  2.754022e+000  1.213856e+002
    endloop
  endfacet
  facet normal  5.879483e-001  5.879483e-001  5.555480e-001
    outer loop
      vertex  2.754022e+000  6.701668e-002  1.213856e+002
      vertex  6.701668e-002  2.754022e+000  1.213856e+002
      vertex  2.723366e+000  3.636039e-002  1.214505e+002
    endloop
  endfacet
  facet normal  5.879483e-001  5.879483e-001  5.555480e-001
    outer loop
      vertex  2.723366e+000  3.636039e-002  1.214505e+002
      vertex  6.701668e-002  2.754022e+000  1.213856e+002
      vertex  3.636039e-002  2.723366e+000  1.214505e+002
    endloop
  endfacet
  facet normal  0.000000e+000  0.000000e+000  1.000000e+000
    outer loop
      vertex -4.242641e-001 -3.111270e+000  1.147405e+002
      vertex -3.111270e+000 -4.242641e-001  1.147405e+002
      vertex -4.550756e+000 -1.863751e+000  1.147405e+002
    endloop
  endfacet
  facet normal  0.000000e+000  0.000000e+000  1.000000e+000
    outer loop
      vertex -4.242641e-001 -3.111270e+000  1.147405e+002
      vertex -4.550756e+000 -1.863751e+000  1.147405e+002
      vertex -4.341104e+000 -2.303314e+000  1.147405e+002
    endloop
  endfacet
  facet normal  0.000000e+000  0.000000e+000  1.000000e+000
    outer loop
      vertex -4.242641e-001 -3.111270e+000  1.147405e+002
      vertex -4.341104e+000 -2.303314e+000  1.147405e+002
      vertex -4.089764e+000 -2.720445e+000  1.147405e+002
    endloop
  endfacet
  facet normal  0.000000e+000  0.000000e+000  1.000000e+000
    outer loop
      vertex -4.242641e-001 -3.111270e+000  1.147405e+002
      vertex -4.089764e+000 -2.720445e+000  1.147405e+002
      vertex -3.799112e+000 -3.111202e+000  1.147405e+002
    endloop
  endfacet
  facet normal  0.000000e+000  0.000000e+000  1.000000e+000
    outer loop
      vertex -4.242641e-001 -3.111270e+000  1.147405e+002
      vertex -3.799112e+000 -3.111202e+000  1.147405e+002
      vertex -3.471894e+000 -3.471894e+000  1.147405e+002
    endloop
  endfacet
  facet normal  -0.000000e+000  0.000000e+000  1.000000e+000
    outer loop
      vertex -4.242641e-001 -3.111270e+000  1.147405e+002
      vertex -3.471894e+000 -3.471894e+000  1.147405e+002
      vertex -3.111202e+000 -3.799112e+000  1.147405e+002
    endloop
  endfacet
  facet normal  -0.000000e+000  0.000000e+000  1.000000e+000
    outer loop
      vertex -4.242641e-001 -3.111270e+000  1.147405e+002
      vertex -3.111202e+000 -3.799112e+000  1.147405e+002
      vertex -2.720445e+000 -4.089764e+000  1.147405e+002
    endloop
  endfacet
  facet normal  -0.000000e+000  0.000000e+000  9.999999e-001
    outer loop
      vertex -4.242641e-001 -3.111270e+000  1.147405e+002
      vertex -2.720445e+000 -4.089764e+000  1.147405e+002
      vertex -2.303314e+000 -4.341104e+000  1.147405e+002
    endloop
  endfacet
  facet normal  -0.000000e+000  0.000000e+000  1.000000e+000
    outer loop
      vertex -4.242641e-001 -3.111270e+000  1.147405e+002
      vertex -2.303314e+000 -4.341104e+000  1.147405e+002
      vertex -1.863751e+000 -4.550756e+000  1.147405e+002
    endloop
  endfacet
  facet normal  0.000000e+000  0.000000e+000 -1.000000e+000
    outer loop
      vertex -1.414214e-001 -2.828427e+000  1.112405e+002
      vertex -1.863751e+000 -4.550756e+000  1.112405e+002
      vertex -2.303314e+000 -4.341104e+000  1.112405e+002
    endloop
  endfacet
  facet normal  0.000000e+000  0.000000e+000 -1.000000e+000
    outer loop
      vertex -1.414214e-001 -2.828427e+000  1.112405e+002
      vertex -2.303314e+000 -4.341104e+000  1.112405e+002
      vertex -2.720445e+000 -4.089764e+000  1.112405e+002
    endloop
  endfacet
  facet normal  0.000000e+000  0.000000e+000 -1.000000e+000
    outer loop
      vertex -1.414214e-001 -2.828427e+000  1.112405e+002
      vertex -2.720445e+000 -4.089764e+000  1.112405e+002
      vertex -3.111202e+000 -3.799112e+000  1.112405e+002
    endloop
  endfacet
  facet normal  0.000000e+000  0.000000e+000 -1.000000e+000
    outer loop
      vertex -1.414214e-001 -2.828427e+000  1.112405e+002
      vertex -3.111202e+000 -3.799112e+000  1.112405e+002
      vertex -3.471894e+000 -3.471894e+000  1.112405e+002
    endloop
  endfacet
  facet normal  0.000000e+000  0.000000e+000 -1.000000e+000
    outer loop
      vertex -1.414214e-001 -2.828427e+000  1.112405e+002
      vertex -3.471894e+000 -3.471894e+000  1.112405e+002
      vertex -3.799112e+000 -3.111202e+000  1.112405e+002
    endloop
  endfacet
  facet normal  0.000000e+000  0.000000e+000 -1.000000e+000
    outer loop
      vertex -1.414214e-001 -2.828427e+000  1.112405e+002
      vertex -3.799112e+000 -3.111202e+000  1.112405e+002
      vertex -4.089764e+000 -2.720445e+000  1.112405e+002
    endloop
  endfacet
  facet normal  0.000000e+000  0.000000e+000 -9.999999e-001
    outer loop
      vertex -1.414214e-001 -2.828427e+000  1.112405e+002
      vertex -4.089764e+000 -2.720445e+000  1.112405e+002
      vertex -4.341104e+000 -2.303314e+000  1.112405e+002
    endloop
  endfacet
  facet normal  0.000000e+000  0.000000e+000 -1.000000e+000
    outer loop
      vertex -1.414214e-001 -2.828427e+000  1.112405e+002
      vertex -4.341104e+000 -2.303314e+000  1.112405e+002
      vertex -4.550756e+000 -1.863751e+000  1.112405e+002
    endloop
  endfacet
  facet normal  0.000000e+000  0.000000e+000 -1.000000e+000
    outer loop
      vertex -1.414214e-001 -2.828427e+000  1.112405e+002
      vertex -4.550756e+000 -1.863751e+000  1.112405e+002
      vertex -2.828427e+000 -1.414214e-001  1.112405e+002
    endloop
  endfacet
  facet normal -4.304969e-001 -9.025921e-001  -0.000000e+000
    outer loop
      vertex -1.863751e+000 -4.550756e+000  1.112405e+002
      vertex -1.863751e+000 -4.550756e+000  1.147405e+002
      vertex -2.303314e+000 -4.341104e+000  1.112405e+002
    endloop
  endfacet
  facet normal -4.304969e-001 -9.025921e-001  0.000000e+000
    outer loop
      vertex -2.303314e+000 -4.341104e+000  1.112405e+002
      vertex -1.863751e+000 -4.550756e+000  1.147405e+002
      vertex -2.303314e+000 -4.341104e+000  1.147405e+002
    endloop
  endfacet
  facet normal -5.160973e-001 -8.565299e-001  -0.000000e+000
    outer loop
      vertex -2.303314e+000 -4.341104e+000  1.112405e+002
      vertex -2.303314e+000 -4.341104e+000  1.147405e+002
      vertex -2.720445e+000 -4.089764e+000  1.112405e+002
    endloop
  endfacet
  facet normal -5.160973e-001 -8.565299e-001  0.000000e+000
    outer loop
      vertex -2.720445e+000 -4.089764e+000  1.112405e+002
      vertex -2.303314e+000 -4.341104e+000  1.147405e+002
      vertex -2.720445e+000 -4.089764e+000  1.147405e+002
    endloop
  endfacet
  facet normal -5.968201e-001 -8.023751e-001  -0.000000e+000
    outer loop
      vertex -2.720445e+000 -4.089764e+000  1.112405e+002
      vertex -2.720445e+000 -4.089764e+000  1.147405e+002
      vertex -3.111202e+000 -3.799112e+000  1.112405e+002
    endloop
  endfacet
  facet normal -5.968201e-001 -8.023751e-001  0.000000e+000
    outer loop
      vertex -3.111202e+000 -3.799112e+000  1.112405e+002
      vertex -2.720445e+000 -4.089764e+000  1.147405e+002
      vertex -3.111202e+000 -3.799112e+000  1.147405e+002
    endloop
  endfacet
  facet normal -6.719037e-001 -7.406386e-001  -0.000000e+000
    outer loop
      vertex -3.111202e+000 -3.799112e+000  1.112405e+002
      vertex -3.111202e+000 -3.799112e+000  1.147405e+002
      vertex -3.471894e+000 -3.471894e+000  1.112405e+002
    endloop
  endfacet
  facet normal -6.719037e-001 -7.406386e-001  0.000000e+000
    outer loop
      vertex -3.471894e+000 -3.471894e+000  1.112405e+002
      vertex -3.111202e+000 -3.799112e+000  1.147405e+002
      vertex -3.471894e+000 -3.471894e+000  1.147405e+002
    endloop
  endfacet
  facet normal -7.406386e-001 -6.719037e-001  -0.000000e+000
    outer loop
      vertex -3.471894e+000 -3.471894e+000  1.112405e+002
      vertex -3.471894e+000 -3.471894e+000  1.147405e+002
      vertex -3.799112e+000 -3.111202e+000  1.112405e+002
    endloop
  endfacet
  facet normal -7.406386e-001 -6.719037e-001  0.000000e+000
    outer loop
      vertex -3.799112e+000 -3.111202e+000  1.112405e+002
      vertex -3.471894e+000 -3.471894e+000  1.147405e+002
      vertex -3.799112e+000 -3.111202e+000  1.147405e+002
    endloop
  endfacet
  facet normal -8.023751e-001 -5.968201e-001  -0.000000e+000
    outer loop
      vertex -3.799112e+000 -3.111202e+000  1.112405e+002
      vertex -3.799112e+000 -3.111202e+000  1.147405e+002
      vertex -4.089764e+000 -2.720445e+000  1.112405e+002
    endloop
  endfacet
  facet normal -8.023751e-001 -5.968201e-001  0.000000e+000
    outer loop
      vertex -4.089764e+000 -2.720445e+000  1.112405e+002
      vertex -3.799112e+000 -3.111202e+000  1.147405e+002
      vertex -4.089764e+000 -2.720445e+000  1.147405e+002
    endloop
  endfacet
  facet normal -8.565299e-001 -5.160973e-001  -0.000000e+000
    outer loop
      vertex -4.089764e+000 -2.720445e+000  1.112405e+002
      vertex -4.089764e+000 -2.720445e+000  1.147405e+002
      vertex -4.341104e+000 -2.303314e+000  1.112405e+002
    endloop
  endfacet
  facet normal -8.565299e-001 -5.160973e-001  0.000000e+000
    outer loop
      vertex -4.341104e+000 -2.303314e+000  1.112405e+002
      vertex -4.089764e+000 -2.720445e+000  1.147405e+002
      vertex -4.341104e+000 -2.303314e+000  1.147405e+002
    endloop
  endfacet
  facet normal -9.025921e-001 -4.304969e-001  -0.000000e+000
    outer loop
      vertex -4.341104e+000 -2.303314e+000  1.112405e+002
      vertex -4.341104e+000 -2.303314e+000  1.147405e+002
      vertex -4.550756e+000 -1.863751e+000  1.112405e+002
    endloop
  endfacet
  facet normal -9.025921e-001 -4.304969e-001  0.000000e+000
    outer loop
      vertex -4.550756e+000 -1.863751e+000  1.112405e+002
      vertex -4.341104e+000 -2.303314e+000  1.147405e+002
      vertex -4.550756e+000 -1.863751e+000  1.147405e+002
    endloop
  endfacet
  facet normal  4.999993e-001  4.999993e-001 -7.071077e-001
    outer loop
      vertex  1.343503e+000 -1.343503e+000  1.185819e+002
      vertex -1.343503e+000  1.343503e+000  1.185819e+002
      vertex  2.764787e+000  7.778174e-002  1.205919e+002
    endloop
  endfacet
  facet normal  4.999993e-001  4.999993e-001 -7.071077e-001
    outer loop
      vertex  2.764787e+000  7.778174e-002  1.205919e+002
      vertex -1.343503e+000  1.343503e+000  1.185819e+002
      vertex  7.778174e-002  2.764787e+000  1.205919e+002
    endloop
  endfacet
  facet normal  6.144550e-001  7.889311e-001 -5.731195e-003
    outer loop
      vertex  2.905658e+000  4.081329e+000  1.222405e+002
      vertex  2.984504e+000  4.024032e+000  1.228064e+002
      vertex  3.177417e+000  3.873515e+000  1.227696e+002
    endloop
  endfacet
  facet normal  4.142415e-001  9.101670e-001  0.000000e+000
    outer loop
      vertex  1.934461e+000  4.621467e+000  1.222405e+002
      vertex  1.934461e+000  4.621467e+000  1.232674e+002
      vertex  2.214284e+000  4.494112e+000  1.230962e+002
    endloop
  endfacet
  facet normal  6.242611e-001  7.810931e-001 -1.384573e-002
    outer loop
      vertex  3.340383e+000  3.733891e+000  1.222405e+002
      vertex  2.905658e+000  4.081329e+000  1.222405e+002
      vertex  3.177417e+000  3.873515e+000  1.227696e+002
    endloop
  endfacet
  facet normal  6.531072e-001  7.572643e-001  1.325936e-003
    outer loop
      vertex  3.340383e+000  3.733891e+000  1.222405e+002
      vertex  3.177417e+000  3.873515e+000  1.227696e+002
      vertex  3.363850e+000  3.712764e+000  1.227477e+002
    endloop
  endfacet
  facet normal  6.894383e-001  7.243424e-001 -1.726090e-003
    outer loop
      vertex  3.340383e+000  3.733891e+000  1.222405e+002
      vertex  3.363850e+000  3.712764e+000  1.227477e+002
      vertex  3.542605e+000  3.542605e+000  1.227405e+002
    endloop
  endfacet
  facet normal  7.245910e-001  6.885416e-001 -2.963978e-002
    outer loop
      vertex  3.340383e+000  3.733891e+000  1.222405e+002
      vertex  3.542605e+000  3.542605e+000  1.227405e+002
      vertex  3.712766e+000  3.363847e+000  1.227477e+002
    endloop
  endfacet
  facet normal  7.071030e-001  7.071030e-001 -3.261020e-003
    outer loop
      vertex  3.340383e+000  3.733891e+000  1.222405e+002
      vertex  3.712766e+000  3.363847e+000  1.227477e+002
      vertex  3.733891e+000  3.340383e+000  1.222405e+002
    endloop
  endfacet
  facet normal  9.101674e-001  4.142406e-001  -0.000000e+000
    outer loop
      vertex  4.621467e+000  1.934461e+000  1.232674e+002
      vertex  4.621467e+000  1.934461e+000  1.222405e+002
      vertex  4.494115e+000  2.214279e+000  1.230962e+002
    endloop
  endfacet
  facet normal  8.995439e-001  4.367389e-001 -8.937516e-003
    outer loop
      vertex  4.494115e+000  2.214279e+000  1.230962e+002
      vertex  4.621467e+000  1.934461e+000  1.222405e+002
      vertex  4.378410e+000  2.435082e+000  1.222405e+002
    endloop
  endfacet
  facet normal  8.817474e-001  4.717153e-001  2.493327e-003
    outer loop
      vertex  4.494115e+000  2.214279e+000  1.230962e+002
      vertex  4.378410e+000  2.435082e+000  1.222405e+002
      vertex  4.341310e+000  2.500626e+000  1.229605e+002
    endloop
  endfacet
  facet normal  8.499239e-001  5.268890e-001 -4.168781e-003
    outer loop
      vertex  4.341310e+000  2.500626e+000  1.229605e+002
      vertex  4.378410e+000  2.435082e+000  1.222405e+002
      vertex  4.163531e+000  2.786595e+000  1.228587e+002
    endloop
  endfacet
  facet normal  8.455513e-001  5.338073e-001 -9.622135e-003
    outer loop
      vertex  4.163531e+000  2.786595e+000  1.228587e+002
      vertex  4.378410e+000  2.435082e+000  1.222405e+002
      vertex  4.081329e+000  2.905658e+000  1.222405e+002
    endloop
  endfacet
  facet normal  8.170611e-001  5.765462e-001  2.396750e-003
    outer loop
      vertex  4.163531e+000  2.786595e+000  1.228587e+002
      vertex  4.081329e+000  2.905658e+000  1.222405e+002
      vertex  4.024040e+000  2.984494e+000  1.228065e+002
    endloop
  endfacet
  facet normal  7.889320e-001  6.144539e-001 -5.730642e-003
    outer loop
      vertex  4.024040e+000  2.984494e+000  1.228065e+002
      vertex  4.081329e+000  2.905658e+000  1.222405e+002
      vertex  3.873521e+000  3.177411e+000  1.227696e+002
    endloop
  endfacet
  facet normal  7.810930e-001  6.242611e-001 -1.384587e-002
    outer loop
      vertex  3.873521e+000  3.177411e+000  1.227696e+002
      vertex  4.081329e+000  2.905658e+000  1.222405e+002
      vertex  3.733891e+000  3.340383e+000  1.222405e+002
    endloop
  endfacet
  facet normal  7.572653e-001  6.531061e-001  1.325751e-003
    outer loop
      vertex  3.873521e+000  3.177411e+000  1.227696e+002
      vertex  3.733891e+000  3.340383e+000  1.222405e+002
      vertex  3.712766e+000  3.363847e+000  1.227477e+002
    endloop
  endfacet
  facet normal  4.367389e-001  8.995439e-001 -8.937402e-003
    outer loop
      vertex  1.934461e+000  4.621467e+000  1.222405e+002
      vertex  2.214284e+000  4.494112e+000  1.230962e+002
      vertex  2.435082e+000  4.378410e+000  1.222405e+002
    endloop
  endfacet
  facet normal  4.717164e-001  8.817468e-001  2.493681e-003
    outer loop
      vertex  2.435082e+000  4.378410e+000  1.222405e+002
      vertex  2.214284e+000  4.494112e+000  1.230962e+002
      vertex  2.500635e+000  4.341304e+000  1.229605e+002
    endloop
  endfacet
  facet normal  5.338254e-001  8.455799e-001 -5.024581e-003
    outer loop
      vertex  2.435082e+000  4.378410e+000  1.222405e+002
      vertex  2.500635e+000  4.341304e+000  1.229605e+002
      vertex  2.905658e+000  4.081329e+000  1.222405e+002
    endloop
  endfacet
  facet normal  5.248194e-001  8.511276e-001 -1.209355e-002
    outer loop
      vertex  2.905658e+000  4.081329e+000  1.222405e+002
      vertex  2.500635e+000  4.341304e+000  1.229605e+002
      vertex  2.786609e+000  4.163522e+000  1.228587e+002
    endloop
  endfacet
  facet normal  5.765494e-001  8.170589e-001  2.396941e-003
    outer loop
      vertex  2.905658e+000  4.081329e+000  1.222405e+002
      vertex  2.786609e+000  4.163522e+000  1.228587e+002
      vertex  2.984504e+000  4.024032e+000  1.228064e+002
    endloop
  endfacet
  facet normal  -0.000000e+000  -0.000000e+000 -1.000000e+000
    outer loop
      vertex  2.435082e+000  4.378410e+000  1.222405e+002
      vertex  2.905658e+000  4.081329e+000  1.222405e+002
      vertex  3.340383e+000  3.733891e+000  1.222405e+002
    endloop
  endfacet
  facet normal  0.000000e+000  -0.000000e+000 -9.999999e-001
    outer loop
      vertex  2.164788e+000 -5.222182e-001  1.222405e+002
      vertex  4.378410e+000  2.435082e+000  1.222405e+002
      vertex  4.621467e+000  1.934461e+000  1.222405e+002
    endloop
  endfacet
  facet normal  0.000000e+000  -0.000000e+000 -1.000000e+000
    outer loop
      vertex  2.164788e+000 -5.222182e-001  1.222405e+002
      vertex  4.081329e+000  2.905658e+000  1.222405e+002
      vertex  4.378410e+000  2.435082e+000  1.222405e+002
    endloop
  endfacet
  facet normal  0.000000e+000  0.000000e+000 -1.000000e+000
    outer loop
      vertex  4.081329e+000  2.905658e+000  1.222405e+002
      vertex  2.164788e+000 -5.222182e-001  1.222405e+002
      vertex  3.733891e+000  3.340383e+000  1.222405e+002
    endloop
  endfacet
  facet normal  0.000000e+000  0.000000e+000 -1.000000e+000
    outer loop
      vertex  3.733891e+000  3.340383e+000  1.222405e+002
      vertex  2.164788e+000 -5.222182e-001  1.222405e+002
      vertex -5.222182e-001  2.164788e+000  1.222405e+002
    endloop
  endfacet
  facet normal  0.000000e+000  0.000000e+000 -1.000000e+000
    outer loop
      vertex  3.733891e+000  3.340383e+000  1.222405e+002
      vertex -5.222182e-001  2.164788e+000  1.222405e+002
      vertex  3.340383e+000  3.733891e+000  1.222405e+002
    endloop
  endfacet
  facet normal  -0.000000e+000  0.000000e+000 -1.000000e+000
    outer loop
      vertex  3.340383e+000  3.733891e+000  1.222405e+002
      vertex -5.222182e-001  2.164788e+000  1.222405e+002
      vertex  1.934461e+000  4.621467e+000  1.222405e+002
    endloop
  endfacet
  facet normal  0.000000e+000  0.000000e+000 -9.999999e-001
    outer loop
      vertex  3.340383e+000  3.733891e+000  1.222405e+002
      vertex  1.934461e+000  4.621467e+000  1.222405e+002
      vertex  2.435082e+000  4.378410e+000  1.222405e+002
    endloop
  endfacet
endsolid CATIA STL
