solid CATIA STL
  facet normal  7.071068e-001 -7.071068e-001 -8.429370e-008
    outer loop
      vertex  3.173036e+000  4.860300e-001  1.228519e+002
      vertex  1.697056e+000 -9.899495e-001  1.228519e+002
      vertex  2.764787e+000  7.778174e-002  1.218519e+002
    endloop
  endfacet
  facet normal  7.071068e-001 -7.071068e-001  0.000000e+000
    outer loop
      vertex  8.485281e-001 -1.838478e+000  1.113950e+002
      vertex  8.485281e-001 -1.838478e+000  1.157735e+002
      vertex -7.778175e-001 -3.464823e+000  1.178297e+002
    endloop
  endfacet
  facet normal  7.071068e-001 -7.071068e-001  0.000000e+000
    outer loop
      vertex  8.485281e-001 -1.838478e+000  1.113950e+002
      vertex -7.778175e-001 -3.464823e+000  1.178297e+002
      vertex -7.778175e-001 -3.464823e+000  1.128165e+002
    endloop
  endfacet
  facet normal  7.071068e-001 -7.071068e-001  0.000000e+000
    outer loop
      vertex  8.485281e-001 -1.838478e+000  1.113950e+002
      vertex -7.778175e-001 -3.464823e+000  1.128165e+002
      vertex -1.863751e+000 -4.550756e+000  1.128165e+002
    endloop
  endfacet
  facet normal  7.071068e-001 -7.071068e-001  0.000000e+000
    outer loop
      vertex  8.485281e-001 -1.838478e+000  1.113950e+002
      vertex -1.863751e+000 -4.550756e+000  1.128165e+002
      vertex  2.330709e+000 -3.562965e-001  1.101848e+002
    endloop
  endfacet
  facet normal  7.071068e-001 -7.071068e-001 -3.484778e-008
    outer loop
      vertex  1.963989e+000 -7.230167e-001  1.185058e+002
      vertex -3.043280e-001 -2.991334e+000  1.179496e+002
      vertex  8.485281e-001 -1.838478e+000  1.157735e+002
    endloop
  endfacet
  facet normal  7.071068e-001 -7.071068e-001  0.000000e+000
    outer loop
      vertex  8.485281e-001 -1.838478e+000  1.157735e+002
      vertex -3.043280e-001 -2.991334e+000  1.179496e+002
      vertex -6.551790e-001 -3.342185e+000  1.181301e+002
    endloop
  endfacet
  facet normal  7.071067e-001 -7.071068e-001 -8.555774e-008
    outer loop
      vertex  8.485281e-001 -1.838478e+000  1.157735e+002
      vertex -6.551790e-001 -3.342185e+000  1.181301e+002
      vertex -7.778175e-001 -3.464823e+000  1.178297e+002
    endloop
  endfacet
  facet normal  7.071068e-001 -7.071068e-001  3.678390e-008
    outer loop
      vertex  1.704127e+000 -9.828784e-001  1.086500e+002
      vertex  2.330709e+000 -3.562965e-001  1.101848e+002
      vertex -1.414214e-001 -2.828427e+000  1.086500e+002
    endloop
  endfacet
  facet normal  7.071068e-001 -7.071068e-001  0.000000e+000
    outer loop
      vertex -1.414214e-001 -2.828427e+000  1.086500e+002
      vertex  2.330709e+000 -3.562965e-001  1.101848e+002
      vertex -1.414214e-001 -2.828427e+000  1.093165e+002
    endloop
  endfacet
  facet normal  7.071068e-001 -7.071068e-001  0.000000e+000
    outer loop
      vertex  2.330709e+000 -3.562965e-001  1.101848e+002
      vertex -1.863751e+000 -4.550756e+000  1.128165e+002
      vertex -1.414214e-001 -2.828427e+000  1.093165e+002
    endloop
  endfacet
  facet normal  7.071068e-001 -7.071068e-001  0.000000e+000
    outer loop
      vertex -1.414214e-001 -2.828427e+000  1.093165e+002
      vertex -1.863751e+000 -4.550756e+000  1.128165e+002
      vertex -1.863751e+000 -4.550756e+000  1.093165e+002
    endloop
  endfacet
  facet normal  7.071068e-001 -7.071067e-001  0.000000e+000
    outer loop
      vertex  2.764787e+000  7.778174e-002  1.178519e+002
      vertex  2.764787e+000  7.778174e-002  1.218519e+002
      vertex  1.963989e+000 -7.230167e-001  1.185058e+002
    endloop
  endfacet
  facet normal  7.071068e-001 -7.071068e-001  1.286174e-008
    outer loop
      vertex  1.963989e+000 -7.230167e-001  1.185058e+002
      vertex  2.764787e+000  7.778174e-002  1.218519e+002
      vertex  1.697056e+000 -9.899495e-001  1.228519e+002
    endloop
  endfacet
  facet normal  7.071067e-001 -7.071068e-001  8.429379e-009
    outer loop
      vertex  1.963989e+000 -7.230167e-001  1.185058e+002
      vertex  1.697056e+000 -9.899495e-001  1.228519e+002
      vertex -3.043280e-001 -2.991334e+000  1.179496e+002
    endloop
  endfacet
  facet normal -7.071068e-001  7.071068e-001 -8.429370e-008
    outer loop
      vertex  7.778174e-002  2.764787e+000  1.218519e+002
      vertex -9.899495e-001  1.697056e+000  1.228519e+002
      vertex  4.860300e-001  3.173036e+000  1.228519e+002
    endloop
  endfacet
  facet normal -7.071068e-001  7.071068e-001  0.000000e+000
    outer loop
      vertex -1.838478e+000  8.485281e-001  1.113950e+002
      vertex -3.562965e-001  2.330709e+000  1.101848e+002
      vertex -4.550756e+000 -1.863751e+000  1.128165e+002
    endloop
  endfacet
  facet normal -7.071068e-001  7.071068e-001  0.000000e+000
    outer loop
      vertex -1.838478e+000  8.485281e-001  1.113950e+002
      vertex -4.550756e+000 -1.863751e+000  1.128165e+002
      vertex -3.464823e+000 -7.778175e-001  1.128165e+002
    endloop
  endfacet
  facet normal -7.071068e-001  7.071068e-001  0.000000e+000
    outer loop
      vertex -1.838478e+000  8.485281e-001  1.113950e+002
      vertex -3.464823e+000 -7.778175e-001  1.128165e+002
      vertex -3.464823e+000 -7.778175e-001  1.178297e+002
    endloop
  endfacet
  facet normal -7.071068e-001  7.071068e-001  0.000000e+000
    outer loop
      vertex -1.838478e+000  8.485281e-001  1.113950e+002
      vertex -3.464823e+000 -7.778175e-001  1.178297e+002
      vertex -1.838478e+000  8.485281e-001  1.157735e+002
    endloop
  endfacet
  facet normal -7.071068e-001  7.071067e-001 -8.555774e-008
    outer loop
      vertex -3.464823e+000 -7.778175e-001  1.178297e+002
      vertex -3.342185e+000 -6.551790e-001  1.181301e+002
      vertex -1.838478e+000  8.485281e-001  1.157735e+002
    endloop
  endfacet
  facet normal -7.071068e-001  7.071068e-001  0.000000e+000
    outer loop
      vertex -1.838478e+000  8.485281e-001  1.157735e+002
      vertex -3.342185e+000 -6.551790e-001  1.181301e+002
      vertex -2.991334e+000 -3.043280e-001  1.179496e+002
    endloop
  endfacet
  facet normal -7.071068e-001  7.071068e-001 -3.484778e-008
    outer loop
      vertex -1.838478e+000  8.485281e-001  1.157735e+002
      vertex -2.991334e+000 -3.043280e-001  1.179496e+002
      vertex -7.230167e-001  1.963989e+000  1.185058e+002
    endloop
  endfacet
  facet normal -7.071068e-001  7.071068e-001  0.000000e+000
    outer loop
      vertex -9.828784e-001  1.704127e+000  1.086500e+002
      vertex -2.828427e+000 -1.414214e-001  1.086500e+002
      vertex -3.562965e-001  2.330709e+000  1.101848e+002
    endloop
  endfacet
  facet normal -7.071068e-001  7.071068e-001  0.000000e+000
    outer loop
      vertex -3.562965e-001  2.330709e+000  1.101848e+002
      vertex -2.828427e+000 -1.414214e-001  1.086500e+002
      vertex -2.828427e+000 -1.414214e-001  1.093165e+002
    endloop
  endfacet
  facet normal -7.071068e-001  7.071068e-001  0.000000e+000
    outer loop
      vertex -3.562965e-001  2.330709e+000  1.101848e+002
      vertex -2.828427e+000 -1.414214e-001  1.093165e+002
      vertex -4.550756e+000 -1.863751e+000  1.128165e+002
    endloop
  endfacet
  facet normal -7.071068e-001  7.071068e-001  0.000000e+000
    outer loop
      vertex -4.550756e+000 -1.863751e+000  1.128165e+002
      vertex -2.828427e+000 -1.414214e-001  1.093165e+002
      vertex -4.550756e+000 -1.863751e+000  1.093165e+002
    endloop
  endfacet
  facet normal -7.071068e-001  7.071067e-001  8.429379e-009
    outer loop
      vertex -2.991334e+000 -3.043280e-001  1.179496e+002
      vertex -9.899495e-001  1.697056e+000  1.228519e+002
      vertex -7.230167e-001  1.963989e+000  1.185058e+002
    endloop
  endfacet
  facet normal -7.071068e-001  7.071068e-001  1.286174e-008
    outer loop
      vertex -7.230167e-001  1.963989e+000  1.185058e+002
      vertex -9.899495e-001  1.697056e+000  1.228519e+002
      vertex  7.778174e-002  2.764787e+000  1.218519e+002
    endloop
  endfacet
  facet normal -7.071067e-001  7.071068e-001  0.000000e+000
    outer loop
      vertex -7.230167e-001  1.963989e+000  1.185058e+002
      vertex  7.778174e-002  2.764787e+000  1.218519e+002
      vertex  7.778174e-002  2.764787e+000  1.178519e+002
    endloop
  endfacet
  facet normal  0.000000e+000  0.000000e+000  1.000000e+000
    outer loop
      vertex -7.778175e-001 -3.464823e+000  1.128165e+002
      vertex -3.464823e+000 -7.778175e-001  1.128165e+002
      vertex -4.550756e+000 -1.863751e+000  1.128165e+002
    endloop
  endfacet
  facet normal  0.000000e+000  0.000000e+000  1.000000e+000
    outer loop
      vertex -7.778175e-001 -3.464823e+000  1.128165e+002
      vertex -4.550756e+000 -1.863751e+000  1.128165e+002
      vertex -4.341104e+000 -2.303314e+000  1.128165e+002
    endloop
  endfacet
  facet normal  0.000000e+000  0.000000e+000  1.000000e+000
    outer loop
      vertex -7.778175e-001 -3.464823e+000  1.128165e+002
      vertex -4.341104e+000 -2.303314e+000  1.128165e+002
      vertex -4.089764e+000 -2.720445e+000  1.128165e+002
    endloop
  endfacet
  facet normal  0.000000e+000  0.000000e+000  1.000000e+000
    outer loop
      vertex -7.778175e-001 -3.464823e+000  1.128165e+002
      vertex -4.089764e+000 -2.720445e+000  1.128165e+002
      vertex -3.799112e+000 -3.111202e+000  1.128165e+002
    endloop
  endfacet
  facet normal  0.000000e+000  0.000000e+000  1.000000e+000
    outer loop
      vertex -7.778175e-001 -3.464823e+000  1.128165e+002
      vertex -3.799112e+000 -3.111202e+000  1.128165e+002
      vertex -3.471894e+000 -3.471894e+000  1.128165e+002
    endloop
  endfacet
  facet normal  -0.000000e+000  0.000000e+000  1.000000e+000
    outer loop
      vertex -7.778175e-001 -3.464823e+000  1.128165e+002
      vertex -3.471894e+000 -3.471894e+000  1.128165e+002
      vertex -3.111202e+000 -3.799112e+000  1.128165e+002
    endloop
  endfacet
  facet normal  -0.000000e+000  0.000000e+000  1.000000e+000
    outer loop
      vertex -7.778175e-001 -3.464823e+000  1.128165e+002
      vertex -3.111202e+000 -3.799112e+000  1.128165e+002
      vertex -2.720445e+000 -4.089764e+000  1.128165e+002
    endloop
  endfacet
  facet normal  -0.000000e+000  0.000000e+000  1.000000e+000
    outer loop
      vertex -7.778175e-001 -3.464823e+000  1.128165e+002
      vertex -2.720445e+000 -4.089764e+000  1.128165e+002
      vertex -2.303314e+000 -4.341104e+000  1.128165e+002
    endloop
  endfacet
  facet normal  -0.000000e+000  0.000000e+000  1.000000e+000
    outer loop
      vertex -7.778175e-001 -3.464823e+000  1.128165e+002
      vertex -2.303314e+000 -4.341104e+000  1.128165e+002
      vertex -1.863751e+000 -4.550756e+000  1.128165e+002
    endloop
  endfacet
  facet normal  0.000000e+000  0.000000e+000 -1.000000e+000
    outer loop
      vertex -1.414214e-001 -2.828427e+000  1.093165e+002
      vertex -1.863751e+000 -4.550756e+000  1.093165e+002
      vertex -2.303314e+000 -4.341104e+000  1.093165e+002
    endloop
  endfacet
  facet normal  0.000000e+000  0.000000e+000 -1.000000e+000
    outer loop
      vertex -1.414214e-001 -2.828427e+000  1.093165e+002
      vertex -2.303314e+000 -4.341104e+000  1.093165e+002
      vertex -2.720445e+000 -4.089764e+000  1.093165e+002
    endloop
  endfacet
  facet normal  0.000000e+000  0.000000e+000 -1.000000e+000
    outer loop
      vertex -1.414214e-001 -2.828427e+000  1.093165e+002
      vertex -2.720445e+000 -4.089764e+000  1.093165e+002
      vertex -3.111202e+000 -3.799112e+000  1.093165e+002
    endloop
  endfacet
  facet normal  0.000000e+000  0.000000e+000 -1.000000e+000
    outer loop
      vertex -1.414214e-001 -2.828427e+000  1.093165e+002
      vertex -3.111202e+000 -3.799112e+000  1.093165e+002
      vertex -3.471894e+000 -3.471894e+000  1.093165e+002
    endloop
  endfacet
  facet normal  0.000000e+000  0.000000e+000 -1.000000e+000
    outer loop
      vertex -1.414214e-001 -2.828427e+000  1.093165e+002
      vertex -3.471894e+000 -3.471894e+000  1.093165e+002
      vertex -3.799112e+000 -3.111202e+000  1.093165e+002
    endloop
  endfacet
  facet normal  0.000000e+000  0.000000e+000 -1.000000e+000
    outer loop
      vertex -1.414214e-001 -2.828427e+000  1.093165e+002
      vertex -3.799112e+000 -3.111202e+000  1.093165e+002
      vertex -4.089764e+000 -2.720445e+000  1.093165e+002
    endloop
  endfacet
  facet normal  0.000000e+000  0.000000e+000 -9.999999e-001
    outer loop
      vertex -1.414214e-001 -2.828427e+000  1.093165e+002
      vertex -4.089764e+000 -2.720445e+000  1.093165e+002
      vertex -4.341104e+000 -2.303314e+000  1.093165e+002
    endloop
  endfacet
  facet normal  0.000000e+000  0.000000e+000 -1.000000e+000
    outer loop
      vertex -1.414214e-001 -2.828427e+000  1.093165e+002
      vertex -4.341104e+000 -2.303314e+000  1.093165e+002
      vertex -4.550756e+000 -1.863751e+000  1.093165e+002
    endloop
  endfacet
  facet normal  0.000000e+000  0.000000e+000 -1.000000e+000
    outer loop
      vertex -1.414214e-001 -2.828427e+000  1.093165e+002
      vertex -4.550756e+000 -1.863751e+000  1.093165e+002
      vertex -2.828427e+000 -1.414214e-001  1.093165e+002
    endloop
  endfacet
  facet normal -4.304969e-001 -9.025921e-001  -0.000000e+000
    outer loop
      vertex -1.863751e+000 -4.550756e+000  1.093165e+002
      vertex -1.863751e+000 -4.550756e+000  1.128165e+002
      vertex -2.303314e+000 -4.341104e+000  1.093165e+002
    endloop
  endfacet
  facet normal -4.304969e-001 -9.025921e-001  0.000000e+000
    outer loop
      vertex -2.303314e+000 -4.341104e+000  1.093165e+002
      vertex -1.863751e+000 -4.550756e+000  1.128165e+002
      vertex -2.303314e+000 -4.341104e+000  1.128165e+002
    endloop
  endfacet
  facet normal -5.160973e-001 -8.565299e-001  -0.000000e+000
    outer loop
      vertex -2.303314e+000 -4.341104e+000  1.093165e+002
      vertex -2.303314e+000 -4.341104e+000  1.128165e+002
      vertex -2.720445e+000 -4.089764e+000  1.093165e+002
    endloop
  endfacet
  facet normal -5.160973e-001 -8.565299e-001  0.000000e+000
    outer loop
      vertex -2.720445e+000 -4.089764e+000  1.093165e+002
      vertex -2.303314e+000 -4.341104e+000  1.128165e+002
      vertex -2.720445e+000 -4.089764e+000  1.128165e+002
    endloop
  endfacet
  facet normal -5.968201e-001 -8.023751e-001  -0.000000e+000
    outer loop
      vertex -2.720445e+000 -4.089764e+000  1.093165e+002
      vertex -2.720445e+000 -4.089764e+000  1.128165e+002
      vertex -3.111202e+000 -3.799112e+000  1.093165e+002
    endloop
  endfacet
  facet normal -5.968201e-001 -8.023751e-001  0.000000e+000
    outer loop
      vertex -3.111202e+000 -3.799112e+000  1.093165e+002
      vertex -2.720445e+000 -4.089764e+000  1.128165e+002
      vertex -3.111202e+000 -3.799112e+000  1.128165e+002
    endloop
  endfacet
  facet normal -6.719037e-001 -7.406386e-001  -0.000000e+000
    outer loop
      vertex -3.111202e+000 -3.799112e+000  1.093165e+002
      vertex -3.111202e+000 -3.799112e+000  1.128165e+002
      vertex -3.471894e+000 -3.471894e+000  1.093165e+002
    endloop
  endfacet
  facet normal -6.719037e-001 -7.406386e-001  0.000000e+000
    outer loop
      vertex -3.471894e+000 -3.471894e+000  1.093165e+002
      vertex -3.111202e+000 -3.799112e+000  1.128165e+002
      vertex -3.471894e+000 -3.471894e+000  1.128165e+002
    endloop
  endfacet
  facet normal -7.406386e-001 -6.719037e-001  -0.000000e+000
    outer loop
      vertex -3.471894e+000 -3.471894e+000  1.093165e+002
      vertex -3.471894e+000 -3.471894e+000  1.128165e+002
      vertex -3.799112e+000 -3.111202e+000  1.093165e+002
    endloop
  endfacet
  facet normal -7.406386e-001 -6.719037e-001  0.000000e+000
    outer loop
      vertex -3.799112e+000 -3.111202e+000  1.093165e+002
      vertex -3.471894e+000 -3.471894e+000  1.128165e+002
      vertex -3.799112e+000 -3.111202e+000  1.128165e+002
    endloop
  endfacet
  facet normal -8.023751e-001 -5.968201e-001  -0.000000e+000
    outer loop
      vertex -3.799112e+000 -3.111202e+000  1.093165e+002
      vertex -3.799112e+000 -3.111202e+000  1.128165e+002
      vertex -4.089764e+000 -2.720445e+000  1.093165e+002
    endloop
  endfacet
  facet normal -8.023751e-001 -5.968201e-001  0.000000e+000
    outer loop
      vertex -4.089764e+000 -2.720445e+000  1.093165e+002
      vertex -3.799112e+000 -3.111202e+000  1.128165e+002
      vertex -4.089764e+000 -2.720445e+000  1.128165e+002
    endloop
  endfacet
  facet normal -8.565299e-001 -5.160973e-001  -0.000000e+000
    outer loop
      vertex -4.089764e+000 -2.720445e+000  1.093165e+002
      vertex -4.089764e+000 -2.720445e+000  1.128165e+002
      vertex -4.341104e+000 -2.303314e+000  1.093165e+002
    endloop
  endfacet
  facet normal -8.565299e-001 -5.160973e-001  0.000000e+000
    outer loop
      vertex -4.341104e+000 -2.303314e+000  1.093165e+002
      vertex -4.089764e+000 -2.720445e+000  1.128165e+002
      vertex -4.341104e+000 -2.303314e+000  1.128165e+002
    endloop
  endfacet
  facet normal -9.025921e-001 -4.304969e-001  -0.000000e+000
    outer loop
      vertex -4.341104e+000 -2.303314e+000  1.093165e+002
      vertex -4.341104e+000 -2.303314e+000  1.128165e+002
      vertex -4.550756e+000 -1.863751e+000  1.093165e+002
    endloop
  endfacet
  facet normal -9.025921e-001 -4.304969e-001  0.000000e+000
    outer loop
      vertex -4.550756e+000 -1.863751e+000  1.093165e+002
      vertex -4.341104e+000 -2.303314e+000  1.128165e+002
      vertex -4.550756e+000 -1.863751e+000  1.128165e+002
    endloop
  endfacet
  facet normal  6.123724e-001  6.123724e-001 -5.000002e-001
    outer loop
      vertex  2.330709e+000 -3.562965e-001  1.101848e+002
      vertex  1.704127e+000 -9.828784e-001  1.086500e+002
      vertex -3.562965e-001  2.330709e+000  1.101848e+002
    endloop
  endfacet
  facet normal  6.123724e-001  6.123724e-001 -5.000002e-001
    outer loop
      vertex -3.562965e-001  2.330709e+000  1.101848e+002
      vertex  1.704127e+000 -9.828784e-001  1.086500e+002
      vertex -9.828784e-001  1.704127e+000  1.086500e+002
    endloop
  endfacet
  facet normal  7.071068e-001  7.071068e-001  -0.000000e+000
    outer loop
      vertex  2.764787e+000  7.778174e-002  1.218519e+002
      vertex  2.764787e+000  7.778174e-002  1.178519e+002
      vertex  7.778174e-002  2.764787e+000  1.218519e+002
    endloop
  endfacet
  facet normal  7.071068e-001  7.071068e-001  0.000000e+000
    outer loop
      vertex  7.778174e-002  2.764787e+000  1.218519e+002
      vertex  2.764787e+000  7.778174e-002  1.178519e+002
      vertex  7.778174e-002  2.764787e+000  1.178519e+002
    endloop
  endfacet
  facet normal -3.535555e-001 -3.535555e-001 -8.660237e-001
    outer loop
      vertex  1.963989e+000 -7.230167e-001  1.185058e+002
      vertex -7.230167e-001  1.963989e+000  1.185058e+002
      vertex  2.764787e+000  7.778174e-002  1.178519e+002
    endloop
  endfacet
  facet normal -3.535555e-001 -3.535555e-001 -8.660237e-001
    outer loop
      vertex  2.764787e+000  7.778174e-002  1.178519e+002
      vertex -7.230167e-001  1.963989e+000  1.185058e+002
      vertex  7.778174e-002  2.764787e+000  1.178519e+002
    endloop
  endfacet
  facet normal  6.123727e-001  6.123727e-001 -4.999993e-001
    outer loop
      vertex  8.485281e-001 -1.838478e+000  1.157735e+002
      vertex -1.838478e+000  8.485281e-001  1.157735e+002
      vertex  1.963989e+000 -7.230167e-001  1.185058e+002
    endloop
  endfacet
  facet normal  6.123727e-001  6.123727e-001 -4.999993e-001
    outer loop
      vertex  1.963989e+000 -7.230167e-001  1.185058e+002
      vertex -1.838478e+000  8.485281e-001  1.157735e+002
      vertex -7.230167e-001  1.963989e+000  1.185058e+002
    endloop
  endfacet
  facet normal  7.071068e-001  7.071068e-001  0.000000e+000
    outer loop
      vertex  8.485281e-001 -1.838478e+000  1.113950e+002
      vertex -1.838478e+000  8.485281e-001  1.113950e+002
      vertex  8.485281e-001 -1.838478e+000  1.157735e+002
    endloop
  endfacet
  facet normal  7.071068e-001  7.071068e-001  0.000000e+000
    outer loop
      vertex  8.485281e-001 -1.838478e+000  1.157735e+002
      vertex -1.838478e+000  8.485281e-001  1.113950e+002
      vertex -1.838478e+000  8.485281e-001  1.157735e+002
    endloop
  endfacet
  facet normal  3.535538e-001  3.535538e-001  8.660251e-001
    outer loop
      vertex  2.330709e+000 -3.562965e-001  1.101848e+002
      vertex -3.562965e-001  2.330709e+000  1.101848e+002
      vertex  8.485281e-001 -1.838478e+000  1.113950e+002
    endloop
  endfacet
  facet normal  3.535538e-001  3.535538e-001  8.660251e-001
    outer loop
      vertex  8.485281e-001 -1.838478e+000  1.113950e+002
      vertex -3.562965e-001  2.330709e+000  1.101848e+002
      vertex -1.838478e+000  8.485281e-001  1.113950e+002
    endloop
  endfacet
  facet normal  0.000000e+000  0.000000e+000  1.000000e+000
    outer loop
      vertex  1.697056e+000 -9.899495e-001  1.228519e+002
      vertex  3.173036e+000  4.860300e-001  1.228519e+002
      vertex -9.899495e-001  1.697056e+000  1.228519e+002
    endloop
  endfacet
  facet normal  -0.000000e+000  0.000000e+000  1.000000e+000
    outer loop
      vertex -9.899495e-001  1.697056e+000  1.228519e+002
      vertex  3.173036e+000  4.860300e-001  1.228519e+002
      vertex  4.860300e-001  3.173036e+000  1.228519e+002
    endloop
  endfacet
  facet normal  0.000000e+000  0.000000e+000 -1.000000e+000
    outer loop
      vertex  1.704127e+000 -9.828784e-001  1.086500e+002
      vertex -1.414214e-001 -2.828427e+000  1.086500e+002
      vertex -9.828784e-001  1.704127e+000  1.086500e+002
    endloop
  endfacet
  facet normal  0.000000e+000  -0.000000e+000 -1.000000e+000
    outer loop
      vertex -9.828784e-001  1.704127e+000  1.086500e+002
      vertex -1.414214e-001 -2.828427e+000  1.086500e+002
      vertex -2.828427e+000 -1.414214e-001  1.086500e+002
    endloop
  endfacet
  facet normal  6.123724e-001  6.123724e-001 -5.000002e-001
    outer loop
      vertex  2.764787e+000  7.778174e-002  1.218519e+002
      vertex  7.778174e-002  2.764787e+000  1.218519e+002
      vertex  3.173036e+000  4.860300e-001  1.228519e+002
    endloop
  endfacet
  facet normal  6.123724e-001  6.123724e-001 -5.000002e-001
    outer loop
      vertex  3.173036e+000  4.860300e-001  1.228519e+002
      vertex  7.778174e-002  2.764787e+000  1.218519e+002
      vertex  4.860300e-001  3.173036e+000  1.228519e+002
    endloop
  endfacet
  facet normal -6.123723e-001 -6.123723e-001  5.000003e-001
    outer loop
      vertex -3.043280e-001 -2.991334e+000  1.179496e+002
      vertex  1.697056e+000 -9.899495e-001  1.228519e+002
      vertex -2.991334e+000 -3.043280e-001  1.179496e+002
    endloop
  endfacet
  facet normal -6.123723e-001 -6.123723e-001  5.000003e-001
    outer loop
      vertex -2.991334e+000 -3.043280e-001  1.179496e+002
      vertex  1.697056e+000 -9.899495e-001  1.228519e+002
      vertex -9.899495e-001  1.697056e+000  1.228519e+002
    endloop
  endfacet
  facet normal  2.418463e-001  2.418463e-001  9.396919e-001
    outer loop
      vertex -6.551790e-001 -3.342185e+000  1.181301e+002
      vertex -3.043280e-001 -2.991334e+000  1.179496e+002
      vertex -3.342185e+000 -6.551790e-001  1.181301e+002
    endloop
  endfacet
  facet normal  2.418463e-001  2.418463e-001  9.396918e-001
    outer loop
      vertex -3.342185e+000 -6.551790e-001  1.181301e+002
      vertex -3.043280e-001 -2.991334e+000  1.179496e+002
      vertex -2.991334e+000 -3.043280e-001  1.179496e+002
    endloop
  endfacet
  facet normal -6.123753e-001 -6.123753e-001  4.999929e-001
    outer loop
      vertex -7.778175e-001 -3.464823e+000  1.178297e+002
      vertex -6.551790e-001 -3.342185e+000  1.181301e+002
      vertex -3.464823e+000 -7.778175e-001  1.178297e+002
    endloop
  endfacet
  facet normal -6.123753e-001 -6.123753e-001  4.999929e-001
    outer loop
      vertex -3.464823e+000 -7.778175e-001  1.178297e+002
      vertex -6.551790e-001 -3.342185e+000  1.181301e+002
      vertex -3.342185e+000 -6.551790e-001  1.181301e+002
    endloop
  endfacet
  facet normal -7.071068e-001 -7.071068e-001  -0.000000e+000
    outer loop
      vertex -7.778175e-001 -3.464823e+000  1.128165e+002
      vertex -7.778175e-001 -3.464823e+000  1.178297e+002
      vertex -3.464823e+000 -7.778175e-001  1.128165e+002
    endloop
  endfacet
  facet normal -7.071068e-001 -7.071068e-001  0.000000e+000
    outer loop
      vertex -3.464823e+000 -7.778175e-001  1.128165e+002
      vertex -7.778175e-001 -3.464823e+000  1.178297e+002
      vertex -3.464823e+000 -7.778175e-001  1.178297e+002
    endloop
  endfacet
  facet normal -7.071068e-001 -7.071068e-001  -0.000000e+000
    outer loop
      vertex -1.414214e-001 -2.828427e+000  1.086500e+002
      vertex -1.414214e-001 -2.828427e+000  1.093165e+002
      vertex -2.828427e+000 -1.414214e-001  1.086500e+002
    endloop
  endfacet
  facet normal -7.071068e-001 -7.071068e-001  0.000000e+000
    outer loop
      vertex -2.828427e+000 -1.414214e-001  1.086500e+002
      vertex -1.414214e-001 -2.828427e+000  1.093165e+002
      vertex -2.828427e+000 -1.414214e-001  1.093165e+002
    endloop
  endfacet
endsolid CATIA STL
