solid CATIA STL
  facet normal  0.000000e+000  0.000000e+000 -1.000000e+000
    outer loop
      vertex  2.764787e+000  7.778174e-002  1.056500e+002
      vertex  1.335919e+000 -1.351087e+000  1.056500e+002
      vertex  7.778174e-002  2.764787e+000  1.056500e+002
    endloop
  endfacet
  facet normal  0.000000e+000  -0.000000e+000 -1.000000e+000
    outer loop
      vertex  7.778174e-002  2.764787e+000  1.056500e+002
      vertex  1.335919e+000 -1.351087e+000  1.056500e+002
      vertex -1.351087e+000  1.335919e+000  1.056500e+002
    endloop
  endfacet
  facet normal -7.071068e-001 -7.071068e-001  -0.000000e+000
    outer loop
      vertex -1.414214e-001 -2.828427e+000  1.092687e+002
      vertex -1.414214e-001 -2.828427e+000  1.112405e+002
      vertex -2.828427e+000 -1.414214e-001  1.092687e+002
    endloop
  endfacet
  facet normal -7.071068e-001 -7.071068e-001  0.000000e+000
    outer loop
      vertex -2.828427e+000 -1.414214e-001  1.092687e+002
      vertex -1.414214e-001 -2.828427e+000  1.112405e+002
      vertex -2.828427e+000 -1.414214e-001  1.112405e+002
    endloop
  endfacet
  facet normal  7.071069e-001 -7.071067e-001  1.688624e-007
    outer loop
      vertex  4.949747e-001 -2.192031e+000  1.242889e+002
      vertex  2.764787e+000  7.778174e-002  1.213091e+002
      vertex  2.754022e+000  6.701668e-002  1.213856e+002
    endloop
  endfacet
  facet normal  7.071033e-001 -7.071102e-001 -5.373829e-006
    outer loop
      vertex  4.949747e-001 -2.192031e+000  1.242889e+002
      vertex  2.754022e+000  6.701668e-002  1.213856e+002
      vertex  2.723366e+000  3.636039e-002  1.214505e+002
    endloop
  endfacet
  facet normal  7.071071e-001 -7.071065e-001  5.356769e-007
    outer loop
      vertex  4.949747e-001 -2.192031e+000  1.242889e+002
      vertex  2.723366e+000  3.636039e-002  1.214505e+002
      vertex  2.164788e+000 -5.222182e-001  1.222405e+002
    endloop
  endfacet
  facet normal  7.071068e-001 -7.071068e-001  9.709115e-008
    outer loop
      vertex  4.949747e-001 -2.192031e+000  1.242889e+002
      vertex  2.164788e+000 -5.222182e-001  1.222405e+002
      vertex  4.621467e+000  1.934461e+000  1.222405e+002
    endloop
  endfacet
  facet normal  7.071068e-001 -7.071068e-001  0.000000e+000
    outer loop
      vertex  4.949747e-001 -2.192031e+000  1.242889e+002
      vertex  4.621467e+000  1.934461e+000  1.222405e+002
      vertex  4.621467e+000  1.934461e+000  1.232674e+002
    endloop
  endfacet
  facet normal  7.071067e-001 -7.071067e-001  0.000000e+000
    outer loop
      vertex  4.949747e-001 -2.192031e+000  1.242889e+002
      vertex  4.621467e+000  1.934461e+000  1.232674e+002
      vertex  4.621467e+000  1.934461e+000  1.243952e+002
    endloop
  endfacet
  facet normal  7.071068e-001 -7.071068e-001  0.000000e+000
    outer loop
      vertex  4.949747e-001 -2.192031e+000  1.242889e+002
      vertex  4.621467e+000  1.934461e+000  1.243952e+002
      vertex  4.037580e+000  1.350574e+000  1.243952e+002
    endloop
  endfacet
  facet normal  7.071068e-001 -7.071068e-001  0.000000e+000
    outer loop
      vertex  4.949747e-001 -2.192031e+000  1.242889e+002
      vertex  4.037580e+000  1.350574e+000  1.243952e+002
      vertex  4.037580e+000  1.350574e+000  1.248952e+002
    endloop
  endfacet
  facet normal  7.071069e-001 -7.071067e-001 -1.636967e-006
    outer loop
      vertex  4.949747e-001 -2.192031e+000  1.209405e+002
      vertex -7.071068e-002 -2.757716e+000  1.209405e+002
      vertex -2.060097e-001 -2.893015e+000  1.209024e+002
    endloop
  endfacet
  facet normal  7.071068e-001 -7.071067e-001  2.419237e-007
    outer loop
      vertex  4.949747e-001 -2.192031e+000  1.209405e+002
      vertex -2.060097e-001 -2.893015e+000  1.209024e+002
      vertex -3.207107e-001 -3.007716e+000  1.207940e+002
    endloop
  endfacet
  facet normal  7.071061e-001 -7.071075e-001  8.199545e-006
    outer loop
      vertex  4.949747e-001 -2.192031e+000  1.209405e+002
      vertex -3.207107e-001 -3.007716e+000  1.207940e+002
      vertex  2.764787e+000  7.778174e-002  1.213091e+002
    endloop
  endfacet
  facet normal  7.071068e-001 -7.071068e-001  0.000000e+000
    outer loop
      vertex  4.949747e-001 -2.192031e+000  1.209405e+002
      vertex  2.764787e+000  7.778174e-002  1.213091e+002
      vertex  4.949747e-001 -2.192031e+000  1.242889e+002
    endloop
  endfacet
  facet normal  7.071067e-001 -7.071068e-001  0.000000e+000
    outer loop
      vertex -4.242641e-001 -3.111270e+000  1.147405e+002
      vertex -1.863751e+000 -4.550756e+000  1.147405e+002
      vertex -1.863751e+000 -4.550756e+000  1.112405e+002
    endloop
  endfacet
  facet normal  7.071068e-001 -7.071068e-001 -2.535506e-008
    outer loop
      vertex -4.242641e-001 -3.111270e+000  1.147405e+002
      vertex -1.863751e+000 -4.550756e+000  1.112405e+002
      vertex  1.343503e+000 -1.343503e+000  1.116314e+002
    endloop
  endfacet
  facet normal  7.071068e-001 -7.071068e-001  0.000000e+000
    outer loop
      vertex -4.242641e-001 -3.111270e+000  1.147405e+002
      vertex  1.343503e+000 -1.343503e+000  1.116314e+002
      vertex  1.343503e+000 -1.343503e+000  1.185819e+002
    endloop
  endfacet
  facet normal  7.071068e-001 -7.071068e-001  0.000000e+000
    outer loop
      vertex -4.242641e-001 -3.111270e+000  1.147405e+002
      vertex  1.343503e+000 -1.343503e+000  1.185819e+002
      vertex -4.242641e-001 -3.111270e+000  1.204405e+002
    endloop
  endfacet
  facet normal  7.071067e-001 -7.071068e-001  5.781434e-007
    outer loop
      vertex -3.207107e-001 -3.007716e+000  1.207940e+002
      vertex -3.973514e-001 -3.084357e+000  1.206318e+002
      vertex  2.764787e+000  7.778174e-002  1.213091e+002
    endloop
  endfacet
  facet normal  7.071068e-001 -7.071068e-001  0.000000e+000
    outer loop
      vertex  2.764787e+000  7.778174e-002  1.213091e+002
      vertex -3.973514e-001 -3.084357e+000  1.206318e+002
      vertex  2.764787e+000  7.778174e-002  1.205919e+002
    endloop
  endfacet
  facet normal  7.071068e-001 -7.071068e-001  1.108781e-007
    outer loop
      vertex -3.973514e-001 -3.084357e+000  1.206318e+002
      vertex -4.242641e-001 -3.111270e+000  1.204405e+002
      vertex  2.764787e+000  7.778174e-002  1.205919e+002
    endloop
  endfacet
  facet normal  7.071068e-001 -7.071068e-001  4.339467e-008
    outer loop
      vertex  2.764787e+000  7.778174e-002  1.205919e+002
      vertex -4.242641e-001 -3.111270e+000  1.204405e+002
      vertex  1.343503e+000 -1.343503e+000  1.185819e+002
    endloop
  endfacet
  facet normal  7.071068e-001 -7.071068e-001  0.000000e+000
    outer loop
      vertex -1.863751e+000 -4.550756e+000  1.112405e+002
      vertex -1.414214e-001 -2.828427e+000  1.112405e+002
      vertex  1.343503e+000 -1.343503e+000  1.116314e+002
    endloop
  endfacet
  facet normal  7.071068e-001 -7.071068e-001  0.000000e+000
    outer loop
      vertex  1.343503e+000 -1.343503e+000  1.116314e+002
      vertex -1.414214e-001 -2.828427e+000  1.112405e+002
      vertex -1.414214e-001 -2.828427e+000  1.092687e+002
    endloop
  endfacet
  facet normal  7.071068e-001 -7.071068e-001  0.000000e+000
    outer loop
      vertex  1.343503e+000 -1.343503e+000  1.116314e+002
      vertex -1.414214e-001 -2.828427e+000  1.092687e+002
      vertex  2.764787e+000  7.778174e-002  1.081500e+002
    endloop
  endfacet
  facet normal  7.071068e-001 -7.071068e-001  2.763696e-008
    outer loop
      vertex  2.764787e+000  7.778174e-002  1.081500e+002
      vertex -1.414214e-001 -2.828427e+000  1.092687e+002
      vertex  1.335919e+000 -1.351087e+000  1.056500e+002
    endloop
  endfacet
  facet normal  7.071068e-001 -7.071068e-001  0.000000e+000
    outer loop
      vertex  2.764787e+000  7.778174e-002  1.081500e+002
      vertex  1.335919e+000 -1.351087e+000  1.056500e+002
      vertex  2.764787e+000  7.778174e-002  1.056500e+002
    endloop
  endfacet
  facet normal -7.071068e-001  7.071068e-001  0.000000e+000
    outer loop
      vertex -2.192031e+000  4.949747e-001  1.242889e+002
      vertex  1.350574e+000  4.037580e+000  1.248952e+002
      vertex  1.350574e+000  4.037580e+000  1.243952e+002
    endloop
  endfacet
  facet normal -7.071068e-001  7.071068e-001  0.000000e+000
    outer loop
      vertex -2.192031e+000  4.949747e-001  1.242889e+002
      vertex  1.350574e+000  4.037580e+000  1.243952e+002
      vertex  1.934461e+000  4.621467e+000  1.243952e+002
    endloop
  endfacet
  facet normal -7.071067e-001  7.071067e-001  0.000000e+000
    outer loop
      vertex -2.192031e+000  4.949747e-001  1.242889e+002
      vertex  1.934461e+000  4.621467e+000  1.243952e+002
      vertex  1.934461e+000  4.621467e+000  1.232674e+002
    endloop
  endfacet
  facet normal -7.071068e-001  7.071068e-001  0.000000e+000
    outer loop
      vertex -2.192031e+000  4.949747e-001  1.242889e+002
      vertex  1.934461e+000  4.621467e+000  1.232674e+002
      vertex  1.934461e+000  4.621467e+000  1.222405e+002
    endloop
  endfacet
  facet normal -7.071068e-001  7.071068e-001  1.382418e-007
    outer loop
      vertex -2.192031e+000  4.949747e-001  1.242889e+002
      vertex  1.934461e+000  4.621467e+000  1.222405e+002
      vertex -5.222182e-001  2.164788e+000  1.222405e+002
    endloop
  endfacet
  facet normal -7.071065e-001  7.071071e-001  5.356771e-007
    outer loop
      vertex -2.192031e+000  4.949747e-001  1.242889e+002
      vertex -5.222182e-001  2.164788e+000  1.222405e+002
      vertex  3.636039e-002  2.723366e+000  1.214505e+002
    endloop
  endfacet
  facet normal -7.071102e-001  7.071033e-001 -5.390657e-006
    outer loop
      vertex -2.192031e+000  4.949747e-001  1.242889e+002
      vertex  3.636039e-002  2.723366e+000  1.214505e+002
      vertex  6.701668e-002  2.754022e+000  1.213856e+002
    endloop
  endfacet
  facet normal -7.071067e-001  7.071069e-001  1.680616e-007
    outer loop
      vertex -2.192031e+000  4.949747e-001  1.242889e+002
      vertex  6.701668e-002  2.754022e+000  1.213856e+002
      vertex  7.778174e-002  2.764787e+000  1.213091e+002
    endloop
  endfacet
  facet normal -7.071068e-001  7.071068e-001  0.000000e+000
    outer loop
      vertex -2.192031e+000  4.949747e-001  1.209405e+002
      vertex -2.192031e+000  4.949747e-001  1.242889e+002
      vertex  7.778174e-002  2.764787e+000  1.213091e+002
    endloop
  endfacet
  facet normal -7.071068e-001  7.071068e-001  0.000000e+000
    outer loop
      vertex -2.192031e+000  4.949747e-001  1.209405e+002
      vertex  7.778174e-002  2.764787e+000  1.213091e+002
      vertex -3.007716e+000 -3.207107e-001  1.207940e+002
    endloop
  endfacet
  facet normal -7.071067e-001  7.071068e-001  2.250463e-007
    outer loop
      vertex -2.192031e+000  4.949747e-001  1.209405e+002
      vertex -3.007716e+000 -3.207107e-001  1.207940e+002
      vertex -2.893015e+000 -2.060097e-001  1.209024e+002
    endloop
  endfacet
  facet normal -7.071067e-001  7.071069e-001 -1.636967e-006
    outer loop
      vertex -2.192031e+000  4.949747e-001  1.209405e+002
      vertex -2.893015e+000 -2.060097e-001  1.209024e+002
      vertex -2.757716e+000 -7.071068e-002  1.209405e+002
    endloop
  endfacet
  facet normal -7.071068e-001  7.071068e-001  0.000000e+000
    outer loop
      vertex -3.111270e+000 -4.242641e-001  1.147405e+002
      vertex -3.111270e+000 -4.242641e-001  1.204405e+002
      vertex -1.343503e+000  1.343503e+000  1.185819e+002
    endloop
  endfacet
  facet normal -7.071068e-001  7.071068e-001  0.000000e+000
    outer loop
      vertex -3.111270e+000 -4.242641e-001  1.147405e+002
      vertex -1.343503e+000  1.343503e+000  1.185819e+002
      vertex -1.343503e+000  1.343503e+000  1.116314e+002
    endloop
  endfacet
  facet normal -7.071068e-001  7.071068e-001 -2.535506e-008
    outer loop
      vertex -3.111270e+000 -4.242641e-001  1.147405e+002
      vertex -1.343503e+000  1.343503e+000  1.116314e+002
      vertex -4.550756e+000 -1.863751e+000  1.112405e+002
    endloop
  endfacet
  facet normal -7.071068e-001  7.071067e-001  0.000000e+000
    outer loop
      vertex -3.111270e+000 -4.242641e-001  1.147405e+002
      vertex -4.550756e+000 -1.863751e+000  1.112405e+002
      vertex -4.550756e+000 -1.863751e+000  1.147405e+002
    endloop
  endfacet
  facet normal -7.071068e-001  7.071068e-001  0.000000e+000
    outer loop
      vertex -3.007716e+000 -3.207107e-001  1.207940e+002
      vertex  7.778174e-002  2.764787e+000  1.213091e+002
      vertex -3.084357e+000 -3.973514e-001  1.206318e+002
    endloop
  endfacet
  facet normal -7.071068e-001  7.071068e-001  0.000000e+000
    outer loop
      vertex -3.084357e+000 -3.973514e-001  1.206318e+002
      vertex  7.778174e-002  2.764787e+000  1.213091e+002
      vertex  7.778174e-002  2.764787e+000  1.205919e+002
    endloop
  endfacet
  facet normal -7.071068e-001  7.071068e-001  0.000000e+000
    outer loop
      vertex -3.084357e+000 -3.973514e-001  1.206318e+002
      vertex  7.778174e-002  2.764787e+000  1.205919e+002
      vertex -3.111270e+000 -4.242641e-001  1.204405e+002
    endloop
  endfacet
  facet normal -7.071068e-001  7.071068e-001 -4.339467e-008
    outer loop
      vertex -3.111270e+000 -4.242641e-001  1.204405e+002
      vertex  7.778174e-002  2.764787e+000  1.205919e+002
      vertex -1.343503e+000  1.343503e+000  1.185819e+002
    endloop
  endfacet
  facet normal -7.071068e-001  7.071068e-001  0.000000e+000
    outer loop
      vertex  7.778174e-002  2.764787e+000  1.056500e+002
      vertex -1.351087e+000  1.335919e+000  1.056500e+002
      vertex  7.778174e-002  2.764787e+000  1.081500e+002
    endloop
  endfacet
  facet normal -7.071068e-001  7.071068e-001  2.763696e-008
    outer loop
      vertex  7.778174e-002  2.764787e+000  1.081500e+002
      vertex -1.351087e+000  1.335919e+000  1.056500e+002
      vertex -2.828427e+000 -1.414214e-001  1.092687e+002
    endloop
  endfacet
  facet normal -7.071068e-001  7.071068e-001  0.000000e+000
    outer loop
      vertex  7.778174e-002  2.764787e+000  1.081500e+002
      vertex -2.828427e+000 -1.414214e-001  1.092687e+002
      vertex -1.343503e+000  1.343503e+000  1.116314e+002
    endloop
  endfacet
  facet normal -7.071068e-001  7.071068e-001  0.000000e+000
    outer loop
      vertex -1.343503e+000  1.343503e+000  1.116314e+002
      vertex -2.828427e+000 -1.414214e-001  1.092687e+002
      vertex -2.828427e+000 -1.414214e-001  1.112405e+002
    endloop
  endfacet
  facet normal -7.071068e-001  7.071068e-001  0.000000e+000
    outer loop
      vertex -1.343503e+000  1.343503e+000  1.116314e+002
      vertex -2.828427e+000 -1.414214e-001  1.112405e+002
      vertex -4.550756e+000 -1.863751e+000  1.112405e+002
    endloop
  endfacet
  facet normal -6.123725e-001 -6.123725e-001 -5.000000e-001
    outer loop
      vertex  1.335919e+000 -1.351087e+000  1.056500e+002
      vertex -1.414214e-001 -2.828427e+000  1.092687e+002
      vertex -1.351087e+000  1.335919e+000  1.056500e+002
    endloop
  endfacet
  facet normal -6.123725e-001 -6.123725e-001 -5.000000e-001
    outer loop
      vertex -1.351087e+000  1.335919e+000  1.056500e+002
      vertex -1.414214e-001 -2.828427e+000  1.092687e+002
      vertex -2.828427e+000 -1.414214e-001  1.092687e+002
    endloop
  endfacet
  facet normal  7.071068e-001  7.071068e-001  -0.000000e+000
    outer loop
      vertex  1.343503e+000 -1.343503e+000  1.185819e+002
      vertex  1.343503e+000 -1.343503e+000  1.116314e+002
      vertex -1.343503e+000  1.343503e+000  1.185819e+002
    endloop
  endfacet
  facet normal  7.071068e-001  7.071068e-001  0.000000e+000
    outer loop
      vertex -1.343503e+000  1.343503e+000  1.185819e+002
      vertex  1.343503e+000 -1.343503e+000  1.116314e+002
      vertex -1.343503e+000  1.343503e+000  1.116314e+002
    endloop
  endfacet
  facet normal  7.071068e-001  7.071068e-001  -0.000000e+000
    outer loop
      vertex  2.764787e+000  7.778174e-002  1.081500e+002
      vertex  2.764787e+000  7.778174e-002  1.056500e+002
      vertex  7.778174e-002  2.764787e+000  1.081500e+002
    endloop
  endfacet
  facet normal  7.071068e-001  7.071068e-001  0.000000e+000
    outer loop
      vertex  7.778174e-002  2.764787e+000  1.081500e+002
      vertex  2.764787e+000  7.778174e-002  1.056500e+002
      vertex  7.778174e-002  2.764787e+000  1.056500e+002
    endloop
  endfacet
  facet normal  6.123725e-001  6.123725e-001  5.000000e-001
    outer loop
      vertex  1.343503e+000 -1.343503e+000  1.116314e+002
      vertex  2.764787e+000  7.778174e-002  1.081500e+002
      vertex -1.343503e+000  1.343503e+000  1.116314e+002
    endloop
  endfacet
  facet normal  6.123725e-001  6.123724e-001  5.000000e-001
    outer loop
      vertex -1.343503e+000  1.343503e+000  1.116314e+002
      vertex  2.764787e+000  7.778174e-002  1.081500e+002
      vertex  7.778174e-002  2.764787e+000  1.081500e+002
    endloop
  endfacet
  facet normal  0.000000e+000  -0.000000e+000  9.999999e-001
    outer loop
      vertex  1.491995e+000  3.896158e+000  1.245952e+002
      vertex  3.896158e+000  1.491995e+000  1.245952e+002
      vertex  4.534525e+000  2.130363e+000  1.245952e+002
    endloop
  endfacet
  facet normal  0.000000e+000  0.000000e+000  1.000000e+000
    outer loop
      vertex  1.491995e+000  3.896158e+000  1.245952e+002
      vertex  4.534525e+000  2.130363e+000  1.245952e+002
      vertex  4.386692e+000  2.420249e+000  1.245952e+002
    endloop
  endfacet
  facet normal  0.000000e+000  0.000000e+000  1.000000e+000
    outer loop
      vertex  1.491995e+000  3.896158e+000  1.245952e+002
      vertex  4.386692e+000  2.420249e+000  1.245952e+002
      vertex  4.184689e+000  2.754720e+000  1.245952e+002
    endloop
  endfacet
  facet normal  0.000000e+000  0.000000e+000  1.000000e+000
    outer loop
      vertex  1.491995e+000  3.896158e+000  1.245952e+002
      vertex  4.184689e+000  2.754720e+000  1.245952e+002
      vertex  4.071186e+000  2.919855e+000  1.245952e+002
    endloop
  endfacet
  facet normal  0.000000e+000  0.000000e+000  1.000000e+000
    outer loop
      vertex  1.491995e+000  3.896158e+000  1.245952e+002
      vertex  4.071186e+000  2.919855e+000  1.245952e+002
      vertex  3.821351e+000  3.239970e+000  1.245952e+002
    endloop
  endfacet
  facet normal  0.000000e+000  0.000000e+000  1.000000e+000
    outer loop
      vertex  1.491995e+000  3.896158e+000  1.245952e+002
      vertex  3.821351e+000  3.239970e+000  1.245952e+002
      vertex  3.542605e+000  3.542605e+000  1.245952e+002
    endloop
  endfacet
  facet normal  0.000000e+000  0.000000e+000  9.999999e-001
    outer loop
      vertex  1.491995e+000  3.896158e+000  1.245952e+002
      vertex  3.542605e+000  3.542605e+000  1.245952e+002
      vertex  3.239970e+000  3.821351e+000  1.245952e+002
    endloop
  endfacet
  facet normal  0.000000e+000  0.000000e+000  1.000000e+000
    outer loop
      vertex  1.491995e+000  3.896158e+000  1.245952e+002
      vertex  3.239970e+000  3.821351e+000  1.245952e+002
      vertex  2.919855e+000  4.071186e+000  1.245952e+002
    endloop
  endfacet
  facet normal  0.000000e+000  0.000000e+000  9.999999e-001
    outer loop
      vertex  1.491995e+000  3.896158e+000  1.245952e+002
      vertex  2.919855e+000  4.071186e+000  1.245952e+002
      vertex  2.754720e+000  4.184689e+000  1.245952e+002
    endloop
  endfacet
  facet normal  0.000000e+000  0.000000e+000  1.000000e+000
    outer loop
      vertex  1.491995e+000  3.896158e+000  1.245952e+002
      vertex  2.754720e+000  4.184689e+000  1.245952e+002
      vertex  2.420249e+000  4.386692e+000  1.245952e+002
    endloop
  endfacet
  facet normal  0.000000e+000  0.000000e+000  9.999999e-001
    outer loop
      vertex  1.491995e+000  3.896158e+000  1.245952e+002
      vertex  2.420249e+000  4.386692e+000  1.245952e+002
      vertex  2.130363e+000  4.534525e+000  1.245952e+002
    endloop
  endfacet
  facet normal  5.169777e-001  8.559973e-001  1.655433e-003
    outer loop
      vertex  2.500635e+000  4.341304e+000  1.229605e+002
      vertex  2.420249e+000  4.386692e+000  1.245952e+002
      vertex  2.754720e+000  4.184689e+000  1.245952e+002
    endloop
  endfacet
  facet normal  5.277966e-001  8.493706e-001 -6.609901e-004
    outer loop
      vertex  2.754720e+000  4.184689e+000  1.245952e+002
      vertex  2.786609e+000  4.163522e+000  1.228587e+002
      vertex  2.500635e+000  4.341304e+000  1.229605e+002
    endloop
  endfacet
  facet normal  4.142415e-001  9.101670e-001  -0.000000e+000
    outer loop
      vertex  2.214284e+000  4.494112e+000  1.230962e+002
      vertex  1.934461e+000  4.621467e+000  1.232674e+002
      vertex  1.934461e+000  4.621467e+000  1.243952e+002
    endloop
  endfacet
  facet normal  4.066898e-001  9.135641e-001 -1.959763e-003
    outer loop
      vertex  2.214284e+000  4.494112e+000  1.230962e+002
      vertex  1.934461e+000  4.621467e+000  1.243952e+002
      vertex  1.936945e+000  4.620429e+000  1.244267e+002
    endloop
  endfacet
  facet normal  3.984557e-001  9.171788e-001 -4.019335e-003
    outer loop
      vertex  2.214284e+000  4.494112e+000  1.230962e+002
      vertex  1.936945e+000  4.620429e+000  1.244267e+002
      vertex  1.970903e+000  4.606044e+000  1.245107e+002
    endloop
  endfacet
  facet normal  4.025454e-001  9.153946e-001 -3.174449e-003
    outer loop
      vertex  2.214284e+000  4.494112e+000  1.230962e+002
      vertex  1.970903e+000  4.606044e+000  1.245107e+002
      vertex  2.039414e+000  4.576129e+000  1.245719e+002
    endloop
  endfacet
  facet normal  4.162409e-001  9.092535e-001 -1.210225e-003
    outer loop
      vertex  2.214284e+000  4.494112e+000  1.230962e+002
      vertex  2.039414e+000  4.576129e+000  1.245719e+002
      vertex  2.130363e+000  4.534525e+000  1.245952e+002
    endloop
  endfacet
  facet normal  4.543048e-001  8.908451e-001  1.417042e-003
    outer loop
      vertex  2.214284e+000  4.494112e+000  1.230962e+002
      vertex  2.130363e+000  4.534525e+000  1.245952e+002
      vertex  2.420249e+000  4.386692e+000  1.245952e+002
    endloop
  endfacet
  facet normal  4.702899e-001  8.825110e-001 -1.376535e-003
    outer loop
      vertex  2.214284e+000  4.494112e+000  1.230962e+002
      vertex  2.420249e+000  4.386692e+000  1.245952e+002
      vertex  2.500635e+000  4.341304e+000  1.229605e+002
    endloop
  endfacet
  facet normal  6.529691e-001  7.573843e-001 -7.320867e-004
    outer loop
      vertex  3.363850e+000  3.712764e+000  1.227477e+002
      vertex  3.177417e+000  3.873515e+000  1.227696e+002
      vertex  3.239970e+000  3.821351e+000  1.245952e+002
    endloop
  endfacet
  facet normal  6.153159e-001  7.882793e-001  1.440841e-003
    outer loop
      vertex  3.239970e+000  3.821351e+000  1.245952e+002
      vertex  3.177417e+000  3.873515e+000  1.227696e+002
      vertex  2.984504e+000  4.024032e+000  1.228064e+002
    endloop
  endfacet
  facet normal  6.152536e-001  7.883280e-001  1.455238e-003
    outer loop
      vertex  3.239970e+000  3.821351e+000  1.245952e+002
      vertex  2.984504e+000  4.024032e+000  1.228064e+002
      vertex  2.919855e+000  4.071186e+000  1.245952e+002
    endloop
  endfacet
  facet normal  5.759990e-001  8.174501e-001 -7.311707e-004
    outer loop
      vertex  2.919855e+000  4.071186e+000  1.245952e+002
      vertex  2.984504e+000  4.024032e+000  1.228064e+002
      vertex  2.786609e+000  4.163522e+000  1.228587e+002
    endloop
  endfacet
  facet normal  5.664359e-001  8.241057e-001  3.565157e-004
    outer loop
      vertex  2.919855e+000  4.071186e+000  1.245952e+002
      vertex  2.786609e+000  4.163522e+000  1.228587e+002
      vertex  2.754720e+000  4.184689e+000  1.245952e+002
    endloop
  endfacet
  facet normal  6.894761e-001  7.243085e-001  0.000000e+000
    outer loop
      vertex  3.542605e+000  3.542605e+000  1.227405e+002
      vertex  3.363850e+000  3.712764e+000  1.227477e+002
      vertex  3.542605e+000  3.542605e+000  1.245952e+002
    endloop
  endfacet
  facet normal  6.774783e-001  7.355394e-001  2.195238e-003
    outer loop
      vertex  3.542605e+000  3.542605e+000  1.245952e+002
      vertex  3.363850e+000  3.712764e+000  1.227477e+002
      vertex  3.239970e+000  3.821351e+000  1.245952e+002
    endloop
  endfacet
  facet normal  7.071112e-001  7.071023e-001  -0.000000e+000
    outer loop
      vertex  4.037580e+000  1.350574e+000  1.248952e+002
      vertex  4.037580e+000  1.350574e+000  1.243952e+002
      vertex  4.018633e+000  1.369521e+000  1.244952e+002
    endloop
  endfacet
  facet normal  7.071078e-001  7.071058e-001  3.227162e-007
    outer loop
      vertex  4.037580e+000  1.350574e+000  1.248952e+002
      vertex  4.018633e+000  1.369521e+000  1.244952e+002
      vertex  3.966869e+000  1.421285e+000  1.245684e+002
    endloop
  endfacet
  facet normal  7.071070e-001  7.071066e-001  7.151779e-007
    outer loop
      vertex  4.037580e+000  1.350574e+000  1.248952e+002
      vertex  3.966869e+000  1.421285e+000  1.245684e+002
      vertex  3.896158e+000  1.491995e+000  1.245952e+002
    endloop
  endfacet
  facet normal  7.071068e-001  7.071068e-001  8.429284e-007
    outer loop
      vertex  4.037580e+000  1.350574e+000  1.248952e+002
      vertex  3.896158e+000  1.491995e+000  1.245952e+002
      vertex  1.491995e+000  3.896158e+000  1.245952e+002
    endloop
  endfacet
  facet normal  7.071068e-001  7.071068e-001  8.577166e-007
    outer loop
      vertex  4.037580e+000  1.350574e+000  1.248952e+002
      vertex  1.491995e+000  3.896158e+000  1.245952e+002
      vertex  1.350574e+000  4.037580e+000  1.248952e+002
    endloop
  endfacet
  facet normal  7.071066e-001  7.071070e-001  7.151779e-007
    outer loop
      vertex  1.350574e+000  4.037580e+000  1.248952e+002
      vertex  1.491995e+000  3.896158e+000  1.245952e+002
      vertex  1.421285e+000  3.966869e+000  1.245684e+002
    endloop
  endfacet
  facet normal  7.071058e-001  7.071078e-001  3.227162e-007
    outer loop
      vertex  1.350574e+000  4.037580e+000  1.248952e+002
      vertex  1.421285e+000  3.966869e+000  1.245684e+002
      vertex  1.369521e+000  4.018633e+000  1.244952e+002
    endloop
  endfacet
  facet normal  7.071023e-001  7.071112e-001  0.000000e+000
    outer loop
      vertex  1.350574e+000  4.037580e+000  1.248952e+002
      vertex  1.369521e+000  4.018633e+000  1.244952e+002
      vertex  1.350574e+000  4.037580e+000  1.243952e+002
    endloop
  endfacet
  facet normal -7.049026e-001  7.049026e-001  7.889614e-002
    outer loop
      vertex  1.934461e+000  4.621467e+000  1.243952e+002
      vertex  1.350574e+000  4.037580e+000  1.243952e+002
      vertex  1.936945e+000  4.620429e+000  1.244267e+002
    endloop
  endfacet
  facet normal -6.879033e-001  6.780882e-001  2.588152e-001
    outer loop
      vertex  1.936945e+000  4.620429e+000  1.244267e+002
      vertex  1.350574e+000  4.037580e+000  1.243952e+002
      vertex  1.369521e+000  4.018633e+000  1.244952e+002
    endloop
  endfacet
  facet normal -6.522626e-001  6.578839e-001  3.764864e-001
    outer loop
      vertex  1.936945e+000  4.620429e+000  1.244267e+002
      vertex  1.369521e+000  4.018633e+000  1.244952e+002
      vertex  1.970903e+000  4.606044e+000  1.245107e+002
    endloop
  endfacet
  facet normal -4.704407e-001  4.618735e-001  7.519032e-001
    outer loop
      vertex  1.970903e+000  4.606044e+000  1.245107e+002
      vertex  1.369521e+000  4.018633e+000  1.244952e+002
      vertex  2.039414e+000  4.576129e+000  1.245719e+002
    endloop
  endfacet
  facet normal -4.983817e-001  5.016083e-001  7.071102e-001
    outer loop
      vertex  2.039414e+000  4.576129e+000  1.245719e+002
      vertex  1.369521e+000  4.018633e+000  1.244952e+002
      vertex  1.421285e+000  3.966869e+000  1.245684e+002
    endloop
  endfacet
  facet normal -1.717307e-001  1.687007e-001  9.705918e-001
    outer loop
      vertex  2.039414e+000  4.576129e+000  1.245719e+002
      vertex  1.421285e+000  3.966869e+000  1.245684e+002
      vertex  2.130363e+000  4.534525e+000  1.245952e+002
    endloop
  endfacet
  facet normal -1.830096e-001  1.830097e-001  9.659269e-001
    outer loop
      vertex  2.130363e+000  4.534525e+000  1.245952e+002
      vertex  1.421285e+000  3.966869e+000  1.245684e+002
      vertex  1.491995e+000  3.896158e+000  1.245952e+002
    endloop
  endfacet
  facet normal  8.559974e-001  5.169775e-001  1.655296e-003
    outer loop
      vertex  4.386692e+000  2.420249e+000  1.245952e+002
      vertex  4.341310e+000  2.500626e+000  1.229605e+002
      vertex  4.184689e+000  2.754720e+000  1.245952e+002
    endloop
  endfacet
  facet normal  8.825115e-001  4.702889e-001 -1.376376e-003
    outer loop
      vertex  4.494115e+000  2.214279e+000  1.230962e+002
      vertex  4.341310e+000  2.500626e+000  1.229605e+002
      vertex  4.386692e+000  2.420249e+000  1.245952e+002
    endloop
  endfacet
  facet normal  8.908452e-001  4.543048e-001  1.417093e-003
    outer loop
      vertex  4.494115e+000  2.214279e+000  1.230962e+002
      vertex  4.386692e+000  2.420249e+000  1.245952e+002
      vertex  4.534525e+000  2.130363e+000  1.245952e+002
    endloop
  endfacet
  facet normal  9.104880e-001  4.135331e-001 -1.394907e-003
    outer loop
      vertex  4.621467e+000  1.934461e+000  1.232674e+002
      vertex  4.494115e+000  2.214279e+000  1.230962e+002
      vertex  4.534525e+000  2.130363e+000  1.245952e+002
    endloop
  endfacet
  facet normal  9.066131e-001  4.219531e-001 -2.890906e-003
    outer loop
      vertex  4.621467e+000  1.934461e+000  1.232674e+002
      vertex  4.534525e+000  2.130363e+000  1.245952e+002
      vertex  4.549788e+000  2.097549e+000  1.245923e+002
    endloop
  endfacet
  facet normal  9.123175e-001  4.094822e-001 -1.047181e-003
    outer loop
      vertex  4.621467e+000  1.934461e+000  1.232674e+002
      vertex  4.549788e+000  2.097549e+000  1.245923e+002
      vertex  4.592533e+000  2.002196e+000  1.245458e+002
    endloop
  endfacet
  facet normal  9.186444e-001  3.950853e-001 -1.411523e-004
    outer loop
      vertex  4.621467e+000  1.934461e+000  1.232674e+002
      vertex  4.592533e+000  2.002196e+000  1.245458e+002
      vertex  4.612571e+000  1.955581e+000  1.244849e+002
    endloop
  endfacet
  facet normal  9.215813e-001  3.881854e-001  0.000000e+000
    outer loop
      vertex  4.621467e+000  1.934461e+000  1.232674e+002
      vertex  4.612571e+000  1.955581e+000  1.244849e+002
      vertex  4.621467e+000  1.934461e+000  1.243952e+002
    endloop
  endfacet
  facet normal  7.573853e-001  6.529679e-001 -7.321451e-004
    outer loop
      vertex  3.873521e+000  3.177411e+000  1.227696e+002
      vertex  3.712766e+000  3.363847e+000  1.227477e+002
      vertex  3.821351e+000  3.239970e+000  1.245952e+002
    endloop
  endfacet
  facet normal  7.242293e-001  6.895493e-001  3.669349e-003
    outer loop
      vertex  3.821351e+000  3.239970e+000  1.245952e+002
      vertex  3.712766e+000  3.363847e+000  1.227477e+002
      vertex  3.542605e+000  3.542605e+000  1.227405e+002
    endloop
  endfacet
  facet normal  7.355412e-001  6.774800e-001  -0.000000e+000
    outer loop
      vertex  3.821351e+000  3.239970e+000  1.245952e+002
      vertex  3.542605e+000  3.542605e+000  1.227405e+002
      vertex  3.542605e+000  3.542605e+000  1.245952e+002
    endloop
  endfacet
  facet normal  8.493719e-001  5.277944e-001 -6.608160e-004
    outer loop
      vertex  4.341310e+000  2.500626e+000  1.229605e+002
      vertex  4.163531e+000  2.786595e+000  1.228587e+002
      vertex  4.184689e+000  2.754720e+000  1.245952e+002
    endloop
  endfacet
  facet normal  8.172843e-001  5.762343e-001  6.192690e-004
    outer loop
      vertex  4.184689e+000  2.754720e+000  1.245952e+002
      vertex  4.163531e+000  2.786595e+000  1.228587e+002
      vertex  4.024040e+000  2.984494e+000  1.228065e+002
    endloop
  endfacet
  facet normal  8.241048e-001  5.664360e-001 -1.251874e-003
    outer loop
      vertex  4.184689e+000  2.754720e+000  1.245952e+002
      vertex  4.024040e+000  2.984494e+000  1.228065e+002
      vertex  4.071186e+000  2.919855e+000  1.245952e+002
    endloop
  endfacet
  facet normal  7.882785e-001  6.153170e-001  1.458757e-003
    outer loop
      vertex  4.071186e+000  2.919855e+000  1.245952e+002
      vertex  4.024040e+000  2.984494e+000  1.228065e+002
      vertex  3.873521e+000  3.177411e+000  1.227696e+002
    endloop
  endfacet
  facet normal  7.883279e-001  6.152536e-001  1.444458e-003
    outer loop
      vertex  4.071186e+000  2.919855e+000  1.245952e+002
      vertex  3.873521e+000  3.177411e+000  1.227696e+002
      vertex  3.821351e+000  3.239970e+000  1.245952e+002
    endloop
  endfacet
  facet normal -8.496023e-002 -8.496023e-002  9.927555e-001
    outer loop
      vertex -2.192031e+000  4.949747e-001  1.242889e+002
      vertex  4.949747e-001 -2.192031e+000  1.242889e+002
      vertex  1.350574e+000  4.037580e+000  1.248952e+002
    endloop
  endfacet
  facet normal -8.496023e-002 -8.496023e-002  9.927555e-001
    outer loop
      vertex  1.350574e+000  4.037580e+000  1.248952e+002
      vertex  4.949747e-001 -2.192031e+000  1.242889e+002
      vertex  4.037580e+000  1.350574e+000  1.248952e+002
    endloop
  endfacet
  facet normal  6.830122e-001 -6.830122e-001  2.588214e-001
    outer loop
      vertex  4.037580e+000  1.350574e+000  1.243952e+002
      vertex  4.621467e+000  1.934461e+000  1.243952e+002
      vertex  4.018633e+000  1.369521e+000  1.244952e+002
    endloop
  endfacet
  facet normal  6.854584e-001 -6.906036e-001  2.306802e-001
    outer loop
      vertex  4.018633e+000  1.369521e+000  1.244952e+002
      vertex  4.621467e+000  1.934461e+000  1.243952e+002
      vertex  4.612571e+000  1.955581e+000  1.244849e+002
    endloop
  endfacet
  facet normal  5.028489e-001 -4.971355e-001  7.071062e-001
    outer loop
      vertex  4.018633e+000  1.369521e+000  1.244952e+002
      vertex  4.612571e+000  1.955581e+000  1.244849e+002
      vertex  3.966869e+000  1.421285e+000  1.245684e+002
    endloop
  endfacet
  facet normal  5.486215e-001 -5.669331e-001  6.144926e-001
    outer loop
      vertex  3.966869e+000  1.421285e+000  1.245684e+002
      vertex  4.612571e+000  1.955581e+000  1.244849e+002
      vertex  4.592533e+000  2.002196e+000  1.245458e+002
    endloop
  endfacet
  facet normal  3.114717e-001 -3.003242e-001  9.015491e-001
    outer loop
      vertex  3.966869e+000  1.421285e+000  1.245684e+002
      vertex  4.592533e+000  2.002196e+000  1.245458e+002
      vertex  4.549788e+000  2.097549e+000  1.245923e+002
    endloop
  endfacet
  facet normal  6.024288e-002 -6.024286e-002  9.963642e-001
    outer loop
      vertex  4.534525e+000  2.130363e+000  1.245952e+002
      vertex  3.896158e+000  1.491995e+000  1.245952e+002
      vertex  4.549788e+000  2.097549e+000  1.245923e+002
    endloop
  endfacet
  facet normal  1.782481e-001 -1.877629e-001  9.659051e-001
    outer loop
      vertex  4.549788e+000  2.097549e+000  1.245923e+002
      vertex  3.896158e+000  1.491995e+000  1.245952e+002
      vertex  3.966869e+000  1.421285e+000  1.245684e+002
    endloop
  endfacet
  facet normal  0.000000e+000  0.000000e+000  9.999999e-001
    outer loop
      vertex -7.071068e-002 -2.757716e+000  1.209405e+002
      vertex  4.949747e-001 -2.192031e+000  1.209405e+002
      vertex -2.757716e+000 -7.071068e-002  1.209405e+002
    endloop
  endfacet
  facet normal  -0.000000e+000  0.000000e+000  1.000000e+000
    outer loop
      vertex -2.757716e+000 -7.071068e-002  1.209405e+002
      vertex  4.949747e-001 -2.192031e+000  1.209405e+002
      vertex -2.192031e+000  4.949747e-001  1.209405e+002
    endloop
  endfacet
  facet normal -7.071068e-001 -7.071068e-001  -0.000000e+000
    outer loop
      vertex -4.242641e-001 -3.111270e+000  1.147405e+002
      vertex -4.242641e-001 -3.111270e+000  1.204405e+002
      vertex -3.111270e+000 -4.242641e-001  1.147405e+002
    endloop
  endfacet
  facet normal -7.071068e-001 -7.071068e-001  0.000000e+000
    outer loop
      vertex -3.111270e+000 -4.242641e-001  1.147405e+002
      vertex -4.242641e-001 -3.111270e+000  1.204405e+002
      vertex -3.111270e+000 -4.242641e-001  1.204405e+002
    endloop
  endfacet
  facet normal -1.379596e-001 -1.379596e-001  9.807825e-001
    outer loop
      vertex -7.071068e-002 -2.757716e+000  1.209405e+002
      vertex -2.757716e+000 -7.071068e-002  1.209405e+002
      vertex -2.060097e-001 -2.893015e+000  1.209024e+002
    endloop
  endfacet
  facet normal -1.379596e-001 -1.379596e-001  9.807825e-001
    outer loop
      vertex -2.060097e-001 -2.893015e+000  1.209024e+002
      vertex -2.757716e+000 -7.071068e-002  1.209405e+002
      vertex -2.893015e+000 -2.060097e-001  1.209024e+002
    endloop
  endfacet
  facet normal -3.928393e-001 -3.928393e-001  8.314772e-001
    outer loop
      vertex -2.060097e-001 -2.893015e+000  1.209024e+002
      vertex -2.893015e+000 -2.060097e-001  1.209024e+002
      vertex -3.207107e-001 -3.007716e+000  1.207940e+002
    endloop
  endfacet
  facet normal -3.928393e-001 -3.928393e-001  8.314772e-001
    outer loop
      vertex -3.207107e-001 -3.007716e+000  1.207940e+002
      vertex -2.893015e+000 -2.060097e-001  1.209024e+002
      vertex -3.007716e+000 -3.207107e-001  1.207940e+002
    endloop
  endfacet
  facet normal -5.879426e-001 -5.879426e-001  5.555601e-001
    outer loop
      vertex -3.207107e-001 -3.007716e+000  1.207940e+002
      vertex -3.007716e+000 -3.207107e-001  1.207940e+002
      vertex -3.973514e-001 -3.084357e+000  1.206318e+002
    endloop
  endfacet
  facet normal -5.879426e-001 -5.879426e-001  5.555601e-001
    outer loop
      vertex -3.973514e-001 -3.084357e+000  1.206318e+002
      vertex -3.007716e+000 -3.207107e-001  1.207940e+002
      vertex -3.084357e+000 -3.973514e-001  1.206318e+002
    endloop
  endfacet
  facet normal -6.935194e-001 -6.935194e-001  1.950938e-001
    outer loop
      vertex -3.973514e-001 -3.084357e+000  1.206318e+002
      vertex -3.084357e+000 -3.973514e-001  1.206318e+002
      vertex -4.242641e-001 -3.111270e+000  1.204405e+002
    endloop
  endfacet
  facet normal -6.935194e-001 -6.935194e-001  1.950938e-001
    outer loop
      vertex -4.242641e-001 -3.111270e+000  1.204405e+002
      vertex -3.084357e+000 -3.973514e-001  1.206318e+002
      vertex -3.111270e+000 -4.242641e-001  1.204405e+002
    endloop
  endfacet
  facet normal  4.999993e-001  4.999993e-001  7.071077e-001
    outer loop
      vertex  2.164788e+000 -5.222182e-001  1.222405e+002
      vertex  2.723366e+000  3.636039e-002  1.214505e+002
      vertex -5.222182e-001  2.164788e+000  1.222405e+002
    endloop
  endfacet
  facet normal  4.999993e-001  4.999994e-001  7.071077e-001
    outer loop
      vertex -5.222182e-001  2.164788e+000  1.222405e+002
      vertex  2.723366e+000  3.636039e-002  1.214505e+002
      vertex  3.636039e-002  2.723366e+000  1.214505e+002
    endloop
  endfacet
  facet normal  7.071068e-001  7.071068e-001  -0.000000e+000
    outer loop
      vertex  2.764787e+000  7.778174e-002  1.213091e+002
      vertex  2.764787e+000  7.778174e-002  1.205919e+002
      vertex  7.778174e-002  2.764787e+000  1.213091e+002
    endloop
  endfacet
  facet normal  7.071068e-001  7.071068e-001  0.000000e+000
    outer loop
      vertex  7.778174e-002  2.764787e+000  1.213091e+002
      vertex  2.764787e+000  7.778174e-002  1.205919e+002
      vertex  7.778174e-002  2.764787e+000  1.205919e+002
    endloop
  endfacet
  facet normal  6.935177e-001  6.935177e-001  1.951059e-001
    outer loop
      vertex  2.764787e+000  7.778174e-002  1.213091e+002
      vertex  7.778174e-002  2.764787e+000  1.213091e+002
      vertex  2.754022e+000  6.701668e-002  1.213856e+002
    endloop
  endfacet
  facet normal  6.935177e-001  6.935177e-001  1.951059e-001
    outer loop
      vertex  2.754022e+000  6.701668e-002  1.213856e+002
      vertex  7.778174e-002  2.764787e+000  1.213091e+002
      vertex  6.701668e-002  2.754022e+000  1.213856e+002
    endloop
  endfacet
  facet normal  5.879483e-001  5.879483e-001  5.555480e-001
    outer loop
      vertex  2.754022e+000  6.701668e-002  1.213856e+002
      vertex  6.701668e-002  2.754022e+000  1.213856e+002
      vertex  2.723366e+000  3.636039e-002  1.214505e+002
    endloop
  endfacet
  facet normal  5.879483e-001  5.879483e-001  5.555480e-001
    outer loop
      vertex  2.723366e+000  3.636039e-002  1.214505e+002
      vertex  6.701668e-002  2.754022e+000  1.213856e+002
      vertex  3.636039e-002  2.723366e+000  1.214505e+002
    endloop
  endfacet
  facet normal  0.000000e+000  0.000000e+000  1.000000e+000
    outer loop
      vertex -4.242641e-001 -3.111270e+000  1.147405e+002
      vertex -3.111270e+000 -4.242641e-001  1.147405e+002
      vertex -4.550756e+000 -1.863751e+000  1.147405e+002
    endloop
  endfacet
  facet normal  0.000000e+000  0.000000e+000  1.000000e+000
    outer loop
      vertex -4.242641e-001 -3.111270e+000  1.147405e+002
      vertex -4.550756e+000 -1.863751e+000  1.147405e+002
      vertex -4.341104e+000 -2.303314e+000  1.147405e+002
    endloop
  endfacet
  facet normal  0.000000e+000  0.000000e+000  1.000000e+000
    outer loop
      vertex -4.242641e-001 -3.111270e+000  1.147405e+002
      vertex -4.341104e+000 -2.303314e+000  1.147405e+002
      vertex -4.089764e+000 -2.720445e+000  1.147405e+002
    endloop
  endfacet
  facet normal  0.000000e+000  0.000000e+000  1.000000e+000
    outer loop
      vertex -4.242641e-001 -3.111270e+000  1.147405e+002
      vertex -4.089764e+000 -2.720445e+000  1.147405e+002
      vertex -3.799112e+000 -3.111202e+000  1.147405e+002
    endloop
  endfacet
  facet normal  0.000000e+000  0.000000e+000  1.000000e+000
    outer loop
      vertex -4.242641e-001 -3.111270e+000  1.147405e+002
      vertex -3.799112e+000 -3.111202e+000  1.147405e+002
      vertex -3.471894e+000 -3.471894e+000  1.147405e+002
    endloop
  endfacet
  facet normal  -0.000000e+000  0.000000e+000  1.000000e+000
    outer loop
      vertex -4.242641e-001 -3.111270e+000  1.147405e+002
      vertex -3.471894e+000 -3.471894e+000  1.147405e+002
      vertex -3.111202e+000 -3.799112e+000  1.147405e+002
    endloop
  endfacet
  facet normal  -0.000000e+000  0.000000e+000  1.000000e+000
    outer loop
      vertex -4.242641e-001 -3.111270e+000  1.147405e+002
      vertex -3.111202e+000 -3.799112e+000  1.147405e+002
      vertex -2.720445e+000 -4.089764e+000  1.147405e+002
    endloop
  endfacet
  facet normal  -0.000000e+000  0.000000e+000  9.999999e-001
    outer loop
      vertex -4.242641e-001 -3.111270e+000  1.147405e+002
      vertex -2.720445e+000 -4.089764e+000  1.147405e+002
      vertex -2.303314e+000 -4.341104e+000  1.147405e+002
    endloop
  endfacet
  facet normal  -0.000000e+000  0.000000e+000  1.000000e+000
    outer loop
      vertex -4.242641e-001 -3.111270e+000  1.147405e+002
      vertex -2.303314e+000 -4.341104e+000  1.147405e+002
      vertex -1.863751e+000 -4.550756e+000  1.147405e+002
    endloop
  endfacet
  facet normal  0.000000e+000  0.000000e+000 -1.000000e+000
    outer loop
      vertex -1.414214e-001 -2.828427e+000  1.112405e+002
      vertex -1.863751e+000 -4.550756e+000  1.112405e+002
      vertex -2.303314e+000 -4.341104e+000  1.112405e+002
    endloop
  endfacet
  facet normal  0.000000e+000  0.000000e+000 -1.000000e+000
    outer loop
      vertex -1.414214e-001 -2.828427e+000  1.112405e+002
      vertex -2.303314e+000 -4.341104e+000  1.112405e+002
      vertex -2.720445e+000 -4.089764e+000  1.112405e+002
    endloop
  endfacet
  facet normal  0.000000e+000  0.000000e+000 -1.000000e+000
    outer loop
      vertex -1.414214e-001 -2.828427e+000  1.112405e+002
      vertex -2.720445e+000 -4.089764e+000  1.112405e+002
      vertex -3.111202e+000 -3.799112e+000  1.112405e+002
    endloop
  endfacet
  facet normal  0.000000e+000  0.000000e+000 -1.000000e+000
    outer loop
      vertex -1.414214e-001 -2.828427e+000  1.112405e+002
      vertex -3.111202e+000 -3.799112e+000  1.112405e+002
      vertex -3.471894e+000 -3.471894e+000  1.112405e+002
    endloop
  endfacet
  facet normal  0.000000e+000  0.000000e+000 -1.000000e+000
    outer loop
      vertex -1.414214e-001 -2.828427e+000  1.112405e+002
      vertex -3.471894e+000 -3.471894e+000  1.112405e+002
      vertex -3.799112e+000 -3.111202e+000  1.112405e+002
    endloop
  endfacet
  facet normal  0.000000e+000  0.000000e+000 -1.000000e+000
    outer loop
      vertex -1.414214e-001 -2.828427e+000  1.112405e+002
      vertex -3.799112e+000 -3.111202e+000  1.112405e+002
      vertex -4.089764e+000 -2.720445e+000  1.112405e+002
    endloop
  endfacet
  facet normal  0.000000e+000  0.000000e+000 -9.999999e-001
    outer loop
      vertex -1.414214e-001 -2.828427e+000  1.112405e+002
      vertex -4.089764e+000 -2.720445e+000  1.112405e+002
      vertex -4.341104e+000 -2.303314e+000  1.112405e+002
    endloop
  endfacet
  facet normal  0.000000e+000  0.000000e+000 -1.000000e+000
    outer loop
      vertex -1.414214e-001 -2.828427e+000  1.112405e+002
      vertex -4.341104e+000 -2.303314e+000  1.112405e+002
      vertex -4.550756e+000 -1.863751e+000  1.112405e+002
    endloop
  endfacet
  facet normal  0.000000e+000  0.000000e+000 -1.000000e+000
    outer loop
      vertex -1.414214e-001 -2.828427e+000  1.112405e+002
      vertex -4.550756e+000 -1.863751e+000  1.112405e+002
      vertex -2.828427e+000 -1.414214e-001  1.112405e+002
    endloop
  endfacet
  facet normal -4.304969e-001 -9.025921e-001  -0.000000e+000
    outer loop
      vertex -1.863751e+000 -4.550756e+000  1.112405e+002
      vertex -1.863751e+000 -4.550756e+000  1.147405e+002
      vertex -2.303314e+000 -4.341104e+000  1.112405e+002
    endloop
  endfacet
  facet normal -4.304969e-001 -9.025921e-001  0.000000e+000
    outer loop
      vertex -2.303314e+000 -4.341104e+000  1.112405e+002
      vertex -1.863751e+000 -4.550756e+000  1.147405e+002
      vertex -2.303314e+000 -4.341104e+000  1.147405e+002
    endloop
  endfacet
  facet normal -5.160973e-001 -8.565299e-001  -0.000000e+000
    outer loop
      vertex -2.303314e+000 -4.341104e+000  1.112405e+002
      vertex -2.303314e+000 -4.341104e+000  1.147405e+002
      vertex -2.720445e+000 -4.089764e+000  1.112405e+002
    endloop
  endfacet
  facet normal -5.160973e-001 -8.565299e-001  0.000000e+000
    outer loop
      vertex -2.720445e+000 -4.089764e+000  1.112405e+002
      vertex -2.303314e+000 -4.341104e+000  1.147405e+002
      vertex -2.720445e+000 -4.089764e+000  1.147405e+002
    endloop
  endfacet
  facet normal -5.968201e-001 -8.023751e-001  -0.000000e+000
    outer loop
      vertex -2.720445e+000 -4.089764e+000  1.112405e+002
      vertex -2.720445e+000 -4.089764e+000  1.147405e+002
      vertex -3.111202e+000 -3.799112e+000  1.112405e+002
    endloop
  endfacet
  facet normal -5.968201e-001 -8.023751e-001  0.000000e+000
    outer loop
      vertex -3.111202e+000 -3.799112e+000  1.112405e+002
      vertex -2.720445e+000 -4.089764e+000  1.147405e+002
      vertex -3.111202e+000 -3.799112e+000  1.147405e+002
    endloop
  endfacet
  facet normal -6.719037e-001 -7.406386e-001  -0.000000e+000
    outer loop
      vertex -3.111202e+000 -3.799112e+000  1.112405e+002
      vertex -3.111202e+000 -3.799112e+000  1.147405e+002
      vertex -3.471894e+000 -3.471894e+000  1.112405e+002
    endloop
  endfacet
  facet normal -6.719037e-001 -7.406386e-001  0.000000e+000
    outer loop
      vertex -3.471894e+000 -3.471894e+000  1.112405e+002
      vertex -3.111202e+000 -3.799112e+000  1.147405e+002
      vertex -3.471894e+000 -3.471894e+000  1.147405e+002
    endloop
  endfacet
  facet normal -7.406386e-001 -6.719037e-001  -0.000000e+000
    outer loop
      vertex -3.471894e+000 -3.471894e+000  1.112405e+002
      vertex -3.471894e+000 -3.471894e+000  1.147405e+002
      vertex -3.799112e+000 -3.111202e+000  1.112405e+002
    endloop
  endfacet
  facet normal -7.406386e-001 -6.719037e-001  0.000000e+000
    outer loop
      vertex -3.799112e+000 -3.111202e+000  1.112405e+002
      vertex -3.471894e+000 -3.471894e+000  1.147405e+002
      vertex -3.799112e+000 -3.111202e+000  1.147405e+002
    endloop
  endfacet
  facet normal -8.023751e-001 -5.968201e-001  -0.000000e+000
    outer loop
      vertex -3.799112e+000 -3.111202e+000  1.112405e+002
      vertex -3.799112e+000 -3.111202e+000  1.147405e+002
      vertex -4.089764e+000 -2.720445e+000  1.112405e+002
    endloop
  endfacet
  facet normal -8.023751e-001 -5.968201e-001  0.000000e+000
    outer loop
      vertex -4.089764e+000 -2.720445e+000  1.112405e+002
      vertex -3.799112e+000 -3.111202e+000  1.147405e+002
      vertex -4.089764e+000 -2.720445e+000  1.147405e+002
    endloop
  endfacet
  facet normal -8.565299e-001 -5.160973e-001  -0.000000e+000
    outer loop
      vertex -4.089764e+000 -2.720445e+000  1.112405e+002
      vertex -4.089764e+000 -2.720445e+000  1.147405e+002
      vertex -4.341104e+000 -2.303314e+000  1.112405e+002
    endloop
  endfacet
  facet normal -8.565299e-001 -5.160973e-001  0.000000e+000
    outer loop
      vertex -4.341104e+000 -2.303314e+000  1.112405e+002
      vertex -4.089764e+000 -2.720445e+000  1.147405e+002
      vertex -4.341104e+000 -2.303314e+000  1.147405e+002
    endloop
  endfacet
  facet normal -9.025921e-001 -4.304969e-001  -0.000000e+000
    outer loop
      vertex -4.341104e+000 -2.303314e+000  1.112405e+002
      vertex -4.341104e+000 -2.303314e+000  1.147405e+002
      vertex -4.550756e+000 -1.863751e+000  1.112405e+002
    endloop
  endfacet
  facet normal -9.025921e-001 -4.304969e-001  0.000000e+000
    outer loop
      vertex -4.550756e+000 -1.863751e+000  1.112405e+002
      vertex -4.341104e+000 -2.303314e+000  1.147405e+002
      vertex -4.550756e+000 -1.863751e+000  1.147405e+002
    endloop
  endfacet
  facet normal  4.999993e-001  4.999993e-001 -7.071077e-001
    outer loop
      vertex  1.343503e+000 -1.343503e+000  1.185819e+002
      vertex -1.343503e+000  1.343503e+000  1.185819e+002
      vertex  2.764787e+000  7.778174e-002  1.205919e+002
    endloop
  endfacet
  facet normal  4.999993e-001  4.999993e-001 -7.071077e-001
    outer loop
      vertex  2.764787e+000  7.778174e-002  1.205919e+002
      vertex -1.343503e+000  1.343503e+000  1.185819e+002
      vertex  7.778174e-002  2.764787e+000  1.205919e+002
    endloop
  endfacet
  facet normal  6.144550e-001  7.889311e-001 -5.731195e-003
    outer loop
      vertex  2.905658e+000  4.081329e+000  1.222405e+002
      vertex  2.984504e+000  4.024032e+000  1.228064e+002
      vertex  3.177417e+000  3.873515e+000  1.227696e+002
    endloop
  endfacet
  facet normal  4.142415e-001  9.101670e-001  0.000000e+000
    outer loop
      vertex  1.934461e+000  4.621467e+000  1.222405e+002
      vertex  1.934461e+000  4.621467e+000  1.232674e+002
      vertex  2.214284e+000  4.494112e+000  1.230962e+002
    endloop
  endfacet
  facet normal  6.242611e-001  7.810931e-001 -1.384573e-002
    outer loop
      vertex  3.340383e+000  3.733891e+000  1.222405e+002
      vertex  2.905658e+000  4.081329e+000  1.222405e+002
      vertex  3.177417e+000  3.873515e+000  1.227696e+002
    endloop
  endfacet
  facet normal  6.531072e-001  7.572643e-001  1.325936e-003
    outer loop
      vertex  3.340383e+000  3.733891e+000  1.222405e+002
      vertex  3.177417e+000  3.873515e+000  1.227696e+002
      vertex  3.363850e+000  3.712764e+000  1.227477e+002
    endloop
  endfacet
  facet normal  6.894383e-001  7.243424e-001 -1.726090e-003
    outer loop
      vertex  3.340383e+000  3.733891e+000  1.222405e+002
      vertex  3.363850e+000  3.712764e+000  1.227477e+002
      vertex  3.542605e+000  3.542605e+000  1.227405e+002
    endloop
  endfacet
  facet normal  7.245910e-001  6.885416e-001 -2.963978e-002
    outer loop
      vertex  3.340383e+000  3.733891e+000  1.222405e+002
      vertex  3.542605e+000  3.542605e+000  1.227405e+002
      vertex  3.712766e+000  3.363847e+000  1.227477e+002
    endloop
  endfacet
  facet normal  7.071030e-001  7.071030e-001 -3.261020e-003
    outer loop
      vertex  3.340383e+000  3.733891e+000  1.222405e+002
      vertex  3.712766e+000  3.363847e+000  1.227477e+002
      vertex  3.733891e+000  3.340383e+000  1.222405e+002
    endloop
  endfacet
  facet normal  9.101674e-001  4.142406e-001  -0.000000e+000
    outer loop
      vertex  4.621467e+000  1.934461e+000  1.232674e+002
      vertex  4.621467e+000  1.934461e+000  1.222405e+002
      vertex  4.494115e+000  2.214279e+000  1.230962e+002
    endloop
  endfacet
  facet normal  8.995439e-001  4.367389e-001 -8.937516e-003
    outer loop
      vertex  4.494115e+000  2.214279e+000  1.230962e+002
      vertex  4.621467e+000  1.934461e+000  1.222405e+002
      vertex  4.378410e+000  2.435082e+000  1.222405e+002
    endloop
  endfacet
  facet normal  8.817474e-001  4.717153e-001  2.493327e-003
    outer loop
      vertex  4.494115e+000  2.214279e+000  1.230962e+002
      vertex  4.378410e+000  2.435082e+000  1.222405e+002
      vertex  4.341310e+000  2.500626e+000  1.229605e+002
    endloop
  endfacet
  facet normal  8.499239e-001  5.268890e-001 -4.168781e-003
    outer loop
      vertex  4.341310e+000  2.500626e+000  1.229605e+002
      vertex  4.378410e+000  2.435082e+000  1.222405e+002
      vertex  4.163531e+000  2.786595e+000  1.228587e+002
    endloop
  endfacet
  facet normal  8.455513e-001  5.338073e-001 -9.622135e-003
    outer loop
      vertex  4.163531e+000  2.786595e+000  1.228587e+002
      vertex  4.378410e+000  2.435082e+000  1.222405e+002
      vertex  4.081329e+000  2.905658e+000  1.222405e+002
    endloop
  endfacet
  facet normal  8.170611e-001  5.765462e-001  2.396750e-003
    outer loop
      vertex  4.163531e+000  2.786595e+000  1.228587e+002
      vertex  4.081329e+000  2.905658e+000  1.222405e+002
      vertex  4.024040e+000  2.984494e+000  1.228065e+002
    endloop
  endfacet
  facet normal  7.889320e-001  6.144539e-001 -5.730642e-003
    outer loop
      vertex  4.024040e+000  2.984494e+000  1.228065e+002
      vertex  4.081329e+000  2.905658e+000  1.222405e+002
      vertex  3.873521e+000  3.177411e+000  1.227696e+002
    endloop
  endfacet
  facet normal  7.810930e-001  6.242611e-001 -1.384587e-002
    outer loop
      vertex  3.873521e+000  3.177411e+000  1.227696e+002
      vertex  4.081329e+000  2.905658e+000  1.222405e+002
      vertex  3.733891e+000  3.340383e+000  1.222405e+002
    endloop
  endfacet
  facet normal  7.572653e-001  6.531061e-001  1.325751e-003
    outer loop
      vertex  3.873521e+000  3.177411e+000  1.227696e+002
      vertex  3.733891e+000  3.340383e+000  1.222405e+002
      vertex  3.712766e+000  3.363847e+000  1.227477e+002
    endloop
  endfacet
  facet normal  4.367389e-001  8.995439e-001 -8.937402e-003
    outer loop
      vertex  1.934461e+000  4.621467e+000  1.222405e+002
      vertex  2.214284e+000  4.494112e+000  1.230962e+002
      vertex  2.435082e+000  4.378410e+000  1.222405e+002
    endloop
  endfacet
  facet normal  4.717164e-001  8.817468e-001  2.493681e-003
    outer loop
      vertex  2.435082e+000  4.378410e+000  1.222405e+002
      vertex  2.214284e+000  4.494112e+000  1.230962e+002
      vertex  2.500635e+000  4.341304e+000  1.229605e+002
    endloop
  endfacet
  facet normal  5.338254e-001  8.455799e-001 -5.024581e-003
    outer loop
      vertex  2.435082e+000  4.378410e+000  1.222405e+002
      vertex  2.500635e+000  4.341304e+000  1.229605e+002
      vertex  2.905658e+000  4.081329e+000  1.222405e+002
    endloop
  endfacet
  facet normal  5.248194e-001  8.511276e-001 -1.209355e-002
    outer loop
      vertex  2.905658e+000  4.081329e+000  1.222405e+002
      vertex  2.500635e+000  4.341304e+000  1.229605e+002
      vertex  2.786609e+000  4.163522e+000  1.228587e+002
    endloop
  endfacet
  facet normal  5.765494e-001  8.170589e-001  2.396941e-003
    outer loop
      vertex  2.905658e+000  4.081329e+000  1.222405e+002
      vertex  2.786609e+000  4.163522e+000  1.228587e+002
      vertex  2.984504e+000  4.024032e+000  1.228064e+002
    endloop
  endfacet
  facet normal  -0.000000e+000  -0.000000e+000 -1.000000e+000
    outer loop
      vertex  2.435082e+000  4.378410e+000  1.222405e+002
      vertex  2.905658e+000  4.081329e+000  1.222405e+002
      vertex  3.340383e+000  3.733891e+000  1.222405e+002
    endloop
  endfacet
  facet normal  0.000000e+000  -0.000000e+000 -9.999999e-001
    outer loop
      vertex  2.164788e+000 -5.222182e-001  1.222405e+002
      vertex  4.378410e+000  2.435082e+000  1.222405e+002
      vertex  4.621467e+000  1.934461e+000  1.222405e+002
    endloop
  endfacet
  facet normal  0.000000e+000  -0.000000e+000 -1.000000e+000
    outer loop
      vertex  2.164788e+000 -5.222182e-001  1.222405e+002
      vertex  4.081329e+000  2.905658e+000  1.222405e+002
      vertex  4.378410e+000  2.435082e+000  1.222405e+002
    endloop
  endfacet
  facet normal  0.000000e+000  0.000000e+000 -1.000000e+000
    outer loop
      vertex  4.081329e+000  2.905658e+000  1.222405e+002
      vertex  2.164788e+000 -5.222182e-001  1.222405e+002
      vertex  3.733891e+000  3.340383e+000  1.222405e+002
    endloop
  endfacet
  facet normal  0.000000e+000  0.000000e+000 -1.000000e+000
    outer loop
      vertex  3.733891e+000  3.340383e+000  1.222405e+002
      vertex  2.164788e+000 -5.222182e-001  1.222405e+002
      vertex -5.222182e-001  2.164788e+000  1.222405e+002
    endloop
  endfacet
  facet normal  0.000000e+000  0.000000e+000 -1.000000e+000
    outer loop
      vertex  3.733891e+000  3.340383e+000  1.222405e+002
      vertex -5.222182e-001  2.164788e+000  1.222405e+002
      vertex  3.340383e+000  3.733891e+000  1.222405e+002
    endloop
  endfacet
  facet normal  -0.000000e+000  0.000000e+000 -1.000000e+000
    outer loop
      vertex  3.340383e+000  3.733891e+000  1.222405e+002
      vertex -5.222182e-001  2.164788e+000  1.222405e+002
      vertex  1.934461e+000  4.621467e+000  1.222405e+002
    endloop
  endfacet
  facet normal  0.000000e+000  0.000000e+000 -9.999999e-001
    outer loop
      vertex  3.340383e+000  3.733891e+000  1.222405e+002
      vertex  1.934461e+000  4.621467e+000  1.222405e+002
      vertex  2.435082e+000  4.378410e+000  1.222405e+002
    endloop
  endfacet
  facet normal -7.071068e-001 -7.071068e-001  0.000000e+000
    outer loop
      vertex  4.949747e-001 -2.192031e+000  1.242889e+002
      vertex -2.192031e+000  4.949747e-001  1.242889e+002
      vertex  4.949747e-001 -2.192031e+000  1.209405e+002
    endloop
  endfacet
  facet normal -7.071068e-001 -7.071068e-001  0.000000e+000
    outer loop
      vertex  4.949747e-001 -2.192031e+000  1.209405e+002
      vertex -2.192031e+000  4.949747e-001  1.242889e+002
      vertex -2.192031e+000  4.949747e-001  1.209405e+002
    endloop
  endfacet
endsolid CATIA STL
