<?xml version="1.0" encoding="utf-8"?>
<!-- Generator: Adobe Illustrator 27.1.1, SVG Export Plug-In . SVG Version: 6.00 Build 0)  -->
<svg version="1.1" id="Calque_1" xmlns="http://www.w3.org/2000/svg" xmlns:xlink="http://www.w3.org/1999/xlink" x="0px" y="0px"
	 viewBox="0 0 99.21 99.21" style="enable-background:new 0 0 99.21 99.21;" xml:space="preserve">
<style type="text/css">
	.st0{fill:#1C1C1C;}
	.st1{fill:none;stroke:#FF0000;stroke-width:2;stroke-miterlimit:10;}
</style>
<g>
	<path class="st0" d="M55.34,22.64c-0.6-3.63-2.02-5.98-3.7-5.98c-0.32,0-0.63,0.09-0.92,0.25l0,0c-0.49,0.27-0.94,0.75-1.33,1.39
		c-0.01,0.02-0.03,0.04-0.04,0.07c-0.01,0.01-0.01,0.02-0.02,0.03c-0.19,0.32-0.37,0.69-0.53,1.09c-0.03-0.01-0.06-0.02-0.08-0.03
		c-0.06-0.02-0.11-0.05-0.17-0.07c0,0,0,0,0,0c-0.8-0.31-1.52-0.47-2.13-0.47c-0.68,0-1.23,0.19-1.62,0.58
		c-0.77,0.77-0.76,2.21-0.01,4c-1.76,0.72-2.83,1.72-2.83,2.84c0,1.65,2.33,3.08,5.96,3.69c0.01,0,0.02,0,0.02,0
		c0.59,3.55,2,5.99,3.7,5.99c1.12,0,2.12-1.05,2.85-2.82c1.75,0.73,3.21,0.78,4-0.01c0.79-0.79,0.74-2.26,0.01-4.01
		c1.8-0.73,2.83-1.74,2.83-2.84C61.32,24.65,58.88,23.23,55.34,22.64z M55.2,25.03c1.08,1.24,1.95,2.51,2.53,3.67c0,0,0,0,0,0
		c0.03,0.07,0.07,0.14,0.1,0.2c-0.37,0.13-0.77,0.25-1.2,0.36c-0.04,0.01-0.08,0.02-0.12,0.02c-0.11,0-0.22-0.04-0.31-0.11
		c-0.13-0.1-0.2-0.25-0.2-0.41l0.01-1.67c0-0.27-0.1-0.52-0.29-0.71c-0.19-0.19-0.44-0.3-0.71-0.3h-1.3
		c-0.01-0.01-0.01-0.02-0.02-0.03c-0.03-0.03-0.08-0.05-0.13-0.05h-0.29h-0.14v-0.33h0.14h0.29c0.05,0,0.09-0.02,0.13-0.05
		c0.01-0.01,0.02-0.02,0.02-0.03h0.31c0.43,0,0.83-0.18,1.12-0.5C55.15,25.09,55.17,25.06,55.2,25.03z M52.6,24.21h-1.93
		c-0.29,0-0.52,0.23-0.52,0.52v0.31h-0.14h-0.29c-0.05,0-0.09,0.02-0.13,0.05c-0.01,0.01-0.02,0.02-0.02,0.03h-1.4
		c0.04-0.7,0.11-1.38,0.2-2.03c1.02-0.15,2.12-0.24,3.26-0.24c0.49,0,0.96,0.02,1.43,0.04c0.35,0.31,0.7,0.64,1.04,0.98
		c0.06,0.06,0.12,0.12,0.18,0.18c0.03,0.03,0.06,0.06,0.08,0.08c0.03,0.03,0.06,0.06,0.09,0.1c0.04,0.04,0.07,0.07,0.11,0.11
		c0.02,0.02,0.03,0.04,0.05,0.05c0.08,0.08,0.16,0.17,0.24,0.25c-0.03,0.04-0.06,0.09-0.1,0.13c-0.19,0.21-0.47,0.34-0.75,0.34H53.7
		c-0.01-0.01-0.01-0.02-0.02-0.03c-0.03-0.03-0.08-0.05-0.13-0.05h-0.29h-0.14v-0.31C53.12,24.44,52.89,24.21,52.6,24.21z
		 M53.12,26.67h0.14h0.29c0.05,0,0.09-0.02,0.13-0.05c0.01-0.01,0.02-0.02,0.02-0.03H55c0.14,0,0.26,0.05,0.36,0.15
		c0.1,0.1,0.15,0.23,0.15,0.36l-0.01,1.26c-0.04-0.29-0.17-0.57-0.37-0.8c-0.08-0.09-0.17-0.16-0.26-0.23
		c-0.01-0.01-0.02-0.02-0.04-0.03c0,0-0.01,0-0.01-0.01c-0.1-0.07-0.22-0.12-0.34-0.16l0,0c-0.15-0.05-0.31-0.08-0.48-0.08h-0.32
		c0,0-0.01-0.01-0.01-0.01C53.65,27.02,53.6,27,53.55,27h-0.29h-0.14V26.67z M55.02,24c0,0.03,0.01,0.07,0.01,0.1
		c-0.11-0.12-0.23-0.24-0.34-0.36c0,0-0.01-0.01-0.01-0.01c-0.07-0.07-0.14-0.14-0.2-0.21c-0.19-0.19-0.39-0.38-0.59-0.57
		c0.35,0.03,0.69,0.08,1.03,0.13C54.95,23.38,54.99,23.69,55.02,24z M50.32,17.85c0.2-0.22,0.41-0.39,0.63-0.51l0,0
		c0.22-0.12,0.45-0.18,0.68-0.18c1.3,0,2.51,2.03,3.11,5.03c0,0,0,0,0,0c0.03,0.13,0.05,0.25,0.07,0.38
		c-0.5-0.07-1.02-0.12-1.55-0.16c-1.33-1.16-2.72-2.1-4.01-2.72C49.56,18.92,49.93,18.29,50.32,17.85z M49.08,20.16
		c1.09,0.52,2.24,1.28,3.38,2.21c-0.27-0.01-0.54-0.01-0.82-0.01c-1.12,0-2.18,0.07-3.18,0.21C48.62,21.68,48.83,20.87,49.08,20.16z
		 M47.58,29.47c-3.1-0.59-5.13-1.82-5.13-3.13c0-0.91,0.97-1.76,2.54-2.39c0.17,0.36,0.37,0.73,0.6,1.12
		c0.2,0.33,0.55,0.53,0.94,0.53l1.14,0c0,0.1-0.01,0.2-0.01,0.31c0,0,0,0,0,0c0,0.07,0,0.13,0,0.2c0,0.01,0,0.02,0,0.03
		c0,0.07,0,0.13,0,0.2c0,0.04,0,0.08,0,0.12c-0.06,0.07-0.11,0.15-0.16,0.23c0,0,0,0,0,0c-0.01,0.01-0.01,0.03-0.02,0.04
		c-0.18,0.39-0.12,0.84,0.17,1.16c0.02,0.03,0.04,0.05,0.07,0.08c0.04,0.53,0.09,1.05,0.16,1.55
		C47.77,29.51,47.67,29.49,47.58,29.47C47.58,29.47,47.58,29.47,47.58,29.47z M47.86,23.17c-0.09,0.62-0.15,1.27-0.18,1.95h-0.22
		h-0.94c-0.21,0-0.41-0.11-0.51-0.29c-0.21-0.36-0.4-0.7-0.56-1.04c0.61-0.21,1.29-0.4,2.03-0.54c0,0,0,0,0,0
		C47.61,23.22,47.73,23.19,47.86,23.17z M45.25,23.32c-0.04-0.09-0.07-0.18-0.11-0.26c0,0,0,0,0,0c-0.57-1.46-0.58-2.63,0-3.22
		c0.58-0.58,1.75-0.58,3.23,0c0,0,0,0,0,0c0.08,0.03,0.17,0.07,0.25,0.1c-0.28,0.79-0.51,1.7-0.68,2.7
		C46.94,22.81,46.04,23.04,45.25,23.32z M48.14,26.13c0-0.05,0-0.11,0-0.16c0-0.02,0-0.04,0-0.06c0-0.04,0-0.08,0-0.11
		c0-0.04,0-0.08,0-0.13c0-0.01,0-0.02,0-0.03c0-0.01,0-0.02,0-0.02l1.42,0c0.01,0.01,0.01,0.02,0.02,0.03
		c0.03,0.03,0.08,0.05,0.13,0.05h0.29h0.14v0.33h-0.14h-0.29c-0.05,0-0.09,0.02-0.13,0.05c-0.01,0.01-0.02,0.02-0.02,0.03h-1.11
		c-0.11,0-0.22,0.02-0.32,0.05C48.14,26.14,48.14,26.13,48.14,26.13z M48.16,27.28c0-0.01,0-0.01,0-0.02c0-0.05,0-0.11-0.01-0.16
		c0-0.03,0-0.06,0-0.09c0-0.02,0-0.05,0-0.07c0-0.05,0-0.1,0-0.15c0-0.02,0-0.03,0-0.05c0-0.02,0-0.03,0-0.05
		c0.09-0.06,0.2-0.09,0.32-0.09h1.11c0.01,0.01,0.01,0.02,0.02,0.03c0.03,0.03,0.08,0.05,0.13,0.05h0.29h0.14V27h-0.14h-0.29
		c-0.05,0-0.09,0.02-0.13,0.05c-0.02,0.02-0.04,0.05-0.05,0.08c-0.4,0.13-0.69,0.51-0.69,0.95v0.43c0,0-0.01-0.01-0.01-0.01
		c-0.04-0.04-0.08-0.08-0.11-0.12c-0.01-0.01-0.03-0.03-0.04-0.04c-0.02-0.02-0.04-0.04-0.06-0.06c-0.04-0.05-0.09-0.09-0.13-0.14
		c0,0-0.01-0.01-0.01-0.01c-0.05-0.06-0.11-0.12-0.16-0.17c0,0,0,0,0,0c-0.05-0.06-0.1-0.11-0.15-0.17
		C48.18,27.61,48.17,27.44,48.16,27.28z M48.25,28.58c0.01,0.01,0.01,0.01,0.02,0.02c0.01,0.02,0.03,0.03,0.04,0.05l0,0
		c0.03,0.03,0.06,0.06,0.09,0.1c0.03,0.03,0.06,0.06,0.09,0.09c0.01,0.01,0.02,0.02,0.03,0.03c0.1,0.1,0.2,0.2,0.3,0.3
		c0.01,0.01,0.02,0.02,0.03,0.03c-0.02,0.11-0.08,0.2-0.17,0.28c-0.09,0.07-0.2,0.12-0.31,0.12C48.33,29.27,48.29,28.93,48.25,28.58
		z M51.64,35.54c-1.39,0-2.62-2.27-3.18-5.45c0.2-0.02,0.39-0.1,0.55-0.24c0.09-0.08,0.17-0.17,0.23-0.28
		c0.02,0.02,0.04,0.03,0.05,0.05c0.03,0.03,0.06,0.06,0.09,0.09c0.01,0.01,0.03,0.03,0.04,0.04c1.56,1.46,3.16,2.57,4.6,3.25
		C53.39,34.58,52.53,35.54,51.64,35.54z M54.2,32.53c-0.08-0.04-0.16-0.08-0.25-0.12c0,0,0,0,0,0c-1.3-0.66-2.75-1.68-4.13-2.96
		c-0.01-0.01-0.02-0.02-0.03-0.03c-0.03-0.03-0.06-0.06-0.1-0.09c-0.05-0.05-0.1-0.1-0.16-0.15c-0.01,0-0.01-0.01-0.02-0.02
		c-0.06-0.05-0.11-0.11-0.17-0.16c0,0,0,0,0,0v-0.93c0-0.2,0.11-0.37,0.28-0.45c0.03,0.02,0.06,0.02,0.09,0.02h0.29h0.14v0.31
		c0,0.29,0.23,0.52,0.52,0.52h1.93c0.29,0,0.52-0.23,0.52-0.52v-0.31h0.14h0.29c0.05,0,0.09-0.02,0.13-0.05
		c0.01-0.01,0.02-0.03,0.03-0.04h0.3c0.21,0,0.42,0.07,0.59,0.19c0.01,0.01,0.02,0.01,0.02,0.02c0,0,0.01,0,0.01,0.01
		c0.24,0.19,0.39,0.49,0.39,0.81c0,0,0,0.01,0,0.01c0,0.01,0,0.02,0,0.03c0,0.02,0,0.03,0,0.05c-0.04,0.37-0.08,0.74-0.14,1.09
		C54.72,30.79,54.49,31.73,54.2,32.53z M58.14,32.84c-0.3,0.3-0.73,0.44-1.27,0.44c-0.62,0-1.38-0.19-2.21-0.54
		c0.36-1.02,0.64-2.25,0.81-3.63c0-0.03,0.01-0.06,0.01-0.08c0-0.03,0.01-0.07,0.01-0.1c0-0.04,0.01-0.07,0.01-0.11
		c0.01,0.3,0.15,0.57,0.38,0.76c0.24,0.19,0.56,0.26,0.86,0.18c0.46-0.12,0.89-0.25,1.29-0.39C58.69,30.91,58.78,32.2,58.14,32.84z
		 M58.3,28.73c-0.01-0.03-0.03-0.06-0.04-0.08c-0.01-0.02-0.02-0.04-0.03-0.06c-0.01-0.02-0.02-0.04-0.03-0.06c0,0,0-0.01,0-0.01
		c0,0,0,0,0,0c-0.62-1.25-1.56-2.61-2.75-3.96c0.06-0.2,0.09-0.41,0.07-0.61c-0.03-0.27-0.06-0.53-0.09-0.78
		c3.16,0.56,5.41,1.79,5.41,3.18C60.83,27.22,59.89,28.08,58.3,28.73z"/>
	<path class="st0" d="M78.41,81.96c-0.51-0.32-1.09-0.48-1.73-0.48c-0.62,0-1.14,0.16-1.55,0.48c-0.4,0.31-0.72,0.69-0.95,1.12
		c-0.22,0.42-0.45,0.95-0.69,1.6c-0.21,0.55-0.38,0.95-0.53,1.19c-0.13,0.22-0.28,0.32-0.46,0.32c-0.13,0-0.23-0.03-0.3-0.1
		c-0.07-0.06-0.1-0.14-0.1-0.24c0-0.16,0.05-0.29,0.16-0.41c0.1-0.11,0.28-0.17,0.53-0.18c0.06,0,0.11-0.05,0.11-0.12v-3.42
		c0-0.03-0.01-0.06-0.04-0.08c-0.02-0.02-0.06-0.03-0.09-0.03c-1.07,0.04-1.92,0.44-2.51,1.2c-0.59,0.75-0.88,1.77-0.88,3.03
		c0,0.75,0.12,1.43,0.37,2.03c0.25,0.61,0.61,1.09,1.09,1.44c0.48,0.35,1.07,0.53,1.75,0.53c0.67,0.01,1.25-0.15,1.69-0.47
		c0.43-0.32,0.77-0.7,1-1.14c0.22-0.43,0.45-0.97,0.68-1.63c0.19-0.54,0.36-0.94,0.5-1.18c0.13-0.22,0.28-0.33,0.48-0.33
		c0.13,0,0.22,0.04,0.28,0.13c0.07,0.1,0.1,0.22,0.1,0.37c0,0.26-0.08,0.6-0.77,0.66c-0.06,0.01-0.11,0.06-0.11,0.12v3.38
		c0,0.03,0.01,0.06,0.04,0.09c0.02,0.02,0.05,0.03,0.08,0.03c0,0,0,0,0.01,0c1.13-0.07,2-0.52,2.59-1.33v0
		c0.58-0.8,0.87-1.84,0.87-3.07c0-0.82-0.14-1.53-0.43-2.13C79.33,82.74,78.92,82.28,78.41,81.96z"/>
	<path class="st0" d="M69.56,80.49c0,0.06,0.05,0.12,0.12,0.12h10.14c0.06,0,0.12-0.05,0.12-0.12v-6.76c0-0.06-0.05-0.12-0.12-0.12
		h-2.54c-0.06,0-0.12,0.05-0.12,0.12v3.46h-1.2v-3.03c0-0.06-0.05-0.12-0.12-0.12h-2.39c-0.06,0-0.12,0.05-0.12,0.12v3.03h-1.01
		v-3.46c0-0.06-0.05-0.12-0.12-0.12h-2.54c-0.06,0-0.12,0.05-0.12,0.12V80.49z"/>
	<path class="st0" d="M69.56,69.34v3.18c0,0.06,0.05,0.12,0.12,0.12h10.14c0.06,0,0.12-0.05,0.12-0.12v-3.18
		c0-0.06-0.05-0.12-0.12-0.12h-4.71l4.77-3.15c0.03-0.02,0.05-0.06,0.05-0.1v-3.18c0-0.06-0.05-0.12-0.12-0.12H69.68
		c-0.06,0-0.12,0.05-0.12,0.12v3.18c0,0.06,0.05,0.12,0.12,0.12h4.79l-4.85,3.15C69.58,69.26,69.56,69.3,69.56,69.34z"/>
	<path class="st0" d="M78.41,53.88c-0.51-0.32-1.09-0.48-1.73-0.48c-0.62,0-1.14,0.16-1.55,0.48c-0.4,0.31-0.72,0.69-0.95,1.12
		c-0.22,0.42-0.45,0.95-0.69,1.6c-0.21,0.55-0.38,0.95-0.53,1.19c-0.13,0.22-0.28,0.32-0.46,0.32c-0.13,0-0.23-0.03-0.3-0.1
		c-0.07-0.06-0.1-0.14-0.1-0.24c0-0.16,0.05-0.29,0.16-0.41c0.1-0.11,0.28-0.17,0.53-0.18c0.06,0,0.11-0.05,0.11-0.12v-3.42
		c0-0.03-0.01-0.06-0.04-0.08c-0.02-0.02-0.06-0.03-0.09-0.03c-1.07,0.04-1.92,0.44-2.51,1.2c-0.59,0.75-0.88,1.77-0.88,3.03
		c0,0.75,0.12,1.43,0.37,2.03c0.25,0.61,0.61,1.09,1.09,1.44c0.48,0.35,1.07,0.53,1.75,0.53c0.69,0.01,1.25-0.15,1.69-0.47
		c0.43-0.32,0.77-0.7,1-1.14c0.22-0.43,0.45-0.97,0.68-1.63c0.19-0.54,0.36-0.94,0.5-1.18c0.13-0.22,0.28-0.33,0.48-0.33
		c0.13,0,0.22,0.04,0.28,0.13c0.07,0.1,0.1,0.22,0.1,0.37c0,0.26-0.08,0.6-0.77,0.66c-0.06,0-0.11,0.06-0.11,0.12v3.38
		c0,0.03,0.01,0.06,0.04,0.09c0.02,0.02,0.05,0.03,0.08,0.03c0,0,0,0,0.01,0c1.13-0.07,2-0.52,2.59-1.33
		c0.58-0.8,0.87-1.84,0.87-3.07c0-0.82-0.14-1.53-0.43-2.13C79.33,54.66,78.92,54.2,78.41,53.88z"/>
	<path class="st0" d="M69.68,52.52h10.14c0.06,0,0.12-0.05,0.12-0.12v-3.18c0-0.06-0.05-0.12-0.12-0.12H69.68
		c-0.06,0-0.12,0.05-0.12,0.12v3.18C69.56,52.47,69.61,52.52,69.68,52.52z"/>
	<path class="st0" d="M69.68,48.48h2.52c0.06,0,0.12-0.05,0.12-0.12v-2.55h7.5c0.06,0,0.12-0.05,0.12-0.12v-3.18
		c0-0.06-0.05-0.12-0.12-0.12h-7.5v-2.58c0-0.06-0.05-0.12-0.12-0.12h-2.52c-0.06,0-0.12,0.05-0.12,0.12v8.54
		C69.56,48.43,69.61,48.48,69.68,48.48z"/>
	<path class="st0" d="M69.68,39.08h10.14c0.06,0,0.12-0.05,0.12-0.12v-3.18c0-0.06-0.05-0.12-0.12-0.12H69.68
		c-0.06,0-0.12,0.05-0.12,0.12v3.18C69.56,39.03,69.61,39.08,69.68,39.08z"/>
	<path class="st0" d="M69.68,35.19c0.01,0,0.03,0,0.04-0.01l10.14-3.41c0.05-0.02,0.08-0.06,0.08-0.11v-4.11
		c0-0.05-0.03-0.1-0.08-0.11l-10.14-3.41c-0.04-0.01-0.08-0.01-0.11,0.02c-0.03,0.02-0.05,0.06-0.05,0.1v3.38
		c0,0.05,0.03,0.1,0.08,0.11l6.6,1.97l-6.6,1.98c-0.05,0.01-0.08,0.06-0.08,0.11v3.38c0,0.04,0.02,0.07,0.05,0.1
		C69.63,35.18,69.65,35.19,69.68,35.19z"/>
	<path class="st0" d="M69.68,23.54h10.14c0.06,0,0.12-0.05,0.12-0.12v-6.76c0-0.06-0.05-0.12-0.12-0.12h-2.54
		c-0.06,0-0.12,0.05-0.12,0.12v3.46h-1.2v-3.03c0-0.06-0.05-0.12-0.12-0.12h-2.39c-0.06,0-0.12,0.05-0.12,0.12v3.03h-1.01v-3.46
		c0-0.06-0.05-0.12-0.12-0.12h-2.54c-0.06,0-0.12,0.05-0.12,0.12v6.76C69.56,23.49,69.61,23.54,69.68,23.54z"/>
	<path class="st0" d="M91.29,33.79h-2.21V33c0-0.61-0.12-1.14-0.34-1.57c-0.23-0.43-0.55-0.77-0.94-0.99
		c-0.39-0.22-0.83-0.34-1.31-0.34c-0.79,0-1.44,0.25-1.91,0.75c-0.47,0.5-0.71,1.22-0.71,2.14v3.2c0,0.06,0.05,0.12,0.12,0.12h7.31
		c0.06,0,0.12-0.05,0.12-0.12v-2.29C91.41,33.84,91.36,33.79,91.29,33.79z M85.93,33.79v-0.53c0-0.41,0.17-0.6,0.55-0.6
		c0.38,0,0.55,0.18,0.55,0.6v0.53H85.93z"/>
	<path class="st0" d="M91.29,24.5h-1.83c-0.06,0-0.12,0.05-0.12,0.12v2.46h-0.8v-2.15c0-0.06-0.05-0.12-0.12-0.12h-1.73
		c-0.06,0-0.12,0.05-0.12,0.12v2.15h-0.66v-2.46c0-0.06-0.05-0.12-0.12-0.12h-1.83c-0.06,0-0.12,0.05-0.12,0.12v4.88
		c0,0.06,0.05,0.12,0.12,0.12h7.31c0.06,0,0.12-0.05,0.12-0.12v-4.88C91.41,24.56,91.36,24.5,91.29,24.5z"/>
	<path class="st0" d="M91.41,19.03v-2.29c0-0.06-0.05-0.12-0.12-0.12h-7.31c-0.06,0-0.12,0.05-0.12,0.12v2.29
		c0,0.06,0.05,0.12,0.12,0.12h3.34l-3.41,2.21c-0.03,0.02-0.05,0.06-0.05,0.1v2.29c0,0.06,0.05,0.12,0.12,0.12h7.31
		c0.06,0,0.12-0.05,0.12-0.12v-2.29c0-0.06-0.05-0.12-0.12-0.12h-3.29l3.35-2.21C91.39,19.11,91.41,19.07,91.41,19.03z"/>
	<line class="st1" x1="65.2" y1="2.83" x2="8.5" y2="2.83"/>
	<path class="st1" d="M8.5,2.83c-3.13,0-5.67,2.54-5.67,5.67c0,0,0,0,0,0"/>
	<line class="st1" x1="2.83" y1="8.5" x2="2.83" y2="90.71"/>
	<path class="st1" d="M2.83,90.71c0,3.13,2.54,5.67,5.67,5.67"/>
	<line class="st1" x1="8.5" y1="96.38" x2="42.56" y2="96.38"/>
	<line class="st1" x1="56.73" y1="96.38" x2="90.71" y2="96.38"/>
	<path class="st1" d="M90.71,96.38c3.13,0,5.67-2.54,5.67-5.67"/>
	<line class="st1" x1="96.38" y1="90.71" x2="96.38" y2="8.5"/>
</g>
</svg>
