<?xml version="1.0" encoding="utf-8"?>
<!-- Generator: Adobe Illustrator 27.1.1, SVG Export Plug-In . SVG Version: 6.00 Build 0)  -->
<svg version="1.1" id="Calque_1" xmlns="http://www.w3.org/2000/svg" xmlns:xlink="http://www.w3.org/1999/xlink" x="0px" y="0px"
	 viewBox="0 0 93.54 93.54" style="enable-background:new 0 0 93.54 93.54;" xml:space="preserve">
<style type="text/css">
	.st0{fill:#1C1C1C;}
	.st1{fill:none;stroke:#FF0000;stroke-width:2;stroke-miterlimit:10;}
</style>
<g>
	<path class="st0" d="M52.5,19.81c-0.6-3.63-2.02-5.98-3.7-5.98c-0.32,0-0.63,0.09-0.92,0.25l0,0c-0.49,0.27-0.94,0.75-1.33,1.39
		c-0.01,0.02-0.03,0.04-0.04,0.07c-0.01,0.01-0.01,0.02-0.02,0.03c-0.19,0.32-0.37,0.69-0.53,1.09c-0.03-0.01-0.06-0.02-0.08-0.03
		c-0.06-0.02-0.11-0.05-0.17-0.07c0,0,0,0,0,0c-0.8-0.31-1.52-0.47-2.13-0.47c-0.68,0-1.23,0.19-1.62,0.58
		c-0.77,0.77-0.76,2.21-0.01,4c-1.76,0.72-2.83,1.72-2.83,2.84c0,1.65,2.33,3.08,5.96,3.69c0.01,0,0.02,0,0.02,0
		c0.59,3.55,2,5.99,3.7,5.99c1.12,0,2.12-1.05,2.85-2.82c1.75,0.73,3.21,0.78,4-0.01c0.79-0.79,0.74-2.26,0.01-4.01
		c1.8-0.73,2.83-1.74,2.83-2.84C58.49,21.81,56.05,20.4,52.5,19.81z M52.36,22.2c1.08,1.24,1.95,2.51,2.53,3.67c0,0,0,0,0,0
		c0.03,0.07,0.07,0.14,0.1,0.2c-0.37,0.13-0.77,0.25-1.2,0.36c-0.04,0.01-0.08,0.02-0.12,0.02c-0.11,0-0.22-0.04-0.31-0.11
		c-0.13-0.1-0.2-0.25-0.2-0.41l0.01-1.67c0-0.27-0.1-0.52-0.29-0.71c-0.19-0.19-0.44-0.3-0.71-0.3h-1.3
		c-0.01-0.01-0.01-0.02-0.02-0.03c-0.03-0.03-0.08-0.05-0.13-0.05h-0.29h-0.14v-0.33h0.14h0.29c0.05,0,0.09-0.02,0.13-0.05
		c0.01-0.01,0.02-0.02,0.02-0.03h0.31c0.43,0,0.83-0.18,1.12-0.5C52.32,22.25,52.34,22.23,52.36,22.2z M49.77,21.38h-1.93
		c-0.29,0-0.52,0.23-0.52,0.52v0.31h-0.14h-0.29c-0.05,0-0.09,0.02-0.13,0.05c-0.01,0.01-0.02,0.02-0.02,0.03h-1.4
		c0.04-0.7,0.11-1.38,0.2-2.03c1.02-0.15,2.12-0.24,3.26-0.24c0.49,0,0.96,0.02,1.43,0.04c0.35,0.31,0.7,0.64,1.04,0.98
		c0.06,0.06,0.12,0.12,0.18,0.18c0.03,0.03,0.06,0.06,0.08,0.09c0.03,0.03,0.06,0.06,0.09,0.1c0.04,0.04,0.07,0.07,0.11,0.11
		c0.02,0.02,0.03,0.04,0.05,0.05c0.08,0.08,0.16,0.17,0.24,0.25c-0.03,0.04-0.06,0.09-0.1,0.13c-0.19,0.21-0.47,0.34-0.75,0.34
		h-0.31c-0.01-0.01-0.01-0.02-0.02-0.03c-0.03-0.03-0.08-0.05-0.13-0.05h-0.29h-0.14V21.9C50.29,21.61,50.06,21.38,49.77,21.38z
		 M50.29,23.84h0.14h0.29c0.05,0,0.09-0.02,0.13-0.05c0.01-0.01,0.02-0.02,0.02-0.03h1.3c0.14,0,0.26,0.05,0.36,0.15
		c0.1,0.1,0.15,0.23,0.15,0.36l-0.01,1.26c-0.04-0.29-0.17-0.57-0.37-0.8c-0.08-0.09-0.17-0.16-0.26-0.23
		c-0.01-0.01-0.02-0.02-0.04-0.03c0,0-0.01,0-0.01-0.01c-0.1-0.07-0.22-0.12-0.34-0.16l0,0c-0.15-0.05-0.31-0.08-0.48-0.08h-0.32
		c0,0-0.01-0.01-0.01-0.01c-0.03-0.03-0.08-0.05-0.13-0.05h-0.29h-0.14V23.84z M52.18,21.17c0,0.03,0.01,0.07,0.01,0.1
		c-0.11-0.12-0.23-0.24-0.34-0.36c0,0-0.01-0.01-0.01-0.01c-0.07-0.07-0.14-0.14-0.2-0.21c-0.19-0.19-0.39-0.38-0.59-0.57
		c0.35,0.03,0.69,0.08,1.03,0.13C52.11,20.55,52.15,20.85,52.18,21.17z M47.49,15.02c0.2-0.22,0.41-0.39,0.63-0.51l0,0
		c0.22-0.12,0.45-0.18,0.68-0.18c1.3,0,2.51,2.03,3.11,5.03c0,0,0,0,0,0c0.03,0.13,0.05,0.25,0.07,0.38
		c-0.5-0.07-1.02-0.12-1.55-0.16c-1.33-1.16-2.72-2.1-4.01-2.72C46.73,16.09,47.09,15.46,47.49,15.02z M46.24,17.32
		c1.09,0.52,2.24,1.28,3.38,2.21c-0.27-0.01-0.54-0.01-0.82-0.01c-1.12,0-2.18,0.07-3.18,0.21C45.79,18.85,45.99,18.03,46.24,17.32z
		 M44.74,26.64c-3.1-0.59-5.13-1.82-5.13-3.13c0-0.91,0.97-1.76,2.54-2.39c0.17,0.36,0.37,0.73,0.6,1.12
		c0.2,0.33,0.55,0.53,0.94,0.53l1.14,0c0,0.1-0.01,0.2-0.01,0.31c0,0,0,0,0,0c0,0.07,0,0.13,0,0.2c0,0.01,0,0.02,0,0.03
		c0,0.07,0,0.13,0,0.2c0,0.04,0,0.08,0,0.12c-0.06,0.07-0.11,0.15-0.16,0.23c0,0,0,0,0,0c-0.01,0.01-0.01,0.03-0.02,0.04
		c-0.18,0.39-0.12,0.84,0.17,1.16c0.02,0.03,0.04,0.05,0.07,0.08c0.04,0.53,0.09,1.05,0.16,1.55
		C44.93,26.67,44.84,26.66,44.74,26.64C44.74,26.64,44.74,26.64,44.74,26.64z M45.03,20.34c-0.09,0.62-0.15,1.27-0.18,1.95h-0.22
		h-0.94c-0.21,0-0.41-0.11-0.51-0.29c-0.21-0.36-0.4-0.7-0.56-1.04c0.61-0.21,1.29-0.4,2.03-0.54c0,0,0,0,0,0
		C44.77,20.38,44.9,20.36,45.03,20.34z M42.41,20.49c-0.04-0.09-0.07-0.18-0.11-0.26c0,0,0,0,0,0c-0.57-1.46-0.58-2.63,0-3.22
		c0.58-0.58,1.75-0.58,3.23,0c0,0,0,0,0,0c0.08,0.03,0.17,0.07,0.25,0.1c-0.28,0.79-0.51,1.7-0.68,2.7
		C44.11,19.98,43.2,20.21,42.41,20.49z M45.31,23.29c0-0.05,0-0.11,0-0.16c0-0.02,0-0.04,0-0.06c0-0.04,0-0.08,0-0.11
		c0-0.04,0-0.08,0-0.13c0-0.01,0-0.02,0-0.03c0-0.01,0-0.02,0-0.02l1.42,0c0.01,0.01,0.01,0.02,0.02,0.03
		c0.03,0.03,0.08,0.05,0.13,0.05h0.29h0.14v0.33h-0.14h-0.29c-0.05,0-0.09,0.02-0.13,0.05c-0.01,0.01-0.02,0.02-0.02,0.03h-1.11
		c-0.11,0-0.22,0.02-0.32,0.05C45.31,23.3,45.31,23.3,45.31,23.29z M45.33,24.44c0-0.01,0-0.01,0-0.02c0-0.05,0-0.11-0.01-0.16
		c0-0.03,0-0.06,0-0.09c0-0.02,0-0.05,0-0.07c0-0.05,0-0.1,0-0.15c0-0.02,0-0.03,0-0.05c0-0.02,0-0.03,0-0.05
		c0.09-0.06,0.2-0.09,0.32-0.09h1.11c0.01,0.01,0.01,0.02,0.02,0.03c0.03,0.03,0.08,0.05,0.13,0.05h0.29h0.14v0.33h-0.14h-0.29
		c-0.05,0-0.09,0.02-0.13,0.05c-0.02,0.02-0.04,0.05-0.05,0.08c-0.4,0.13-0.69,0.51-0.69,0.95v0.43c0,0-0.01-0.01-0.01-0.01
		c-0.04-0.04-0.08-0.08-0.11-0.12c-0.01-0.01-0.03-0.03-0.04-0.04c-0.02-0.02-0.04-0.04-0.06-0.06c-0.04-0.05-0.09-0.09-0.13-0.14
		c0,0-0.01-0.01-0.01-0.01c-0.05-0.06-0.11-0.12-0.16-0.17c0,0,0,0,0,0c-0.05-0.06-0.1-0.11-0.15-0.17
		C45.34,24.78,45.33,24.61,45.33,24.44z M45.42,25.75c0.01,0.01,0.01,0.01,0.02,0.02c0.01,0.02,0.03,0.03,0.04,0.05l0,0
		c0.03,0.03,0.06,0.06,0.09,0.1c0.03,0.03,0.06,0.06,0.09,0.09c0.01,0.01,0.02,0.02,0.03,0.03c0.1,0.1,0.2,0.2,0.3,0.3
		c0.01,0.01,0.02,0.02,0.03,0.03c-0.02,0.11-0.08,0.2-0.17,0.28c-0.09,0.07-0.2,0.12-0.31,0.12C45.49,26.43,45.45,26.09,45.42,25.75
		z M48.8,32.7c-1.39,0-2.62-2.27-3.18-5.45c0.2-0.02,0.39-0.1,0.55-0.24c0.09-0.08,0.17-0.17,0.23-0.28
		c0.02,0.02,0.04,0.03,0.05,0.05c0.03,0.03,0.06,0.06,0.09,0.09c0.01,0.01,0.03,0.03,0.04,0.04c1.56,1.46,3.16,2.57,4.6,3.25
		C50.55,31.74,49.7,32.7,48.8,32.7z M51.37,29.69c-0.08-0.04-0.16-0.08-0.25-0.12c0,0,0,0,0,0c-1.3-0.66-2.75-1.68-4.13-2.96
		c-0.01-0.01-0.02-0.02-0.03-0.03c-0.03-0.03-0.06-0.06-0.1-0.09c-0.05-0.05-0.1-0.1-0.16-0.15c-0.01,0-0.01-0.01-0.02-0.02
		c-0.06-0.05-0.11-0.11-0.17-0.16c0,0,0,0,0,0v-0.93c0-0.2,0.11-0.37,0.28-0.45c0.03,0.02,0.06,0.02,0.09,0.02h0.29h0.14v0.31
		c0,0.29,0.23,0.52,0.52,0.52h1.93c0.29,0,0.52-0.23,0.52-0.52v-0.31h0.14h0.29c0.05,0,0.09-0.02,0.13-0.05
		c0.01-0.01,0.02-0.03,0.03-0.04h0.3c0.21,0,0.42,0.07,0.59,0.19c0.01,0.01,0.02,0.01,0.02,0.02c0,0,0.01,0,0.01,0.01
		c0.24,0.19,0.39,0.49,0.39,0.81c0,0,0,0.01,0,0.01c0,0.01,0,0.02,0,0.03c0,0.02,0,0.03,0,0.05c-0.04,0.37-0.08,0.74-0.14,1.09
		C51.88,27.96,51.65,28.89,51.37,29.69z M55.3,30.01c-0.3,0.3-0.73,0.44-1.27,0.44c-0.62,0-1.38-0.19-2.21-0.54
		c0.36-1.02,0.64-2.25,0.81-3.63c0-0.03,0.01-0.06,0.01-0.08c0-0.03,0.01-0.07,0.01-0.1c0-0.04,0.01-0.07,0.01-0.11
		c0.01,0.3,0.15,0.57,0.38,0.76c0.24,0.19,0.56,0.26,0.86,0.18c0.46-0.12,0.89-0.25,1.29-0.39C55.86,28.08,55.95,29.36,55.3,30.01z
		 M55.46,25.9c-0.01-0.03-0.03-0.06-0.04-0.08c-0.01-0.02-0.02-0.04-0.03-0.06c-0.01-0.02-0.02-0.04-0.03-0.06c0,0,0-0.01,0-0.01
		c0,0,0,0,0,0c-0.62-1.25-1.56-2.61-2.75-3.96c0.06-0.2,0.09-0.41,0.07-0.61c-0.03-0.27-0.06-0.53-0.09-0.78
		c3.16,0.56,5.41,1.79,5.41,3.18C57.99,24.39,57.06,25.25,55.46,25.9z"/>
	<path class="st0" d="M75.58,79.13c-0.51-0.32-1.09-0.48-1.73-0.48c-0.62,0-1.14,0.16-1.55,0.48c-0.4,0.31-0.72,0.69-0.95,1.12
		c-0.22,0.42-0.45,0.95-0.69,1.6c-0.21,0.55-0.38,0.95-0.53,1.19c-0.13,0.22-0.28,0.32-0.46,0.32c-0.13,0-0.23-0.03-0.3-0.1
		c-0.07-0.06-0.1-0.14-0.1-0.24c0-0.16,0.05-0.29,0.16-0.41c0.1-0.11,0.28-0.17,0.53-0.18c0.06,0,0.11-0.05,0.11-0.12V78.9
		c0-0.03-0.01-0.06-0.04-0.08c-0.02-0.02-0.06-0.03-0.09-0.03c-1.07,0.04-1.92,0.44-2.51,1.2c-0.59,0.75-0.88,1.77-0.88,3.03
		c0,0.75,0.12,1.43,0.37,2.03c0.25,0.61,0.61,1.09,1.09,1.44c0.48,0.35,1.07,0.53,1.75,0.53c0.67,0.01,1.25-0.15,1.69-0.47
		c0.43-0.32,0.77-0.7,1-1.14c0.22-0.43,0.45-0.97,0.68-1.63c0.19-0.54,0.36-0.94,0.5-1.18c0.13-0.22,0.28-0.33,0.48-0.33
		c0.13,0,0.22,0.04,0.28,0.13c0.07,0.1,0.1,0.22,0.1,0.37c0,0.26-0.08,0.6-0.77,0.66c-0.06,0.01-0.11,0.06-0.11,0.12v3.38
		c0,0.03,0.01,0.06,0.04,0.09c0.02,0.02,0.05,0.03,0.08,0.03c0,0,0,0,0.01,0c1.13-0.07,2-0.52,2.59-1.33v0
		c0.58-0.8,0.87-1.84,0.87-3.07c0-0.82-0.14-1.53-0.43-2.13C76.49,79.91,76.09,79.44,75.58,79.13z"/>
	<path class="st0" d="M66.72,77.65c0,0.06,0.05,0.12,0.12,0.12h10.14c0.06,0,0.12-0.05,0.12-0.12v-6.76c0-0.06-0.05-0.12-0.12-0.12
		h-2.54c-0.06,0-0.12,0.05-0.12,0.12v3.46h-1.2v-3.03c0-0.06-0.05-0.12-0.12-0.12h-2.39c-0.06,0-0.12,0.05-0.12,0.12v3.03H69.5
		v-3.46c0-0.06-0.05-0.12-0.12-0.12h-2.54c-0.06,0-0.12,0.05-0.12,0.12V77.65z"/>
	<path class="st0" d="M66.72,66.5v3.18c0,0.06,0.05,0.12,0.12,0.12h10.14c0.06,0,0.12-0.05,0.12-0.12V66.5
		c0-0.06-0.05-0.12-0.12-0.12h-4.71l4.77-3.15c0.03-0.02,0.05-0.06,0.05-0.1v-3.18c0-0.06-0.05-0.12-0.12-0.12H66.84
		c-0.06,0-0.12,0.05-0.12,0.12v3.18c0,0.06,0.05,0.12,0.12,0.12h4.79l-4.85,3.15C66.74,66.43,66.72,66.46,66.72,66.5z"/>
	<path class="st0" d="M75.58,51.05c-0.51-0.32-1.09-0.48-1.73-0.48c-0.62,0-1.14,0.16-1.55,0.48c-0.4,0.31-0.72,0.69-0.95,1.12
		c-0.22,0.42-0.45,0.95-0.69,1.6c-0.21,0.55-0.38,0.95-0.53,1.19c-0.13,0.22-0.28,0.32-0.46,0.32c-0.13,0-0.23-0.03-0.3-0.1
		c-0.07-0.06-0.1-0.14-0.1-0.24c0-0.16,0.05-0.29,0.16-0.41c0.1-0.11,0.28-0.17,0.53-0.18c0.06,0,0.11-0.05,0.11-0.12v-3.42
		c0-0.03-0.01-0.06-0.04-0.08c-0.02-0.02-0.06-0.03-0.09-0.03c-1.07,0.04-1.92,0.44-2.51,1.2c-0.59,0.75-0.88,1.77-0.88,3.03
		c0,0.75,0.12,1.43,0.37,2.03c0.25,0.61,0.61,1.09,1.09,1.44c0.48,0.35,1.07,0.53,1.75,0.53c0.69,0.01,1.25-0.15,1.69-0.47
		c0.43-0.32,0.77-0.7,1-1.14c0.22-0.43,0.45-0.97,0.68-1.63c0.19-0.54,0.36-0.94,0.5-1.18c0.13-0.22,0.28-0.33,0.48-0.33
		c0.13,0,0.22,0.04,0.28,0.13c0.07,0.1,0.1,0.22,0.1,0.37c0,0.26-0.08,0.6-0.77,0.66c-0.06,0-0.11,0.06-0.11,0.12v3.38
		c0,0.03,0.01,0.06,0.04,0.09c0.02,0.02,0.05,0.03,0.08,0.03c0,0,0,0,0.01,0c1.13-0.07,2-0.52,2.59-1.33
		c0.58-0.8,0.87-1.84,0.87-3.07c0-0.82-0.14-1.53-0.43-2.13C76.49,51.83,76.09,51.36,75.58,51.05z"/>
	<path class="st0" d="M66.84,49.69h10.14c0.06,0,0.12-0.05,0.12-0.12v-3.18c0-0.06-0.05-0.12-0.12-0.12H66.84
		c-0.06,0-0.12,0.05-0.12,0.12v3.18C66.72,49.64,66.78,49.69,66.84,49.69z"/>
	<path class="st0" d="M66.84,45.65h2.52c0.06,0,0.12-0.05,0.12-0.12v-2.55h7.5c0.06,0,0.12-0.05,0.12-0.12v-3.18
		c0-0.06-0.05-0.12-0.12-0.12h-7.5v-2.58c0-0.06-0.05-0.12-0.12-0.12h-2.52c-0.06,0-0.12,0.05-0.12,0.12v8.54
		C66.72,45.59,66.78,45.65,66.84,45.65z"/>
	<path class="st0" d="M66.84,36.25h10.14c0.06,0,0.12-0.05,0.12-0.12v-3.18c0-0.06-0.05-0.12-0.12-0.12H66.84
		c-0.06,0-0.12,0.05-0.12,0.12v3.18C66.72,36.2,66.78,36.25,66.84,36.25z"/>
	<path class="st0" d="M66.84,32.35c0.01,0,0.03,0,0.04-0.01l10.14-3.41c0.05-0.02,0.08-0.06,0.08-0.11v-4.11
		c0-0.05-0.03-0.1-0.08-0.11l-10.14-3.41c-0.04-0.01-0.08-0.01-0.11,0.02c-0.03,0.02-0.05,0.06-0.05,0.1v3.38
		c0,0.05,0.03,0.1,0.08,0.11l6.6,1.97l-6.6,1.98c-0.05,0.01-0.08,0.06-0.08,0.11v3.38c0,0.04,0.02,0.07,0.05,0.1
		C66.79,32.34,66.82,32.35,66.84,32.35z"/>
	<path class="st0" d="M66.84,20.7h10.14c0.06,0,0.12-0.05,0.12-0.12v-6.76c0-0.06-0.05-0.12-0.12-0.12h-2.54
		c-0.06,0-0.12,0.05-0.12,0.12v3.46h-1.2v-3.03c0-0.06-0.05-0.12-0.12-0.12h-2.39c-0.06,0-0.12,0.05-0.12,0.12v3.03H69.5v-3.46
		c0-0.06-0.05-0.12-0.12-0.12h-2.54c-0.06,0-0.12,0.05-0.12,0.12v6.76C66.72,20.65,66.78,20.7,66.84,20.7z"/>
	<path class="st0" d="M88.46,30.95h-2.21v-0.79c0-0.61-0.12-1.14-0.34-1.57c-0.23-0.43-0.55-0.77-0.94-0.99
		c-0.39-0.22-0.83-0.34-1.31-0.34c-0.79,0-1.44,0.25-1.91,0.75c-0.47,0.5-0.71,1.22-0.71,2.14v3.2c0,0.06,0.05,0.12,0.12,0.12h7.31
		c0.06,0,0.12-0.05,0.12-0.12v-2.29C88.57,31.01,88.52,30.95,88.46,30.95z M83.1,30.95v-0.53c0-0.41,0.17-0.6,0.55-0.6
		c0.38,0,0.55,0.18,0.55,0.6v0.53H83.1z"/>
	<path class="st0" d="M88.46,21.67h-1.83c-0.06,0-0.12,0.05-0.12,0.12v2.46h-0.8V22.1c0-0.06-0.05-0.12-0.12-0.12h-1.73
		c-0.06,0-0.12,0.05-0.12,0.12v2.15h-0.66v-2.46c0-0.06-0.05-0.12-0.12-0.12h-1.83c-0.06,0-0.12,0.05-0.12,0.12v4.88
		c0,0.06,0.05,0.12,0.12,0.12h7.31c0.06,0,0.12-0.05,0.12-0.12v-4.88C88.57,21.72,88.52,21.67,88.46,21.67z"/>
	<path class="st0" d="M88.57,16.2v-2.29c0-0.06-0.05-0.12-0.12-0.12h-7.31c-0.06,0-0.12,0.05-0.12,0.12v2.29
		c0,0.06,0.05,0.12,0.12,0.12h3.34l-3.41,2.21c-0.03,0.02-0.05,0.06-0.05,0.1v2.29c0,0.06,0.05,0.12,0.12,0.12h7.31
		c0.06,0,0.12-0.05,0.12-0.12v-2.29c0-0.06-0.05-0.12-0.12-0.12h-3.29l3.35-2.21C88.55,16.27,88.57,16.24,88.57,16.2z"/>
	<line class="st1" x1="62.36" y1="0" x2="5.67" y2="0"/>
	<path class="st1" d="M5.67,0C2.54,0,0,2.54,0,5.67c0,0,0,0,0,0"/>
	<line class="st1" x1="0" y1="5.67" x2="0" y2="87.87"/>
	<path class="st1" d="M0,87.87c0,3.13,2.54,5.67,5.67,5.67"/>
	<line class="st1" x1="5.67" y1="93.54" x2="39.72" y2="93.54"/>
	<line class="st1" x1="53.9" y1="93.54" x2="87.87" y2="93.54"/>
	<path class="st1" d="M87.87,93.54c3.13,0,5.67-2.54,5.67-5.67"/>
	<line class="st1" x1="93.54" y1="87.87" x2="93.54" y2="5.67"/>
</g>
</svg>
