solid CATIA STL
  facet normal  7.071068e-001  7.071068e-001  -0.000000e+000
    outer loop
      vertex  2.764787e+000  7.778174e-002  1.218519e+002
      vertex  2.764787e+000  7.778174e-002  1.204673e+002
      vertex  7.778174e-002  2.764787e+000  1.218519e+002
    endloop
  endfacet
  facet normal  7.071068e-001  7.071068e-001  0.000000e+000
    outer loop
      vertex  7.778174e-002  2.764787e+000  1.218519e+002
      vertex  2.764787e+000  7.778174e-002  1.204673e+002
      vertex  7.778174e-002  2.764787e+000  1.204673e+002
    endloop
  endfacet
  facet normal  7.071068e-001  7.071068e-001  -0.000000e+000
    outer loop
      vertex  2.764787e+000  7.778174e-002  1.087530e+002
      vertex  2.764787e+000  7.778174e-002  1.072481e+002
      vertex  7.778174e-002  2.764787e+000  1.087530e+002
    endloop
  endfacet
  facet normal  7.071068e-001  7.071068e-001  0.000000e+000
    outer loop
      vertex  7.778174e-002  2.764787e+000  1.087530e+002
      vertex  2.764787e+000  7.778174e-002  1.072481e+002
      vertex  7.778174e-002  2.764787e+000  1.072481e+002
    endloop
  endfacet
  facet normal  7.071068e-001 -7.071068e-001 -2.767827e-008
    outer loop
      vertex  8.485281e-001 -1.838478e+000  1.103176e+002
      vertex -1.414214e-001 -2.828427e+000  1.088165e+002
      vertex  2.764787e+000  7.778174e-002  1.087530e+002
    endloop
  endfacet
  facet normal  7.071068e-001 -7.071068e-001  0.000000e+000
    outer loop
      vertex  1.697056e+000 -9.899495e-001  1.228519e+002
      vertex -3.043280e-001 -2.991334e+000  1.179496e+002
      vertex  8.485281e-001 -1.838478e+000  1.157735e+002
    endloop
  endfacet
  facet normal  7.071068e-001 -7.071068e-001 -7.465129e-009
    outer loop
      vertex  1.697056e+000 -9.899495e-001  1.228519e+002
      vertex  8.485281e-001 -1.838478e+000  1.157735e+002
      vertex  2.764787e+000  7.778174e-002  1.204673e+002
    endloop
  endfacet
  facet normal  7.071068e-001 -7.071068e-001  0.000000e+000
    outer loop
      vertex  1.697056e+000 -9.899495e-001  1.228519e+002
      vertex  2.764787e+000  7.778174e-002  1.204673e+002
      vertex  2.764787e+000  7.778174e-002  1.218519e+002
    endloop
  endfacet
  facet normal  7.071068e-001 -7.071068e-001 -8.429370e-008
    outer loop
      vertex  1.697056e+000 -9.899495e-001  1.228519e+002
      vertex  2.764787e+000  7.778174e-002  1.218519e+002
      vertex  3.173036e+000  4.860300e-001  1.228519e+002
    endloop
  endfacet
  facet normal  7.071068e-001 -7.071068e-001  0.000000e+000
    outer loop
      vertex -7.778175e-001 -3.464823e+000  1.178297e+002
      vertex -7.778175e-001 -3.464823e+000  1.128165e+002
      vertex  8.485281e-001 -1.838478e+000  1.103176e+002
    endloop
  endfacet
  facet normal  7.071068e-001 -7.071068e-001  0.000000e+000
    outer loop
      vertex -7.778175e-001 -3.464823e+000  1.178297e+002
      vertex  8.485281e-001 -1.838478e+000  1.103176e+002
      vertex  8.485281e-001 -1.838478e+000  1.157735e+002
    endloop
  endfacet
  facet normal  7.071068e-001 -7.071068e-001  0.000000e+000
    outer loop
      vertex -7.778175e-001 -3.464823e+000  1.178297e+002
      vertex  8.485281e-001 -1.838478e+000  1.157735e+002
      vertex -3.043280e-001 -2.991334e+000  1.179496e+002
    endloop
  endfacet
  facet normal  7.071068e-001 -7.071066e-001 -1.767242e-007
    outer loop
      vertex -7.778175e-001 -3.464823e+000  1.178297e+002
      vertex -3.043280e-001 -2.991334e+000  1.179496e+002
      vertex -6.551790e-001 -3.342185e+000  1.181301e+002
    endloop
  endfacet
  facet normal  7.071068e-001 -7.071068e-001  5.109102e-008
    outer loop
      vertex  1.704127e+000 -9.828784e-001  1.046500e+002
      vertex  2.764787e+000  7.778174e-002  1.072481e+002
      vertex -1.414214e-001 -2.828427e+000  1.046500e+002
    endloop
  endfacet
  facet normal  7.071068e-001 -7.071068e-001  0.000000e+000
    outer loop
      vertex -1.414214e-001 -2.828427e+000  1.046500e+002
      vertex  2.764787e+000  7.778174e-002  1.072481e+002
      vertex  2.764787e+000  7.778174e-002  1.087530e+002
    endloop
  endfacet
  facet normal  7.071068e-001 -7.071068e-001  0.000000e+000
    outer loop
      vertex -1.414214e-001 -2.828427e+000  1.046500e+002
      vertex  2.764787e+000  7.778174e-002  1.087530e+002
      vertex -1.414214e-001 -2.828427e+000  1.088165e+002
    endloop
  endfacet
  facet normal  7.071068e-001 -7.071068e-001 -8.116321e-008
    outer loop
      vertex -7.778175e-001 -3.464823e+000  1.128165e+002
      vertex -1.934461e+000 -4.621467e+000  1.128165e+002
      vertex  8.485281e-001 -1.838478e+000  1.103176e+002
    endloop
  endfacet
  facet normal  7.071068e-001 -7.071068e-001  0.000000e+000
    outer loop
      vertex  8.485281e-001 -1.838478e+000  1.103176e+002
      vertex -1.934461e+000 -4.621467e+000  1.128165e+002
      vertex -1.934461e+000 -4.621467e+000  1.088165e+002
    endloop
  endfacet
  facet normal  7.071067e-001 -7.071068e-001  8.715759e-008
    outer loop
      vertex  8.485281e-001 -1.838478e+000  1.103176e+002
      vertex -1.934461e+000 -4.621467e+000  1.088165e+002
      vertex -1.414214e-001 -2.828427e+000  1.088165e+002
    endloop
  endfacet
  facet normal -7.071068e-001  7.071068e-001 -2.767827e-008
    outer loop
      vertex  7.778174e-002  2.764787e+000  1.087530e+002
      vertex -2.828427e+000 -1.414214e-001  1.088165e+002
      vertex -1.838478e+000  8.485281e-001  1.103176e+002
    endloop
  endfacet
  facet normal -7.071068e-001  7.071068e-001 -8.429370e-008
    outer loop
      vertex -9.899495e-001  1.697056e+000  1.228519e+002
      vertex  4.860300e-001  3.173036e+000  1.228519e+002
      vertex  7.778174e-002  2.764787e+000  1.218519e+002
    endloop
  endfacet
  facet normal -7.071068e-001  7.071068e-001  0.000000e+000
    outer loop
      vertex -9.899495e-001  1.697056e+000  1.228519e+002
      vertex  7.778174e-002  2.764787e+000  1.218519e+002
      vertex  7.778174e-002  2.764787e+000  1.204673e+002
    endloop
  endfacet
  facet normal -7.071068e-001  7.071068e-001 -7.465129e-009
    outer loop
      vertex -9.899495e-001  1.697056e+000  1.228519e+002
      vertex  7.778174e-002  2.764787e+000  1.204673e+002
      vertex -1.838478e+000  8.485281e-001  1.157735e+002
    endloop
  endfacet
  facet normal -7.071068e-001  7.071068e-001  0.000000e+000
    outer loop
      vertex -9.899495e-001  1.697056e+000  1.228519e+002
      vertex -1.838478e+000  8.485281e-001  1.157735e+002
      vertex -2.991334e+000 -3.043280e-001  1.179496e+002
    endloop
  endfacet
  facet normal -7.071066e-001  7.071068e-001 -1.767242e-007
    outer loop
      vertex -3.464823e+000 -7.778175e-001  1.178297e+002
      vertex -3.342185e+000 -6.551790e-001  1.181301e+002
      vertex -2.991334e+000 -3.043280e-001  1.179496e+002
    endloop
  endfacet
  facet normal -7.071068e-001  7.071068e-001  2.079158e-008
    outer loop
      vertex -3.464823e+000 -7.778175e-001  1.178297e+002
      vertex -2.991334e+000 -3.043280e-001  1.179496e+002
      vertex -1.838478e+000  8.485281e-001  1.157735e+002
    endloop
  endfacet
  facet normal -7.071068e-001  7.071068e-001  0.000000e+000
    outer loop
      vertex -3.464823e+000 -7.778175e-001  1.178297e+002
      vertex -1.838478e+000  8.485281e-001  1.157735e+002
      vertex -1.838478e+000  8.485281e-001  1.103176e+002
    endloop
  endfacet
  facet normal -7.071068e-001  7.071068e-001  0.000000e+000
    outer loop
      vertex -3.464823e+000 -7.778175e-001  1.178297e+002
      vertex -1.838478e+000  8.485281e-001  1.103176e+002
      vertex -3.464823e+000 -7.778175e-001  1.128165e+002
    endloop
  endfacet
  facet normal -7.071068e-001  7.071068e-001  0.000000e+000
    outer loop
      vertex -2.828427e+000 -1.414214e-001  1.088165e+002
      vertex  7.778174e-002  2.764787e+000  1.087530e+002
      vertex -2.828427e+000 -1.414214e-001  1.046500e+002
    endloop
  endfacet
  facet normal -7.071068e-001  7.071068e-001  0.000000e+000
    outer loop
      vertex -2.828427e+000 -1.414214e-001  1.046500e+002
      vertex  7.778174e-002  2.764787e+000  1.087530e+002
      vertex  7.778174e-002  2.764787e+000  1.072481e+002
    endloop
  endfacet
  facet normal -7.071068e-001  7.071068e-001  5.109102e-008
    outer loop
      vertex -2.828427e+000 -1.414214e-001  1.046500e+002
      vertex  7.778174e-002  2.764787e+000  1.072481e+002
      vertex -9.828784e-001  1.704127e+000  1.046500e+002
    endloop
  endfacet
  facet normal -7.071068e-001  7.071067e-001  8.715759e-008
    outer loop
      vertex -2.828427e+000 -1.414214e-001  1.088165e+002
      vertex -4.621467e+000 -1.934461e+000  1.088165e+002
      vertex -1.838478e+000  8.485281e-001  1.103176e+002
    endloop
  endfacet
  facet normal -7.071068e-001  7.071068e-001  0.000000e+000
    outer loop
      vertex -1.838478e+000  8.485281e-001  1.103176e+002
      vertex -4.621467e+000 -1.934461e+000  1.088165e+002
      vertex -4.621467e+000 -1.934461e+000  1.128165e+002
    endloop
  endfacet
  facet normal -7.071068e-001  7.071068e-001 -8.116321e-008
    outer loop
      vertex -1.838478e+000  8.485281e-001  1.103176e+002
      vertex -4.621467e+000 -1.934461e+000  1.128165e+002
      vertex -3.464823e+000 -7.778175e-001  1.128165e+002
    endloop
  endfacet
  facet normal  6.123726e-001  6.123726e-001 -4.999996e-001
    outer loop
      vertex  8.485281e-001 -1.838478e+000  1.157735e+002
      vertex -1.838478e+000  8.485281e-001  1.157735e+002
      vertex  2.764787e+000  7.778174e-002  1.204673e+002
    endloop
  endfacet
  facet normal  6.123726e-001  6.123726e-001 -4.999996e-001
    outer loop
      vertex  2.764787e+000  7.778174e-002  1.204673e+002
      vertex -1.838478e+000  8.485281e-001  1.157735e+002
      vertex  7.778174e-002  2.764787e+000  1.204673e+002
    endloop
  endfacet
  facet normal  7.071068e-001  7.071068e-001  0.000000e+000
    outer loop
      vertex  8.485281e-001 -1.838478e+000  1.103176e+002
      vertex -1.838478e+000  8.485281e-001  1.103176e+002
      vertex  8.485281e-001 -1.838478e+000  1.157735e+002
    endloop
  endfacet
  facet normal  7.071068e-001  7.071068e-001  0.000000e+000
    outer loop
      vertex  8.485281e-001 -1.838478e+000  1.157735e+002
      vertex -1.838478e+000  8.485281e-001  1.103176e+002
      vertex -1.838478e+000  8.485281e-001  1.157735e+002
    endloop
  endfacet
  facet normal  3.535537e-001  3.535537e-001  8.660251e-001
    outer loop
      vertex  2.764787e+000  7.778174e-002  1.087530e+002
      vertex  7.778174e-002  2.764787e+000  1.087530e+002
      vertex  8.485281e-001 -1.838478e+000  1.103176e+002
    endloop
  endfacet
  facet normal  3.535537e-001  3.535537e-001  8.660251e-001
    outer loop
      vertex  8.485281e-001 -1.838478e+000  1.103176e+002
      vertex  7.778174e-002  2.764787e+000  1.087530e+002
      vertex -1.838478e+000  8.485281e-001  1.103176e+002
    endloop
  endfacet
  facet normal  0.000000e+000  0.000000e+000  1.000000e+000
    outer loop
      vertex  1.697056e+000 -9.899495e-001  1.228519e+002
      vertex  3.173036e+000  4.860300e-001  1.228519e+002
      vertex -9.899495e-001  1.697056e+000  1.228519e+002
    endloop
  endfacet
  facet normal  -0.000000e+000  0.000000e+000  1.000000e+000
    outer loop
      vertex -9.899495e-001  1.697056e+000  1.228519e+002
      vertex  3.173036e+000  4.860300e-001  1.228519e+002
      vertex  4.860300e-001  3.173036e+000  1.228519e+002
    endloop
  endfacet
  facet normal  0.000000e+000  0.000000e+000 -1.000000e+000
    outer loop
      vertex  1.704127e+000 -9.828784e-001  1.046500e+002
      vertex -1.414214e-001 -2.828427e+000  1.046500e+002
      vertex -9.828784e-001  1.704127e+000  1.046500e+002
    endloop
  endfacet
  facet normal  0.000000e+000  -0.000000e+000 -1.000000e+000
    outer loop
      vertex -9.828784e-001  1.704127e+000  1.046500e+002
      vertex -1.414214e-001 -2.828427e+000  1.046500e+002
      vertex -2.828427e+000 -1.414214e-001  1.046500e+002
    endloop
  endfacet
  facet normal  6.123724e-001  6.123724e-001 -5.000002e-001
    outer loop
      vertex  2.764787e+000  7.778174e-002  1.218519e+002
      vertex  7.778174e-002  2.764787e+000  1.218519e+002
      vertex  3.173036e+000  4.860300e-001  1.228519e+002
    endloop
  endfacet
  facet normal  6.123724e-001  6.123724e-001 -5.000002e-001
    outer loop
      vertex  3.173036e+000  4.860300e-001  1.228519e+002
      vertex  7.778174e-002  2.764787e+000  1.218519e+002
      vertex  4.860300e-001  3.173036e+000  1.228519e+002
    endloop
  endfacet
  facet normal  6.123723e-001  6.123723e-001 -5.000000e-001
    outer loop
      vertex  2.764787e+000  7.778174e-002  1.072481e+002
      vertex  1.704127e+000 -9.828784e-001  1.046500e+002
      vertex  7.778174e-002  2.764787e+000  1.072481e+002
    endloop
  endfacet
  facet normal  6.123724e-001  6.123724e-001 -5.000000e-001
    outer loop
      vertex  7.778174e-002  2.764787e+000  1.072481e+002
      vertex  1.704127e+000 -9.828784e-001  1.046500e+002
      vertex -9.828784e-001  1.704127e+000  1.046500e+002
    endloop
  endfacet
  facet normal -7.406386e-001 -6.719037e-001  -0.000000e+000
    outer loop
      vertex -3.542605e+000 -3.542605e+000  1.088165e+002
      vertex -3.542605e+000 -3.542605e+000  1.128165e+002
      vertex -3.869823e+000 -3.181913e+000  1.088165e+002
    endloop
  endfacet
  facet normal -7.406386e-001 -6.719037e-001  0.000000e+000
    outer loop
      vertex -3.869823e+000 -3.181913e+000  1.088165e+002
      vertex -3.542605e+000 -3.542605e+000  1.128165e+002
      vertex -3.869823e+000 -3.181913e+000  1.128165e+002
    endloop
  endfacet
  facet normal -8.023751e-001 -5.968201e-001  -0.000000e+000
    outer loop
      vertex -3.869823e+000 -3.181913e+000  1.088165e+002
      vertex -3.869823e+000 -3.181913e+000  1.128165e+002
      vertex -4.160475e+000 -2.791156e+000  1.088165e+002
    endloop
  endfacet
  facet normal -8.023751e-001 -5.968201e-001  0.000000e+000
    outer loop
      vertex -4.160475e+000 -2.791156e+000  1.088165e+002
      vertex -3.869823e+000 -3.181913e+000  1.128165e+002
      vertex -4.160475e+000 -2.791156e+000  1.128165e+002
    endloop
  endfacet
  facet normal -8.565300e-001 -5.160973e-001  -0.000000e+000
    outer loop
      vertex -4.160475e+000 -2.791156e+000  1.088165e+002
      vertex -4.160475e+000 -2.791156e+000  1.128165e+002
      vertex -4.411815e+000 -2.374025e+000  1.088165e+002
    endloop
  endfacet
  facet normal -8.565300e-001 -5.160973e-001  0.000000e+000
    outer loop
      vertex -4.411815e+000 -2.374025e+000  1.088165e+002
      vertex -4.160475e+000 -2.791156e+000  1.128165e+002
      vertex -4.411815e+000 -2.374025e+000  1.128165e+002
    endloop
  endfacet
  facet normal -9.025920e-001 -4.304970e-001  -0.000000e+000
    outer loop
      vertex -4.411815e+000 -2.374025e+000  1.088165e+002
      vertex -4.411815e+000 -2.374025e+000  1.128165e+002
      vertex -4.621467e+000 -1.934461e+000  1.088165e+002
    endloop
  endfacet
  facet normal -9.025920e-001 -4.304970e-001  0.000000e+000
    outer loop
      vertex -4.621467e+000 -1.934461e+000  1.088165e+002
      vertex -4.411815e+000 -2.374025e+000  1.128165e+002
      vertex -4.621467e+000 -1.934461e+000  1.128165e+002
    endloop
  endfacet
  facet normal -6.123723e-001 -6.123723e-001  5.000003e-001
    outer loop
      vertex -3.043280e-001 -2.991334e+000  1.179496e+002
      vertex  1.697056e+000 -9.899495e-001  1.228519e+002
      vertex -2.991334e+000 -3.043280e-001  1.179496e+002
    endloop
  endfacet
  facet normal -6.123723e-001 -6.123723e-001  5.000003e-001
    outer loop
      vertex -2.991334e+000 -3.043280e-001  1.179496e+002
      vertex  1.697056e+000 -9.899495e-001  1.228519e+002
      vertex -9.899495e-001  1.697056e+000  1.228519e+002
    endloop
  endfacet
  facet normal  2.418463e-001  2.418463e-001  9.396919e-001
    outer loop
      vertex -6.551790e-001 -3.342185e+000  1.181301e+002
      vertex -3.043280e-001 -2.991334e+000  1.179496e+002
      vertex -3.342185e+000 -6.551790e-001  1.181301e+002
    endloop
  endfacet
  facet normal  2.418463e-001  2.418463e-001  9.396918e-001
    outer loop
      vertex -3.342185e+000 -6.551790e-001  1.181301e+002
      vertex -3.043280e-001 -2.991334e+000  1.179496e+002
      vertex -2.991334e+000 -3.043280e-001  1.179496e+002
    endloop
  endfacet
  facet normal -6.123753e-001 -6.123753e-001  4.999929e-001
    outer loop
      vertex -7.778175e-001 -3.464823e+000  1.178297e+002
      vertex -6.551790e-001 -3.342185e+000  1.181301e+002
      vertex -3.464823e+000 -7.778175e-001  1.178297e+002
    endloop
  endfacet
  facet normal -6.123753e-001 -6.123753e-001  4.999929e-001
    outer loop
      vertex -3.464823e+000 -7.778175e-001  1.178297e+002
      vertex -6.551790e-001 -3.342185e+000  1.181301e+002
      vertex -3.342185e+000 -6.551790e-001  1.181301e+002
    endloop
  endfacet
  facet normal -7.071068e-001 -7.071068e-001  -0.000000e+000
    outer loop
      vertex -7.778175e-001 -3.464823e+000  1.128165e+002
      vertex -7.778175e-001 -3.464823e+000  1.178297e+002
      vertex -3.464823e+000 -7.778175e-001  1.128165e+002
    endloop
  endfacet
  facet normal -7.071068e-001 -7.071068e-001  0.000000e+000
    outer loop
      vertex -3.464823e+000 -7.778175e-001  1.128165e+002
      vertex -7.778175e-001 -3.464823e+000  1.178297e+002
      vertex -3.464823e+000 -7.778175e-001  1.178297e+002
    endloop
  endfacet
  facet normal  0.000000e+000  0.000000e+000  1.000000e+000
    outer loop
      vertex -7.778175e-001 -3.464823e+000  1.128165e+002
      vertex -3.464823e+000 -7.778175e-001  1.128165e+002
      vertex -4.621467e+000 -1.934461e+000  1.128165e+002
    endloop
  endfacet
  facet normal  0.000000e+000  0.000000e+000  1.000000e+000
    outer loop
      vertex -7.778175e-001 -3.464823e+000  1.128165e+002
      vertex -4.621467e+000 -1.934461e+000  1.128165e+002
      vertex -4.411815e+000 -2.374025e+000  1.128165e+002
    endloop
  endfacet
  facet normal  0.000000e+000  0.000000e+000  1.000000e+000
    outer loop
      vertex -7.778175e-001 -3.464823e+000  1.128165e+002
      vertex -4.411815e+000 -2.374025e+000  1.128165e+002
      vertex -4.160475e+000 -2.791156e+000  1.128165e+002
    endloop
  endfacet
  facet normal  0.000000e+000  0.000000e+000  1.000000e+000
    outer loop
      vertex -7.778175e-001 -3.464823e+000  1.128165e+002
      vertex -4.160475e+000 -2.791156e+000  1.128165e+002
      vertex -3.869823e+000 -3.181913e+000  1.128165e+002
    endloop
  endfacet
  facet normal  0.000000e+000  0.000000e+000  1.000000e+000
    outer loop
      vertex -7.778175e-001 -3.464823e+000  1.128165e+002
      vertex -3.869823e+000 -3.181913e+000  1.128165e+002
      vertex -3.542605e+000 -3.542605e+000  1.128165e+002
    endloop
  endfacet
  facet normal  -0.000000e+000  0.000000e+000  1.000000e+000
    outer loop
      vertex -7.778175e-001 -3.464823e+000  1.128165e+002
      vertex -3.542605e+000 -3.542605e+000  1.128165e+002
      vertex -3.181913e+000 -3.869823e+000  1.128165e+002
    endloop
  endfacet
  facet normal  -0.000000e+000  0.000000e+000  1.000000e+000
    outer loop
      vertex -7.778175e-001 -3.464823e+000  1.128165e+002
      vertex -3.181913e+000 -3.869823e+000  1.128165e+002
      vertex -2.791156e+000 -4.160475e+000  1.128165e+002
    endloop
  endfacet
  facet normal  -0.000000e+000  0.000000e+000  1.000000e+000
    outer loop
      vertex -7.778175e-001 -3.464823e+000  1.128165e+002
      vertex -2.791156e+000 -4.160475e+000  1.128165e+002
      vertex -2.374025e+000 -4.411815e+000  1.128165e+002
    endloop
  endfacet
  facet normal  -0.000000e+000  0.000000e+000  1.000000e+000
    outer loop
      vertex -7.778175e-001 -3.464823e+000  1.128165e+002
      vertex -2.374025e+000 -4.411815e+000  1.128165e+002
      vertex -1.934461e+000 -4.621467e+000  1.128165e+002
    endloop
  endfacet
  facet normal -4.304970e-001 -9.025920e-001  -0.000000e+000
    outer loop
      vertex -1.934461e+000 -4.621467e+000  1.088165e+002
      vertex -1.934461e+000 -4.621467e+000  1.128165e+002
      vertex -2.374025e+000 -4.411815e+000  1.088165e+002
    endloop
  endfacet
  facet normal -4.304970e-001 -9.025920e-001  0.000000e+000
    outer loop
      vertex -2.374025e+000 -4.411815e+000  1.088165e+002
      vertex -1.934461e+000 -4.621467e+000  1.128165e+002
      vertex -2.374025e+000 -4.411815e+000  1.128165e+002
    endloop
  endfacet
  facet normal -5.160973e-001 -8.565300e-001  -0.000000e+000
    outer loop
      vertex -2.374025e+000 -4.411815e+000  1.088165e+002
      vertex -2.374025e+000 -4.411815e+000  1.128165e+002
      vertex -2.791156e+000 -4.160475e+000  1.088165e+002
    endloop
  endfacet
  facet normal -5.160973e-001 -8.565300e-001  0.000000e+000
    outer loop
      vertex -2.791156e+000 -4.160475e+000  1.088165e+002
      vertex -2.374025e+000 -4.411815e+000  1.128165e+002
      vertex -2.791156e+000 -4.160475e+000  1.128165e+002
    endloop
  endfacet
  facet normal -5.968201e-001 -8.023751e-001  -0.000000e+000
    outer loop
      vertex -2.791156e+000 -4.160475e+000  1.088165e+002
      vertex -2.791156e+000 -4.160475e+000  1.128165e+002
      vertex -3.181913e+000 -3.869823e+000  1.088165e+002
    endloop
  endfacet
  facet normal -5.968201e-001 -8.023751e-001  0.000000e+000
    outer loop
      vertex -3.181913e+000 -3.869823e+000  1.088165e+002
      vertex -2.791156e+000 -4.160475e+000  1.128165e+002
      vertex -3.181913e+000 -3.869823e+000  1.128165e+002
    endloop
  endfacet
  facet normal -6.719037e-001 -7.406386e-001  -0.000000e+000
    outer loop
      vertex -3.181913e+000 -3.869823e+000  1.088165e+002
      vertex -3.181913e+000 -3.869823e+000  1.128165e+002
      vertex -3.542605e+000 -3.542605e+000  1.088165e+002
    endloop
  endfacet
  facet normal -6.719037e-001 -7.406386e-001  0.000000e+000
    outer loop
      vertex -3.542605e+000 -3.542605e+000  1.088165e+002
      vertex -3.181913e+000 -3.869823e+000  1.128165e+002
      vertex -3.542605e+000 -3.542605e+000  1.128165e+002
    endloop
  endfacet
  facet normal  0.000000e+000  0.000000e+000 -1.000000e+000
    outer loop
      vertex -1.414214e-001 -2.828427e+000  1.088165e+002
      vertex -1.934461e+000 -4.621467e+000  1.088165e+002
      vertex -2.374025e+000 -4.411815e+000  1.088165e+002
    endloop
  endfacet
  facet normal  0.000000e+000  0.000000e+000 -1.000000e+000
    outer loop
      vertex -1.414214e-001 -2.828427e+000  1.088165e+002
      vertex -2.374025e+000 -4.411815e+000  1.088165e+002
      vertex -2.791156e+000 -4.160475e+000  1.088165e+002
    endloop
  endfacet
  facet normal  0.000000e+000  0.000000e+000 -1.000000e+000
    outer loop
      vertex -1.414214e-001 -2.828427e+000  1.088165e+002
      vertex -2.791156e+000 -4.160475e+000  1.088165e+002
      vertex -3.181913e+000 -3.869823e+000  1.088165e+002
    endloop
  endfacet
  facet normal  0.000000e+000  0.000000e+000 -9.999999e-001
    outer loop
      vertex -1.414214e-001 -2.828427e+000  1.088165e+002
      vertex -3.181913e+000 -3.869823e+000  1.088165e+002
      vertex -3.542605e+000 -3.542605e+000  1.088165e+002
    endloop
  endfacet
  facet normal  0.000000e+000  0.000000e+000 -9.999999e-001
    outer loop
      vertex -1.414214e-001 -2.828427e+000  1.088165e+002
      vertex -3.542605e+000 -3.542605e+000  1.088165e+002
      vertex -3.869823e+000 -3.181913e+000  1.088165e+002
    endloop
  endfacet
  facet normal  0.000000e+000  0.000000e+000 -1.000000e+000
    outer loop
      vertex -1.414214e-001 -2.828427e+000  1.088165e+002
      vertex -3.869823e+000 -3.181913e+000  1.088165e+002
      vertex -4.160475e+000 -2.791156e+000  1.088165e+002
    endloop
  endfacet
  facet normal  0.000000e+000  0.000000e+000 -1.000000e+000
    outer loop
      vertex -1.414214e-001 -2.828427e+000  1.088165e+002
      vertex -4.160475e+000 -2.791156e+000  1.088165e+002
      vertex -4.411815e+000 -2.374025e+000  1.088165e+002
    endloop
  endfacet
  facet normal  0.000000e+000  0.000000e+000 -1.000000e+000
    outer loop
      vertex -1.414214e-001 -2.828427e+000  1.088165e+002
      vertex -4.411815e+000 -2.374025e+000  1.088165e+002
      vertex -4.621467e+000 -1.934461e+000  1.088165e+002
    endloop
  endfacet
  facet normal  0.000000e+000  0.000000e+000 -1.000000e+000
    outer loop
      vertex -1.414214e-001 -2.828427e+000  1.088165e+002
      vertex -4.621467e+000 -1.934461e+000  1.088165e+002
      vertex -2.828427e+000 -1.414214e-001  1.088165e+002
    endloop
  endfacet
  facet normal -7.071068e-001 -7.071068e-001  -0.000000e+000
    outer loop
      vertex -1.414214e-001 -2.828427e+000  1.046500e+002
      vertex -1.414214e-001 -2.828427e+000  1.088165e+002
      vertex -2.828427e+000 -1.414214e-001  1.046500e+002
    endloop
  endfacet
  facet normal -7.071068e-001 -7.071068e-001  0.000000e+000
    outer loop
      vertex -2.828427e+000 -1.414214e-001  1.046500e+002
      vertex -1.414214e-001 -2.828427e+000  1.088165e+002
      vertex -2.828427e+000 -1.414214e-001  1.088165e+002
    endloop
  endfacet
endsolid CATIA STL
