solid CATIA STL
  facet normal -8.529698e-001 -5.219593e-001 -8.991208e-004
    outer loop
      vertex -4.183891e+000 -2.755931e+000  1.100704e+002
      vertex -4.296091e+000 -2.577538e+000  1.129500e+002
      vertex -4.356823e+000 -2.473498e+000  1.101674e+002
    endloop
  endfacet
  facet normal -5.660024e-001 -8.244029e-001  9.205859e-004
    outer loop
      vertex -2.577538e+000 -4.296091e+000  1.129500e+002
      vertex -3.083176e+000 -3.948940e+000  1.129500e+002
      vertex -3.045092e+000 -3.978381e+000  1.100000e+002
    endloop
  endfacet
  facet normal -5.822750e-001 -8.129781e-001  4.730151e-003
    outer loop
      vertex -2.577538e+000 -4.296091e+000  1.129500e+002
      vertex -3.045092e+000 -3.978381e+000  1.100000e+002
      vertex -2.778744e+000 -4.168775e+000  1.100638e+002
    endloop
  endfacet
  facet normal -5.273764e-001 -8.496315e-001 -7.138791e-004
    outer loop
      vertex -2.577538e+000 -4.296091e+000  1.129500e+002
      vertex -2.778744e+000 -4.168775e+000  1.100638e+002
      vertex -2.504559e+000 -4.339042e+000  1.101554e+002
    endloop
  endfacet
  facet normal -4.728553e-001 -8.811392e-001  1.194145e-003
    outer loop
      vertex -2.577538e+000 -4.296091e+000  1.129500e+002
      vertex -2.504559e+000 -4.339042e+000  1.101554e+002
      vertex -2.227058e+000 -4.487796e+000  1.102764e+002
    endloop
  endfacet
  facet normal -4.370663e-001 -8.994005e-001  7.195137e-003
    outer loop
      vertex -2.577538e+000 -4.296091e+000  1.129500e+002
      vertex -2.227058e+000 -4.487796e+000  1.102764e+002
      vertex -2.117030e+000 -4.540736e+000  1.103424e+002
    endloop
  endfacet
  facet normal -4.260917e-001 -9.046288e-001  9.623812e-003
    outer loop
      vertex -2.577538e+000 -4.296091e+000  1.129500e+002
      vertex -2.117030e+000 -4.540736e+000  1.103424e+002
      vertex -2.076162e+000 -4.559567e+000  1.103818e+002
    endloop
  endfacet
  facet normal -4.263889e-001 -9.044894e-001  9.551494e-003
    outer loop
      vertex -2.577538e+000 -4.296091e+000  1.129500e+002
      vertex -2.076162e+000 -4.559567e+000  1.103818e+002
      vertex -2.041439e+000 -4.575219e+000  1.104497e+002
    endloop
  endfacet
  facet normal -4.403529e-001 -8.978060e-001  5.811291e-003
    outer loop
      vertex -2.577538e+000 -4.296091e+000  1.129500e+002
      vertex -2.041439e+000 -4.575219e+000  1.104497e+002
      vertex -2.033270e+000 -4.578855e+000  1.105069e+002
    endloop
  endfacet
  facet normal -4.610256e-001 -8.873868e-001  0.000000e+000
    outer loop
      vertex -2.577538e+000 -4.296091e+000  1.129500e+002
      vertex -2.033270e+000 -4.578855e+000  1.105069e+002
      vertex -2.033270e+000 -4.578855e+000  1.129500e+002
    endloop
  endfacet
  facet normal -8.243998e-001 -5.660003e-001  2.942481e-003
    outer loop
      vertex -3.948940e+000 -3.083176e+000  1.129500e+002
      vertex -4.296091e+000 -2.577538e+000  1.129500e+002
      vertex -4.183891e+000 -2.755931e+000  1.100704e+002
    endloop
  endfacet
  facet normal -8.208789e-001 -5.710986e-001  2.075807e-003
    outer loop
      vertex -3.948940e+000 -3.083176e+000  1.129500e+002
      vertex -4.183891e+000 -2.755931e+000  1.100704e+002
      vertex -4.041286e+000 -2.961099e+000  1.100175e+002
    endloop
  endfacet
  facet normal -7.915689e-001 -6.110796e-001 -5.115418e-004
    outer loop
      vertex -3.948940e+000 -3.083176e+000  1.129500e+002
      vertex -4.041286e+000 -2.961099e+000  1.100175e+002
      vertex -3.887269e+000 -3.160575e+000  1.099801e+002
    endloop
  endfacet
  facet normal -7.593960e-001 -6.506276e-001  1.187205e-003
    outer loop
      vertex -3.948940e+000 -3.083176e+000  1.129500e+002
      vertex -3.887269e+000 -3.160575e+000  1.099801e+002
      vertex -3.720058e+000 -3.355781e+000  1.099575e+002
    endloop
  endfacet
  facet normal -7.248905e-001 -6.888253e-001  7.306021e-003
    outer loop
      vertex -3.948940e+000 -3.083176e+000  1.129500e+002
      vertex -3.720058e+000 -3.355781e+000  1.099575e+002
      vertex -3.542605e+000 -3.542605e+000  1.099500e+002
    endloop
  endfacet
  facet normal -7.490638e-001 -6.624979e-001  0.000000e+000
    outer loop
      vertex -3.948940e+000 -3.083176e+000  1.129500e+002
      vertex -3.542605e+000 -3.542605e+000  1.099500e+002
      vertex -3.542605e+000 -3.542605e+000  1.129500e+002
    endloop
  endfacet
  facet normal -9.135256e-001 -4.067813e-001  0.000000e+000
    outer loop
      vertex -4.578855e+000 -2.033270e+000  1.129500e+002
      vertex -4.578855e+000 -2.033270e+000  1.105017e+002
      vertex -4.574740e+000 -2.042511e+000  1.104409e+002
    endloop
  endfacet
  facet normal -9.119123e-001 -4.103851e-001  1.591770e-005
    outer loop
      vertex -4.578855e+000 -2.033270e+000  1.129500e+002
      vertex -4.574740e+000 -2.042511e+000  1.104409e+002
      vertex -4.562722e+000 -2.069218e+000  1.103860e+002
    endloop
  endfacet
  facet normal -9.080225e-001 -4.189213e-001  1.600734e-004
    outer loop
      vertex -4.578855e+000 -2.033270e+000  1.129500e+002
      vertex -4.562722e+000 -2.069218e+000  1.103860e+002
      vertex -4.536063e+000 -2.127024e+000  1.103305e+002
    endloop
  endfacet
  facet normal -9.023612e-001 -4.309801e-001  6.841486e-004
    outer loop
      vertex -4.578855e+000 -2.033270e+000  1.129500e+002
      vertex -4.536063e+000 -2.127024e+000  1.103305e+002
      vertex -4.506903e+000 -2.188133e+000  1.102959e+002
    endloop
  endfacet
  facet normal -8.844540e-001 -4.666161e-001  3.248903e-003
    outer loop
      vertex -4.578855e+000 -2.033270e+000  1.129500e+002
      vertex -4.506903e+000 -2.188133e+000  1.102959e+002
      vertex -4.356823e+000 -2.473498e+000  1.101674e+002
    endloop
  endfacet
  facet normal -8.873848e-001 -4.610246e-001  2.130392e-003
    outer loop
      vertex -4.578855e+000 -2.033270e+000  1.129500e+002
      vertex -4.356823e+000 -2.473498e+000  1.101674e+002
      vertex -4.296091e+000 -2.577538e+000  1.129500e+002
    endloop
  endfacet
  facet normal -6.624979e-001 -7.490638e-001  0.000000e+000
    outer loop
      vertex -3.542605e+000 -3.542605e+000  1.129500e+002
      vertex -3.542605e+000 -3.542605e+000  1.099500e+002
      vertex -3.083176e+000 -3.948940e+000  1.129500e+002
    endloop
  endfacet
  facet normal -6.834676e-001 -7.299578e-001  5.799185e-003
    outer loop
      vertex -3.083176e+000 -3.948940e+000  1.129500e+002
      vertex -3.542605e+000 -3.542605e+000  1.099500e+002
      vertex -3.300511e+000 -3.769181e+000  1.099624e+002
    endloop
  endfacet
  facet normal -6.335970e-001 -7.736632e-001 -4.584515e-004
    outer loop
      vertex -3.083176e+000 -3.948940e+000  1.129500e+002
      vertex -3.300511e+000 -3.769181e+000  1.099624e+002
      vertex -3.045092e+000 -3.978381e+000  1.100000e+002
    endloop
  endfacet
  facet normal  7.071068e-001 -7.071068e-001  1.350950e-007
    outer loop
      vertex  4.578859e+000  2.033275e+000  1.244500e+002
      vertex  2.757716e+000  2.121320e-001  1.244500e+002
      vertex  4.578855e+000  2.033270e+000  1.232021e+002
    endloop
  endfacet
  facet normal  7.071069e-001 -7.071067e-001  0.000000e+000
    outer loop
      vertex  1.414214e-001 -2.404163e+000  1.129500e+002
      vertex -2.033270e+000 -4.578855e+000  1.129500e+002
      vertex -2.033270e+000 -4.578855e+000  1.105069e+002
    endloop
  endfacet
  facet normal  7.071068e-001 -7.071067e-001 -1.339655e-008
    outer loop
      vertex  1.414214e-001 -2.404163e+000  1.129500e+002
      vertex -2.033270e+000 -4.578855e+000  1.105069e+002
      vertex -2.121320e-001 -2.757716e+000  1.105069e+002
    endloop
  endfacet
  facet normal  7.071066e-001 -7.071069e-001  0.000000e+000
    outer loop
      vertex  1.414214e-001 -2.404163e+000  1.129500e+002
      vertex -2.121320e-001 -2.757716e+000  1.105069e+002
      vertex -2.121320e-001 -2.757716e+000  1.104116e+002
    endloop
  endfacet
  facet normal  7.071066e-001 -7.071069e-001  0.000000e+000
    outer loop
      vertex  1.414214e-001 -2.404163e+000  1.129500e+002
      vertex -2.121320e-001 -2.757716e+000  1.104116e+002
      vertex -2.121320e-001 -2.757716e+000  1.097600e+002
    endloop
  endfacet
  facet normal  7.071064e-001 -7.071072e-001  6.031041e-008
    outer loop
      vertex  1.414214e-001 -2.404163e+000  1.129500e+002
      vertex -2.121320e-001 -2.757716e+000  1.097600e+002
      vertex -1.866579e-001 -2.732242e+000  1.092170e+002
    endloop
  endfacet
  facet normal  7.071069e-001 -7.071067e-001 -2.987156e-008
    outer loop
      vertex  1.414214e-001 -2.404163e+000  1.129500e+002
      vertex -1.866579e-001 -2.732242e+000  1.092170e+002
      vertex -1.106820e-001 -2.656266e+000  1.086835e+002
    endloop
  endfacet
  facet normal  7.071068e-001 -7.071067e-001 -2.392905e-008
    outer loop
      vertex  1.414214e-001 -2.404163e+000  1.129500e+002
      vertex -1.106820e-001 -2.656266e+000  1.086835e+002
      vertex  1.446358e-002 -2.531121e+000  1.081689e+002
    endloop
  endfacet
  facet normal  7.071068e-001 -7.071067e-001 -1.942348e-008
    outer loop
      vertex  1.414214e-001 -2.404163e+000  1.129500e+002
      vertex  1.446358e-002 -2.531121e+000  1.081689e+002
      vertex  1.865851e-001 -2.358999e+000  1.076822e+002
    endloop
  endfacet
  facet normal  7.071080e-001 -7.071056e-001  0.000000e+000
    outer loop
      vertex  1.414214e-001 -2.404163e+000  1.129500e+002
      vertex  1.865851e-001 -2.358999e+000  1.076822e+002
      vertex  1.414214e-001 -2.404163e+000  1.244500e+002
    endloop
  endfacet
  facet normal  7.071068e-001 -7.071068e-001  0.000000e+000
    outer loop
      vertex  2.094077e+000 -4.515076e-001  1.223500e+002
      vertex  1.292060e+000 -1.253525e+000  1.194131e+002
      vertex  1.401971e+000 -1.143613e+000  1.197465e+002
    endloop
  endfacet
  facet normal  7.071071e-001 -7.071065e-001 -1.621868e-007
    outer loop
      vertex  2.094077e+000 -4.515076e-001  1.223500e+002
      vertex  1.401971e+000 -1.143613e+000  1.197465e+002
      vertex  1.551142e+000 -9.944423e-001  1.200478e+002
    endloop
  endfacet
  facet normal  7.071066e-001 -7.071069e-001  5.362648e-008
    outer loop
      vertex  2.094077e+000 -4.515076e-001  1.223500e+002
      vertex  1.551142e+000 -9.944423e-001  1.200478e+002
      vertex  1.735041e+000 -8.105437e-001  1.203078e+002
    endloop
  endfacet
  facet normal  7.071068e-001 -7.071068e-001  0.000000e+000
    outer loop
      vertex  2.094077e+000 -4.515076e-001  1.223500e+002
      vertex  1.735041e+000 -8.105437e-001  1.203078e+002
      vertex  1.948079e+000 -5.975052e-001  1.205188e+002
    endloop
  endfacet
  facet normal  7.071066e-001 -7.071069e-001  1.504731e-008
    outer loop
      vertex  2.094077e+000 -4.515076e-001  1.223500e+002
      vertex  1.948079e+000 -5.975052e-001  1.205188e+002
      vertex  2.183784e+000 -3.618000e-001  1.206742e+002
    endloop
  endfacet
  facet normal  7.071062e-001 -7.071074e-001 -3.587581e-008
    outer loop
      vertex  2.094077e+000 -4.515076e-001  1.223500e+002
      vertex  2.183784e+000 -3.618000e-001  1.206742e+002
      vertex  2.114788e+000 -4.307969e-001  1.222793e+002
    endloop
  endfacet
  facet normal  7.071028e-001 -7.071106e-001  7.142072e-007
    outer loop
      vertex  1.202082e+000 -1.343503e+000  1.186915e+002
      vertex  1.224748e+000 -1.320836e+000  1.190579e+002
      vertex  1.865851e-001 -2.358999e+000  1.076822e+002
    endloop
  endfacet
  facet normal  7.071068e-001 -7.071068e-001 -1.019493e-008
    outer loop
      vertex  1.202082e+000 -1.343503e+000  1.186915e+002
      vertex  1.865851e-001 -2.358999e+000  1.076822e+002
      vertex  4.026650e-001 -2.142919e+000  1.072320e+002
    endloop
  endfacet
  facet normal  7.071066e-001 -7.071068e-001  3.708210e-009
    outer loop
      vertex  1.202082e+000 -1.343503e+000  1.186915e+002
      vertex  4.026650e-001 -2.142919e+000  1.072320e+002
      vertex  6.589153e-001 -1.886669e+000  1.068260e+002
    endloop
  endfacet
  facet normal  7.071068e-001 -7.071068e-001 -3.364991e-009
    outer loop
      vertex  1.202082e+000 -1.343503e+000  1.186915e+002
      vertex  6.589153e-001 -1.886669e+000  1.068260e+002
      vertex  9.508438e-001 -1.594741e+000  1.064715e+002
    endloop
  endfacet
  facet normal  7.071067e-001 -7.071068e-001  0.000000e+000
    outer loop
      vertex  1.202082e+000 -1.343503e+000  1.186915e+002
      vertex  9.508438e-001 -1.594741e+000  1.064715e+002
      vertex  1.202082e+000 -1.343503e+000  1.097600e+002
    endloop
  endfacet
  facet normal  7.071068e-001 -7.071068e-001 -6.103768e-009
    outer loop
      vertex  1.414214e-001 -2.404163e+000  1.244500e+002
      vertex  1.865851e-001 -2.358999e+000  1.076822e+002
      vertex  1.224748e+000 -1.320836e+000  1.190579e+002
    endloop
  endfacet
  facet normal  7.071066e-001 -7.071071e-001 -1.296994e-007
    outer loop
      vertex  1.414214e-001 -2.404163e+000  1.244500e+002
      vertex  1.224748e+000 -1.320836e+000  1.190579e+002
      vertex  1.292060e+000 -1.253525e+000  1.194131e+002
    endloop
  endfacet
  facet normal  7.071068e-001 -7.071068e-001  0.000000e+000
    outer loop
      vertex  1.414214e-001 -2.404163e+000  1.244500e+002
      vertex  1.292060e+000 -1.253525e+000  1.194131e+002
      vertex  2.094077e+000 -4.515076e-001  1.223500e+002
    endloop
  endfacet
  facet normal  7.071066e-001 -7.071069e-001 -2.266381e-007
    outer loop
      vertex  1.414214e-001 -2.404163e+000  1.244500e+002
      vertex  2.094077e+000 -4.515076e-001  1.223500e+002
      vertex  2.114788e+000 -4.307969e-001  1.224207e+002
    endloop
  endfacet
  facet normal  7.071068e-001 -7.071067e-001  3.133085e-008
    outer loop
      vertex  1.414214e-001 -2.404163e+000  1.244500e+002
      vertex  2.114788e+000 -4.307969e-001  1.224207e+002
      vertex  2.757716e+000  2.121320e-001  1.244500e+002
    endloop
  endfacet
  facet normal  7.071066e-001 -7.071068e-001 -2.301140e-008
    outer loop
      vertex  2.183784e+000 -3.618000e-001  1.077773e+002
      vertex  1.948079e+000 -5.975052e-001  1.079327e+002
      vertex  1.986940e+000 -5.586440e-001  1.057735e+002
    endloop
  endfacet
  facet normal  7.071066e-001 -7.071068e-001 -2.040072e-008
    outer loop
      vertex  2.183784e+000 -3.618000e-001  1.077773e+002
      vertex  1.986940e+000 -5.586440e-001  1.057735e+002
      vertex  2.083419e+000 -4.621651e-001  1.057634e+002
    endloop
  endfacet
  facet normal  7.071071e-001 -7.071065e-001 -6.647942e-008
    outer loop
      vertex  2.183784e+000 -3.618000e-001  1.077773e+002
      vertex  2.083419e+000 -4.621651e-001  1.057634e+002
      vertex  2.176662e+000 -3.689219e-001  1.057999e+002
    endloop
  endfacet
  facet normal  7.071068e-001 -7.071067e-001 -6.417394e-008
    outer loop
      vertex  2.183784e+000 -3.618000e-001  1.077773e+002
      vertex  2.176662e+000 -3.689219e-001  1.057999e+002
      vertex  2.255761e+000 -2.898229e-001  1.058787e+002
    endloop
  endfacet
  facet normal  7.071071e-001 -7.071065e-001 -4.498142e-008
    outer loop
      vertex  2.183784e+000 -3.618000e-001  1.077773e+002
      vertex  2.255761e+000 -2.898229e-001  1.058787e+002
      vertex  2.434994e+000 -1.105898e-001  1.076821e+002
    endloop
  endfacet
  facet normal  7.071067e-001 -7.071069e-001  0.000000e+000
    outer loop
      vertex  2.694077e+000  1.484924e-001  1.076500e+002
      vertex  2.434994e+000 -1.105898e-001  1.076821e+002
      vertex  2.694077e+000  1.484924e-001  1.064985e+002
    endloop
  endfacet
  facet normal  7.071068e-001 -7.071068e-001  1.915619e-008
    outer loop
      vertex  2.694077e+000  1.484924e-001  1.064985e+002
      vertex  2.434994e+000 -1.105898e-001  1.076821e+002
      vertex  2.255761e+000 -2.898229e-001  1.058787e+002
    endloop
  endfacet
  facet normal  7.071071e-001 -7.071065e-001 -1.257081e-007
    outer loop
      vertex  2.114788e+000 -4.307969e-001  1.224207e+002
      vertex  2.164788e+000 -3.807969e-001  1.224500e+002
      vertex  2.757716e+000  2.121320e-001  1.244500e+002
    endloop
  endfacet
  facet normal  7.071068e-001 -7.071068e-001  3.660121e-008
    outer loop
      vertex  2.757716e+000  2.121320e-001  1.244500e+002
      vertex  2.164788e+000 -3.807969e-001  1.224500e+002
      vertex  4.578855e+000  2.033270e+000  1.224500e+002
    endloop
  endfacet
  facet normal  7.071068e-001 -7.071068e-001  0.000000e+000
    outer loop
      vertex  2.757716e+000  2.121320e-001  1.244500e+002
      vertex  4.578855e+000  2.033270e+000  1.224500e+002
      vertex  4.578855e+000  2.033270e+000  1.232021e+002
    endloop
  endfacet
  facet normal  7.071061e-001 -7.071075e-001 -2.053674e-008
    outer loop
      vertex  1.292060e+000 -1.253525e+000  1.090383e+002
      vertex  1.224748e+000 -1.320836e+000  1.093936e+002
      vertex  1.273332e+000 -1.272252e+000  1.061746e+002
    endloop
  endfacet
  facet normal  7.071093e-001 -7.071043e-001  7.424104e-008
    outer loop
      vertex  1.273332e+000 -1.272252e+000  1.061746e+002
      vertex  1.224748e+000 -1.320836e+000  1.093936e+002
      vertex  1.202082e+000 -1.343503e+000  1.097600e+002
    endloop
  endfacet
  facet normal  7.071068e-001 -7.071068e-001 -2.130282e-008
    outer loop
      vertex  1.273332e+000 -1.272252e+000  1.061746e+002
      vertex  1.202082e+000 -1.343503e+000  1.097600e+002
      vertex  9.508438e-001 -1.594741e+000  1.064715e+002
    endloop
  endfacet
  facet normal  7.071069e-001 -7.071066e-001  2.661154e-008
    outer loop
      vertex  1.551142e+000 -9.944423e-001  1.084037e+002
      vertex  1.401971e+000 -1.143613e+000  1.087050e+002
      vertex  1.620728e+000 -9.248563e-001  1.059406e+002
    endloop
  endfacet
  facet normal  7.071068e-001 -7.071068e-001  0.000000e+000
    outer loop
      vertex  1.620728e+000 -9.248563e-001  1.059406e+002
      vertex  1.401971e+000 -1.143613e+000  1.087050e+002
      vertex  1.292060e+000 -1.253525e+000  1.090383e+002
    endloop
  endfacet
  facet normal  7.071066e-001 -7.071069e-001 -2.772600e-008
    outer loop
      vertex  1.620728e+000 -9.248563e-001  1.059406e+002
      vertex  1.292060e+000 -1.253525e+000  1.090383e+002
      vertex  1.273332e+000 -1.272252e+000  1.061746e+002
    endloop
  endfacet
  facet normal  7.071068e-001 -7.071068e-001 -1.987419e-008
    outer loop
      vertex  1.948079e+000 -5.975052e-001  1.079327e+002
      vertex  1.735041e+000 -8.105437e-001  1.081436e+002
      vertex  1.986940e+000 -5.586440e-001  1.057735e+002
    endloop
  endfacet
  facet normal  7.071066e-001 -7.071069e-001 -4.959491e-008
    outer loop
      vertex  1.986940e+000 -5.586440e-001  1.057735e+002
      vertex  1.735041e+000 -8.105437e-001  1.081436e+002
      vertex  1.551142e+000 -9.944423e-001  1.084037e+002
    endloop
  endfacet
  facet normal  7.071068e-001 -7.071067e-001  2.062828e-008
    outer loop
      vertex  1.986940e+000 -5.586440e-001  1.057735e+002
      vertex  1.551142e+000 -9.944423e-001  1.084037e+002
      vertex  1.620728e+000 -9.248563e-001  1.059406e+002
    endloop
  endfacet
  facet normal  7.071067e-001 -7.071068e-001  0.000000e+000
    outer loop
      vertex  2.694077e+000  1.484924e-001  1.208015e+002
      vertex  2.694077e+000  1.484924e-001  1.214601e+002
      vertex  2.434994e+000 -1.105898e-001  1.207694e+002
    endloop
  endfacet
  facet normal  7.071068e-001 -7.071068e-001 -7.553836e-008
    outer loop
      vertex  2.434994e+000 -1.105898e-001  1.207694e+002
      vertex  2.694077e+000  1.484924e-001  1.214601e+002
      vertex  2.114788e+000 -4.307969e-001  1.222793e+002
    endloop
  endfacet
  facet normal  7.071071e-001 -7.071065e-001  3.775685e-008
    outer loop
      vertex  2.434994e+000 -1.105898e-001  1.207694e+002
      vertex  2.114788e+000 -4.307969e-001  1.222793e+002
      vertex  2.183784e+000 -3.618000e-001  1.206742e+002
    endloop
  endfacet
  facet normal  3.515117e-001 -3.515067e-001 -8.676881e-001
    outer loop
      vertex -2.730748e-001 -2.696774e+000  1.103424e+002
      vertex -2.117030e+000 -4.540736e+000  1.103424e+002
      vertex -3.545554e-001 -2.615293e+000  1.102764e+002
    endloop
  endfacet
  facet normal  3.514666e-001 -3.514666e-001 -8.677226e-001
    outer loop
      vertex -3.545554e-001 -2.615293e+000  1.102764e+002
      vertex -2.117030e+000 -4.540736e+000  1.103424e+002
      vertex -2.227058e+000 -4.487796e+000  1.102764e+002
    endloop
  endfacet
  facet normal -7.071076e-001 -7.071059e-001  -0.000000e+000
    outer loop
      vertex -2.739471e+000 -2.303771e-001  1.104034e+002
      vertex -2.757716e+000 -2.121320e-001  1.105017e+002
      vertex -2.757716e+000 -2.121320e-001  1.103994e+002
    endloop
  endfacet
  facet normal -7.071068e-001 -7.071068e-001  0.000000e+000
    outer loop
      vertex -2.121320e-001 -2.757716e+000  1.105069e+002
      vertex -2.282899e-001 -2.741559e+000  1.104140e+002
      vertex -2.121320e-001 -2.757716e+000  1.104116e+002
    endloop
  endfacet
  facet normal -7.071068e-001 -7.071068e-001  -0.000000e+000
    outer loop
      vertex -2.121320e-001 -2.757716e+000  1.097600e+002
      vertex -2.121320e-001 -2.757716e+000  1.104116e+002
      vertex -2.282899e-001 -2.741559e+000  1.104140e+002
    endloop
  endfacet
  facet normal -7.071074e-001 -7.071061e-001 -3.354866e-008
    outer loop
      vertex -2.121320e-001 -2.757716e+000  1.097600e+002
      vertex -2.282899e-001 -2.741559e+000  1.104140e+002
      vertex -2.730748e-001 -2.696774e+000  1.103424e+002
    endloop
  endfacet
  facet normal -7.071066e-001 -7.071069e-001  1.499554e-007
    outer loop
      vertex -2.121320e-001 -2.757716e+000  1.097600e+002
      vertex -2.730748e-001 -2.696774e+000  1.103424e+002
      vertex -3.545554e-001 -2.615293e+000  1.102764e+002
    endloop
  endfacet
  facet normal -7.071068e-001 -7.071068e-001  6.500411e-008
    outer loop
      vertex -2.121320e-001 -2.757716e+000  1.097600e+002
      vertex -3.545554e-001 -2.615293e+000  1.102764e+002
      vertex -5.220559e-001 -2.447793e+000  1.101783e+002
    endloop
  endfacet
  facet normal -7.071069e-001 -7.071067e-001 -1.341020e-007
    outer loop
      vertex -2.121320e-001 -2.757716e+000  1.097600e+002
      vertex -5.220559e-001 -2.447793e+000  1.101783e+002
      vertex -6.959598e-001 -2.273889e+000  1.100987e+002
    endloop
  endfacet
  facet normal -7.071066e-001 -7.071069e-001  6.987424e-007
    outer loop
      vertex -2.121320e-001 -2.757716e+000  1.097600e+002
      vertex -6.959598e-001 -2.273889e+000  1.100987e+002
      vertex -8.935143e-001 -2.076334e+000  1.100315e+002
    endloop
  endfacet
  facet normal -7.071069e-001 -7.071066e-001 -1.191288e-006
    outer loop
      vertex -2.121320e-001 -2.757716e+000  1.097600e+002
      vertex -8.935143e-001 -2.076334e+000  1.100315e+002
      vertex -1.095213e+000 -1.874636e+000  1.099848e+002
    endloop
  endfacet
  facet normal -7.071066e-001 -7.071069e-001  1.237526e-006
    outer loop
      vertex -2.121320e-001 -2.757716e+000  1.097600e+002
      vertex -1.095213e+000 -1.874636e+000  1.099848e+002
      vertex -1.289668e+000 -1.680181e+000  1.099586e+002
    endloop
  endfacet
  facet normal -7.071069e-001 -7.071066e-001 -1.888733e-006
    outer loop
      vertex -2.121320e-001 -2.757716e+000  1.097600e+002
      vertex -1.289668e+000 -1.680181e+000  1.099586e+002
      vertex -1.484924e+000 -1.484924e+000  1.099500e+002
    endloop
  endfacet
  facet normal -7.071064e-001 -7.071071e-001  4.685105e-006
    outer loop
      vertex -2.121320e-001 -2.757716e+000  1.097600e+002
      vertex -1.484924e+000 -1.484924e+000  1.099500e+002
      vertex -1.685639e+000 -1.284210e+000  1.099591e+002
    endloop
  endfacet
  facet normal -7.071068e-001 -7.071068e-001 -4.233159e-007
    outer loop
      vertex -2.757716e+000 -2.121320e-001  1.097600e+002
      vertex -2.121320e-001 -2.757716e+000  1.097600e+002
      vertex -1.685639e+000 -1.284210e+000  1.099591e+002
    endloop
  endfacet
  facet normal -7.071069e-001 -7.071067e-001  1.301933e-006
    outer loop
      vertex -2.757716e+000 -2.121320e-001  1.097600e+002
      vertex -1.685639e+000 -1.284210e+000  1.099591e+002
      vertex -1.885483e+000 -1.084365e+000  1.099868e+002
    endloop
  endfacet
  facet normal -7.071066e-001 -7.071069e-001 -1.166694e-006
    outer loop
      vertex -2.757716e+000 -2.121320e-001  1.097600e+002
      vertex -1.885483e+000 -1.084365e+000  1.099868e+002
      vertex -2.086731e+000 -8.831171e-001  1.100345e+002
    endloop
  endfacet
  facet normal -7.071069e-001 -7.071068e-001  1.168335e-007
    outer loop
      vertex -2.757716e+000 -2.121320e-001  1.097600e+002
      vertex -2.086731e+000 -8.831171e-001  1.100345e+002
      vertex -2.283774e+000 -6.860749e-001  1.101027e+002
    endloop
  endfacet
  facet normal -7.071069e-001 -7.071066e-001  3.100356e-007
    outer loop
      vertex -2.757716e+000 -2.121320e-001  1.097600e+002
      vertex -2.283774e+000 -6.860749e-001  1.101027e+002
      vertex -2.467742e+000 -5.021064e-001  1.101888e+002
    endloop
  endfacet
  facet normal -7.071067e-001 -7.071069e-001 -4.477174e-008
    outer loop
      vertex -2.757716e+000 -2.121320e-001  1.097600e+002
      vertex -2.467742e+000 -5.021064e-001  1.101888e+002
      vertex -2.644309e+000 -3.255394e-001  1.102959e+002
    endloop
  endfacet
  facet normal -7.071072e-001 -7.071064e-001  1.700178e-007
    outer loop
      vertex -2.757716e+000 -2.121320e-001  1.097600e+002
      vertex -2.644309e+000 -3.255394e-001  1.102959e+002
      vertex -2.689443e+000 -2.804055e-001  1.103305e+002
    endloop
  endfacet
  facet normal -7.071061e-001 -7.071074e-001 -8.732670e-008
    outer loop
      vertex -2.757716e+000 -2.121320e-001  1.097600e+002
      vertex -2.689443e+000 -2.804055e-001  1.103305e+002
      vertex -2.739471e+000 -2.303771e-001  1.104034e+002
    endloop
  endfacet
  facet normal -7.071077e-001 -7.071060e-001  0.000000e+000
    outer loop
      vertex -2.757716e+000 -2.121320e-001  1.097600e+002
      vertex -2.739471e+000 -2.303771e-001  1.104034e+002
      vertex -2.757716e+000 -2.121320e-001  1.103994e+002
    endloop
  endfacet
  facet normal  4.820683e-001 -4.820634e-001 -7.315907e-001
    outer loop
      vertex -2.117030e+000 -4.540736e+000  1.103424e+002
      vertex -2.730748e-001 -2.696774e+000  1.103424e+002
      vertex -2.076162e+000 -4.559567e+000  1.103818e+002
    endloop
  endfacet
  facet normal  5.311795e-001 -5.281419e-001 -6.625062e-001
    outer loop
      vertex -2.076162e+000 -4.559567e+000  1.103818e+002
      vertex -2.730748e-001 -2.696774e+000  1.103424e+002
      vertex -2.282899e-001 -2.741559e+000  1.104140e+002
    endloop
  endfacet
  facet normal  6.253184e-001 -6.273496e-001 -4.641221e-001
    outer loop
      vertex -2.076162e+000 -4.559567e+000  1.103818e+002
      vertex -2.282899e-001 -2.741559e+000  1.104140e+002
      vertex -2.041439e+000 -4.575219e+000  1.104497e+002
    endloop
  endfacet
  facet normal  6.866128e-001 -6.866127e-001 -2.390103e-001
    outer loop
      vertex -2.121320e-001 -2.757716e+000  1.105069e+002
      vertex -2.033270e+000 -4.578855e+000  1.105069e+002
      vertex -2.282899e-001 -2.741559e+000  1.104140e+002
    endloop
  endfacet
  facet normal  7.021853e-001 -6.971440e-001 -1.446591e-001
    outer loop
      vertex -2.282899e-001 -2.741559e+000  1.104140e+002
      vertex -2.033270e+000 -4.578855e+000  1.105069e+002
      vertex -2.041439e+000 -4.575219e+000  1.104497e+002
    endloop
  endfacet
  facet normal -7.071068e-001  7.071068e-001  1.350950e-007
    outer loop
      vertex  2.033270e+000  4.578855e+000  1.232021e+002
      vertex  2.121320e-001  2.757716e+000  1.244500e+002
      vertex  2.033275e+000  4.578859e+000  1.244500e+002
    endloop
  endfacet
  facet normal -7.071056e-001  7.071080e-001  0.000000e+000
    outer loop
      vertex -2.404163e+000  1.414214e-001  1.129500e+002
      vertex -2.404163e+000  1.414214e-001  1.244500e+002
      vertex -2.358999e+000  1.865851e-001  1.076822e+002
    endloop
  endfacet
  facet normal -7.071067e-001  7.071068e-001 -1.942348e-008
    outer loop
      vertex -2.404163e+000  1.414214e-001  1.129500e+002
      vertex -2.358999e+000  1.865851e-001  1.076822e+002
      vertex -2.531121e+000  1.446358e-002  1.081689e+002
    endloop
  endfacet
  facet normal -7.071067e-001  7.071068e-001 -2.194215e-008
    outer loop
      vertex -2.404163e+000  1.414214e-001  1.129500e+002
      vertex -2.531121e+000  1.446358e-002  1.081689e+002
      vertex -2.656266e+000 -1.106820e-001  1.086835e+002
    endloop
  endfacet
  facet normal -7.071066e-001  7.071068e-001 -3.074430e-008
    outer loop
      vertex -2.404163e+000  1.414214e-001  1.129500e+002
      vertex -2.656266e+000 -1.106820e-001  1.086835e+002
      vertex -2.732242e+000 -1.866579e-001  1.092170e+002
    endloop
  endfacet
  facet normal -7.071072e-001  7.071064e-001  6.129275e-008
    outer loop
      vertex -2.404163e+000  1.414214e-001  1.129500e+002
      vertex -2.732242e+000 -1.866579e-001  1.092170e+002
      vertex -2.757716e+000 -2.121320e-001  1.097600e+002
    endloop
  endfacet
  facet normal -7.071069e-001  7.071066e-001  0.000000e+000
    outer loop
      vertex -2.404163e+000  1.414214e-001  1.129500e+002
      vertex -2.757716e+000 -2.121320e-001  1.097600e+002
      vertex -2.757716e+000 -2.121320e-001  1.103994e+002
    endloop
  endfacet
  facet normal -7.071069e-001  7.071066e-001  0.000000e+000
    outer loop
      vertex -2.404163e+000  1.414214e-001  1.129500e+002
      vertex -2.757716e+000 -2.121320e-001  1.103994e+002
      vertex -2.757716e+000 -2.121320e-001  1.105017e+002
    endloop
  endfacet
  facet normal -7.071067e-001  7.071068e-001 -4.779715e-008
    outer loop
      vertex -2.404163e+000  1.414214e-001  1.129500e+002
      vertex -2.757716e+000 -2.121320e-001  1.105017e+002
      vertex -4.578855e+000 -2.033270e+000  1.105017e+002
    endloop
  endfacet
  facet normal -7.071067e-001  7.071068e-001  0.000000e+000
    outer loop
      vertex -2.404163e+000  1.414214e-001  1.129500e+002
      vertex -4.578855e+000 -2.033270e+000  1.105017e+002
      vertex -4.578855e+000 -2.033270e+000  1.129500e+002
    endloop
  endfacet
  facet normal -7.071074e-001  7.071062e-001 -3.587581e-008
    outer loop
      vertex -4.515076e-001  2.094077e+000  1.223500e+002
      vertex -4.307969e-001  2.114788e+000  1.222793e+002
      vertex -3.618000e-001  2.183784e+000  1.206742e+002
    endloop
  endfacet
  facet normal -7.071069e-001  7.071066e-001  1.504731e-008
    outer loop
      vertex -4.515076e-001  2.094077e+000  1.223500e+002
      vertex -3.618000e-001  2.183784e+000  1.206742e+002
      vertex -5.975052e-001  1.948079e+000  1.205188e+002
    endloop
  endfacet
  facet normal -7.071068e-001  7.071068e-001  0.000000e+000
    outer loop
      vertex -4.515076e-001  2.094077e+000  1.223500e+002
      vertex -5.975052e-001  1.948079e+000  1.205188e+002
      vertex -8.105437e-001  1.735041e+000  1.203078e+002
    endloop
  endfacet
  facet normal -7.071069e-001  7.071066e-001  5.362648e-008
    outer loop
      vertex -4.515076e-001  2.094077e+000  1.223500e+002
      vertex -8.105437e-001  1.735041e+000  1.203078e+002
      vertex -9.944423e-001  1.551142e+000  1.200478e+002
    endloop
  endfacet
  facet normal -7.071065e-001  7.071071e-001 -1.621868e-007
    outer loop
      vertex -4.515076e-001  2.094077e+000  1.223500e+002
      vertex -9.944423e-001  1.551142e+000  1.200478e+002
      vertex -1.143613e+000  1.401971e+000  1.197465e+002
    endloop
  endfacet
  facet normal -7.071068e-001  7.071068e-001  0.000000e+000
    outer loop
      vertex -4.515076e-001  2.094077e+000  1.223500e+002
      vertex -1.143613e+000  1.401971e+000  1.197465e+002
      vertex -1.253525e+000  1.292060e+000  1.194131e+002
    endloop
  endfacet
  facet normal -7.071068e-001  7.071067e-001  0.000000e+000
    outer loop
      vertex -1.343503e+000  1.202082e+000  1.186915e+002
      vertex -1.343503e+000  1.202082e+000  1.097600e+002
      vertex -1.594741e+000  9.508438e-001  1.064715e+002
    endloop
  endfacet
  facet normal -7.071068e-001  7.071068e-001 -3.364991e-009
    outer loop
      vertex -1.343503e+000  1.202082e+000  1.186915e+002
      vertex -1.594741e+000  9.508438e-001  1.064715e+002
      vertex -1.886669e+000  6.589153e-001  1.068260e+002
    endloop
  endfacet
  facet normal -7.071068e-001  7.071066e-001  3.708210e-009
    outer loop
      vertex -1.343503e+000  1.202082e+000  1.186915e+002
      vertex -1.886669e+000  6.589153e-001  1.068260e+002
      vertex -2.142919e+000  4.026650e-001  1.072320e+002
    endloop
  endfacet
  facet normal -7.071068e-001  7.071068e-001 -9.392162e-009
    outer loop
      vertex -1.343503e+000  1.202082e+000  1.186915e+002
      vertex -2.142919e+000  4.026650e-001  1.072320e+002
      vertex -2.358999e+000  1.865851e-001  1.076822e+002
    endloop
  endfacet
  facet normal -7.071106e-001  7.071028e-001  7.142072e-007
    outer loop
      vertex -1.343503e+000  1.202082e+000  1.186915e+002
      vertex -2.358999e+000  1.865851e-001  1.076822e+002
      vertex -1.320836e+000  1.224748e+000  1.190579e+002
    endloop
  endfacet
  facet normal -7.071068e-001  7.071068e-001  4.153853e-008
    outer loop
      vertex -2.404163e+000  1.414214e-001  1.244500e+002
      vertex  2.121320e-001  2.757716e+000  1.244500e+002
      vertex -4.307969e-001  2.114788e+000  1.224207e+002
    endloop
  endfacet
  facet normal -7.071069e-001  7.071066e-001 -2.290419e-007
    outer loop
      vertex -2.404163e+000  1.414214e-001  1.244500e+002
      vertex -4.307969e-001  2.114788e+000  1.224207e+002
      vertex -4.515076e-001  2.094077e+000  1.223500e+002
    endloop
  endfacet
  facet normal -7.071068e-001  7.071068e-001  0.000000e+000
    outer loop
      vertex -2.404163e+000  1.414214e-001  1.244500e+002
      vertex -4.515076e-001  2.094077e+000  1.223500e+002
      vertex -1.253525e+000  1.292060e+000  1.194131e+002
    endloop
  endfacet
  facet normal -7.071071e-001  7.071066e-001 -1.296994e-007
    outer loop
      vertex -2.404163e+000  1.414214e-001  1.244500e+002
      vertex -1.253525e+000  1.292060e+000  1.194131e+002
      vertex -1.320836e+000  1.224748e+000  1.190579e+002
    endloop
  endfacet
  facet normal -7.071068e-001  7.071068e-001 -4.883014e-009
    outer loop
      vertex -2.404163e+000  1.414214e-001  1.244500e+002
      vertex -1.320836e+000  1.224748e+000  1.190579e+002
      vertex -2.358999e+000  1.865851e-001  1.076822e+002
    endloop
  endfacet
  facet normal -7.071065e-001  7.071071e-001 -4.498142e-008
    outer loop
      vertex -3.618000e-001  2.183784e+000  1.077773e+002
      vertex -1.105898e-001  2.434994e+000  1.076821e+002
      vertex -2.898229e-001  2.255761e+000  1.058787e+002
    endloop
  endfacet
  facet normal -7.071067e-001  7.071068e-001 -6.417394e-008
    outer loop
      vertex -3.618000e-001  2.183784e+000  1.077773e+002
      vertex -2.898229e-001  2.255761e+000  1.058787e+002
      vertex -3.689219e-001  2.176662e+000  1.057999e+002
    endloop
  endfacet
  facet normal -7.071065e-001  7.071071e-001 -6.647942e-008
    outer loop
      vertex -3.618000e-001  2.183784e+000  1.077773e+002
      vertex -3.689219e-001  2.176662e+000  1.057999e+002
      vertex -4.621651e-001  2.083419e+000  1.057634e+002
    endloop
  endfacet
  facet normal -7.071068e-001  7.071066e-001 -2.040072e-008
    outer loop
      vertex -3.618000e-001  2.183784e+000  1.077773e+002
      vertex -4.621651e-001  2.083419e+000  1.057634e+002
      vertex -5.586440e-001  1.986940e+000  1.057735e+002
    endloop
  endfacet
  facet normal -7.071068e-001  7.071066e-001 -2.301140e-008
    outer loop
      vertex -3.618000e-001  2.183784e+000  1.077773e+002
      vertex -5.586440e-001  1.986940e+000  1.057735e+002
      vertex -5.975052e-001  1.948079e+000  1.079327e+002
    endloop
  endfacet
  facet normal -7.071069e-001  7.071067e-001  0.000000e+000
    outer loop
      vertex  1.484924e-001  2.694077e+000  1.076500e+002
      vertex  1.484924e-001  2.694077e+000  1.064985e+002
      vertex -1.105898e-001  2.434994e+000  1.076821e+002
    endloop
  endfacet
  facet normal -7.071068e-001  7.071068e-001  1.915619e-008
    outer loop
      vertex -1.105898e-001  2.434994e+000  1.076821e+002
      vertex  1.484924e-001  2.694077e+000  1.064985e+002
      vertex -2.898229e-001  2.255761e+000  1.058787e+002
    endloop
  endfacet
  facet normal -7.071068e-001  7.071068e-001  0.000000e+000
    outer loop
      vertex  2.033270e+000  4.578855e+000  1.232021e+002
      vertex  2.033270e+000  4.578855e+000  1.224500e+002
      vertex  2.121320e-001  2.757716e+000  1.244500e+002
    endloop
  endfacet
  facet normal -7.071068e-001  7.071068e-001  3.660121e-008
    outer loop
      vertex  2.121320e-001  2.757716e+000  1.244500e+002
      vertex  2.033270e+000  4.578855e+000  1.224500e+002
      vertex -3.807969e-001  2.164788e+000  1.224500e+002
    endloop
  endfacet
  facet normal -7.071065e-001  7.071071e-001 -1.257081e-007
    outer loop
      vertex  2.121320e-001  2.757716e+000  1.244500e+002
      vertex -3.807969e-001  2.164788e+000  1.224500e+002
      vertex -4.307969e-001  2.114788e+000  1.224207e+002
    endloop
  endfacet
  facet normal -7.071068e-001  7.071068e-001 -2.130282e-008
    outer loop
      vertex -1.594741e+000  9.508438e-001  1.064715e+002
      vertex -1.343503e+000  1.202082e+000  1.097600e+002
      vertex -1.272252e+000  1.273332e+000  1.061746e+002
    endloop
  endfacet
  facet normal -7.071043e-001  7.071093e-001  7.424104e-008
    outer loop
      vertex -1.272252e+000  1.273332e+000  1.061746e+002
      vertex -1.343503e+000  1.202082e+000  1.097600e+002
      vertex -1.320836e+000  1.224748e+000  1.093936e+002
    endloop
  endfacet
  facet normal -7.071075e-001  7.071061e-001 -2.053674e-008
    outer loop
      vertex -1.272252e+000  1.273332e+000  1.061746e+002
      vertex -1.320836e+000  1.224748e+000  1.093936e+002
      vertex -1.253525e+000  1.292060e+000  1.090383e+002
    endloop
  endfacet
  facet normal -7.071069e-001  7.071066e-001 -2.772600e-008
    outer loop
      vertex -1.272252e+000  1.273332e+000  1.061746e+002
      vertex -1.253525e+000  1.292060e+000  1.090383e+002
      vertex -9.248563e-001  1.620728e+000  1.059406e+002
    endloop
  endfacet
  facet normal -7.071068e-001  7.071068e-001  0.000000e+000
    outer loop
      vertex -9.248563e-001  1.620728e+000  1.059406e+002
      vertex -1.253525e+000  1.292060e+000  1.090383e+002
      vertex -1.143613e+000  1.401971e+000  1.087050e+002
    endloop
  endfacet
  facet normal -7.071066e-001  7.071069e-001  2.661154e-008
    outer loop
      vertex -9.248563e-001  1.620728e+000  1.059406e+002
      vertex -1.143613e+000  1.401971e+000  1.087050e+002
      vertex -9.944423e-001  1.551142e+000  1.084037e+002
    endloop
  endfacet
  facet normal -7.071067e-001  7.071068e-001  2.062828e-008
    outer loop
      vertex -9.248563e-001  1.620728e+000  1.059406e+002
      vertex -9.944423e-001  1.551142e+000  1.084037e+002
      vertex -5.586440e-001  1.986940e+000  1.057735e+002
    endloop
  endfacet
  facet normal -7.071069e-001  7.071066e-001 -4.959491e-008
    outer loop
      vertex -5.586440e-001  1.986940e+000  1.057735e+002
      vertex -9.944423e-001  1.551142e+000  1.084037e+002
      vertex -8.105437e-001  1.735041e+000  1.081436e+002
    endloop
  endfacet
  facet normal -7.071068e-001  7.071068e-001 -1.987419e-008
    outer loop
      vertex -5.586440e-001  1.986940e+000  1.057735e+002
      vertex -8.105437e-001  1.735041e+000  1.081436e+002
      vertex -5.975052e-001  1.948079e+000  1.079327e+002
    endloop
  endfacet
  facet normal -7.071065e-001  7.071071e-001  3.775685e-008
    outer loop
      vertex -3.618000e-001  2.183784e+000  1.206742e+002
      vertex -4.307969e-001  2.114788e+000  1.222793e+002
      vertex -1.105898e-001  2.434994e+000  1.207694e+002
    endloop
  endfacet
  facet normal -7.071068e-001  7.071068e-001 -7.553836e-008
    outer loop
      vertex -1.105898e-001  2.434994e+000  1.207694e+002
      vertex -4.307969e-001  2.114788e+000  1.222793e+002
      vertex  1.484924e-001  2.694077e+000  1.214601e+002
    endloop
  endfacet
  facet normal -7.071068e-001  7.071067e-001  0.000000e+000
    outer loop
      vertex -1.105898e-001  2.434994e+000  1.207694e+002
      vertex  1.484924e-001  2.694077e+000  1.214601e+002
      vertex  1.484924e-001  2.694077e+000  1.208015e+002
    endloop
  endfacet
  facet normal -3.372031e-001  3.372034e-001 -8.789698e-001
    outer loop
      vertex -2.689443e+000 -2.804055e-001  1.103305e+002
      vertex -2.644309e+000 -3.255394e-001  1.102959e+002
      vertex -4.536063e+000 -2.127024e+000  1.103305e+002
    endloop
  endfacet
  facet normal -3.371966e-001  3.371965e-001 -8.789750e-001
    outer loop
      vertex -4.536063e+000 -2.127024e+000  1.103305e+002
      vertex -2.644309e+000 -3.255394e-001  1.102959e+002
      vertex -4.506903e+000 -2.188133e+000  1.102959e+002
    endloop
  endfacet
  facet normal  7.071067e-001  7.071067e-001  -0.000000e+000
    outer loop
      vertex  1.202082e+000 -1.343503e+000  1.186915e+002
      vertex  1.202082e+000 -1.343503e+000  1.097600e+002
      vertex -1.343503e+000  1.202082e+000  1.186915e+002
    endloop
  endfacet
  facet normal  7.071067e-001  7.071067e-001  0.000000e+000
    outer loop
      vertex -1.343503e+000  1.202082e+000  1.186915e+002
      vertex  1.202082e+000 -1.343503e+000  1.097600e+002
      vertex -1.343503e+000  1.202082e+000  1.097600e+002
    endloop
  endfacet
  facet normal -6.987098e-001  6.987100e-001 -1.536520e-001
    outer loop
      vertex -4.578855e+000 -2.033270e+000  1.105017e+002
      vertex -2.757716e+000 -2.121320e-001  1.105017e+002
      vertex -4.574740e+000 -2.042511e+000  1.104409e+002
    endloop
  endfacet
  facet normal -6.821927e-001  6.856422e-001 -2.539840e-001
    outer loop
      vertex -4.574740e+000 -2.042511e+000  1.104409e+002
      vertex -2.757716e+000 -2.121320e-001  1.105017e+002
      vertex -2.739471e+000 -2.303771e-001  1.104034e+002
    endloop
  endfacet
  facet normal -6.334197e-001  6.322675e-001 -4.461136e-001
    outer loop
      vertex -4.574740e+000 -2.042511e+000  1.104409e+002
      vertex -2.739471e+000 -2.303771e-001  1.104034e+002
      vertex -4.562722e+000 -2.069218e+000  1.103860e+002
    endloop
  endfacet
  facet normal -5.074448e-001  5.074455e-001 -6.964186e-001
    outer loop
      vertex -2.689443e+000 -2.804055e-001  1.103305e+002
      vertex -4.536063e+000 -2.127024e+000  1.103305e+002
      vertex -2.739471e+000 -2.303771e-001  1.104034e+002
    endloop
  endfacet
  facet normal -4.797154e-001  4.825773e-001 -7.327976e-001
    outer loop
      vertex -2.739471e+000 -2.303771e-001  1.104034e+002
      vertex -4.536063e+000 -2.127024e+000  1.103305e+002
      vertex -4.562722e+000 -2.069218e+000  1.103860e+002
    endloop
  endfacet
  facet normal -2.170785e-001 -2.170785e-001 -9.517109e-001
    outer loop
      vertex -5.586440e-001  1.986940e+000  1.057735e+002
      vertex  1.986940e+000 -5.586440e-001  1.057735e+002
      vertex -9.248563e-001  1.620728e+000  1.059406e+002
    endloop
  endfacet
  facet normal -2.170785e-001 -2.170785e-001 -9.517109e-001
    outer loop
      vertex -9.248563e-001  1.620728e+000  1.059406e+002
      vertex  1.986940e+000 -5.586440e-001  1.057735e+002
      vertex  1.620728e+000 -9.248563e-001  1.059406e+002
    endloop
  endfacet
  facet normal -3.040891e-001 -3.040891e-001 -9.028065e-001
    outer loop
      vertex -9.248563e-001  1.620728e+000  1.059406e+002
      vertex  1.620728e+000 -9.248563e-001  1.059406e+002
      vertex -1.272252e+000  1.273332e+000  1.061746e+002
    endloop
  endfacet
  facet normal -3.040891e-001 -3.040891e-001 -9.028066e-001
    outer loop
      vertex -1.272252e+000  1.273332e+000  1.061746e+002
      vertex  1.620728e+000 -9.248563e-001  1.059406e+002
      vertex  1.273332e+000 -1.272252e+000  1.061746e+002
    endloop
  endfacet
  facet normal -3.857585e-001 -3.857585e-001 -8.380816e-001
    outer loop
      vertex -1.272252e+000  1.273332e+000  1.061746e+002
      vertex  1.273332e+000 -1.272252e+000  1.061746e+002
      vertex -1.594741e+000  9.508438e-001  1.064715e+002
    endloop
  endfacet
  facet normal -3.857585e-001 -3.857585e-001 -8.380817e-001
    outer loop
      vertex -1.594741e+000  9.508438e-001  1.064715e+002
      vertex  1.273332e+000 -1.272252e+000  1.061746e+002
      vertex  9.508438e-001 -1.594741e+000  1.064715e+002
    endloop
  endfacet
  facet normal -4.606672e-001 -4.606672e-001 -7.586643e-001
    outer loop
      vertex -1.594741e+000  9.508438e-001  1.064715e+002
      vertex  9.508438e-001 -1.594741e+000  1.064715e+002
      vertex -1.886669e+000  6.589153e-001  1.068260e+002
    endloop
  endfacet
  facet normal -4.606672e-001 -4.606672e-001 -7.586643e-001
    outer loop
      vertex -1.886669e+000  6.589153e-001  1.068260e+002
      vertex  9.508438e-001 -1.594741e+000  1.064715e+002
      vertex  6.589153e-001 -1.886669e+000  1.068260e+002
    endloop
  endfacet
  facet normal -5.275039e-001 -5.275039e-001 -6.659424e-001
    outer loop
      vertex -1.886669e+000  6.589153e-001  1.068260e+002
      vertex  6.589153e-001 -1.886669e+000  1.068260e+002
      vertex -2.142919e+000  4.026650e-001  1.072320e+002
    endloop
  endfacet
  facet normal -5.275039e-001 -5.275039e-001 -6.659424e-001
    outer loop
      vertex -2.142919e+000  4.026650e-001  1.072320e+002
      vertex  6.589153e-001 -1.886669e+000  1.068260e+002
      vertex  4.026650e-001 -2.142919e+000  1.072320e+002
    endloop
  endfacet
  facet normal -5.850917e-001 -5.850917e-001 -5.615475e-001
    outer loop
      vertex -2.142919e+000  4.026650e-001  1.072320e+002
      vertex  4.026650e-001 -2.142919e+000  1.072320e+002
      vertex -2.358999e+000  1.865851e-001  1.076822e+002
    endloop
  endfacet
  facet normal -5.850917e-001 -5.850917e-001 -5.615475e-001
    outer loop
      vertex -2.358999e+000  1.865851e-001  1.076822e+002
      vertex  4.026650e-001 -2.142919e+000  1.072320e+002
      vertex  1.865851e-001 -2.358999e+000  1.076822e+002
    endloop
  endfacet
  facet normal -6.324214e-001 -6.324214e-001 -4.473100e-001
    outer loop
      vertex -2.358999e+000  1.865851e-001  1.076822e+002
      vertex  1.865851e-001 -2.358999e+000  1.076822e+002
      vertex -2.531121e+000  1.446358e-002  1.081689e+002
    endloop
  endfacet
  facet normal -6.324214e-001 -6.324214e-001 -4.473100e-001
    outer loop
      vertex -2.531121e+000  1.446358e-002  1.081689e+002
      vertex  1.865851e-001 -2.358999e+000  1.076822e+002
      vertex  1.446358e-002 -2.531121e+000  1.081689e+002
    endloop
  endfacet
  facet normal -6.686662e-001 -6.686662e-001 -3.252245e-001
    outer loop
      vertex -2.531121e+000  1.446358e-002  1.081689e+002
      vertex  1.446358e-002 -2.531121e+000  1.081689e+002
      vertex -2.656266e+000 -1.106820e-001  1.086835e+002
    endloop
  endfacet
  facet normal -6.686662e-001 -6.686662e-001 -3.252245e-001
    outer loop
      vertex -2.656266e+000 -1.106820e-001  1.086835e+002
      vertex  1.446358e-002 -2.531121e+000  1.081689e+002
      vertex -1.106820e-001 -2.656266e+000  1.086835e+002
    endloop
  endfacet
  facet normal -6.931863e-001 -6.931863e-001 -1.974476e-001
    outer loop
      vertex -2.656266e+000 -1.106820e-001  1.086835e+002
      vertex -1.106820e-001 -2.656266e+000  1.086835e+002
      vertex -2.732242e+000 -1.866579e-001  1.092170e+002
    endloop
  endfacet
  facet normal -6.931863e-001 -6.931863e-001 -1.974476e-001
    outer loop
      vertex -2.732242e+000 -1.866579e-001  1.092170e+002
      vertex -1.106820e-001 -2.656266e+000  1.086835e+002
      vertex -1.866579e-001 -2.732242e+000  1.092170e+002
    endloop
  endfacet
  facet normal -7.055556e-001 -7.055556e-001 -6.620128e-002
    outer loop
      vertex -2.732242e+000 -1.866579e-001  1.092170e+002
      vertex -1.866579e-001 -2.732242e+000  1.092170e+002
      vertex -2.757716e+000 -2.121320e-001  1.097600e+002
    endloop
  endfacet
  facet normal -7.055556e-001 -7.055556e-001 -6.620128e-002
    outer loop
      vertex -2.757716e+000 -2.121320e-001  1.097600e+002
      vertex -1.866579e-001 -2.732242e+000  1.092170e+002
      vertex -2.121320e-001 -2.757716e+000  1.097600e+002
    endloop
  endfacet
  facet normal  5.000007e-001  5.000007e-001 -7.071058e-001
    outer loop
      vertex  2.255761e+000 -2.898229e-001  1.058787e+002
      vertex -2.898229e-001  2.255761e+000  1.058787e+002
      vertex  2.694077e+000  1.484924e-001  1.064985e+002
    endloop
  endfacet
  facet normal  5.000007e-001  5.000007e-001 -7.071059e-001
    outer loop
      vertex  2.694077e+000  1.484924e-001  1.064985e+002
      vertex -2.898229e-001  2.255761e+000  1.058787e+002
      vertex  1.484924e-001  2.694077e+000  1.064985e+002
    endloop
  endfacet
  facet normal -5.220699e-002 -5.220699e-002 -9.972708e-001
    outer loop
      vertex  1.986940e+000 -5.586440e-001  1.057735e+002
      vertex -5.586440e-001  1.986940e+000  1.057735e+002
      vertex  2.083419e+000 -4.621651e-001  1.057634e+002
    endloop
  endfacet
  facet normal -5.220699e-002 -5.220699e-002 -9.972708e-001
    outer loop
      vertex  2.083419e+000 -4.621651e-001  1.057634e+002
      vertex -5.586440e-001  1.986940e+000  1.057735e+002
      vertex -4.621651e-001  2.083419e+000  1.057634e+002
    endloop
  endfacet
  facet normal  1.884440e-001  1.884440e-001 -9.638349e-001
    outer loop
      vertex  2.083419e+000 -4.621651e-001  1.057634e+002
      vertex -4.621651e-001  2.083419e+000  1.057634e+002
      vertex  2.176662e+000 -3.689219e-001  1.057999e+002
    endloop
  endfacet
  facet normal  1.884440e-001  1.884440e-001 -9.638349e-001
    outer loop
      vertex  2.176662e+000 -3.689219e-001  1.057999e+002
      vertex -4.621651e-001  2.083419e+000  1.057634e+002
      vertex -3.689219e-001  2.176662e+000  1.057999e+002
    endloop
  endfacet
  facet normal  4.071262e-001  4.071262e-001 -8.176164e-001
    outer loop
      vertex  2.176662e+000 -3.689219e-001  1.057999e+002
      vertex -3.689219e-001  2.176662e+000  1.057999e+002
      vertex  2.255761e+000 -2.898229e-001  1.058787e+002
    endloop
  endfacet
  facet normal  4.071262e-001  4.071262e-001 -8.176164e-001
    outer loop
      vertex  2.255761e+000 -2.898229e-001  1.058787e+002
      vertex -3.689219e-001  2.176662e+000  1.057999e+002
      vertex -2.898229e-001  2.255761e+000  1.058787e+002
    endloop
  endfacet
  facet normal  0.000000e+000  0.000000e+000 -1.000000e+000
    outer loop
      vertex  2.164788e+000 -3.807969e-001  1.224500e+002
      vertex -3.807969e-001  2.164788e+000  1.224500e+002
      vertex  2.033270e+000  4.578855e+000  1.224500e+002
    endloop
  endfacet
  facet normal  0.000000e+000  0.000000e+000 -1.000000e+000
    outer loop
      vertex  2.164788e+000 -3.807969e-001  1.224500e+002
      vertex  2.033270e+000  4.578855e+000  1.224500e+002
      vertex  2.577538e+000  4.296091e+000  1.224500e+002
    endloop
  endfacet
  facet normal  0.000000e+000  -0.000000e+000 -1.000000e+000
    outer loop
      vertex  2.164788e+000 -3.807969e-001  1.224500e+002
      vertex  2.577538e+000  4.296091e+000  1.224500e+002
      vertex  3.083176e+000  3.948940e+000  1.224500e+002
    endloop
  endfacet
  facet normal  0.000000e+000  -0.000000e+000 -9.999999e-001
    outer loop
      vertex  2.164788e+000 -3.807969e-001  1.224500e+002
      vertex  3.083176e+000  3.948940e+000  1.224500e+002
      vertex  3.542605e+000  3.542605e+000  1.224500e+002
    endloop
  endfacet
  facet normal  0.000000e+000  -0.000000e+000 -1.000000e+000
    outer loop
      vertex  2.164788e+000 -3.807969e-001  1.224500e+002
      vertex  3.542605e+000  3.542605e+000  1.224500e+002
      vertex  3.948940e+000  3.083176e+000  1.224500e+002
    endloop
  endfacet
  facet normal  0.000000e+000  -0.000000e+000 -1.000000e+000
    outer loop
      vertex  2.164788e+000 -3.807969e-001  1.224500e+002
      vertex  3.948940e+000  3.083176e+000  1.224500e+002
      vertex  4.296091e+000  2.577538e+000  1.224500e+002
    endloop
  endfacet
  facet normal  0.000000e+000  -0.000000e+000 -1.000000e+000
    outer loop
      vertex  2.164788e+000 -3.807969e-001  1.224500e+002
      vertex  4.296091e+000  2.577538e+000  1.224500e+002
      vertex  4.578855e+000  2.033270e+000  1.224500e+002
    endloop
  endfacet
  facet normal  4.999994e-001  4.999994e-001  7.071076e-001
    outer loop
      vertex  2.114788e+000 -4.307969e-001  1.222793e+002
      vertex  2.694077e+000  1.484924e-001  1.214601e+002
      vertex -4.307969e-001  2.114788e+000  1.222793e+002
    endloop
  endfacet
  facet normal  4.999994e-001  4.999994e-001  7.071076e-001
    outer loop
      vertex -4.307969e-001  2.114788e+000  1.222793e+002
      vertex  2.694077e+000  1.484924e-001  1.214601e+002
      vertex  1.484924e-001  2.694077e+000  1.214601e+002
    endloop
  endfacet
  facet normal  2.705977e-001  2.705977e-001 -9.238798e-001
    outer loop
      vertex  2.114788e+000 -4.307969e-001  1.224207e+002
      vertex -3.807969e-001  2.164788e+000  1.224500e+002
      vertex  2.164788e+000 -3.807969e-001  1.224500e+002
    endloop
  endfacet
  facet normal  2.705977e-001  2.705977e-001 -9.238798e-001
    outer loop
      vertex -3.807969e-001  2.164788e+000  1.224500e+002
      vertex  2.114788e+000 -4.307969e-001  1.224207e+002
      vertex -4.307969e-001  2.114788e+000  1.224207e+002
    endloop
  endfacet
  facet normal  6.532794e-001  6.532794e-001 -3.826906e-001
    outer loop
      vertex -4.307969e-001  2.114788e+000  1.224207e+002
      vertex  2.114788e+000 -4.307969e-001  1.224207e+002
      vertex  2.094077e+000 -4.515076e-001  1.223500e+002
    endloop
  endfacet
  facet normal  6.532794e-001  6.532794e-001 -3.826906e-001
    outer loop
      vertex -4.307969e-001  2.114788e+000  1.224207e+002
      vertex  2.094077e+000 -4.515076e-001  1.223500e+002
      vertex -4.515076e-001  2.094077e+000  1.223500e+002
    endloop
  endfacet
  facet normal  6.532794e-001  6.532794e-001  3.826906e-001
    outer loop
      vertex -4.515076e-001  2.094077e+000  1.223500e+002
      vertex  2.094077e+000 -4.515076e-001  1.223500e+002
      vertex  2.114788e+000 -4.307969e-001  1.222793e+002
    endloop
  endfacet
  facet normal  6.532794e-001  6.532794e-001  3.826906e-001
    outer loop
      vertex -4.515076e-001  2.094077e+000  1.223500e+002
      vertex  2.114788e+000 -4.307969e-001  1.222793e+002
      vertex -4.307969e-001  2.114788e+000  1.222793e+002
    endloop
  endfacet
  facet normal  2.651582e-002 -2.651582e-002 -9.992967e-001
    outer loop
      vertex -3.542605e+000 -3.542605e+000  1.099500e+002
      vertex -1.484924e+000 -1.484924e+000  1.099500e+002
      vertex -3.300511e+000 -3.769181e+000  1.099624e+002
    endloop
  endfacet
  facet normal  2.160003e-002 -2.260979e-002 -9.995109e-001
    outer loop
      vertex -3.300511e+000 -3.769181e+000  1.099624e+002
      vertex -1.484924e+000 -1.484924e+000  1.099500e+002
      vertex -1.289668e+000 -1.680181e+000  1.099586e+002
    endloop
  endfacet
  facet normal  8.096392e-002 -7.974177e-002 -9.935221e-001
    outer loop
      vertex -3.300511e+000 -3.769181e+000  1.099624e+002
      vertex -1.289668e+000 -1.680181e+000  1.099586e+002
      vertex -3.045092e+000 -3.978381e+000  1.100000e+002
    endloop
  endfacet
  facet normal  6.565393e-002 -6.808354e-002 -9.955171e-001
    outer loop
      vertex -3.045092e+000 -3.978381e+000  1.100000e+002
      vertex -1.289668e+000 -1.680181e+000  1.099586e+002
      vertex -1.095213e+000 -1.874636e+000  1.099848e+002
    endloop
  endfacet
  facet normal  1.382520e-001 -1.352672e-001 -9.811164e-001
    outer loop
      vertex -3.045092e+000 -3.978381e+000  1.100000e+002
      vertex -1.095213e+000 -1.874636e+000  1.099848e+002
      vertex -2.778744e+000 -4.168775e+000  1.100638e+002
    endloop
  endfacet
  facet normal  1.122294e-001 -1.163683e-001 -9.868450e-001
    outer loop
      vertex -2.778744e+000 -4.168775e+000  1.100638e+002
      vertex -1.095213e+000 -1.874636e+000  1.099848e+002
      vertex -8.935143e-001 -2.076334e+000  1.100315e+002
    endloop
  endfacet
  facet normal  1.662404e-001 -1.648045e-001 -9.722158e-001
    outer loop
      vertex -2.778744e+000 -4.168775e+000  1.100638e+002
      vertex -8.935143e-001 -2.076334e+000  1.100315e+002
      vertex -6.959598e-001 -2.273889e+000  1.100987e+002
    endloop
  endfacet
  facet normal  1.970461e-001 -1.988900e-001 -9.600081e-001
    outer loop
      vertex -2.778744e+000 -4.168775e+000  1.100638e+002
      vertex -6.959598e-001 -2.273889e+000  1.100987e+002
      vertex -2.504559e+000 -4.339042e+000  1.101554e+002
    endloop
  endfacet
  facet normal  2.181667e-001 -2.171519e-001 -9.514453e-001
    outer loop
      vertex -2.504559e+000 -4.339042e+000  1.101554e+002
      vertex -6.959598e-001 -2.273889e+000  1.100987e+002
      vertex -5.220559e-001 -2.447793e+000  1.101783e+002
    endloop
  endfacet
  facet normal  2.629919e-001 -2.644262e-001 -9.278545e-001
    outer loop
      vertex -2.504559e+000 -4.339042e+000  1.101554e+002
      vertex -5.220559e-001 -2.447793e+000  1.101783e+002
      vertex -2.227058e+000 -4.487796e+000  1.102764e+002
    endloop
  endfacet
  facet normal  2.705671e-001 -2.705671e-001 -9.238977e-001
    outer loop
      vertex -2.227058e+000 -4.487796e+000  1.102764e+002
      vertex -5.220559e-001 -2.447793e+000  1.101783e+002
      vertex -3.545554e-001 -2.615293e+000  1.102764e+002
    endloop
  endfacet
  facet normal -1.049667e-001  1.043767e-001 -9.889830e-001
    outer loop
      vertex -4.041286e+000 -2.961099e+000  1.100175e+002
      vertex -1.885483e+000 -1.084365e+000  1.099868e+002
      vertex -3.887269e+000 -3.160575e+000  1.099801e+002
    endloop
  endfacet
  facet normal -6.842092e-002  6.916106e-002 -9.952564e-001
    outer loop
      vertex -3.887269e+000 -3.160575e+000  1.099801e+002
      vertex -1.885483e+000 -1.084365e+000  1.099868e+002
      vertex -1.685639e+000 -1.284210e+000  1.099591e+002
    endloop
  endfacet
  facet normal -6.229214e-002  6.196008e-002 -9.961328e-001
    outer loop
      vertex -3.887269e+000 -3.160575e+000  1.099801e+002
      vertex -1.685639e+000 -1.284210e+000  1.099591e+002
      vertex -3.720058e+000 -3.355781e+000  1.099575e+002
    endloop
  endfacet
  facet normal -2.254621e-002  2.292960e-002 -9.994828e-001
    outer loop
      vertex -3.720058e+000 -3.355781e+000  1.099575e+002
      vertex -1.685639e+000 -1.284210e+000  1.099591e+002
      vertex -1.484924e+000 -1.484924e+000  1.099500e+002
    endloop
  endfacet
  facet normal -2.057914e-002  2.057914e-002 -9.995763e-001
    outer loop
      vertex -3.720058e+000 -3.355781e+000  1.099575e+002
      vertex -1.484924e+000 -1.484924e+000  1.099500e+002
      vertex -3.542605e+000 -3.542605e+000  1.099500e+002
    endloop
  endfacet
  facet normal -1.163579e-001  1.175068e-001 -9.862317e-001
    outer loop
      vertex -1.885483e+000 -1.084365e+000  1.099868e+002
      vertex -4.041286e+000 -2.961099e+000  1.100175e+002
      vertex -2.086731e+000 -8.831171e-001  1.100345e+002
    endloop
  endfacet
  facet normal -1.493120e-001  1.484329e-001 -9.775856e-001
    outer loop
      vertex -2.086731e+000 -8.831171e-001  1.100345e+002
      vertex -4.041286e+000 -2.961099e+000  1.100175e+002
      vertex -4.183891e+000 -2.755931e+000  1.100704e+002
    endloop
  endfacet
  facet normal -1.675427e-001  1.689685e-001 -9.712771e-001
    outer loop
      vertex -2.086731e+000 -8.831171e-001  1.100345e+002
      vertex -4.183891e+000 -2.755931e+000  1.100704e+002
      vertex -2.283774e+000 -6.860749e-001  1.101027e+002
    endloop
  endfacet
  facet normal -2.051501e-001  2.032751e-001 -9.573885e-001
    outer loop
      vertex -2.283774e+000 -6.860749e-001  1.101027e+002
      vertex -4.183891e+000 -2.755931e+000  1.100704e+002
      vertex -4.356823e+000 -2.473498e+000  1.101674e+002
    endloop
  endfacet
  facet normal -2.215798e-001  2.226197e-001 -9.493908e-001
    outer loop
      vertex -2.283774e+000 -6.860749e-001  1.101027e+002
      vertex -4.356823e+000 -2.473498e+000  1.101674e+002
      vertex -2.467742e+000 -5.021064e-001  1.101888e+002
    endloop
  endfacet
  facet normal -2.730858e-001  2.716872e-001 -9.228272e-001
    outer loop
      vertex -2.467742e+000 -5.021064e-001  1.101888e+002
      vertex -4.356823e+000 -2.473498e+000  1.101674e+002
      vertex -4.506903e+000 -2.188133e+000  1.102959e+002
    endloop
  endfacet
  facet normal -2.786306e-001  2.786306e-001 -9.190918e-001
    outer loop
      vertex -2.467742e+000 -5.021064e-001  1.101888e+002
      vertex -4.506903e+000 -2.188133e+000  1.102959e+002
      vertex -2.644309e+000 -3.255394e-001  1.102959e+002
    endloop
  endfacet
  facet normal  0.000000e+000  0.000000e+000  1.000000e+000
    outer loop
      vertex  1.414214e-001 -2.404163e+000  1.129500e+002
      vertex -2.404163e+000  1.414214e-001  1.129500e+002
      vertex -4.578855e+000 -2.033270e+000  1.129500e+002
    endloop
  endfacet
  facet normal  0.000000e+000  0.000000e+000  1.000000e+000
    outer loop
      vertex  1.414214e-001 -2.404163e+000  1.129500e+002
      vertex -4.578855e+000 -2.033270e+000  1.129500e+002
      vertex -4.296091e+000 -2.577538e+000  1.129500e+002
    endloop
  endfacet
  facet normal  -0.000000e+000  0.000000e+000  1.000000e+000
    outer loop
      vertex  1.414214e-001 -2.404163e+000  1.129500e+002
      vertex -4.296091e+000 -2.577538e+000  1.129500e+002
      vertex -3.948940e+000 -3.083176e+000  1.129500e+002
    endloop
  endfacet
  facet normal  -0.000000e+000  0.000000e+000  1.000000e+000
    outer loop
      vertex  1.414214e-001 -2.404163e+000  1.129500e+002
      vertex -3.948940e+000 -3.083176e+000  1.129500e+002
      vertex -3.542605e+000 -3.542605e+000  1.129500e+002
    endloop
  endfacet
  facet normal  -0.000000e+000  0.000000e+000  1.000000e+000
    outer loop
      vertex  1.414214e-001 -2.404163e+000  1.129500e+002
      vertex -3.542605e+000 -3.542605e+000  1.129500e+002
      vertex -3.083176e+000 -3.948940e+000  1.129500e+002
    endloop
  endfacet
  facet normal  -0.000000e+000  0.000000e+000  9.999999e-001
    outer loop
      vertex  1.414214e-001 -2.404163e+000  1.129500e+002
      vertex -3.083176e+000 -3.948940e+000  1.129500e+002
      vertex -2.577538e+000 -4.296091e+000  1.129500e+002
    endloop
  endfacet
  facet normal  -0.000000e+000  0.000000e+000  9.999999e-001
    outer loop
      vertex  1.414214e-001 -2.404163e+000  1.129500e+002
      vertex -2.577538e+000 -4.296091e+000  1.129500e+002
      vertex -2.033270e+000 -4.578855e+000  1.129500e+002
    endloop
  endfacet
  facet normal  5.372271e-001  8.434367e-001 -1.235302e-003
    outer loop
      vertex  2.577538e+000  4.296091e+000  1.224500e+002
      vertex  2.598048e+000  4.283719e+000  1.229222e+002
      vertex  2.786609e+000  4.163522e+000  1.228587e+002
    endloop
  endfacet
  facet normal  4.245112e-001  9.054226e-001  0.000000e+000
    outer loop
      vertex  2.033270e+000  4.578855e+000  1.224500e+002
      vertex  2.033270e+000  4.578855e+000  1.232021e+002
      vertex  2.219427e+000  4.491575e+000  1.230935e+002
    endloop
  endfacet
  facet normal  5.658642e-001  8.242016e-001 -2.212312e-002
    outer loop
      vertex  3.083176e+000  3.948940e+000  1.224500e+002
      vertex  2.577538e+000  4.296091e+000  1.224500e+002
      vertex  2.786609e+000  4.163522e+000  1.228587e+002
    endloop
  endfacet
  facet normal  5.736475e-001  8.189871e-001 -1.373781e-002
    outer loop
      vertex  3.083176e+000  3.948940e+000  1.224500e+002
      vertex  2.786609e+000  4.163522e+000  1.228587e+002
      vertex  2.984504e+000  4.024032e+000  1.228064e+002
    endloop
  endfacet
  facet normal  6.156642e-001  7.879964e-001  4.421764e-003
    outer loop
      vertex  3.083176e+000  3.948940e+000  1.224500e+002
      vertex  2.984504e+000  4.024032e+000  1.228064e+002
      vertex  3.177417e+000  3.873515e+000  1.227696e+002
    endloop
  endfacet
  facet normal  6.520588e-001  7.580504e-001 -1.337613e-002
    outer loop
      vertex  3.083176e+000  3.948940e+000  1.224500e+002
      vertex  3.177417e+000  3.873515e+000  1.227696e+002
      vertex  3.363850e+000  3.712764e+000  1.227477e+002
    endloop
  endfacet
  facet normal  6.861097e-001  7.238673e-001 -7.259230e-002
    outer loop
      vertex  3.083176e+000  3.948940e+000  1.224500e+002
      vertex  3.363850e+000  3.712764e+000  1.227477e+002
      vertex  3.542605e+000  3.542605e+000  1.227405e+002
    endloop
  endfacet
  facet normal  6.624979e-001  7.490638e-001  0.000000e+000
    outer loop
      vertex  3.083176e+000  3.948940e+000  1.224500e+002
      vertex  3.542605e+000  3.542605e+000  1.227405e+002
      vertex  3.542605e+000  3.542605e+000  1.224500e+002
    endloop
  endfacet
  facet normal  4.609866e-001  8.873117e-001 -1.300905e-002
    outer loop
      vertex  2.033270e+000  4.578855e+000  1.224500e+002
      vertex  2.219427e+000  4.491575e+000  1.230935e+002
      vertex  2.577538e+000  4.296091e+000  1.224500e+002
    endloop
  endfacet
  facet normal  4.552587e-001  8.901955e-001 -1.707294e-002
    outer loop
      vertex  2.577538e+000  4.296091e+000  1.224500e+002
      vertex  2.219427e+000  4.491575e+000  1.230935e+002
      vertex  2.408363e+000  4.393164e+000  1.230003e+002
    endloop
  endfacet
  facet normal  5.000618e-001  8.659892e-001  9.696362e-004
    outer loop
      vertex  2.577538e+000  4.296091e+000  1.224500e+002
      vertex  2.408363e+000  4.393164e+000  1.230003e+002
      vertex  2.598048e+000  4.283719e+000  1.229222e+002
    endloop
  endfacet
  facet normal  7.243086e-001  6.894758e-001  0.000000e+000
    outer loop
      vertex  3.542605e+000  3.542605e+000  1.224500e+002
      vertex  3.542605e+000  3.542605e+000  1.227405e+002
      vertex  3.712766e+000  3.363847e+000  1.227477e+002
    endloop
  endfacet
  facet normal  8.659922e-001  5.000566e-001  9.685526e-004
    outer loop
      vertex  4.296091e+000  2.577538e+000  1.224500e+002
      vertex  4.283725e+000  2.598038e+000  1.229222e+002
      vertex  4.393167e+000  2.408356e+000  1.230003e+002
    endloop
  endfacet
  facet normal  8.901946e-001  4.552606e-001 -1.707187e-002
    outer loop
      vertex  4.296091e+000  2.577538e+000  1.224500e+002
      vertex  4.393167e+000  2.408356e+000  1.230003e+002
      vertex  4.491577e+000  2.219424e+000  1.230935e+002
    endloop
  endfacet
  facet normal  9.165095e-001  3.957589e-001 -5.818165e-002
    outer loop
      vertex  4.296091e+000  2.577538e+000  1.224500e+002
      vertex  4.491577e+000  2.219424e+000  1.230935e+002
      vertex  4.578855e+000  2.033270e+000  1.232021e+002
    endloop
  endfacet
  facet normal  8.873868e-001  4.610256e-001  0.000000e+000
    outer loop
      vertex  4.296091e+000  2.577538e+000  1.224500e+002
      vertex  4.578855e+000  2.033270e+000  1.232021e+002
      vertex  4.578855e+000  2.033270e+000  1.224500e+002
    endloop
  endfacet
  facet normal  7.487191e-001  6.621931e-001 -3.033211e-002
    outer loop
      vertex  3.948940e+000  3.083176e+000  1.224500e+002
      vertex  3.542605e+000  3.542605e+000  1.224500e+002
      vertex  3.712766e+000  3.363847e+000  1.227477e+002
    endloop
  endfacet
  facet normal  7.580513e-001  6.520578e-001 -1.337491e-002
    outer loop
      vertex  3.948940e+000  3.083176e+000  1.224500e+002
      vertex  3.712766e+000  3.363847e+000  1.227477e+002
      vertex  3.873521e+000  3.177411e+000  1.227696e+002
    endloop
  endfacet
  facet normal  7.879970e-001  6.156632e-001  4.421683e-003
    outer loop
      vertex  3.948940e+000  3.083176e+000  1.224500e+002
      vertex  3.873521e+000  3.177411e+000  1.227696e+002
      vertex  4.024040e+000  2.984494e+000  1.228065e+002
    endloop
  endfacet
  facet normal  8.189893e-001  5.736445e-001 -1.374022e-002
    outer loop
      vertex  3.948940e+000  3.083176e+000  1.224500e+002
      vertex  4.024040e+000  2.984494e+000  1.228065e+002
      vertex  4.163531e+000  2.786595e+000  1.228587e+002
    endloop
  endfacet
  facet normal  8.517430e-001  5.192031e-001 -7.044221e-002
    outer loop
      vertex  3.948940e+000  3.083176e+000  1.224500e+002
      vertex  4.163531e+000  2.786595e+000  1.228587e+002
      vertex  4.283725e+000  2.598038e+000  1.229222e+002
    endloop
  endfacet
  facet normal  8.243997e-001  5.660002e-001 -2.983032e-003
    outer loop
      vertex  3.948940e+000  3.083176e+000  1.224500e+002
      vertex  4.283725e+000  2.598038e+000  1.229222e+002
      vertex  4.296091e+000  2.577538e+000  1.224500e+002
    endloop
  endfacet
  facet normal  7.071068e-001  7.071068e-001  -0.000000e+000
    outer loop
      vertex  2.694077e+000  1.484924e-001  1.214601e+002
      vertex  2.694077e+000  1.484924e-001  1.208015e+002
      vertex  1.484924e-001  2.694077e+000  1.214601e+002
    endloop
  endfacet
  facet normal  7.071068e-001  7.071068e-001  0.000000e+000
    outer loop
      vertex  1.484924e-001  2.694077e+000  1.214601e+002
      vertex  2.694077e+000  1.484924e-001  1.208015e+002
      vertex  1.484924e-001  2.694077e+000  1.208015e+002
    endloop
  endfacet
  facet normal  7.071068e-001  7.071068e-001  -0.000000e+000
    outer loop
      vertex  2.694077e+000  1.484924e-001  1.076500e+002
      vertex  2.694077e+000  1.484924e-001  1.064985e+002
      vertex  1.484924e-001  2.694077e+000  1.076500e+002
    endloop
  endfacet
  facet normal  7.071068e-001  7.071068e-001  0.000000e+000
    outer loop
      vertex  1.484924e-001  2.694077e+000  1.076500e+002
      vertex  2.694077e+000  1.484924e-001  1.064985e+002
      vertex  1.484924e-001  2.694077e+000  1.064985e+002
    endloop
  endfacet
  facet normal  4.055805e-001  4.055805e-001  8.191513e-001
    outer loop
      vertex -8.105437e-001  1.735041e+000  1.081436e+002
      vertex  1.948079e+000 -5.975052e-001  1.079327e+002
      vertex -5.975052e-001  1.948079e+000  1.079327e+002
    endloop
  endfacet
  facet normal  2.988297e-001  2.988297e-001  9.063121e-001
    outer loop
      vertex -5.975052e-001  1.948079e+000  1.079327e+002
      vertex  1.948079e+000 -5.975052e-001  1.079327e+002
      vertex  2.183784e+000 -3.618000e-001  1.077773e+002
    endloop
  endfacet
  facet normal  2.988297e-001  2.988297e-001  9.063121e-001
    outer loop
      vertex -5.975052e-001  1.948079e+000  1.079327e+002
      vertex  2.183784e+000 -3.618000e-001  1.077773e+002
      vertex -3.618000e-001  2.183784e+000  1.077773e+002
    endloop
  endfacet
  facet normal  1.830247e-001  1.830247e-001  9.659213e-001
    outer loop
      vertex -3.618000e-001  2.183784e+000  1.077773e+002
      vertex  2.183784e+000 -3.618000e-001  1.077773e+002
      vertex  2.434994e+000 -1.105898e-001  1.076821e+002
    endloop
  endfacet
  facet normal  1.830247e-001  1.830247e-001  9.659212e-001
    outer loop
      vertex -3.618000e-001  2.183784e+000  1.077773e+002
      vertex  2.434994e+000 -1.105898e-001  1.076821e+002
      vertex -1.105898e-001  2.434994e+000  1.076821e+002
    endloop
  endfacet
  facet normal  6.161974e-002  6.161974e-002  9.961958e-001
    outer loop
      vertex -1.105898e-001  2.434994e+000  1.076821e+002
      vertex  2.434994e+000 -1.105898e-001  1.076821e+002
      vertex  2.694077e+000  1.484924e-001  1.076500e+002
    endloop
  endfacet
  facet normal  6.161974e-002  6.161974e-002  9.961958e-001
    outer loop
      vertex -1.105898e-001  2.434994e+000  1.076821e+002
      vertex  2.694077e+000  1.484924e-001  1.076500e+002
      vertex  1.484924e-001  2.694077e+000  1.076500e+002
    endloop
  endfacet
  facet normal  4.055805e-001  4.055805e-001  8.191513e-001
    outer loop
      vertex  1.948079e+000 -5.975052e-001  1.079327e+002
      vertex -8.105437e-001  1.735041e+000  1.081436e+002
      vertex  1.735041e+000 -8.105437e-001  1.081436e+002
    endloop
  endfacet
  facet normal  4.999988e-001  4.999988e-001  7.071084e-001
    outer loop
      vertex  1.735041e+000 -8.105437e-001  1.081436e+002
      vertex -8.105437e-001  1.735041e+000  1.081436e+002
      vertex -9.944423e-001  1.551142e+000  1.084037e+002
    endloop
  endfacet
  facet normal  4.999988e-001  4.999988e-001  7.071084e-001
    outer loop
      vertex  1.735041e+000 -8.105437e-001  1.081436e+002
      vertex -9.944423e-001  1.551142e+000  1.084037e+002
      vertex  1.551142e+000 -9.944423e-001  1.084037e+002
    endloop
  endfacet
  facet normal  5.792298e-001  5.792298e-001  5.735726e-001
    outer loop
      vertex  1.551142e+000 -9.944423e-001  1.084037e+002
      vertex -9.944423e-001  1.551142e+000  1.084037e+002
      vertex -1.143613e+000  1.401971e+000  1.087050e+002
    endloop
  endfacet
  facet normal  5.792298e-001  5.792298e-001  5.735726e-001
    outer loop
      vertex  1.551142e+000 -9.944423e-001  1.084037e+002
      vertex -1.143613e+000  1.401971e+000  1.087050e+002
      vertex  1.401971e+000 -1.143613e+000  1.087050e+002
    endloop
  endfacet
  facet normal  6.408558e-001  6.408558e-001  4.226201e-001
    outer loop
      vertex  1.401971e+000 -1.143613e+000  1.087050e+002
      vertex -1.143613e+000  1.401971e+000  1.087050e+002
      vertex -1.253525e+000  1.292060e+000  1.090383e+002
    endloop
  endfacet
  facet normal  6.408558e-001  6.408558e-001  4.226201e-001
    outer loop
      vertex  1.401971e+000 -1.143613e+000  1.087050e+002
      vertex -1.253525e+000  1.292060e+000  1.090383e+002
      vertex  1.292060e+000 -1.253525e+000  1.090383e+002
    endloop
  endfacet
  facet normal  6.830125e-001  6.830125e-001  2.588203e-001
    outer loop
      vertex  1.292060e+000 -1.253525e+000  1.090383e+002
      vertex -1.253525e+000  1.292060e+000  1.090383e+002
      vertex -1.320836e+000  1.224748e+000  1.093936e+002
    endloop
  endfacet
  facet normal  6.830124e-001  6.830124e-001  2.588203e-001
    outer loop
      vertex  1.292060e+000 -1.253525e+000  1.090383e+002
      vertex -1.320836e+000  1.224748e+000  1.093936e+002
      vertex  1.224748e+000 -1.320836e+000  1.093936e+002
    endloop
  endfacet
  facet normal  7.044161e-001  7.044161e-001  8.715454e-002
    outer loop
      vertex  1.224748e+000 -1.320836e+000  1.093936e+002
      vertex -1.320836e+000  1.224748e+000  1.093936e+002
      vertex -1.343503e+000  1.202082e+000  1.097600e+002
    endloop
  endfacet
  facet normal  7.044160e-001  7.044160e-001  8.715453e-002
    outer loop
      vertex  1.224748e+000 -1.320836e+000  1.093936e+002
      vertex -1.343503e+000  1.202082e+000  1.097600e+002
      vertex  1.202082e+000 -1.343503e+000  1.097600e+002
    endloop
  endfacet
  facet normal  5.792251e-001  5.792251e-001 -5.735824e-001
    outer loop
      vertex -9.944423e-001  1.551142e+000  1.200478e+002
      vertex  1.401971e+000 -1.143613e+000  1.197465e+002
      vertex -1.143613e+000  1.401971e+000  1.197465e+002
    endloop
  endfacet
  facet normal  6.408584e-001  6.408584e-001 -4.226122e-001
    outer loop
      vertex -1.143613e+000  1.401971e+000  1.197465e+002
      vertex  1.401971e+000 -1.143613e+000  1.197465e+002
      vertex  1.292060e+000 -1.253525e+000  1.194131e+002
    endloop
  endfacet
  facet normal  6.408584e-001  6.408584e-001 -4.226122e-001
    outer loop
      vertex -1.143613e+000  1.401971e+000  1.197465e+002
      vertex  1.292060e+000 -1.253525e+000  1.194131e+002
      vertex -1.253525e+000  1.292060e+000  1.194131e+002
    endloop
  endfacet
  facet normal  6.830125e-001  6.830125e-001 -2.588203e-001
    outer loop
      vertex -1.253525e+000  1.292060e+000  1.194131e+002
      vertex  1.292060e+000 -1.253525e+000  1.194131e+002
      vertex  1.224748e+000 -1.320836e+000  1.190579e+002
    endloop
  endfacet
  facet normal  6.830124e-001  6.830124e-001 -2.588203e-001
    outer loop
      vertex -1.253525e+000  1.292060e+000  1.194131e+002
      vertex  1.224748e+000 -1.320836e+000  1.190579e+002
      vertex -1.320836e+000  1.224748e+000  1.190579e+002
    endloop
  endfacet
  facet normal  7.044160e-001  7.044160e-001 -8.715633e-002
    outer loop
      vertex -1.320836e+000  1.224748e+000  1.190579e+002
      vertex  1.224748e+000 -1.320836e+000  1.190579e+002
      vertex  1.202082e+000 -1.343503e+000  1.186915e+002
    endloop
  endfacet
  facet normal  7.044160e-001  7.044160e-001 -8.715633e-002
    outer loop
      vertex -1.320836e+000  1.224748e+000  1.190579e+002
      vertex  1.202082e+000 -1.343503e+000  1.186915e+002
      vertex -1.343503e+000  1.202082e+000  1.186915e+002
    endloop
  endfacet
  facet normal  5.792251e-001  5.792251e-001 -5.735824e-001
    outer loop
      vertex  1.401971e+000 -1.143613e+000  1.197465e+002
      vertex -9.944423e-001  1.551142e+000  1.200478e+002
      vertex  1.551142e+000 -9.944423e-001  1.200478e+002
    endloop
  endfacet
  facet normal  4.999988e-001  4.999988e-001 -7.071084e-001
    outer loop
      vertex  1.551142e+000 -9.944423e-001  1.200478e+002
      vertex -9.944423e-001  1.551142e+000  1.200478e+002
      vertex -8.105437e-001  1.735041e+000  1.203078e+002
    endloop
  endfacet
  facet normal  4.999988e-001  4.999988e-001 -7.071084e-001
    outer loop
      vertex  1.551142e+000 -9.944423e-001  1.200478e+002
      vertex -8.105437e-001  1.735041e+000  1.203078e+002
      vertex  1.735041e+000 -8.105437e-001  1.203078e+002
    endloop
  endfacet
  facet normal  4.055805e-001  4.055805e-001 -8.191513e-001
    outer loop
      vertex  1.735041e+000 -8.105437e-001  1.203078e+002
      vertex -8.105437e-001  1.735041e+000  1.203078e+002
      vertex -5.975052e-001  1.948079e+000  1.205188e+002
    endloop
  endfacet
  facet normal  4.055805e-001  4.055805e-001 -8.191513e-001
    outer loop
      vertex  1.735041e+000 -8.105437e-001  1.203078e+002
      vertex -5.975052e-001  1.948079e+000  1.205188e+002
      vertex  1.948079e+000 -5.975052e-001  1.205188e+002
    endloop
  endfacet
  facet normal  2.988418e-001  2.988418e-001 -9.063041e-001
    outer loop
      vertex  1.948079e+000 -5.975052e-001  1.205188e+002
      vertex -5.975052e-001  1.948079e+000  1.205188e+002
      vertex -3.618000e-001  2.183784e+000  1.206742e+002
    endloop
  endfacet
  facet normal  2.988418e-001  2.988418e-001 -9.063041e-001
    outer loop
      vertex  1.948079e+000 -5.975052e-001  1.205188e+002
      vertex -3.618000e-001  2.183784e+000  1.206742e+002
      vertex  2.183784e+000 -3.618000e-001  1.206742e+002
    endloop
  endfacet
  facet normal  1.830110e-001  1.830110e-001 -9.659265e-001
    outer loop
      vertex  2.183784e+000 -3.618000e-001  1.206742e+002
      vertex -3.618000e-001  2.183784e+000  1.206742e+002
      vertex -1.105898e-001  2.434994e+000  1.207694e+002
    endloop
  endfacet
  facet normal  1.830110e-001  1.830110e-001 -9.659264e-001
    outer loop
      vertex  2.183784e+000 -3.618000e-001  1.206742e+002
      vertex -1.105898e-001  2.434994e+000  1.207694e+002
      vertex  2.434994e+000 -1.105898e-001  1.207694e+002
    endloop
  endfacet
  facet normal  6.163430e-002  6.163430e-002 -9.961940e-001
    outer loop
      vertex  2.434994e+000 -1.105898e-001  1.207694e+002
      vertex -1.105898e-001  2.434994e+000  1.207694e+002
      vertex  1.484924e-001  2.694077e+000  1.208015e+002
    endloop
  endfacet
  facet normal  6.163430e-002  6.163430e-002 -9.961940e-001
    outer loop
      vertex  2.434994e+000 -1.105898e-001  1.207694e+002
      vertex  1.484924e-001  2.694077e+000  1.208015e+002
      vertex  2.694077e+000  1.484924e-001  1.208015e+002
    endloop
  endfacet
  facet normal  4.995209e-001  8.663015e-001 -7.819477e-004
    outer loop
      vertex  2.598048e+000  4.283719e+000  1.229222e+002
      vertex  2.408363e+000  4.393164e+000  1.230003e+002
      vertex  2.526032e+000  4.326623e+000  1.244500e+002
    endloop
  endfacet
  facet normal  4.631529e-001  8.862730e-001  3.086753e-003
    outer loop
      vertex  2.526032e+000  4.326623e+000  1.244500e+002
      vertex  2.408363e+000  4.393164e+000  1.230003e+002
      vertex  2.219427e+000  4.491575e+000  1.230935e+002
    endloop
  endfacet
  facet normal  4.795993e-001  8.774861e-001 -1.698942e-003
    outer loop
      vertex  2.526032e+000  4.326623e+000  1.244500e+002
      vertex  2.219427e+000  4.491575e+000  1.230935e+002
      vertex  2.277035e+000  4.462715e+000  1.244500e+002
    endloop
  endfacet
  facet normal  4.250871e-001  9.051517e-001  1.204583e-003
    outer loop
      vertex  2.277035e+000  4.462715e+000  1.244500e+002
      vertex  2.219427e+000  4.491575e+000  1.230935e+002
      vertex  2.033270e+000  4.578855e+000  1.232021e+002
    endloop
  endfacet
  facet normal  4.301394e-001  9.027625e-001 -4.665972e-006
    outer loop
      vertex  2.277035e+000  4.462715e+000  1.244500e+002
      vertex  2.033270e+000  4.578855e+000  1.232021e+002
      vertex  2.033275e+000  4.578859e+000  1.244500e+002
    endloop
  endfacet
  facet normal  5.893049e-001  8.079087e-001 -1.814252e-003
    outer loop
      vertex  3.040270e+000  3.982069e+000  1.244500e+002
      vertex  2.786609e+000  4.163522e+000  1.228587e+002
      vertex  2.863233e+000  4.111204e+000  1.244500e+002
    endloop
  endfacet
  facet normal  5.379565e-001  8.429707e-001  1.811046e-003
    outer loop
      vertex  2.863233e+000  4.111204e+000  1.244500e+002
      vertex  2.786609e+000  4.163522e+000  1.228587e+002
      vertex  2.598048e+000  4.283719e+000  1.229222e+002
    endloop
  endfacet
  facet normal  5.383620e-001  8.427120e-001  1.711430e-003
    outer loop
      vertex  2.863233e+000  4.111204e+000  1.244500e+002
      vertex  2.598048e+000  4.283719e+000  1.229222e+002
      vertex  2.526032e+000  4.326623e+000  1.244500e+002
    endloop
  endfacet
  facet normal  5.763584e-001  8.171960e-001  1.308520e-003
    outer loop
      vertex  2.786609e+000  4.163522e+000  1.228587e+002
      vertex  3.040270e+000  3.982069e+000  1.244500e+002
      vertex  2.984504e+000  4.024032e+000  1.228064e+002
    endloop
  endfacet
  facet normal  6.242288e-001  7.812406e-001 -1.233745e-003
    outer loop
      vertex  2.984504e+000  4.024032e+000  1.228064e+002
      vertex  3.040270e+000  3.982069e+000  1.244500e+002
      vertex  3.213000e+000  3.844055e+000  1.244500e+002
    endloop
  endfacet
  facet normal  6.152394e-001  7.883399e-001  7.934120e-004
    outer loop
      vertex  2.984504e+000  4.024032e+000  1.228064e+002
      vertex  3.213000e+000  3.844055e+000  1.244500e+002
      vertex  3.177417e+000  3.873515e+000  1.227696e+002
    endloop
  endfacet
  facet normal  6.582274e-001  7.528187e-001 -7.396313e-004
    outer loop
      vertex  3.177417e+000  3.873515e+000  1.227696e+002
      vertex  3.213000e+000  3.844055e+000  1.244500e+002
      vertex  3.380760e+000  3.697373e+000  1.244500e+002
    endloop
  endfacet
  facet normal  6.530427e-001  7.573210e-001  3.597182e-004
    outer loop
      vertex  3.177417e+000  3.873515e+000  1.227696e+002
      vertex  3.380760e+000  3.697373e+000  1.244500e+002
      vertex  3.363850e+000  3.712764e+000  1.227477e+002
    endloop
  endfacet
  facet normal  6.911298e-001  7.227306e-001 -3.313843e-004
    outer loop
      vertex  3.363850e+000  3.712764e+000  1.227477e+002
      vertex  3.380760e+000  3.697373e+000  1.244500e+002
      vertex  3.542605e+000  3.542605e+000  1.244500e+002
    endloop
  endfacet
  facet normal  6.894761e-001  7.243084e-001  0.000000e+000
    outer loop
      vertex  3.363850e+000  3.712764e+000  1.227477e+002
      vertex  3.542605e+000  3.542605e+000  1.244500e+002
      vertex  3.542605e+000  3.542605e+000  1.227405e+002
    endloop
  endfacet
  facet normal  8.870487e-001  4.616754e-001 -7.342252e-004
    outer loop
      vertex  4.491577e+000  2.219424e+000  1.230935e+002
      vertex  4.393167e+000  2.408356e+000  1.230003e+002
      vertex  4.462715e+000  2.277035e+000  1.244500e+002
    endloop
  endfacet
  facet normal  8.654704e-001  5.009453e-001  3.858323e-003
    outer loop
      vertex  4.462715e+000  2.277035e+000  1.244500e+002
      vertex  4.393167e+000  2.408356e+000  1.230003e+002
      vertex  4.283725e+000  2.598038e+000  1.229222e+002
    endloop
  endfacet
  facet normal  8.774855e-001  4.795990e-001 -2.034506e-003
    outer loop
      vertex  4.462715e+000  2.277035e+000  1.244500e+002
      vertex  4.283725e+000  2.598038e+000  1.229222e+002
      vertex  4.326623e+000  2.526032e+000  1.244500e+002
    endloop
  endfacet
  facet normal  8.429910e-001  5.379251e-001  1.683073e-003
    outer loop
      vertex  4.326623e+000  2.526032e+000  1.244500e+002
      vertex  4.283725e+000  2.598038e+000  1.229222e+002
      vertex  4.163531e+000  2.786595e+000  1.228587e+002
    endloop
  endfacet
  facet normal  8.427119e-001  5.383619e-001  1.783210e-003
    outer loop
      vertex  4.326623e+000  2.526032e+000  1.244500e+002
      vertex  4.163531e+000  2.786595e+000  1.228587e+002
      vertex  4.111204e+000  2.863233e+000  1.244500e+002
    endloop
  endfacet
  facet normal  8.174679e-001  5.759735e-001 -8.582931e-004
    outer loop
      vertex  4.111204e+000  2.863233e+000  1.244500e+002
      vertex  4.163531e+000  2.786595e+000  1.228587e+002
      vertex  4.024040e+000  2.984494e+000  1.228065e+002
    endloop
  endfacet
  facet normal  8.079098e-001  5.893058e-001  6.322836e-004
    outer loop
      vertex  4.111204e+000  2.863233e+000  1.244500e+002
      vertex  4.024040e+000  2.984494e+000  1.228065e+002
      vertex  3.982069e+000  3.040270e+000  1.244500e+002
    endloop
  endfacet
  facet normal  7.884825e-001  6.150568e-001 -7.377241e-004
    outer loop
      vertex  3.982069e+000  3.040270e+000  1.244500e+002
      vertex  4.024040e+000  2.984494e+000  1.228065e+002
      vertex  3.873521e+000  3.177411e+000  1.227696e+002
    endloop
  endfacet
  facet normal  7.812411e-001  6.242292e-001  4.786429e-004
    outer loop
      vertex  3.982069e+000  3.040270e+000  1.244500e+002
      vertex  3.873521e+000  3.177411e+000  1.227696e+002
      vertex  3.844055e+000  3.213000e+000  1.244500e+002
    endloop
  endfacet
  facet normal  7.573747e-001  6.529803e-001 -5.487836e-004
    outer loop
      vertex  3.844055e+000  3.213000e+000  1.244500e+002
      vertex  3.873521e+000  3.177411e+000  1.227696e+002
      vertex  3.712766e+000  3.363847e+000  1.227477e+002
    endloop
  endfacet
  facet normal  7.528189e-001  6.582276e-001  2.675730e-004
    outer loop
      vertex  3.844055e+000  3.213000e+000  1.244500e+002
      vertex  3.712766e+000  3.363847e+000  1.227477e+002
      vertex  3.697373e+000  3.380760e+000  1.244500e+002
    endloop
  endfacet
  facet normal  7.243147e-001  6.894695e-001 -3.006056e-004
    outer loop
      vertex  3.697373e+000  3.380760e+000  1.244500e+002
      vertex  3.712766e+000  3.363847e+000  1.227477e+002
      vertex  3.542605e+000  3.542605e+000  1.227405e+002
    endloop
  endfacet
  facet normal  7.227306e-001  6.911299e-001  -0.000000e+000
    outer loop
      vertex  3.697373e+000  3.380760e+000  1.244500e+002
      vertex  3.542605e+000  3.542605e+000  1.227405e+002
      vertex  3.542605e+000  3.542605e+000  1.244500e+002
    endloop
  endfacet
  facet normal  9.051522e-001  4.250858e-001  1.204873e-003
    outer loop
      vertex  4.491577e+000  2.219424e+000  1.230935e+002
      vertex  4.462715e+000  2.277035e+000  1.244500e+002
      vertex  4.578855e+000  2.033270e+000  1.232021e+002
    endloop
  endfacet
  facet normal  9.027625e-001  4.301394e-001 -4.665972e-006
    outer loop
      vertex  4.578855e+000  2.033270e+000  1.232021e+002
      vertex  4.462715e+000  2.277035e+000  1.244500e+002
      vertex  4.578859e+000  2.033275e+000  1.244500e+002
    endloop
  endfacet
  facet normal  0.000000e+000  0.000000e+000  1.000000e+000
    outer loop
      vertex  2.757716e+000  2.121320e-001  1.244500e+002
      vertex  4.578859e+000  2.033275e+000  1.244500e+002
      vertex  4.462715e+000  2.277035e+000  1.244500e+002
    endloop
  endfacet
  facet normal  0.000000e+000  0.000000e+000  9.999999e-001
    outer loop
      vertex  2.757716e+000  2.121320e-001  1.244500e+002
      vertex  4.462715e+000  2.277035e+000  1.244500e+002
      vertex  4.326623e+000  2.526032e+000  1.244500e+002
    endloop
  endfacet
  facet normal  0.000000e+000  0.000000e+000  1.000000e+000
    outer loop
      vertex  2.757716e+000  2.121320e-001  1.244500e+002
      vertex  4.326623e+000  2.526032e+000  1.244500e+002
      vertex  4.111204e+000  2.863233e+000  1.244500e+002
    endloop
  endfacet
  facet normal  0.000000e+000  0.000000e+000  1.000000e+000
    outer loop
      vertex  2.757716e+000  2.121320e-001  1.244500e+002
      vertex  4.111204e+000  2.863233e+000  1.244500e+002
      vertex  3.982069e+000  3.040270e+000  1.244500e+002
    endloop
  endfacet
  facet normal  0.000000e+000  0.000000e+000  1.000000e+000
    outer loop
      vertex  2.757716e+000  2.121320e-001  1.244500e+002
      vertex  3.982069e+000  3.040270e+000  1.244500e+002
      vertex  3.844055e+000  3.213000e+000  1.244500e+002
    endloop
  endfacet
  facet normal  0.000000e+000  0.000000e+000  1.000000e+000
    outer loop
      vertex  2.757716e+000  2.121320e-001  1.244500e+002
      vertex  3.844055e+000  3.213000e+000  1.244500e+002
      vertex  3.697373e+000  3.380760e+000  1.244500e+002
    endloop
  endfacet
  facet normal  0.000000e+000  0.000000e+000  1.000000e+000
    outer loop
      vertex  2.757716e+000  2.121320e-001  1.244500e+002
      vertex  3.697373e+000  3.380760e+000  1.244500e+002
      vertex  3.542605e+000  3.542605e+000  1.244500e+002
    endloop
  endfacet
  facet normal  0.000000e+000  0.000000e+000  1.000000e+000
    outer loop
      vertex  2.757716e+000  2.121320e-001  1.244500e+002
      vertex  3.542605e+000  3.542605e+000  1.244500e+002
      vertex  3.380760e+000  3.697373e+000  1.244500e+002
    endloop
  endfacet
  facet normal  0.000000e+000  0.000000e+000  1.000000e+000
    outer loop
      vertex  2.757716e+000  2.121320e-001  1.244500e+002
      vertex  3.380760e+000  3.697373e+000  1.244500e+002
      vertex  3.213000e+000  3.844055e+000  1.244500e+002
    endloop
  endfacet
  facet normal  0.000000e+000  0.000000e+000  1.000000e+000
    outer loop
      vertex  2.757716e+000  2.121320e-001  1.244500e+002
      vertex  3.213000e+000  3.844055e+000  1.244500e+002
      vertex  3.040270e+000  3.982069e+000  1.244500e+002
    endloop
  endfacet
  facet normal  0.000000e+000  0.000000e+000  1.000000e+000
    outer loop
      vertex  2.757716e+000  2.121320e-001  1.244500e+002
      vertex  3.040270e+000  3.982069e+000  1.244500e+002
      vertex  2.863233e+000  4.111204e+000  1.244500e+002
    endloop
  endfacet
  facet normal  0.000000e+000  0.000000e+000  1.000000e+000
    outer loop
      vertex  2.757716e+000  2.121320e-001  1.244500e+002
      vertex  2.863233e+000  4.111204e+000  1.244500e+002
      vertex  2.526032e+000  4.326623e+000  1.244500e+002
    endloop
  endfacet
  facet normal  0.000000e+000  0.000000e+000  9.999999e-001
    outer loop
      vertex  2.757716e+000  2.121320e-001  1.244500e+002
      vertex  2.526032e+000  4.326623e+000  1.244500e+002
      vertex  2.277035e+000  4.462715e+000  1.244500e+002
    endloop
  endfacet
  facet normal  0.000000e+000  0.000000e+000  1.000000e+000
    outer loop
      vertex  2.757716e+000  2.121320e-001  1.244500e+002
      vertex  2.277035e+000  4.462715e+000  1.244500e+002
      vertex  2.033275e+000  4.578859e+000  1.244500e+002
    endloop
  endfacet
  facet normal  0.000000e+000  0.000000e+000  1.000000e+000
    outer loop
      vertex  2.757716e+000  2.121320e-001  1.244500e+002
      vertex  2.033275e+000  4.578859e+000  1.244500e+002
      vertex  2.121320e-001  2.757716e+000  1.244500e+002
    endloop
  endfacet
  facet normal  0.000000e+000  0.000000e+000  1.000000e+000
    outer loop
      vertex  1.414214e-001 -2.404163e+000  1.244500e+002
      vertex  2.757716e+000  2.121320e-001  1.244500e+002
      vertex -2.404163e+000  1.414214e-001  1.244500e+002
    endloop
  endfacet
  facet normal  0.000000e+000  0.000000e+000  1.000000e+000
    outer loop
      vertex -2.404163e+000  1.414214e-001  1.244500e+002
      vertex  2.757716e+000  2.121320e-001  1.244500e+002
      vertex  2.121320e-001  2.757716e+000  1.244500e+002
    endloop
  endfacet
  facet normal -7.071068e-001 -7.071068e-001  0.000000e+000
    outer loop
      vertex  1.414214e-001 -2.404163e+000  1.244500e+002
      vertex -2.404163e+000  1.414214e-001  1.244500e+002
      vertex  1.414214e-001 -2.404163e+000  1.129500e+002
    endloop
  endfacet
  facet normal -7.071068e-001 -7.071068e-001  0.000000e+000
    outer loop
      vertex  1.414214e-001 -2.404163e+000  1.129500e+002
      vertex -2.404163e+000  1.414214e-001  1.244500e+002
      vertex -2.404163e+000  1.414214e-001  1.129500e+002
    endloop
  endfacet
endsolid CATIA STL
