solid CATIA STL
  facet normal  0.000000e+000  0.000000e+000  1.000000e+000
    outer loop
      vertex  1.157499e+000 -1.614359e+000  1.227405e+002
      vertex -3.458193e+000 -1.321125e+000  1.227405e+002
      vertex -3.394816e+000 -1.348536e+000  1.227405e+002
    endloop
  endfacet
  facet normal  0.000000e+000  0.000000e+000  9.999999e-001
    outer loop
      vertex  1.157499e+000 -1.614359e+000  1.227405e+002
      vertex -3.394816e+000 -1.348536e+000  1.227405e+002
      vertex -3.341509e+000 -1.384066e+000  1.227405e+002
    endloop
  endfacet
  facet normal  0.000000e+000  0.000000e+000  1.000000e+000
    outer loop
      vertex  1.157499e+000 -1.614359e+000  1.227405e+002
      vertex -3.341509e+000 -1.384066e+000  1.227405e+002
      vertex -3.253028e+000 -1.463724e+000  1.227405e+002
    endloop
  endfacet
  facet normal  0.000000e+000  0.000000e+000  9.999999e-001
    outer loop
      vertex  1.157499e+000 -1.614359e+000  1.227405e+002
      vertex -3.253028e+000 -1.463724e+000  1.227405e+002
      vertex -3.083993e+000 -1.667026e+000  1.227405e+002
    endloop
  endfacet
  facet normal  -0.000000e+000  0.000000e+000  1.000000e+000
    outer loop
      vertex  1.157499e+000 -1.614359e+000  1.227405e+002
      vertex -3.083993e+000 -1.667026e+000  1.227405e+002
      vertex -2.903143e+000 -1.915309e+000  1.227405e+002
    endloop
  endfacet
  facet normal  -0.000000e+000  0.000000e+000  1.000000e+000
    outer loop
      vertex  1.157499e+000 -1.614359e+000  1.227405e+002
      vertex -2.903143e+000 -1.915309e+000  1.227405e+002
      vertex -2.725665e+000 -2.148815e+000  1.227405e+002
    endloop
  endfacet
  facet normal  -0.000000e+000  0.000000e+000  1.000000e+000
    outer loop
      vertex  1.157499e+000 -1.614359e+000  1.227405e+002
      vertex -2.725665e+000 -2.148815e+000  1.227405e+002
      vertex -2.633090e+000 -2.260130e+000  1.227405e+002
    endloop
  endfacet
  facet normal  -0.000000e+000  0.000000e+000  1.000000e+000
    outer loop
      vertex  1.157499e+000 -1.614359e+000  1.227405e+002
      vertex -2.633090e+000 -2.260130e+000  1.227405e+002
      vertex -2.453593e+000 -2.453593e+000  1.227405e+002
    endloop
  endfacet
  facet normal  -0.000000e+000  0.000000e+000  1.000000e+000
    outer loop
      vertex  1.157499e+000 -1.614359e+000  1.227405e+002
      vertex -2.453593e+000 -2.453593e+000  1.227405e+002
      vertex -2.188714e+000 -2.693241e+000  1.227405e+002
    endloop
  endfacet
  facet normal  -0.000000e+000  0.000000e+000  1.000000e+000
    outer loop
      vertex  1.157499e+000 -1.614359e+000  1.227405e+002
      vertex -2.188714e+000 -2.693241e+000  1.227405e+002
      vertex -1.886687e+000 -2.923952e+000  1.227405e+002
    endloop
  endfacet
  facet normal  -0.000000e+000  0.000000e+000  1.000000e+000
    outer loop
      vertex  1.157499e+000 -1.614359e+000  1.227405e+002
      vertex -1.886687e+000 -2.923952e+000  1.227405e+002
      vertex -1.643921e+000 -3.101457e+000  1.227405e+002
    endloop
  endfacet
  facet normal  -0.000000e+000  0.000000e+000  1.000000e+000
    outer loop
      vertex  1.157499e+000 -1.614359e+000  1.227405e+002
      vertex -1.643921e+000 -3.101457e+000  1.227405e+002
      vertex -1.449332e+000 -3.267300e+000  1.227405e+002
    endloop
  endfacet
  facet normal  -0.000000e+000  0.000000e+000  1.000000e+000
    outer loop
      vertex  1.157499e+000 -1.614359e+000  1.227405e+002
      vertex -1.449332e+000 -3.267300e+000  1.227405e+002
      vertex -1.374644e+000 -3.354245e+000  1.227405e+002
    endloop
  endfacet
  facet normal  -0.000000e+000  0.000000e+000  1.000000e+000
    outer loop
      vertex  1.157499e+000 -1.614359e+000  1.227405e+002
      vertex -1.374644e+000 -3.354245e+000  1.227405e+002
      vertex -1.341960e+000 -3.406946e+000  1.227405e+002
    endloop
  endfacet
  facet normal  -0.000000e+000  0.000000e+000  1.000000e+000
    outer loop
      vertex  1.157499e+000 -1.614359e+000  1.227405e+002
      vertex -1.341960e+000 -3.406946e+000  1.227405e+002
      vertex -1.318643e+000 -3.467532e+000  1.227405e+002
    endloop
  endfacet
  facet normal  -0.000000e+000  0.000000e+000  1.000000e+000
    outer loop
      vertex  1.157499e+000 -1.614359e+000  1.227405e+002
      vertex -1.318643e+000 -3.467532e+000  1.227405e+002
      vertex -1.315408e+000 -3.531146e+000  1.227405e+002
    endloop
  endfacet
  facet normal  -0.000000e+000  0.000000e+000  1.000000e+000
    outer loop
      vertex  1.157499e+000 -1.614359e+000  1.227405e+002
      vertex -1.315408e+000 -3.531146e+000  1.227405e+002
      vertex -1.356650e+000 -3.611831e+000  1.227405e+002
    endloop
  endfacet
  facet normal  -0.000000e+000  0.000000e+000  1.000000e+000
    outer loop
      vertex  1.157499e+000 -1.614359e+000  1.227405e+002
      vertex -1.356650e+000 -3.611831e+000  1.227405e+002
      vertex -2.034123e+000 -4.289298e+000  1.227405e+002
    endloop
  endfacet
  facet normal  -0.000000e+000  0.000000e+000  1.000000e+000
    outer loop
      vertex  1.157499e+000 -1.614359e+000  1.227405e+002
      vertex -2.034123e+000 -4.289298e+000  1.227405e+002
      vertex -2.275499e+000 -4.530674e+000  1.227405e+002
    endloop
  endfacet
  facet normal  -0.000000e+000  0.000000e+000  9.999999e-001
    outer loop
      vertex  1.157499e+000 -1.614359e+000  1.227405e+002
      vertex -2.275499e+000 -4.530674e+000  1.227405e+002
      vertex -1.920375e+000 -4.692234e+000  1.227405e+002
    endloop
  endfacet
  facet normal  -0.000000e+000  0.000000e+000  1.000000e+000
    outer loop
      vertex -1.614359e+000  1.157499e+000  1.227405e+002
      vertex -4.692234e+000 -1.920375e+000  1.227405e+002
      vertex -4.530878e+000 -2.275092e+000  1.227405e+002
    endloop
  endfacet
  facet normal  0.000000e+000  0.000000e+000  1.000000e+000
    outer loop
      vertex -1.614359e+000  1.157499e+000  1.227405e+002
      vertex -4.530878e+000 -2.275092e+000  1.227405e+002
      vertex -4.288188e+000 -2.032401e+000  1.227405e+002
    endloop
  endfacet
  facet normal -1.186367e-003  9.944332e-004  9.999988e-001
    outer loop
      vertex -1.614359e+000  1.157499e+000  1.227405e+002
      vertex -4.288188e+000 -2.032401e+000  1.227405e+002
      vertex -3.610461e+000 -1.354293e+000  1.227406e+002
    endloop
  endfacet
  facet normal  2.059081e-003 -1.584699e-003  9.999967e-001
    outer loop
      vertex -1.614359e+000  1.157499e+000  1.227405e+002
      vertex -3.610461e+000 -1.354293e+000  1.227406e+002
      vertex -3.515946e+000 -1.313329e+000  1.227405e+002
    endloop
  endfacet
  facet normal  -0.000000e+000  0.000000e+000  1.000000e+000
    outer loop
      vertex -1.614359e+000  1.157499e+000  1.227405e+002
      vertex -3.515946e+000 -1.313329e+000  1.227405e+002
      vertex -3.458193e+000 -1.321125e+000  1.227405e+002
    endloop
  endfacet
  facet normal  -0.000000e+000  0.000000e+000  1.000000e+000
    outer loop
      vertex -1.614359e+000  1.157499e+000  1.227405e+002
      vertex -3.458193e+000 -1.321125e+000  1.227405e+002
      vertex  1.157499e+000 -1.614359e+000  1.227405e+002
    endloop
  endfacet
  facet normal -7.413059e-001 -6.711672e-001  -0.000000e+000
    outer loop
      vertex -3.585031e+000 -3.585031e+000  1.163767e+002
      vertex -3.585031e+000 -3.585031e+000  1.224105e+002
      vertex -3.922562e+000 -3.212228e+000  1.163767e+002
    endloop
  endfacet
  facet normal -7.349393e-001 -6.781324e-001 -7.865028e-004
    outer loop
      vertex -3.922562e+000 -3.212228e+000  1.163767e+002
      vertex -3.585031e+000 -3.585031e+000  1.224105e+002
      vertex -3.861001e+000 -3.285966e+000  1.224295e+002
    endloop
  endfacet
  facet normal -8.041511e-001 -5.944243e-001  9.372109e-004
    outer loop
      vertex -3.922562e+000 -3.212228e+000  1.163767e+002
      vertex -3.861001e+000 -3.285966e+000  1.224295e+002
      vertex -4.221498e+000 -2.807819e+000  1.163767e+002
    endloop
  endfacet
  facet normal -7.869247e-001 -6.170461e-001 -1.875822e-003
    outer loop
      vertex -4.221498e+000 -2.807819e+000  1.163767e+002
      vertex -3.861001e+000 -3.285966e+000  1.224295e+002
      vertex -4.110417e+000 -2.968059e+000  1.224871e+002
    endloop
  endfacet
  facet normal -8.337408e-001 -5.521557e-001  6.769144e-004
    outer loop
      vertex -4.221498e+000 -2.807819e+000  1.163767e+002
      vertex -4.110417e+000 -2.968059e+000  1.224871e+002
      vertex -4.337693e+000 -2.624751e+000  1.225900e+002
    endloop
  endfacet
  facet normal -8.590844e-001 -5.118331e-001 -9.850799e-004
    outer loop
      vertex -4.221498e+000 -2.807819e+000  1.163767e+002
      vertex -4.337693e+000 -2.624751e+000  1.225900e+002
      vertex -4.478900e+000 -2.375785e+000  1.163767e+002
    endloop
  endfacet
  facet normal -8.752001e-001 -4.837608e-001  5.060170e-004
    outer loop
      vertex -4.478900e+000 -2.375785e+000  1.163767e+002
      vertex -4.337693e+000 -2.624751e+000  1.225900e+002
      vertex -4.530878e+000 -2.275092e+000  1.227405e+002
    endloop
  endfacet
  facet normal -9.055650e-001 -4.242069e-001 -6.843087e-004
    outer loop
      vertex -4.478900e+000 -2.375785e+000  1.163767e+002
      vertex -4.530878e+000 -2.275092e+000  1.227405e+002
      vertex -4.692234e+000 -1.920375e+000  1.163767e+002
    endloop
  endfacet
  facet normal -9.102492e-001 -4.140609e-001  0.000000e+000
    outer loop
      vertex -4.692234e+000 -1.920375e+000  1.163767e+002
      vertex -4.530878e+000 -2.275092e+000  1.227405e+002
      vertex -4.692234e+000 -1.920375e+000  1.227405e+002
    endloop
  endfacet
  facet normal -4.242071e-001 -9.055653e-001  -0.000000e+000
    outer loop
      vertex -1.920375e+000 -4.692234e+000  1.163767e+002
      vertex -1.920375e+000 -4.692234e+000  1.227405e+002
      vertex -2.375785e+000 -4.478900e+000  1.163767e+002
    endloop
  endfacet
  facet normal -4.141015e-001 -9.102302e-001 -8.795647e-004
    outer loop
      vertex -2.375785e+000 -4.478900e+000  1.163767e+002
      vertex -1.920375e+000 -4.692234e+000  1.227405e+002
      vertex -2.275499e+000 -4.530674e+000  1.227405e+002
    endloop
  endfacet
  facet normal -4.503464e-001 -8.928539e-001 -1.670216e-004
    outer loop
      vertex -2.375785e+000 -4.478900e+000  1.163767e+002
      vertex -2.275499e+000 -4.530674e+000  1.227405e+002
      vertex -2.291605e+000 -4.522548e+000  1.227322e+002
    endloop
  endfacet
  facet normal -5.118332e-001 -8.590844e-001  8.792953e-004
    outer loop
      vertex -2.375785e+000 -4.478900e+000  1.163767e+002
      vertex -2.291605e+000 -4.522548e+000  1.227322e+002
      vertex -2.807819e+000 -4.221498e+000  1.163767e+002
    endloop
  endfacet
  facet normal -4.781464e-001 -8.782759e-001 -2.765896e-003
    outer loop
      vertex -2.807819e+000 -4.221498e+000  1.163767e+002
      vertex -2.291605e+000 -4.522548e+000  1.227322e+002
      vertex -2.564031e+000 -4.373859e+000  1.226127e+002
    endloop
  endfacet
  facet normal -5.326017e-001 -8.463659e-001  1.425893e-004
    outer loop
      vertex -2.807819e+000 -4.221498e+000  1.163767e+002
      vertex -2.564031e+000 -4.373859e+000  1.226127e+002
      vertex -2.833545e+000 -4.204274e+000  1.225224e+002
    endloop
  endfacet
  facet normal -5.944245e-001 -8.041514e-001 -2.345131e-004
    outer loop
      vertex -2.807819e+000 -4.221498e+000  1.163767e+002
      vertex -2.833545e+000 -4.204274e+000  1.225224e+002
      vertex -3.212228e+000 -3.922562e+000  1.163767e+002
    endloop
  endfacet
  facet normal -5.848334e-001 -8.111526e-001 -1.146412e-003
    outer loop
      vertex -3.212228e+000 -3.922562e+000  1.163767e+002
      vertex -2.833545e+000 -4.204274e+000  1.225224e+002
      vertex -3.095493e+000 -4.015324e+000  1.224596e+002
    endloop
  endfacet
  facet normal -6.356834e-001 -7.719496e-001  4.272487e-004
    outer loop
      vertex -3.212228e+000 -3.922562e+000  1.163767e+002
      vertex -3.095493e+000 -4.015324e+000  1.224596e+002
      vertex -3.346636e+000 -3.808533e+000  1.224227e+002
    endloop
  endfacet
  facet normal -6.839520e-001 -7.295271e-001  0.000000e+000
    outer loop
      vertex -3.585031e+000 -3.585031e+000  1.224105e+002
      vertex -3.585031e+000 -3.585031e+000  1.163767e+002
      vertex -3.346636e+000 -3.808533e+000  1.224227e+002
    endloop
  endfacet
  facet normal -6.711669e-001 -7.413056e-001 -9.395351e-004
    outer loop
      vertex -3.346636e+000 -3.808533e+000  1.224227e+002
      vertex -3.585031e+000 -3.585031e+000  1.163767e+002
      vertex -3.212228e+000 -3.922562e+000  1.163767e+002
    endloop
  endfacet
  facet normal  2.058384e-001 -2.175640e-001  9.540946e-001
    outer loop
      vertex -4.152831e+000 -2.265233e+000  1.226321e+002
      vertex -4.337693e+000 -2.624751e+000  1.225900e+002
      vertex -4.003218e+000 -2.497907e+000  1.225468e+002
    endloop
  endfacet
  facet normal  1.879894e-001 -1.657284e-001  9.680878e-001
    outer loop
      vertex -4.003218e+000 -2.497907e+000  1.225468e+002
      vertex -4.337693e+000 -2.624751e+000  1.225900e+002
      vertex -4.110417e+000 -2.968059e+000  1.224871e+002
    endloop
  endfacet
  facet normal  1.539233e-001 -1.588672e-001  9.752275e-001
    outer loop
      vertex -4.003218e+000 -2.497907e+000  1.225468e+002
      vertex -4.110417e+000 -2.968059e+000  1.224871e+002
      vertex -3.830691e+000 -2.739422e+000  1.224802e+002
    endloop
  endfacet
  facet normal  1.043337e-001 -9.775877e-002  9.897261e-001
    outer loop
      vertex -3.830691e+000 -2.739422e+000  1.224802e+002
      vertex -4.110417e+000 -2.968059e+000  1.224871e+002
      vertex -3.861001e+000 -3.285966e+000  1.224295e+002
    endloop
  endfacet
  facet normal  1.095232e-001 -9.799230e-002  9.891421e-001
    outer loop
      vertex -3.830691e+000 -2.739422e+000  1.224802e+002
      vertex -3.861001e+000 -3.285966e+000  1.224295e+002
      vertex -3.643517e+000 -2.974350e+000  1.224362e+002
    endloop
  endfacet
  facet normal  2.568902e-002 -3.969473e-002  9.988816e-001
    outer loop
      vertex -3.643517e+000 -2.974350e+000  1.224362e+002
      vertex -3.861001e+000 -3.285966e+000  1.224295e+002
      vertex -3.585031e+000 -3.585031e+000  1.224105e+002
    endloop
  endfacet
  facet normal  3.845669e-002 -3.845669e-002  9.985200e-001
    outer loop
      vertex -3.643517e+000 -2.974350e+000  1.224362e+002
      vertex -3.585031e+000 -3.585031e+000  1.224105e+002
      vertex -3.323334e+000 -3.323334e+000  1.224105e+002
    endloop
  endfacet
  facet normal  2.579959e-001 -2.579954e-001  9.310620e-001
    outer loop
      vertex -4.530878e+000 -2.275092e+000  1.227405e+002
      vertex -4.337693e+000 -2.624751e+000  1.225900e+002
      vertex -4.288188e+000 -2.032401e+000  1.227405e+002
    endloop
  endfacet
  facet normal  2.925792e-001 -2.582561e-001  9.207069e-001
    outer loop
      vertex -4.288188e+000 -2.032401e+000  1.227405e+002
      vertex -4.337693e+000 -2.624751e+000  1.225900e+002
      vertex -4.152831e+000 -2.265233e+000  1.226321e+002
    endloop
  endfacet
  facet normal  1.055131e-001 -1.012083e-001  9.892542e-001
    outer loop
      vertex -3.830691e+000 -2.739422e+000  1.224802e+002
      vertex -3.643517e+000 -2.974350e+000  1.224362e+002
      vertex -3.086019e+000 -2.229377e+000  1.224530e+002
    endloop
  endfacet
  facet normal  7.215196e-002 -7.635985e-002  9.944663e-001
    outer loop
      vertex -3.086019e+000 -2.229377e+000  1.224530e+002
      vertex -3.643517e+000 -2.974350e+000  1.224362e+002
      vertex -2.894611e+000 -2.464541e+000  1.224211e+002
    endloop
  endfacet
  facet normal  4.336429e-002 -3.395133e-002  9.984822e-001
    outer loop
      vertex -3.643517e+000 -2.974350e+000  1.224362e+002
      vertex -3.323334e+000 -3.323334e+000  1.224105e+002
      vertex -2.894611e+000 -2.464541e+000  1.224211e+002
    endloop
  endfacet
  facet normal  2.459032e-002 -2.459032e-002  9.993952e-001
    outer loop
      vertex -2.894611e+000 -2.464541e+000  1.224211e+002
      vertex -3.323334e+000 -3.323334e+000  1.224105e+002
      vertex -2.686938e+000 -2.686938e+000  1.224105e+002
    endloop
  endfacet
  facet normal  1.309459e-001 -1.387477e-001  9.816324e-001
    outer loop
      vertex -3.313972e+000 -1.900257e+000  1.225299e+002
      vertex -3.830691e+000 -2.739422e+000  1.224802e+002
      vertex -3.086019e+000 -2.229377e+000  1.224530e+002
    endloop
  endfacet
  facet normal  1.586642e-001 -1.554240e-001  9.750226e-001
    outer loop
      vertex -3.830691e+000 -2.739422e+000  1.224802e+002
      vertex -3.313972e+000 -1.900257e+000  1.225299e+002
      vertex -4.003218e+000 -2.497907e+000  1.225468e+002
    endloop
  endfacet
  facet normal  2.079882e-001 -2.128823e-001  9.546843e-001
    outer loop
      vertex -4.003218e+000 -2.497907e+000  1.225468e+002
      vertex -3.313972e+000 -1.900257e+000  1.225299e+002
      vertex -3.509174e+000 -1.560236e+000  1.226483e+002
    endloop
  endfacet
  facet normal  2.107894e-001 -2.142583e-001  9.537616e-001
    outer loop
      vertex -4.003218e+000 -2.497907e+000  1.225468e+002
      vertex -3.509174e+000 -1.560236e+000  1.226483e+002
      vertex -4.152831e+000 -2.265233e+000  1.226321e+002
    endloop
  endfacet
  facet normal  2.786483e-001 -2.754420e-001  9.200471e-001
    outer loop
      vertex -4.152831e+000 -2.265233e+000  1.226321e+002
      vertex -3.509174e+000 -1.560236e+000  1.226483e+002
      vertex -3.610461e+000 -1.354293e+000  1.227406e+002
    endloop
  endfacet
  facet normal  2.716149e-001 -2.716388e-001  9.232756e-001
    outer loop
      vertex -4.152831e+000 -2.265233e+000  1.226321e+002
      vertex -3.610461e+000 -1.354293e+000  1.227406e+002
      vertex -4.288188e+000 -2.032401e+000  1.227405e+002
    endloop
  endfacet
  facet normal -1.927682e-001  1.981979e-001  9.610193e-001
    outer loop
      vertex -2.573990e+000 -3.950873e+000  1.225235e+002
      vertex -2.564031e+000 -4.373859e+000  1.226127e+002
      vertex -2.337212e+000 -4.108160e+000  1.226034e+002
    endloop
  endfacet
  facet normal -2.657669e-001  2.593757e-001  9.284893e-001
    outer loop
      vertex -2.337212e+000 -4.108160e+000  1.226034e+002
      vertex -2.564031e+000 -4.373859e+000  1.226127e+002
      vertex -2.291605e+000 -4.522548e+000  1.227322e+002
    endloop
  endfacet
  facet normal -2.603608e-001  2.603608e-001  9.297444e-001
    outer loop
      vertex -2.337212e+000 -4.108160e+000  1.226034e+002
      vertex -2.291605e+000 -4.522548e+000  1.227322e+002
      vertex -2.048380e+000 -4.279323e+000  1.227322e+002
    endloop
  endfacet
  facet normal -1.971501e-001  1.979193e-001  9.601873e-001
    outer loop
      vertex -2.564031e+000 -4.373859e+000  1.226127e+002
      vertex -2.573990e+000 -3.950873e+000  1.225235e+002
      vertex -2.833545e+000 -4.204274e+000  1.225224e+002
    endloop
  endfacet
  facet normal -1.320396e-001  1.311342e-001  9.825321e-001
    outer loop
      vertex -2.833545e+000 -4.204274e+000  1.225224e+002
      vertex -2.573990e+000 -3.950873e+000  1.225235e+002
      vertex -2.884145e+000 -3.717826e+000  1.224507e+002
    endloop
  endfacet
  facet normal -1.415098e-001  1.299773e-001  9.813669e-001
    outer loop
      vertex -2.833545e+000 -4.204274e+000  1.225224e+002
      vertex -2.884145e+000 -3.717826e+000  1.224507e+002
      vertex -3.095493e+000 -4.015324e+000  1.224596e+002
    endloop
  endfacet
  facet normal -6.767750e-002  7.792417e-002  9.946595e-001
    outer loop
      vertex -3.095493e+000 -4.015324e+000  1.224596e+002
      vertex -2.884145e+000 -3.717826e+000  1.224507e+002
      vertex -3.108593e+000 -3.526823e+000  1.224205e+002
    endloop
  endfacet
  facet normal -8.241400e-002  7.744283e-002  9.935846e-001
    outer loop
      vertex -3.095493e+000 -4.015324e+000  1.224596e+002
      vertex -3.108593e+000 -3.526823e+000  1.224205e+002
      vertex -3.346636e+000 -3.808533e+000  1.224227e+002
    endloop
  endfacet
  facet normal -2.172055e-002  2.620308e-002  9.994206e-001
    outer loop
      vertex -3.346636e+000 -3.808533e+000  1.224227e+002
      vertex -3.108593e+000 -3.526823e+000  1.224205e+002
      vertex -3.323334e+000 -3.323334e+000  1.224105e+002
    endloop
  endfacet
  facet normal -2.642606e-002  2.642606e-002  9.993014e-001
    outer loop
      vertex -3.346636e+000 -3.808533e+000  1.224227e+002
      vertex -3.323334e+000 -3.323334e+000  1.224105e+002
      vertex -3.585031e+000 -3.585031e+000  1.224105e+002
    endloop
  endfacet
  facet normal -3.062195e-001  3.062201e-001  9.013650e-001
    outer loop
      vertex -2.275499e+000 -4.530674e+000  1.227405e+002
      vertex -2.034123e+000 -4.289298e+000  1.227405e+002
      vertex -2.291605e+000 -4.522548e+000  1.227322e+002
    endloop
  endfacet
  facet normal -3.062148e-001  3.062148e-001  9.013684e-001
    outer loop
      vertex -2.291605e+000 -4.522548e+000  1.227322e+002
      vertex -2.034123e+000 -4.289298e+000  1.227405e+002
      vertex -2.048380e+000 -4.279323e+000  1.227322e+002
    endloop
  endfacet
  facet normal -3.574418e-001 -1.817458e-002  9.337585e-001
    outer loop
      vertex -1.318643e+000 -3.467532e+000  1.227405e+002
      vertex -1.331784e+000 -3.541860e+000  1.227340e+002
      vertex -1.315408e+000 -3.531146e+000  1.227405e+002
    endloop
  endfacet
  facet normal -4.942948e-001  2.526575e-001  8.317673e-001
    outer loop
      vertex -1.356650e+000 -3.611831e+000  1.227405e+002
      vertex -1.315408e+000 -3.531146e+000  1.227405e+002
      vertex -1.331784e+000 -3.541860e+000  1.227340e+002
    endloop
  endfacet
  facet normal -3.700517e-001  2.087117e-001  9.052630e-001
    outer loop
      vertex -1.371423e+000 -3.602484e+000  1.227323e+002
      vertex -1.356650e+000 -3.611831e+000  1.227405e+002
      vertex -1.341903e+000 -3.535782e+000  1.227290e+002
    endloop
  endfacet
  facet normal -3.345594e-001  2.040611e-001  9.200159e-001
    outer loop
      vertex -1.341903e+000 -3.535782e+000  1.227290e+002
      vertex -1.356650e+000 -3.611831e+000  1.227405e+002
      vertex -1.331784e+000 -3.541860e+000  1.227340e+002
    endloop
  endfacet
  facet normal -4.446924e-001  5.701442e-004  8.956832e-001
    outer loop
      vertex -1.341903e+000 -3.535782e+000  1.227290e+002
      vertex -1.331784e+000 -3.541860e+000  1.227340e+002
      vertex -1.318643e+000 -3.467532e+000  1.227405e+002
    endloop
  endfacet
  facet normal -5.207401e-001 -6.109984e-001  5.962473e-001
    outer loop
      vertex -1.643921e+000 -3.101457e+000  1.227405e+002
      vertex -1.608404e+000 -3.196195e+000  1.226744e+002
      vertex -1.449332e+000 -3.267300e+000  1.227405e+002
    endloop
  endfacet
  facet normal -1.871187e-001 -8.034927e-002  9.790457e-001
    outer loop
      vertex -2.206126e+000 -2.942398e+000  1.224675e+002
      vertex -2.495823e+000 -2.867082e+000  1.224184e+002
      vertex -2.268788e+000 -3.055746e+000  1.224463e+002
    endloop
  endfacet
  facet normal -2.994251e-001  1.790386e-001  9.371712e-001
    outer loop
      vertex -1.371423e+000 -3.602484e+000  1.227323e+002
      vertex -1.341903e+000 -3.535782e+000  1.227290e+002
      vertex -1.704236e+000 -3.431012e+000  1.225932e+002
    endloop
  endfacet
  facet normal -3.386101e-001  4.687601e-002  9.397584e-001
    outer loop
      vertex -1.704236e+000 -3.431012e+000  1.225932e+002
      vertex -1.341903e+000 -3.535782e+000  1.227290e+002
      vertex -1.645214e+000 -3.309347e+000  1.226084e+002
    endloop
  endfacet
  facet normal -3.849532e-001 -2.432998e-002  9.226153e-001
    outer loop
      vertex -1.318643e+000 -3.467532e+000  1.227405e+002
      vertex -1.645214e+000 -3.309347e+000  1.226084e+002
      vertex -1.341903e+000 -3.535782e+000  1.227290e+002
    endloop
  endfacet
  facet normal -5.039166e-001 -4.328803e-001  7.474508e-001
    outer loop
      vertex -1.374644e+000 -3.354245e+000  1.227405e+002
      vertex -1.449332e+000 -3.267300e+000  1.227405e+002
      vertex -1.608404e+000 -3.196195e+000  1.226744e+002
    endloop
  endfacet
  facet normal -1.891517e-001 -8.890776e-002  9.779146e-001
    outer loop
      vertex -2.495823e+000 -2.867082e+000  1.224184e+002
      vertex -2.206126e+000 -2.942398e+000  1.224675e+002
      vertex -2.413269e+000 -2.770991e+000  1.224431e+002
    endloop
  endfacet
  facet normal -2.886101e-001 -1.565439e-003  9.574454e-001
    outer loop
      vertex -2.031583e+000 -3.228062e+000  1.224948e+002
      vertex -1.704236e+000 -3.431012e+000  1.225932e+002
      vertex -1.963724e+000 -3.116602e+000  1.225155e+002
    endloop
  endfacet
  facet normal -2.731061e-001  1.233244e-002  9.619049e-001
    outer loop
      vertex -1.963724e+000 -3.116602e+000  1.225155e+002
      vertex -1.704236e+000 -3.431012e+000  1.225932e+002
      vertex -1.645214e+000 -3.309347e+000  1.226084e+002
    endloop
  endfacet
  facet normal -4.488541e-001 -3.442554e-001  8.246322e-001
    outer loop
      vertex -1.963724e+000 -3.116602e+000  1.225155e+002
      vertex -1.645214e+000 -3.309347e+000  1.226084e+002
      vertex -1.914302e+000 -3.015446e+000  1.225846e+002
    endloop
  endfacet
  facet normal -4.439946e-001 -3.394328e-001  8.292491e-001
    outer loop
      vertex -1.914302e+000 -3.015446e+000  1.225846e+002
      vertex -1.645214e+000 -3.309347e+000  1.226084e+002
      vertex -1.608404e+000 -3.196195e+000  1.226744e+002
    endloop
  endfacet
  facet normal -5.372918e-001 -6.316598e-001  5.588591e-001
    outer loop
      vertex -1.914302e+000 -3.015446e+000  1.225846e+002
      vertex -1.608404e+000 -3.196195e+000  1.226744e+002
      vertex -1.891239e+000 -2.940805e+000  1.226911e+002
    endloop
  endfacet
  facet normal -5.167354e-001 -6.115367e-001  5.991722e-001
    outer loop
      vertex -1.891239e+000 -2.940805e+000  1.226911e+002
      vertex -1.608404e+000 -3.196195e+000  1.226744e+002
      vertex -1.643921e+000 -3.101457e+000  1.227405e+002
    endloop
  endfacet
  facet normal -5.604519e-001 -7.665045e-001  3.136311e-001
    outer loop
      vertex -1.891239e+000 -2.940805e+000  1.226911e+002
      vertex -1.643921e+000 -3.101457e+000  1.227405e+002
      vertex -1.886687e+000 -2.923952e+000  1.227405e+002
    endloop
  endfacet
  facet normal -2.258926e-001 -3.648987e-002  9.734685e-001
    outer loop
      vertex -2.268788e+000 -3.055746e+000  1.224463e+002
      vertex -2.031583e+000 -3.228062e+000  1.224948e+002
      vertex -1.989560e+000 -3.099254e+000  1.225094e+002
    endloop
  endfacet
  facet normal -2.466997e-001 -2.915658e-002  9.686533e-001
    outer loop
      vertex -1.989560e+000 -3.099254e+000  1.225094e+002
      vertex -2.031583e+000 -3.228062e+000  1.224948e+002
      vertex -1.963724e+000 -3.116602e+000  1.225155e+002
    endloop
  endfacet
  facet normal -4.328422e-001 -3.553030e-001  8.284970e-001
    outer loop
      vertex -1.989560e+000 -3.099254e+000  1.225094e+002
      vertex -1.963724e+000 -3.116602e+000  1.225155e+002
      vertex -1.939105e+000 -2.999077e+000  1.225787e+002
    endloop
  endfacet
  facet normal -4.310735e-001 -3.560071e-001  8.291168e-001
    outer loop
      vertex -1.939105e+000 -2.999077e+000  1.225787e+002
      vertex -1.963724e+000 -3.116602e+000  1.225155e+002
      vertex -1.914302e+000 -3.015446e+000  1.225846e+002
    endloop
  endfacet
  facet normal -5.451658e-001 -6.263448e-001  5.572131e-001
    outer loop
      vertex -1.939105e+000 -2.999077e+000  1.225787e+002
      vertex -1.914302e+000 -3.015446e+000  1.225846e+002
      vertex -1.914889e+000 -2.925329e+000  1.226853e+002
    endloop
  endfacet
  facet normal -5.463470e-001 -6.257749e-001  5.566963e-001
    outer loop
      vertex -1.914889e+000 -2.925329e+000  1.226853e+002
      vertex -1.914302e+000 -3.015446e+000  1.225846e+002
      vertex -1.891239e+000 -2.940805e+000  1.226911e+002
    endloop
  endfacet
  facet normal -5.727463e-001 -7.580814e-001  3.118879e-001
    outer loop
      vertex -1.914889e+000 -2.925329e+000  1.226853e+002
      vertex -1.891239e+000 -2.940805e+000  1.226911e+002
      vertex -1.886687e+000 -2.923952e+000  1.227405e+002
    endloop
  endfacet
  facet normal -5.763978e-001 -7.545714e-001  3.136679e-001
    outer loop
      vertex -1.886687e+000 -2.923952e+000  1.227405e+002
      vertex -2.188714e+000 -2.693241e+000  1.227405e+002
      vertex -1.914889e+000 -2.925329e+000  1.226853e+002
    endloop
  endfacet
  facet normal -5.936655e-001 -7.619303e-001  2.588890e-001
    outer loop
      vertex -1.914889e+000 -2.925329e+000  1.226853e+002
      vertex -2.188714e+000 -2.693241e+000  1.227405e+002
      vertex -2.113207e+000 -2.784503e+000  1.226450e+002
    endloop
  endfacet
  facet normal -5.535986e-001 -6.206936e-001  5.552189e-001
    outer loop
      vertex -1.914889e+000 -2.925329e+000  1.226853e+002
      vertex -2.113207e+000 -2.784503e+000  1.226450e+002
      vertex -1.939105e+000 -2.999077e+000  1.225787e+002
    endloop
  endfacet
  facet normal -5.520449e-001 -6.201106e-001  5.574130e-001
    outer loop
      vertex -1.939105e+000 -2.999077e+000  1.225787e+002
      vertex -2.113207e+000 -2.784503e+000  1.226450e+002
      vertex -2.146925e+000 -2.850560e+000  1.225381e+002
    endloop
  endfacet
  facet normal -4.215832e-001 -3.627540e-001  8.310698e-001
    outer loop
      vertex -1.939105e+000 -2.999077e+000  1.225787e+002
      vertex -2.146925e+000 -2.850560e+000  1.225381e+002
      vertex -1.989560e+000 -3.099254e+000  1.225094e+002
    endloop
  endfacet
  facet normal -4.241025e-001 -3.641304e-001  8.291840e-001
    outer loop
      vertex -1.989560e+000 -3.099254e+000  1.225094e+002
      vertex -2.146925e+000 -2.850560e+000  1.225381e+002
      vertex -2.206126e+000 -2.942398e+000  1.224675e+002
    endloop
  endfacet
  facet normal -2.285918e-001 -5.608175e-002  9.719057e-001
    outer loop
      vertex -1.989560e+000 -3.099254e+000  1.225094e+002
      vertex -2.206126e+000 -2.942398e+000  1.224675e+002
      vertex -2.268788e+000 -3.055746e+000  1.224463e+002
    endloop
  endfacet
  facet normal -1.546692e-001 -1.211929e-001  9.805048e-001
    outer loop
      vertex -2.686938e+000 -2.686938e+000  1.224105e+002
      vertex -2.495823e+000 -2.867082e+000  1.224184e+002
      vertex -2.597641e+000 -2.597641e+000  1.224356e+002
    endloop
  endfacet
  facet normal -1.531062e-001 -1.206225e-001  9.808204e-001
    outer loop
      vertex -2.597641e+000 -2.597641e+000  1.224356e+002
      vertex -2.495823e+000 -2.867082e+000  1.224184e+002
      vertex -2.413269e+000 -2.770991e+000  1.224431e+002
    endloop
  endfacet
  facet normal -3.980701e-001 -3.875894e-001  8.314533e-001
    outer loop
      vertex -2.597641e+000 -2.597641e+000  1.224356e+002
      vertex -2.413269e+000 -2.770991e+000  1.224431e+002
      vertex -2.521938e+000 -2.521938e+000  1.225071e+002
    endloop
  endfacet
  facet normal -3.976719e-001 -3.874780e-001  8.316959e-001
    outer loop
      vertex -2.521938e+000 -2.521938e+000  1.225071e+002
      vertex -2.413269e+000 -2.770991e+000  1.224431e+002
      vertex -2.345489e+000 -2.687456e+000  1.225144e+002
    endloop
  endfacet
  facet normal -5.809082e-001 -5.949218e-001  5.555300e-001
    outer loop
      vertex -2.521938e+000 -2.521938e+000  1.225071e+002
      vertex -2.345489e+000 -2.687456e+000  1.225144e+002
      vertex -2.471355e+000 -2.471355e+000  1.226142e+002
    endloop
  endfacet
  facet normal -5.812531e-001 -5.949447e-001  5.551447e-001
    outer loop
      vertex -2.471355e+000 -2.471355e+000  1.226142e+002
      vertex -2.345489e+000 -2.687456e+000  1.225144e+002
      vertex -2.302850e+000 -2.629255e+000  1.226214e+002
    endloop
  endfacet
  facet normal -6.750711e-001 -7.115072e-001  1.950295e-001
    outer loop
      vertex -2.471355e+000 -2.471355e+000  1.226142e+002
      vertex -2.302850e+000 -2.629255e+000  1.226214e+002
      vertex -2.453593e+000 -2.453593e+000  1.227405e+002
    endloop
  endfacet
  facet normal -6.516926e-001 -7.203055e-001  2.376060e-001
    outer loop
      vertex -2.453593e+000 -2.453593e+000  1.227405e+002
      vertex -2.302850e+000 -2.629255e+000  1.226214e+002
      vertex -2.188714e+000 -2.693241e+000  1.227405e+002
    endloop
  endfacet
  facet normal -4.838857e-001 -3.182623e-001  8.152078e-001
    outer loop
      vertex -1.645214e+000 -3.309347e+000  1.226084e+002
      vertex -1.318643e+000 -3.467532e+000  1.227405e+002
      vertex -1.608404e+000 -3.196195e+000  1.226744e+002
    endloop
  endfacet
  facet normal -3.329956e-001 -1.281605e-001  9.341781e-001
    outer loop
      vertex -1.608404e+000 -3.196195e+000  1.226744e+002
      vertex -1.318643e+000 -3.467532e+000  1.227405e+002
      vertex -1.341960e+000 -3.406946e+000  1.227405e+002
    endloop
  endfacet
  facet normal -4.223291e-001 -2.619152e-001  8.677779e-001
    outer loop
      vertex -1.608404e+000 -3.196195e+000  1.226744e+002
      vertex -1.341960e+000 -3.406946e+000  1.227405e+002
      vertex -1.374644e+000 -3.354245e+000  1.227405e+002
    endloop
  endfacet
  facet normal -4.099024e-001 -3.767082e-001  8.307051e-001
    outer loop
      vertex -2.413269e+000 -2.770991e+000  1.224431e+002
      vertex -2.206126e+000 -2.942398e+000  1.224675e+002
      vertex -2.345489e+000 -2.687456e+000  1.225144e+002
    endloop
  endfacet
  facet normal -4.084852e-001 -3.761114e-001  8.316730e-001
    outer loop
      vertex -2.345489e+000 -2.687456e+000  1.225144e+002
      vertex -2.206126e+000 -2.942398e+000  1.224675e+002
      vertex -2.146925e+000 -2.850560e+000  1.225381e+002
    endloop
  endfacet
  facet normal -5.661793e-001 -6.082060e-001  5.563511e-001
    outer loop
      vertex -2.345489e+000 -2.687456e+000  1.225144e+002
      vertex -2.146925e+000 -2.850560e+000  1.225381e+002
      vertex -2.302850e+000 -2.629255e+000  1.226214e+002
    endloop
  endfacet
  facet normal -5.672442e-001 -6.084481e-001  5.549999e-001
    outer loop
      vertex -2.302850e+000 -2.629255e+000  1.226214e+002
      vertex -2.146925e+000 -2.850560e+000  1.225381e+002
      vertex -2.113207e+000 -2.784503e+000  1.226450e+002
    endloop
  endfacet
  facet normal -6.349226e-001 -7.437947e-001  2.089088e-001
    outer loop
      vertex -2.302850e+000 -2.629255e+000  1.226214e+002
      vertex -2.113207e+000 -2.784503e+000  1.226450e+002
      vertex -2.188714e+000 -2.693241e+000  1.227405e+002
    endloop
  endfacet
  facet normal -3.062053e-001  3.062077e-001  9.013741e-001
    outer loop
      vertex -1.371423e+000 -3.602484e+000  1.227323e+002
      vertex -2.048380e+000 -4.279323e+000  1.227322e+002
      vertex -1.356650e+000 -3.611831e+000  1.227405e+002
    endloop
  endfacet
  facet normal -3.062136e-001  3.062164e-001  9.013683e-001
    outer loop
      vertex -1.356650e+000 -3.611831e+000  1.227405e+002
      vertex -2.048380e+000 -4.279323e+000  1.227322e+002
      vertex -2.034123e+000 -4.289298e+000  1.227405e+002
    endloop
  endfacet
  facet normal -7.618904e-001 -5.549632e-001  3.339744e-001
    outer loop
      vertex -2.903143e+000 -1.915309e+000  1.227405e+002
      vertex -3.083993e+000 -1.667026e+000  1.227405e+002
      vertex -3.013401e+000 -1.774486e+000  1.227229e+002
    endloop
  endfacet
  facet normal -3.290619e-001 -4.937021e-001  8.049699e-001
    outer loop
      vertex -3.394816e+000 -1.348536e+000  1.227405e+002
      vertex -3.309739e+000 -1.482429e+000  1.226931e+002
      vertex -3.341509e+000 -1.384066e+000  1.227405e+002
    endloop
  endfacet
  facet normal -4.511628e-001 -5.011292e-001  7.384590e-001
    outer loop
      vertex -3.309739e+000 -1.482429e+000  1.226931e+002
      vertex -3.253028e+000 -1.463724e+000  1.227405e+002
      vertex -3.341509e+000 -1.384066e+000  1.227405e+002
    endloop
  endfacet
  facet normal -3.440979e-001 -4.459167e-001  8.262898e-001
    outer loop
      vertex -3.198370e+000 -1.836116e+000  1.225486e+002
      vertex -3.092397e+000 -1.791772e+000  1.226167e+002
      vertex -3.309739e+000 -1.482429e+000  1.226931e+002
    endloop
  endfacet
  facet normal -7.143120e-001 -6.721090e-001  1.950073e-001
    outer loop
      vertex -2.471355e+000 -2.471355e+000  1.226142e+002
      vertex -2.453593e+000 -2.453593e+000  1.227405e+002
      vertex -2.653278e+000 -2.275198e+000  1.226239e+002
    endloop
  endfacet
  facet normal -7.167193e-001 -6.649786e-001  2.100404e-001
    outer loop
      vertex -2.653278e+000 -2.275198e+000  1.226239e+002
      vertex -2.453593e+000 -2.453593e+000  1.227405e+002
      vertex -2.633090e+000 -2.260130e+000  1.227405e+002
    endloop
  endfacet
  facet normal -7.499220e-001 -6.270130e-001  2.108828e-001
    outer loop
      vertex -2.653278e+000 -2.275198e+000  1.226239e+002
      vertex -2.633090e+000 -2.260130e+000  1.227405e+002
      vertex -2.819246e+000 -2.066879e+000  1.226531e+002
    endloop
  endfacet
  facet normal -7.503002e-001 -6.239884e-001  2.183759e-001
    outer loop
      vertex -2.819246e+000 -2.066879e+000  1.226531e+002
      vertex -2.633090e+000 -2.260130e+000  1.227405e+002
      vertex -2.725665e+000 -2.148815e+000  1.227405e+002
    endloop
  endfacet
  facet normal -7.635998e-001 -5.883357e-001  2.660384e-001
    outer loop
      vertex -2.819246e+000 -2.066879e+000  1.226531e+002
      vertex -2.725665e+000 -2.148815e+000  1.227405e+002
      vertex -2.930522e+000 -1.906998e+000  1.226872e+002
    endloop
  endfacet
  facet normal -7.593434e-001 -5.771446e-001  3.005021e-001
    outer loop
      vertex -2.930522e+000 -1.906998e+000  1.226872e+002
      vertex -2.725665e+000 -2.148815e+000  1.227405e+002
      vertex -2.903143e+000 -1.915309e+000  1.227405e+002
    endloop
  endfacet
  facet normal -7.675281e-001 -5.627389e-001  3.069618e-001
    outer loop
      vertex -2.930522e+000 -1.906998e+000  1.226872e+002
      vertex -2.903143e+000 -1.915309e+000  1.227405e+002
      vertex -3.013401e+000 -1.774486e+000  1.227229e+002
    endloop
  endfacet
  facet normal -2.272625e-003 -2.290930e-001  9.734019e-001
    outer loop
      vertex -3.313972e+000 -1.900257e+000  1.225299e+002
      vertex -3.086019e+000 -2.229377e+000  1.224530e+002
      vertex -3.105072e+000 -1.980940e+000  1.225114e+002
    endloop
  endfacet
  facet normal -4.846292e-002 -2.321798e-001  9.714648e-001
    outer loop
      vertex -3.105072e+000 -1.980940e+000  1.225114e+002
      vertex -3.086019e+000 -2.229377e+000  1.224530e+002
      vertex -2.980948e+000 -2.155542e+000  1.224759e+002
    endloop
  endfacet
  facet normal -3.602262e-001 -4.250949e-001  8.303803e-001
    outer loop
      vertex -3.105072e+000 -1.980940e+000  1.225114e+002
      vertex -2.980948e+000 -2.155542e+000  1.224759e+002
      vertex -3.004568e+000 -1.930830e+000  1.225807e+002
    endloop
  endfacet
  facet normal -3.630785e-001 -4.248690e-001  8.292530e-001
    outer loop
      vertex -3.004568e+000 -1.930830e+000  1.225807e+002
      vertex -2.980948e+000 -2.155542e+000  1.224759e+002
      vertex -2.887138e+000 -2.098400e+000  1.225462e+002
    endloop
  endfacet
  facet normal -6.227660e-001 -5.506582e-001  5.558221e-001
    outer loop
      vertex -3.004568e+000 -1.930830e+000  1.225807e+002
      vertex -2.887138e+000 -2.098400e+000  1.225462e+002
      vertex -2.930522e+000 -1.906998e+000  1.226872e+002
    endloop
  endfacet
  facet normal -6.209279e-001 -5.512923e-001  5.572481e-001
    outer loop
      vertex -2.930522e+000 -1.906998e+000  1.226872e+002
      vertex -2.887138e+000 -2.098400e+000  1.225462e+002
      vertex -2.819246e+000 -2.066879e+000  1.226531e+002
    endloop
  endfacet
  facet normal -4.986727e-001 -4.146218e-001  7.611926e-001
    outer loop
      vertex -3.253028e+000 -1.463724e+000  1.227405e+002
      vertex -3.309739e+000 -1.482429e+000  1.226931e+002
      vertex -3.083993e+000 -1.667026e+000  1.227405e+002
    endloop
  endfacet
  facet normal -5.787621e-001 -5.543997e-001  5.980597e-001
    outer loop
      vertex -3.083993e+000 -1.667026e+000  1.227405e+002
      vertex -3.309739e+000 -1.482429e+000  1.226931e+002
      vertex -3.092397e+000 -1.791772e+000  1.226167e+002
    endloop
  endfacet
  facet normal -6.452113e-001 -5.157684e-001  5.636358e-001
    outer loop
      vertex -3.083993e+000 -1.667026e+000  1.227405e+002
      vertex -3.092397e+000 -1.791772e+000  1.226167e+002
      vertex -3.013401e+000 -1.774486e+000  1.227229e+002
    endloop
  endfacet
  facet normal  1.496251e-001 -3.422875e-001  9.276053e-001
    outer loop
      vertex -3.610461e+000 -1.354293e+000  1.227406e+002
      vertex -3.509174e+000 -1.560236e+000  1.226483e+002
      vertex -3.515946e+000 -1.313329e+000  1.227405e+002
    endloop
  endfacet
  facet normal  1.092819e-001 -3.451026e-001  9.321811e-001
    outer loop
      vertex -3.515946e+000 -1.313329e+000  1.227405e+002
      vertex -3.509174e+000 -1.560236e+000  1.226483e+002
      vertex -3.408448e+000 -1.514037e+000  1.226536e+002
    endloop
  endfacet
  facet normal -5.699803e-002 -4.222540e-001  9.046838e-001
    outer loop
      vertex -3.515946e+000 -1.313329e+000  1.227405e+002
      vertex -3.408448e+000 -1.514037e+000  1.226536e+002
      vertex -3.458193e+000 -1.321125e+000  1.227405e+002
    endloop
  endfacet
  facet normal -2.064508e-001 -4.456513e-001  8.710757e-001
    outer loop
      vertex -3.458193e+000 -1.321125e+000  1.227405e+002
      vertex -3.408448e+000 -1.514037e+000  1.226536e+002
      vertex -3.309739e+000 -1.482429e+000  1.226931e+002
    endloop
  endfacet
  facet normal -1.862313e-001 -4.305804e-001  8.831299e-001
    outer loop
      vertex -3.458193e+000 -1.321125e+000  1.227405e+002
      vertex -3.309739e+000 -1.482429e+000  1.226931e+002
      vertex -3.394816e+000 -1.348536e+000  1.227405e+002
    endloop
  endfacet
  facet normal -1.171124e-001 -1.560256e-001  9.807858e-001
    outer loop
      vertex -2.894611e+000 -2.464541e+000  1.224211e+002
      vertex -2.686938e+000 -2.686938e+000  1.224105e+002
      vertex -2.797439e+000 -2.383050e+000  1.224456e+002
    endloop
  endfacet
  facet normal -1.191252e-001 -1.567167e-001  9.804331e-001
    outer loop
      vertex -2.797439e+000 -2.383050e+000  1.224456e+002
      vertex -2.686938e+000 -2.686938e+000  1.224105e+002
      vertex -2.597641e+000 -2.597641e+000  1.224356e+002
    endloop
  endfacet
  facet normal -3.863652e-001 -3.985906e-001  8.317737e-001
    outer loop
      vertex -2.797439e+000 -2.383050e+000  1.224456e+002
      vertex -2.597641e+000 -2.597641e+000  1.224356e+002
      vertex -2.712665e+000 -2.316539e+000  1.225169e+002
    endloop
  endfacet
  facet normal -3.869275e-001 -3.987263e-001  8.314472e-001
    outer loop
      vertex -2.712665e+000 -2.316539e+000  1.225169e+002
      vertex -2.597641e+000 -2.597641e+000  1.224356e+002
      vertex -2.521938e+000 -2.521938e+000  1.225071e+002
    endloop
  endfacet
  facet normal -5.962867e-001 -5.800174e-001  5.549973e-001
    outer loop
      vertex -2.712665e+000 -2.316539e+000  1.225169e+002
      vertex -2.521938e+000 -2.521938e+000  1.225071e+002
      vertex -2.653278e+000 -2.275198e+000  1.226239e+002
    endloop
  endfacet
  facet normal -5.958049e-001 -5.800096e-001  5.555227e-001
    outer loop
      vertex -2.653278e+000 -2.275198e+000  1.226239e+002
      vertex -2.521938e+000 -2.521938e+000  1.225071e+002
      vertex -2.471355e+000 -2.471355e+000  1.226142e+002
    endloop
  endfacet
  facet normal -7.612949e-002 -1.947989e-001  9.778843e-001
    outer loop
      vertex -3.086019e+000 -2.229377e+000  1.224530e+002
      vertex -2.894611e+000 -2.464541e+000  1.224211e+002
      vertex -2.980948e+000 -2.155542e+000  1.224759e+002
    endloop
  endfacet
  facet normal -8.232548e-002 -1.963847e-001  9.770647e-001
    outer loop
      vertex -2.980948e+000 -2.155542e+000  1.224759e+002
      vertex -2.894611e+000 -2.464541e+000  1.224211e+002
      vertex -2.797439e+000 -2.383050e+000  1.224456e+002
    endloop
  endfacet
  facet normal -3.729908e-001 -4.114850e-001  8.315997e-001
    outer loop
      vertex -2.980948e+000 -2.155542e+000  1.224759e+002
      vertex -2.797439e+000 -2.383050e+000  1.224456e+002
      vertex -2.887138e+000 -2.098400e+000  1.225462e+002
    endloop
  endfacet
  facet normal -3.750143e-001 -4.117537e-001  8.305559e-001
    outer loop
      vertex -2.887138e+000 -2.098400e+000  1.225462e+002
      vertex -2.797439e+000 -2.383050e+000  1.224456e+002
      vertex -2.712665e+000 -2.316539e+000  1.225169e+002
    endloop
  endfacet
  facet normal -6.115712e-001 -5.638643e-001  5.550115e-001
    outer loop
      vertex -2.887138e+000 -2.098400e+000  1.225462e+002
      vertex -2.712665e+000 -2.316539e+000  1.225169e+002
      vertex -2.819246e+000 -2.066879e+000  1.226531e+002
    endloop
  endfacet
  facet normal -6.100843e-001 -5.640296e-001  5.564781e-001
    outer loop
      vertex -2.819246e+000 -2.066879e+000  1.226531e+002
      vertex -2.712665e+000 -2.316539e+000  1.225169e+002
      vertex -2.653278e+000 -2.275198e+000  1.226239e+002
    endloop
  endfacet
  facet normal -6.278875e-001 -5.429363e-001  5.576536e-001
    outer loop
      vertex -2.930522e+000 -1.906998e+000  1.226872e+002
      vertex -3.013401e+000 -1.774486e+000  1.227229e+002
      vertex -3.004568e+000 -1.930830e+000  1.225807e+002
    endloop
  endfacet
  facet normal -6.298123e-001 -5.419456e-001  5.564455e-001
    outer loop
      vertex -3.004568e+000 -1.930830e+000  1.225807e+002
      vertex -3.013401e+000 -1.774486e+000  1.227229e+002
      vertex -3.092397e+000 -1.791772e+000  1.226167e+002
    endloop
  endfacet
  facet normal -3.523799e-001 -4.369640e-001  8.275814e-001
    outer loop
      vertex -3.004568e+000 -1.930830e+000  1.225807e+002
      vertex -3.092397e+000 -1.791772e+000  1.226167e+002
      vertex -3.105072e+000 -1.980940e+000  1.225114e+002
    endloop
  endfacet
  facet normal -3.489943e-001 -4.377560e-001  8.285968e-001
    outer loop
      vertex -3.105072e+000 -1.980940e+000  1.225114e+002
      vertex -3.092397e+000 -1.791772e+000  1.226167e+002
      vertex -3.198370e+000 -1.836116e+000  1.225486e+002
    endloop
  endfacet
  facet normal -1.374497e-002 -2.571613e-001  9.662707e-001
    outer loop
      vertex -3.105072e+000 -1.980940e+000  1.225114e+002
      vertex -3.198370e+000 -1.836116e+000  1.225486e+002
      vertex -3.313972e+000 -1.900257e+000  1.225299e+002
    endloop
  endfacet
  facet normal  8.092812e-002 -2.858805e-001  9.548419e-001
    outer loop
      vertex -3.509174e+000 -1.560236e+000  1.226483e+002
      vertex -3.313972e+000 -1.900257e+000  1.225299e+002
      vertex -3.408448e+000 -1.514037e+000  1.226536e+002
    endloop
  endfacet
  facet normal  1.320636e-002 -3.019329e-001  9.532377e-001
    outer loop
      vertex -3.408448e+000 -1.514037e+000  1.226536e+002
      vertex -3.313972e+000 -1.900257e+000  1.225299e+002
      vertex -3.198370e+000 -1.836116e+000  1.225486e+002
    endloop
  endfacet
  facet normal -2.154469e-001 -4.266818e-001  8.783651e-001
    outer loop
      vertex -3.408448e+000 -1.514037e+000  1.226536e+002
      vertex -3.198370e+000 -1.836116e+000  1.225486e+002
      vertex -3.309739e+000 -1.482429e+000  1.226931e+002
    endloop
  endfacet
  facet normal -2.121868e-002  2.121868e-002  9.995497e-001
    outer loop
      vertex -2.686938e+000 -2.686938e+000  1.224105e+002
      vertex -3.323334e+000 -3.323334e+000  1.224105e+002
      vertex -2.495823e+000 -2.867082e+000  1.224184e+002
    endloop
  endfacet
  facet normal -2.313997e-002  2.470547e-002  9.994269e-001
    outer loop
      vertex -2.495823e+000 -2.867082e+000  1.224184e+002
      vertex -3.323334e+000 -3.323334e+000  1.224105e+002
      vertex -3.108593e+000 -3.526823e+000  1.224205e+002
    endloop
  endfacet
  facet normal -6.756649e-002  6.595641e-002  9.955323e-001
    outer loop
      vertex -2.495823e+000 -2.867082e+000  1.224184e+002
      vertex -3.108593e+000 -3.526823e+000  1.224205e+002
      vertex -2.268788e+000 -3.055746e+000  1.224463e+002
    endloop
  endfacet
  facet normal -7.164600e-002  7.327274e-002  9.947351e-001
    outer loop
      vertex -2.268788e+000 -3.055746e+000  1.224463e+002
      vertex -3.108593e+000 -3.526823e+000  1.224205e+002
      vertex -2.884145e+000 -3.717826e+000  1.224507e+002
    endloop
  endfacet
  facet normal -1.177120e-001  1.160309e-001  9.862459e-001
    outer loop
      vertex -2.268788e+000 -3.055746e+000  1.224463e+002
      vertex -2.884145e+000 -3.717826e+000  1.224507e+002
      vertex -2.031583e+000 -3.228062e+000  1.224948e+002
    endloop
  endfacet
  facet normal -1.287079e-001  1.355205e-001  9.823790e-001
    outer loop
      vertex -2.031583e+000 -3.228062e+000  1.224948e+002
      vertex -2.884145e+000 -3.717826e+000  1.224507e+002
      vertex -2.573990e+000 -3.950873e+000  1.225235e+002
    endloop
  endfacet
  facet normal -1.821562e-001  1.750416e-001  9.675637e-001
    outer loop
      vertex -2.031583e+000 -3.228062e+000  1.224948e+002
      vertex -2.573990e+000 -3.950873e+000  1.225235e+002
      vertex -1.704236e+000 -3.431012e+000  1.225932e+002
    endloop
  endfacet
  facet normal -1.942202e-001  1.960839e-001  9.611605e-001
    outer loop
      vertex -1.704236e+000 -3.431012e+000  1.225932e+002
      vertex -2.573990e+000 -3.950873e+000  1.225235e+002
      vertex -2.337212e+000 -4.108160e+000  1.226034e+002
    endloop
  endfacet
  facet normal -2.579506e-001  2.552137e-001  9.318410e-001
    outer loop
      vertex -1.704236e+000 -3.431012e+000  1.225932e+002
      vertex -2.337212e+000 -4.108160e+000  1.226034e+002
      vertex -1.371423e+000 -3.602484e+000  1.227323e+002
    endloop
  endfacet
  facet normal -2.603636e-001  2.603564e-001  9.297447e-001
    outer loop
      vertex -1.371423e+000 -3.602484e+000  1.227323e+002
      vertex -2.337212e+000 -4.108160e+000  1.226034e+002
      vertex -2.048380e+000 -4.279323e+000  1.227322e+002
    endloop
  endfacet
  facet normal -7.071065e-001  7.071070e-001 -2.980262e-007
    outer loop
      vertex -5.109293e-001  2.260929e+000  1.197658e+002
      vertex  8.907071e-002  2.860929e+000  1.203315e+002
      vertex -4.109293e-001  2.360929e+000  1.196244e+002
    endloop
  endfacet
  facet normal -7.071068e-001  7.071068e-001 -1.165335e-007
    outer loop
      vertex -2.907376e+000 -1.355173e-001  1.163767e+002
      vertex -4.692234e+000 -1.920375e+000  1.163767e+002
      vertex -5.109293e-001  2.260929e+000  1.197658e+002
    endloop
  endfacet
  facet normal -7.071068e-001  7.071068e-001  0.000000e+000
    outer loop
      vertex -5.109293e-001  2.260929e+000  1.197658e+002
      vertex -4.692234e+000 -1.920375e+000  1.163767e+002
      vertex -4.692234e+000 -1.920375e+000  1.227405e+002
    endloop
  endfacet
  facet normal -7.071066e-001  7.071069e-001  3.397069e-007
    outer loop
      vertex -5.109293e-001  2.260929e+000  1.197658e+002
      vertex -4.692234e+000 -1.920375e+000  1.227405e+002
      vertex  8.907071e-002  2.860929e+000  1.203315e+002
    endloop
  endfacet
  facet normal -7.071068e-001  7.071068e-001  7.746215e-008
    outer loop
      vertex  8.907071e-002  2.860929e+000  1.203315e+002
      vertex -4.692234e+000 -1.920375e+000  1.227405e+002
      vertex -1.614359e+000  1.157499e+000  1.227405e+002
    endloop
  endfacet
  facet normal  0.000000e+000  0.000000e+000 -1.000000e+000
    outer loop
      vertex -1.355173e-001 -2.907376e+000  1.163767e+002
      vertex -1.920375e+000 -4.692234e+000  1.163767e+002
      vertex -2.375785e+000 -4.478900e+000  1.163767e+002
    endloop
  endfacet
  facet normal  0.000000e+000  0.000000e+000 -1.000000e+000
    outer loop
      vertex -1.355173e-001 -2.907376e+000  1.163767e+002
      vertex -2.375785e+000 -4.478900e+000  1.163767e+002
      vertex -2.807819e+000 -4.221498e+000  1.163767e+002
    endloop
  endfacet
  facet normal  0.000000e+000  0.000000e+000 -1.000000e+000
    outer loop
      vertex -1.355173e-001 -2.907376e+000  1.163767e+002
      vertex -2.807819e+000 -4.221498e+000  1.163767e+002
      vertex -3.212228e+000 -3.922562e+000  1.163767e+002
    endloop
  endfacet
  facet normal  0.000000e+000  0.000000e+000 -1.000000e+000
    outer loop
      vertex -1.355173e-001 -2.907376e+000  1.163767e+002
      vertex -3.212228e+000 -3.922562e+000  1.163767e+002
      vertex -3.585031e+000 -3.585031e+000  1.163767e+002
    endloop
  endfacet
  facet normal  0.000000e+000  0.000000e+000 -1.000000e+000
    outer loop
      vertex -1.355173e-001 -2.907376e+000  1.163767e+002
      vertex -3.585031e+000 -3.585031e+000  1.163767e+002
      vertex -3.922562e+000 -3.212228e+000  1.163767e+002
    endloop
  endfacet
  facet normal  0.000000e+000  0.000000e+000 -1.000000e+000
    outer loop
      vertex -1.355173e-001 -2.907376e+000  1.163767e+002
      vertex -3.922562e+000 -3.212228e+000  1.163767e+002
      vertex -4.221498e+000 -2.807819e+000  1.163767e+002
    endloop
  endfacet
  facet normal  0.000000e+000  0.000000e+000 -9.999999e-001
    outer loop
      vertex -1.355173e-001 -2.907376e+000  1.163767e+002
      vertex -4.221498e+000 -2.807819e+000  1.163767e+002
      vertex -4.478900e+000 -2.375785e+000  1.163767e+002
    endloop
  endfacet
  facet normal  0.000000e+000  0.000000e+000 -1.000000e+000
    outer loop
      vertex -1.355173e-001 -2.907376e+000  1.163767e+002
      vertex -4.478900e+000 -2.375785e+000  1.163767e+002
      vertex -4.692234e+000 -1.920375e+000  1.163767e+002
    endloop
  endfacet
  facet normal  0.000000e+000  0.000000e+000 -1.000000e+000
    outer loop
      vertex -1.355173e-001 -2.907376e+000  1.163767e+002
      vertex -4.692234e+000 -1.920375e+000  1.163767e+002
      vertex -2.907376e+000 -1.355173e-001  1.163767e+002
    endloop
  endfacet
  facet normal  7.071070e-001 -7.071065e-001 -2.980262e-007
    outer loop
      vertex  2.360929e+000 -4.109293e-001  1.196244e+002
      vertex  2.860929e+000  8.907071e-002  1.203315e+002
      vertex  2.260929e+000 -5.109293e-001  1.197658e+002
    endloop
  endfacet
  facet normal  7.071068e-001 -7.071068e-001 -1.165335e-007
    outer loop
      vertex -1.355173e-001 -2.907376e+000  1.163767e+002
      vertex  2.260929e+000 -5.109293e-001  1.197658e+002
      vertex -1.920375e+000 -4.692234e+000  1.163767e+002
    endloop
  endfacet
  facet normal  7.071068e-001 -7.071068e-001  0.000000e+000
    outer loop
      vertex -1.920375e+000 -4.692234e+000  1.163767e+002
      vertex  2.260929e+000 -5.109293e-001  1.197658e+002
      vertex -1.920375e+000 -4.692234e+000  1.227405e+002
    endloop
  endfacet
  facet normal  7.071068e-001 -7.071067e-001  4.836681e-008
    outer loop
      vertex  2.260929e+000 -5.109293e-001  1.197658e+002
      vertex  2.860929e+000  8.907071e-002  1.203315e+002
      vertex -1.920375e+000 -4.692234e+000  1.227405e+002
    endloop
  endfacet
  facet normal  7.071068e-001 -7.071068e-001 -1.399639e-007
    outer loop
      vertex -1.920375e+000 -4.692234e+000  1.227405e+002
      vertex  2.860929e+000  8.907071e-002  1.203315e+002
      vertex  1.157499e+000 -1.614359e+000  1.227405e+002
    endloop
  endfacet
  facet normal  4.999998e-001  4.999997e-001 -7.071072e-001
    outer loop
      vertex  2.260929e+000 -5.109293e-001  1.197658e+002
      vertex -1.355173e-001 -2.907376e+000  1.163767e+002
      vertex -5.109293e-001  2.260929e+000  1.197658e+002
    endloop
  endfacet
  facet normal  4.999997e-001  4.999997e-001 -7.071071e-001
    outer loop
      vertex -5.109293e-001  2.260929e+000  1.197658e+002
      vertex -1.355173e-001 -2.907376e+000  1.163767e+002
      vertex -2.907376e+000 -1.355173e-001  1.163767e+002
    endloop
  endfacet
  facet normal  4.999998e-001  4.999998e-001  7.071071e-001
    outer loop
      vertex  2.860929e+000  8.907071e-002  1.203315e+002
      vertex  8.907071e-002  2.860929e+000  1.203315e+002
      vertex  1.157499e+000 -1.614359e+000  1.227405e+002
    endloop
  endfacet
  facet normal  4.999998e-001  4.999998e-001  7.071070e-001
    outer loop
      vertex  1.157499e+000 -1.614359e+000  1.227405e+002
      vertex  8.907071e-002  2.860929e+000  1.203315e+002
      vertex -1.614359e+000  1.157499e+000  1.227405e+002
    endloop
  endfacet
  facet normal  5.000003e-001  5.000003e-001 -7.071064e-001
    outer loop
      vertex  2.360929e+000 -4.109293e-001  1.196244e+002
      vertex -4.109293e-001  2.360929e+000  1.196244e+002
      vertex  2.860929e+000  8.907071e-002  1.203315e+002
    endloop
  endfacet
  facet normal  5.000003e-001  5.000003e-001 -7.071064e-001
    outer loop
      vertex  2.860929e+000  8.907071e-002  1.203315e+002
      vertex -4.109293e-001  2.360929e+000  1.196244e+002
      vertex  8.907071e-002  2.860929e+000  1.203315e+002
    endloop
  endfacet
  facet normal -4.999948e-001 -4.999948e-001 -7.071142e-001
    outer loop
      vertex  2.260929e+000 -5.109293e-001  1.197658e+002
      vertex -5.109293e-001  2.260929e+000  1.197658e+002
      vertex  2.360929e+000 -4.109293e-001  1.196244e+002
    endloop
  endfacet
  facet normal -4.999948e-001 -4.999948e-001 -7.071141e-001
    outer loop
      vertex  2.360929e+000 -4.109293e-001  1.196244e+002
      vertex -5.109293e-001  2.260929e+000  1.197658e+002
      vertex -4.109293e-001  2.360929e+000  1.196244e+002
    endloop
  endfacet
endsolid CATIA STL
