solid CATIA STL
  facet normal  7.071068e-001 -7.071067e-001  0.000000e+000
    outer loop
      vertex  4.621467e+000  1.934461e+000  1.232674e+002
      vertex  4.621467e+000  1.934461e+000  1.242405e+002
      vertex  2.828427e+000  1.414214e-001  1.242405e+002
    endloop
  endfacet
  facet normal  7.071068e-001 -7.071068e-001 -1.340677e-006
    outer loop
      vertex  2.828427e-001 -2.404163e+000  1.209405e+002
      vertex -7.778175e-001 -3.464823e+000  1.209405e+002
      vertex  2.764787e+000  7.778174e-002  1.207305e+002
    endloop
  endfacet
  facet normal  7.071068e-001 -7.071068e-001 -5.937627e-008
    outer loop
      vertex  2.828427e-001 -2.404163e+000  1.209405e+002
      vertex  2.764787e+000  7.778174e-002  1.207305e+002
      vertex  1.697056e+000 -9.899495e-001  1.222405e+002
    endloop
  endfacet
  facet normal  7.071068e-001 -7.071067e-001  0.000000e+000
    outer loop
      vertex  2.828427e-001 -2.404163e+000  1.209405e+002
      vertex  1.697056e+000 -9.899495e-001  1.222405e+002
      vertex  2.828427e-001 -2.404163e+000  1.242405e+002
    endloop
  endfacet
  facet normal  7.071068e-001 -7.071068e-001  0.000000e+000
    outer loop
      vertex -7.778175e-001 -3.464823e+000  1.132405e+002
      vertex -1.863751e+000 -4.550756e+000  1.132405e+002
      vertex -1.863751e+000 -4.550756e+000  1.097405e+002
    endloop
  endfacet
  facet normal  7.071068e-001 -7.071068e-001  0.000000e+000
    outer loop
      vertex -7.778175e-001 -3.464823e+000  1.132405e+002
      vertex -1.863751e+000 -4.550756e+000  1.097405e+002
      vertex  9.899495e-001 -1.697056e+000  1.111500e+002
    endloop
  endfacet
  facet normal  7.071068e-001 -7.071068e-001  0.000000e+000
    outer loop
      vertex -7.778175e-001 -3.464823e+000  1.132405e+002
      vertex  9.899495e-001 -1.697056e+000  1.111500e+002
      vertex  9.899495e-001 -1.697056e+000  1.167205e+002
    endloop
  endfacet
  facet normal  7.071068e-001 -7.071068e-001  0.000000e+000
    outer loop
      vertex -7.778175e-001 -3.464823e+000  1.132405e+002
      vertex  9.899495e-001 -1.697056e+000  1.167205e+002
      vertex -7.778175e-001 -3.464823e+000  1.209405e+002
    endloop
  endfacet
  facet normal  7.071068e-001 -7.071068e-001  0.000000e+000
    outer loop
      vertex  2.764787e+000  7.778174e-002  1.086500e+002
      vertex  2.764787e+000  7.778174e-002  1.111500e+002
      vertex -1.414214e-001 -2.828427e+000  1.086500e+002
    endloop
  endfacet
  facet normal  7.071068e-001 -7.071068e-001  0.000000e+000
    outer loop
      vertex -1.414214e-001 -2.828427e+000  1.086500e+002
      vertex  2.764787e+000  7.778174e-002  1.111500e+002
      vertex -1.414214e-001 -2.828427e+000  1.097405e+002
    endloop
  endfacet
  facet normal  7.071068e-001 -7.071068e-001 -3.812123e-008
    outer loop
      vertex  2.764787e+000  7.778174e-002  1.111500e+002
      vertex  9.899495e-001 -1.697056e+000  1.111500e+002
      vertex -1.414214e-001 -2.828427e+000  1.097405e+002
    endloop
  endfacet
  facet normal  7.071068e-001 -7.071068e-001  0.000000e+000
    outer loop
      vertex -1.414214e-001 -2.828427e+000  1.097405e+002
      vertex  9.899495e-001 -1.697056e+000  1.111500e+002
      vertex -1.863751e+000 -4.550756e+000  1.097405e+002
    endloop
  endfacet
  facet normal  7.071068e-001 -7.071068e-001  1.022128e-008
    outer loop
      vertex -7.778175e-001 -3.464823e+000  1.209405e+002
      vertex  9.899495e-001 -1.697056e+000  1.167205e+002
      vertex  2.764787e+000  7.778174e-002  1.207305e+002
    endloop
  endfacet
  facet normal  7.071068e-001 -7.071067e-001  0.000000e+000
    outer loop
      vertex  2.764787e+000  7.778174e-002  1.207305e+002
      vertex  9.899495e-001 -1.697056e+000  1.167205e+002
      vertex  2.764787e+000  7.778174e-002  1.192305e+002
    endloop
  endfacet
  facet normal  7.071068e-001 -7.071068e-001  0.000000e+000
    outer loop
      vertex  2.828427e+000  1.414214e-001  1.242405e+002
      vertex  2.828427e-001 -2.404163e+000  1.242405e+002
      vertex  4.621467e+000  1.934461e+000  1.232674e+002
    endloop
  endfacet
  facet normal  7.071068e-001 -7.071068e-001  0.000000e+000
    outer loop
      vertex  4.621467e+000  1.934461e+000  1.232674e+002
      vertex  2.828427e-001 -2.404163e+000  1.242405e+002
      vertex  1.697056e+000 -9.899495e-001  1.222405e+002
    endloop
  endfacet
  facet normal  7.071068e-001 -7.071068e-001  0.000000e+000
    outer loop
      vertex  4.621467e+000  1.934461e+000  1.232674e+002
      vertex  1.697056e+000 -9.899495e-001  1.222405e+002
      vertex  4.621467e+000  1.934461e+000  1.222405e+002
    endloop
  endfacet
  facet normal -7.071067e-001  7.071068e-001  0.000000e+000
    outer loop
      vertex  1.414214e-001  2.828427e+000  1.242405e+002
      vertex  1.934461e+000  4.621467e+000  1.242405e+002
      vertex  1.934461e+000  4.621467e+000  1.232674e+002
    endloop
  endfacet
  facet normal -7.071067e-001  7.071068e-001  0.000000e+000
    outer loop
      vertex -2.404163e+000  2.828427e-001  1.209405e+002
      vertex -2.404163e+000  2.828427e-001  1.242405e+002
      vertex -9.899495e-001  1.697056e+000  1.222405e+002
    endloop
  endfacet
  facet normal -7.071068e-001  7.071068e-001 -8.288996e-009
    outer loop
      vertex -2.404163e+000  2.828427e-001  1.209405e+002
      vertex -9.899495e-001  1.697056e+000  1.222405e+002
      vertex  7.778174e-002  2.764787e+000  1.207305e+002
    endloop
  endfacet
  facet normal -7.071068e-001  7.071068e-001  0.000000e+000
    outer loop
      vertex -2.404163e+000  2.828427e-001  1.209405e+002
      vertex  7.778174e-002  2.764787e+000  1.207305e+002
      vertex -3.464823e+000 -7.778175e-001  1.209405e+002
    endloop
  endfacet
  facet normal -7.071068e-001  7.071068e-001  0.000000e+000
    outer loop
      vertex -3.464823e+000 -7.778175e-001  1.132405e+002
      vertex -3.464823e+000 -7.778175e-001  1.209405e+002
      vertex -1.697056e+000  9.899495e-001  1.167205e+002
    endloop
  endfacet
  facet normal -7.071068e-001  7.071068e-001  0.000000e+000
    outer loop
      vertex -3.464823e+000 -7.778175e-001  1.132405e+002
      vertex -1.697056e+000  9.899495e-001  1.167205e+002
      vertex -1.697056e+000  9.899495e-001  1.111500e+002
    endloop
  endfacet
  facet normal -7.071068e-001  7.071068e-001  0.000000e+000
    outer loop
      vertex -3.464823e+000 -7.778175e-001  1.132405e+002
      vertex -1.697056e+000  9.899495e-001  1.111500e+002
      vertex -4.550756e+000 -1.863751e+000  1.097405e+002
    endloop
  endfacet
  facet normal -7.071068e-001  7.071068e-001  0.000000e+000
    outer loop
      vertex -3.464823e+000 -7.778175e-001  1.132405e+002
      vertex -4.550756e+000 -1.863751e+000  1.097405e+002
      vertex -4.550756e+000 -1.863751e+000  1.132405e+002
    endloop
  endfacet
  facet normal -7.071068e-001  7.071068e-001  0.000000e+000
    outer loop
      vertex  7.778174e-002  2.764787e+000  1.086500e+002
      vertex -2.828427e+000 -1.414214e-001  1.086500e+002
      vertex  7.778174e-002  2.764787e+000  1.111500e+002
    endloop
  endfacet
  facet normal -7.071068e-001  7.071068e-001  0.000000e+000
    outer loop
      vertex  7.778174e-002  2.764787e+000  1.111500e+002
      vertex -2.828427e+000 -1.414214e-001  1.086500e+002
      vertex -2.828427e+000 -1.414214e-001  1.097405e+002
    endloop
  endfacet
  facet normal -7.071068e-001  7.071068e-001  0.000000e+000
    outer loop
      vertex  7.778174e-002  2.764787e+000  1.111500e+002
      vertex -2.828427e+000 -1.414214e-001  1.097405e+002
      vertex -1.697056e+000  9.899495e-001  1.111500e+002
    endloop
  endfacet
  facet normal -7.071068e-001  7.071068e-001  0.000000e+000
    outer loop
      vertex -1.697056e+000  9.899495e-001  1.111500e+002
      vertex -2.828427e+000 -1.414214e-001  1.097405e+002
      vertex -4.550756e+000 -1.863751e+000  1.097405e+002
    endloop
  endfacet
  facet normal -7.071068e-001  7.071068e-001  2.048344e-008
    outer loop
      vertex -3.464823e+000 -7.778175e-001  1.209405e+002
      vertex  7.778174e-002  2.764787e+000  1.207305e+002
      vertex -1.697056e+000  9.899495e-001  1.167205e+002
    endloop
  endfacet
  facet normal -7.071067e-001  7.071068e-001  0.000000e+000
    outer loop
      vertex -1.697056e+000  9.899495e-001  1.167205e+002
      vertex  7.778174e-002  2.764787e+000  1.207305e+002
      vertex  7.778174e-002  2.764787e+000  1.192305e+002
    endloop
  endfacet
  facet normal -7.071068e-001  7.071068e-001  0.000000e+000
    outer loop
      vertex  1.934461e+000  4.621467e+000  1.222405e+002
      vertex -9.899495e-001  1.697056e+000  1.222405e+002
      vertex  1.934461e+000  4.621467e+000  1.232674e+002
    endloop
  endfacet
  facet normal -7.071068e-001  7.071068e-001  0.000000e+000
    outer loop
      vertex  1.934461e+000  4.621467e+000  1.232674e+002
      vertex -9.899495e-001  1.697056e+000  1.222405e+002
      vertex -2.404163e+000  2.828427e-001  1.242405e+002
    endloop
  endfacet
  facet normal -7.071068e-001  7.071068e-001  0.000000e+000
    outer loop
      vertex  1.934461e+000  4.621467e+000  1.232674e+002
      vertex -2.404163e+000  2.828427e-001  1.242405e+002
      vertex  1.414214e-001  2.828427e+000  1.242405e+002
    endloop
  endfacet
  facet normal  0.000000e+000  0.000000e+000  1.000000e+000
    outer loop
      vertex -7.778175e-001 -3.464823e+000  1.132405e+002
      vertex -3.464823e+000 -7.778175e-001  1.132405e+002
      vertex -4.550756e+000 -1.863751e+000  1.132405e+002
    endloop
  endfacet
  facet normal  0.000000e+000  0.000000e+000  1.000000e+000
    outer loop
      vertex -7.778175e-001 -3.464823e+000  1.132405e+002
      vertex -4.550756e+000 -1.863751e+000  1.132405e+002
      vertex -4.341104e+000 -2.303314e+000  1.132405e+002
    endloop
  endfacet
  facet normal  0.000000e+000  0.000000e+000  1.000000e+000
    outer loop
      vertex -7.778175e-001 -3.464823e+000  1.132405e+002
      vertex -4.341104e+000 -2.303314e+000  1.132405e+002
      vertex -4.089764e+000 -2.720445e+000  1.132405e+002
    endloop
  endfacet
  facet normal  0.000000e+000  0.000000e+000  1.000000e+000
    outer loop
      vertex -7.778175e-001 -3.464823e+000  1.132405e+002
      vertex -4.089764e+000 -2.720445e+000  1.132405e+002
      vertex -3.799112e+000 -3.111202e+000  1.132405e+002
    endloop
  endfacet
  facet normal  0.000000e+000  0.000000e+000  1.000000e+000
    outer loop
      vertex -7.778175e-001 -3.464823e+000  1.132405e+002
      vertex -3.799112e+000 -3.111202e+000  1.132405e+002
      vertex -3.471894e+000 -3.471894e+000  1.132405e+002
    endloop
  endfacet
  facet normal  -0.000000e+000  0.000000e+000  1.000000e+000
    outer loop
      vertex -7.778175e-001 -3.464823e+000  1.132405e+002
      vertex -3.471894e+000 -3.471894e+000  1.132405e+002
      vertex -3.111202e+000 -3.799112e+000  1.132405e+002
    endloop
  endfacet
  facet normal  -0.000000e+000  0.000000e+000  1.000000e+000
    outer loop
      vertex -7.778175e-001 -3.464823e+000  1.132405e+002
      vertex -3.111202e+000 -3.799112e+000  1.132405e+002
      vertex -2.720445e+000 -4.089764e+000  1.132405e+002
    endloop
  endfacet
  facet normal  -0.000000e+000  0.000000e+000  1.000000e+000
    outer loop
      vertex -7.778175e-001 -3.464823e+000  1.132405e+002
      vertex -2.720445e+000 -4.089764e+000  1.132405e+002
      vertex -2.303314e+000 -4.341104e+000  1.132405e+002
    endloop
  endfacet
  facet normal  -0.000000e+000  0.000000e+000  1.000000e+000
    outer loop
      vertex -7.778175e-001 -3.464823e+000  1.132405e+002
      vertex -2.303314e+000 -4.341104e+000  1.132405e+002
      vertex -1.863751e+000 -4.550756e+000  1.132405e+002
    endloop
  endfacet
  facet normal  0.000000e+000  0.000000e+000 -1.000000e+000
    outer loop
      vertex -1.414214e-001 -2.828427e+000  1.097405e+002
      vertex -1.863751e+000 -4.550756e+000  1.097405e+002
      vertex -2.303314e+000 -4.341104e+000  1.097405e+002
    endloop
  endfacet
  facet normal  0.000000e+000  0.000000e+000 -1.000000e+000
    outer loop
      vertex -1.414214e-001 -2.828427e+000  1.097405e+002
      vertex -2.303314e+000 -4.341104e+000  1.097405e+002
      vertex -2.720445e+000 -4.089764e+000  1.097405e+002
    endloop
  endfacet
  facet normal  0.000000e+000  0.000000e+000 -1.000000e+000
    outer loop
      vertex -1.414214e-001 -2.828427e+000  1.097405e+002
      vertex -2.720445e+000 -4.089764e+000  1.097405e+002
      vertex -3.111202e+000 -3.799112e+000  1.097405e+002
    endloop
  endfacet
  facet normal  0.000000e+000  0.000000e+000 -1.000000e+000
    outer loop
      vertex -1.414214e-001 -2.828427e+000  1.097405e+002
      vertex -3.111202e+000 -3.799112e+000  1.097405e+002
      vertex -3.471894e+000 -3.471894e+000  1.097405e+002
    endloop
  endfacet
  facet normal  0.000000e+000  0.000000e+000 -1.000000e+000
    outer loop
      vertex -1.414214e-001 -2.828427e+000  1.097405e+002
      vertex -3.471894e+000 -3.471894e+000  1.097405e+002
      vertex -3.799112e+000 -3.111202e+000  1.097405e+002
    endloop
  endfacet
  facet normal  0.000000e+000  0.000000e+000 -1.000000e+000
    outer loop
      vertex -1.414214e-001 -2.828427e+000  1.097405e+002
      vertex -3.799112e+000 -3.111202e+000  1.097405e+002
      vertex -4.089764e+000 -2.720445e+000  1.097405e+002
    endloop
  endfacet
  facet normal  0.000000e+000  0.000000e+000 -9.999999e-001
    outer loop
      vertex -1.414214e-001 -2.828427e+000  1.097405e+002
      vertex -4.089764e+000 -2.720445e+000  1.097405e+002
      vertex -4.341104e+000 -2.303314e+000  1.097405e+002
    endloop
  endfacet
  facet normal  0.000000e+000  0.000000e+000 -1.000000e+000
    outer loop
      vertex -1.414214e-001 -2.828427e+000  1.097405e+002
      vertex -4.341104e+000 -2.303314e+000  1.097405e+002
      vertex -4.550756e+000 -1.863751e+000  1.097405e+002
    endloop
  endfacet
  facet normal  0.000000e+000  0.000000e+000 -1.000000e+000
    outer loop
      vertex -1.414214e-001 -2.828427e+000  1.097405e+002
      vertex -4.550756e+000 -1.863751e+000  1.097405e+002
      vertex -2.828427e+000 -1.414214e-001  1.097405e+002
    endloop
  endfacet
  facet normal -4.304969e-001 -9.025921e-001  -0.000000e+000
    outer loop
      vertex -1.863751e+000 -4.550756e+000  1.097405e+002
      vertex -1.863751e+000 -4.550756e+000  1.132405e+002
      vertex -2.303314e+000 -4.341104e+000  1.097405e+002
    endloop
  endfacet
  facet normal -4.304969e-001 -9.025921e-001  0.000000e+000
    outer loop
      vertex -2.303314e+000 -4.341104e+000  1.097405e+002
      vertex -1.863751e+000 -4.550756e+000  1.132405e+002
      vertex -2.303314e+000 -4.341104e+000  1.132405e+002
    endloop
  endfacet
  facet normal -5.160973e-001 -8.565299e-001  -0.000000e+000
    outer loop
      vertex -2.303314e+000 -4.341104e+000  1.097405e+002
      vertex -2.303314e+000 -4.341104e+000  1.132405e+002
      vertex -2.720445e+000 -4.089764e+000  1.097405e+002
    endloop
  endfacet
  facet normal -5.160973e-001 -8.565299e-001  0.000000e+000
    outer loop
      vertex -2.720445e+000 -4.089764e+000  1.097405e+002
      vertex -2.303314e+000 -4.341104e+000  1.132405e+002
      vertex -2.720445e+000 -4.089764e+000  1.132405e+002
    endloop
  endfacet
  facet normal -5.968201e-001 -8.023751e-001  -0.000000e+000
    outer loop
      vertex -2.720445e+000 -4.089764e+000  1.097405e+002
      vertex -2.720445e+000 -4.089764e+000  1.132405e+002
      vertex -3.111202e+000 -3.799112e+000  1.097405e+002
    endloop
  endfacet
  facet normal -5.968201e-001 -8.023751e-001  0.000000e+000
    outer loop
      vertex -3.111202e+000 -3.799112e+000  1.097405e+002
      vertex -2.720445e+000 -4.089764e+000  1.132405e+002
      vertex -3.111202e+000 -3.799112e+000  1.132405e+002
    endloop
  endfacet
  facet normal -6.719037e-001 -7.406386e-001  -0.000000e+000
    outer loop
      vertex -3.111202e+000 -3.799112e+000  1.097405e+002
      vertex -3.111202e+000 -3.799112e+000  1.132405e+002
      vertex -3.471894e+000 -3.471894e+000  1.097405e+002
    endloop
  endfacet
  facet normal -6.719037e-001 -7.406386e-001  0.000000e+000
    outer loop
      vertex -3.471894e+000 -3.471894e+000  1.097405e+002
      vertex -3.111202e+000 -3.799112e+000  1.132405e+002
      vertex -3.471894e+000 -3.471894e+000  1.132405e+002
    endloop
  endfacet
  facet normal -7.406386e-001 -6.719037e-001  -0.000000e+000
    outer loop
      vertex -3.471894e+000 -3.471894e+000  1.097405e+002
      vertex -3.471894e+000 -3.471894e+000  1.132405e+002
      vertex -3.799112e+000 -3.111202e+000  1.097405e+002
    endloop
  endfacet
  facet normal -7.406386e-001 -6.719037e-001  0.000000e+000
    outer loop
      vertex -3.799112e+000 -3.111202e+000  1.097405e+002
      vertex -3.471894e+000 -3.471894e+000  1.132405e+002
      vertex -3.799112e+000 -3.111202e+000  1.132405e+002
    endloop
  endfacet
  facet normal -8.023751e-001 -5.968201e-001  -0.000000e+000
    outer loop
      vertex -3.799112e+000 -3.111202e+000  1.097405e+002
      vertex -3.799112e+000 -3.111202e+000  1.132405e+002
      vertex -4.089764e+000 -2.720445e+000  1.097405e+002
    endloop
  endfacet
  facet normal -8.023751e-001 -5.968201e-001  0.000000e+000
    outer loop
      vertex -4.089764e+000 -2.720445e+000  1.097405e+002
      vertex -3.799112e+000 -3.111202e+000  1.132405e+002
      vertex -4.089764e+000 -2.720445e+000  1.132405e+002
    endloop
  endfacet
  facet normal -8.565299e-001 -5.160973e-001  -0.000000e+000
    outer loop
      vertex -4.089764e+000 -2.720445e+000  1.097405e+002
      vertex -4.089764e+000 -2.720445e+000  1.132405e+002
      vertex -4.341104e+000 -2.303314e+000  1.097405e+002
    endloop
  endfacet
  facet normal -8.565299e-001 -5.160973e-001  0.000000e+000
    outer loop
      vertex -4.341104e+000 -2.303314e+000  1.097405e+002
      vertex -4.089764e+000 -2.720445e+000  1.132405e+002
      vertex -4.341104e+000 -2.303314e+000  1.132405e+002
    endloop
  endfacet
  facet normal -9.025921e-001 -4.304969e-001  -0.000000e+000
    outer loop
      vertex -4.341104e+000 -2.303314e+000  1.097405e+002
      vertex -4.341104e+000 -2.303314e+000  1.132405e+002
      vertex -4.550756e+000 -1.863751e+000  1.097405e+002
    endloop
  endfacet
  facet normal -9.025921e-001 -4.304969e-001  0.000000e+000
    outer loop
      vertex -4.550756e+000 -1.863751e+000  1.097405e+002
      vertex -4.341104e+000 -2.303314e+000  1.132405e+002
      vertex -4.550756e+000 -1.863751e+000  1.132405e+002
    endloop
  endfacet
  facet normal  7.071068e-001  7.071068e-001  -0.000000e+000
    outer loop
      vertex  2.764787e+000  7.778174e-002  1.207305e+002
      vertex  2.764787e+000  7.778174e-002  1.192305e+002
      vertex  7.778174e-002  2.764787e+000  1.207305e+002
    endloop
  endfacet
  facet normal  7.071068e-001  7.071068e-001  0.000000e+000
    outer loop
      vertex  7.778174e-002  2.764787e+000  1.207305e+002
      vertex  2.764787e+000  7.778174e-002  1.192305e+002
      vertex  7.778174e-002  2.764787e+000  1.192305e+002
    endloop
  endfacet
  facet normal  7.071068e-001  7.071068e-001  -0.000000e+000
    outer loop
      vertex  2.764787e+000  7.778174e-002  1.111500e+002
      vertex  2.764787e+000  7.778174e-002  1.086500e+002
      vertex  7.778174e-002  2.764787e+000  1.111500e+002
    endloop
  endfacet
  facet normal  7.071068e-001  7.071068e-001  0.000000e+000
    outer loop
      vertex  7.778174e-002  2.764787e+000  1.111500e+002
      vertex  2.764787e+000  7.778174e-002  1.086500e+002
      vertex  7.778174e-002  2.764787e+000  1.086500e+002
    endloop
  endfacet
  facet normal  7.071068e-001  7.071068e-001  -0.000000e+000
    outer loop
      vertex  9.899495e-001 -1.697056e+000  1.167205e+002
      vertex  9.899495e-001 -1.697056e+000  1.111500e+002
      vertex -1.697056e+000  9.899495e-001  1.167205e+002
    endloop
  endfacet
  facet normal  7.071068e-001  7.071068e-001  0.000000e+000
    outer loop
      vertex -1.697056e+000  9.899495e-001  1.167205e+002
      vertex  9.899495e-001 -1.697056e+000  1.111500e+002
      vertex -1.697056e+000  9.899495e-001  1.111500e+002
    endloop
  endfacet
  facet normal  0.000000e+000  0.000000e+000  1.000000e+000
    outer loop
      vertex  9.899495e-001 -1.697056e+000  1.111500e+002
      vertex  2.764787e+000  7.778174e-002  1.111500e+002
      vertex -1.697056e+000  9.899495e-001  1.111500e+002
    endloop
  endfacet
  facet normal  -0.000000e+000  0.000000e+000  1.000000e+000
    outer loop
      vertex -1.697056e+000  9.899495e-001  1.111500e+002
      vertex  2.764787e+000  7.778174e-002  1.111500e+002
      vertex  7.778174e-002  2.764787e+000  1.111500e+002
    endloop
  endfacet
  facet normal  5.000002e-001  5.000002e-001 -7.071065e-001
    outer loop
      vertex  9.899495e-001 -1.697056e+000  1.167205e+002
      vertex -1.697056e+000  9.899495e-001  1.167205e+002
      vertex  2.764787e+000  7.778174e-002  1.192305e+002
    endloop
  endfacet
  facet normal  5.000002e-001  5.000002e-001 -7.071065e-001
    outer loop
      vertex  2.764787e+000  7.778174e-002  1.192305e+002
      vertex -1.697056e+000  9.899495e-001  1.167205e+002
      vertex  7.778174e-002  2.764787e+000  1.192305e+002
    endloop
  endfacet
  facet normal  6.894761e-001  7.243084e-001  -0.000000e+000
    outer loop
      vertex  3.542605e+000  3.542605e+000  1.227405e+002
      vertex  3.542605e+000  3.542605e+000  1.222405e+002
      vertex  3.363850e+000  3.712764e+000  1.227477e+002
    endloop
  endfacet
  facet normal  6.718579e-001  7.405881e-001 -1.166959e-002
    outer loop
      vertex  3.363850e+000  3.712764e+000  1.227477e+002
      vertex  3.542605e+000  3.542605e+000  1.222405e+002
      vertex  3.181913e+000  3.869823e+000  1.222405e+002
    endloop
  endfacet
  facet normal  6.530362e-001  7.573266e-001  2.638035e-004
    outer loop
      vertex  3.363850e+000  3.712764e+000  1.227477e+002
      vertex  3.181913e+000  3.869823e+000  1.222405e+002
      vertex  3.177417e+000  3.873515e+000  1.227696e+002
    endloop
  endfacet
  facet normal  6.151128e-001  7.884392e-001 -2.755475e-004
    outer loop
      vertex  3.177417e+000  3.873515e+000  1.227696e+002
      vertex  3.181913e+000  3.869823e+000  1.222405e+002
      vertex  2.984504e+000  4.024032e+000  1.228064e+002
    endloop
  endfacet
  facet normal  5.967875e-001  8.023312e-001 -1.045240e-002
    outer loop
      vertex  2.984504e+000  4.024032e+000  1.228064e+002
      vertex  3.181913e+000  3.869823e+000  1.222405e+002
      vertex  2.791156e+000  4.160475e+000  1.222405e+002
    endloop
  endfacet
  facet normal  5.761650e-001  8.173334e-001  2.092188e-004
    outer loop
      vertex  2.984504e+000  4.024032e+000  1.228064e+002
      vertex  2.791156e+000  4.160475e+000  1.222405e+002
      vertex  2.786609e+000  4.163522e+000  1.228587e+002
    endloop
  endfacet
  facet normal  5.278884e-001  8.493137e-001 -3.034485e-004
    outer loop
      vertex  2.786609e+000  4.163522e+000  1.228587e+002
      vertex  2.791156e+000  4.160475e+000  1.222405e+002
      vertex  2.500635e+000  4.341304e+000  1.229605e+002
    endloop
  endfacet
  facet normal  5.160851e-001  8.565097e-001 -6.873100e-003
    outer loop
      vertex  2.500635e+000  4.341304e+000  1.229605e+002
      vertex  2.791156e+000  4.160475e+000  1.222405e+002
      vertex  2.374025e+000  4.411815e+000  1.222405e+002
    endloop
  endfacet
  facet normal  4.720235e-001  8.815797e-001  3.329709e-003
    outer loop
      vertex  2.500635e+000  4.341304e+000  1.229605e+002
      vertex  2.374025e+000  4.411815e+000  1.222405e+002
      vertex  2.214284e+000  4.494112e+000  1.230962e+002
    endloop
  endfacet
  facet normal  4.304880e-001  9.025733e-001 -6.442576e-003
    outer loop
      vertex  2.214284e+000  4.494112e+000  1.230962e+002
      vertex  2.374025e+000  4.411815e+000  1.222405e+002
      vertex  1.934461e+000  4.621467e+000  1.222405e+002
    endloop
  endfacet
  facet normal  4.142415e-001  9.101670e-001  -0.000000e+000
    outer loop
      vertex  2.214284e+000  4.494112e+000  1.230962e+002
      vertex  1.934461e+000  4.621467e+000  1.222405e+002
      vertex  1.934461e+000  4.621467e+000  1.232674e+002
    endloop
  endfacet
  facet normal  9.101674e-001  4.142406e-001  -0.000000e+000
    outer loop
      vertex  4.621467e+000  1.934461e+000  1.232674e+002
      vertex  4.621467e+000  1.934461e+000  1.222405e+002
      vertex  4.494115e+000  2.214279e+000  1.230962e+002
    endloop
  endfacet
  facet normal  9.025733e-001  4.304880e-001 -6.442755e-003
    outer loop
      vertex  4.494115e+000  2.214279e+000  1.230962e+002
      vertex  4.621467e+000  1.934461e+000  1.222405e+002
      vertex  4.411815e+000  2.374025e+000  1.222405e+002
    endloop
  endfacet
  facet normal  8.815804e-001  4.720225e-001  3.329469e-003
    outer loop
      vertex  4.494115e+000  2.214279e+000  1.230962e+002
      vertex  4.411815e+000  2.374025e+000  1.222405e+002
      vertex  4.341310e+000  2.500626e+000  1.229605e+002
    endloop
  endfacet
  facet normal  8.506830e-001  5.255998e-001 -9.116326e-003
    outer loop
      vertex  4.341310e+000  2.500626e+000  1.229605e+002
      vertex  4.411815e+000  2.374025e+000  1.222405e+002
      vertex  4.163531e+000  2.786595e+000  1.228587e+002
    endloop
  endfacet
  facet normal  8.565300e-001  5.160973e-001 -4.269394e-004
    outer loop
      vertex  4.163531e+000  2.786595e+000  1.228587e+002
      vertex  4.411815e+000  2.374025e+000  1.222405e+002
      vertex  4.160475e+000  2.791156e+000  1.222405e+002
    endloop
  endfacet
  facet normal  8.173354e-001  5.761621e-001  2.098747e-004
    outer loop
      vertex  4.163531e+000  2.786595e+000  1.228587e+002
      vertex  4.160475e+000  2.791156e+000  1.222405e+002
      vertex  4.024040e+000  2.984494e+000  1.228065e+002
    endloop
  endfacet
  facet normal  8.023313e-001  5.967875e-001 -1.045251e-002
    outer loop
      vertex  4.024040e+000  2.984494e+000  1.228065e+002
      vertex  4.160475e+000  2.791156e+000  1.222405e+002
      vertex  3.869823e+000  3.181913e+000  1.222405e+002
    endloop
  endfacet
  facet normal  7.884399e-001  6.151116e-001 -2.758949e-004
    outer loop
      vertex  4.024040e+000  2.984494e+000  1.228065e+002
      vertex  3.869823e+000  3.181913e+000  1.222405e+002
      vertex  3.873521e+000  3.177411e+000  1.227696e+002
    endloop
  endfacet
  facet normal  7.573276e-001  6.530351e-001  2.642246e-004
    outer loop
      vertex  3.873521e+000  3.177411e+000  1.227696e+002
      vertex  3.869823e+000  3.181913e+000  1.222405e+002
      vertex  3.712766e+000  3.363847e+000  1.227477e+002
    endloop
  endfacet
  facet normal  7.405881e-001  6.718579e-001 -1.166966e-002
    outer loop
      vertex  3.712766e+000  3.363847e+000  1.227477e+002
      vertex  3.869823e+000  3.181913e+000  1.222405e+002
      vertex  3.542605e+000  3.542605e+000  1.222405e+002
    endloop
  endfacet
  facet normal  7.243087e-001  6.894760e-001  -0.000000e+000
    outer loop
      vertex  3.712766e+000  3.363847e+000  1.227477e+002
      vertex  3.542605e+000  3.542605e+000  1.222405e+002
      vertex  3.542605e+000  3.542605e+000  1.227405e+002
    endloop
  endfacet
  facet normal  0.000000e+000  0.000000e+000 -1.000000e+000
    outer loop
      vertex  2.764787e+000  7.778174e-002  1.086500e+002
      vertex -1.414214e-001 -2.828427e+000  1.086500e+002
      vertex  7.778174e-002  2.764787e+000  1.086500e+002
    endloop
  endfacet
  facet normal  0.000000e+000  0.000000e+000 -1.000000e+000
    outer loop
      vertex  7.778174e-002  2.764787e+000  1.086500e+002
      vertex -1.414214e-001 -2.828427e+000  1.086500e+002
      vertex -2.828427e+000 -1.414214e-001  1.086500e+002
    endloop
  endfacet
  facet normal  0.000000e+000  0.000000e+000 -1.000000e+000
    outer loop
      vertex  1.697056e+000 -9.899495e-001  1.222405e+002
      vertex -9.899495e-001  1.697056e+000  1.222405e+002
      vertex  1.934461e+000  4.621467e+000  1.222405e+002
    endloop
  endfacet
  facet normal  0.000000e+000  -0.000000e+000 -1.000000e+000
    outer loop
      vertex  1.697056e+000 -9.899495e-001  1.222405e+002
      vertex  1.934461e+000  4.621467e+000  1.222405e+002
      vertex  2.374025e+000  4.411815e+000  1.222405e+002
    endloop
  endfacet
  facet normal  0.000000e+000  -0.000000e+000 -1.000000e+000
    outer loop
      vertex  1.697056e+000 -9.899495e-001  1.222405e+002
      vertex  2.374025e+000  4.411815e+000  1.222405e+002
      vertex  2.791156e+000  4.160475e+000  1.222405e+002
    endloop
  endfacet
  facet normal  0.000000e+000  -0.000000e+000 -1.000000e+000
    outer loop
      vertex  1.697056e+000 -9.899495e-001  1.222405e+002
      vertex  2.791156e+000  4.160475e+000  1.222405e+002
      vertex  3.181913e+000  3.869823e+000  1.222405e+002
    endloop
  endfacet
  facet normal  0.000000e+000  -0.000000e+000 -1.000000e+000
    outer loop
      vertex  1.697056e+000 -9.899495e-001  1.222405e+002
      vertex  3.181913e+000  3.869823e+000  1.222405e+002
      vertex  3.542605e+000  3.542605e+000  1.222405e+002
    endloop
  endfacet
  facet normal  0.000000e+000  -0.000000e+000 -1.000000e+000
    outer loop
      vertex  1.697056e+000 -9.899495e-001  1.222405e+002
      vertex  3.542605e+000  3.542605e+000  1.222405e+002
      vertex  3.869823e+000  3.181913e+000  1.222405e+002
    endloop
  endfacet
  facet normal  0.000000e+000  -0.000000e+000 -1.000000e+000
    outer loop
      vertex  1.697056e+000 -9.899495e-001  1.222405e+002
      vertex  3.869823e+000  3.181913e+000  1.222405e+002
      vertex  4.160475e+000  2.791156e+000  1.222405e+002
    endloop
  endfacet
  facet normal  0.000000e+000  -0.000000e+000 -1.000000e+000
    outer loop
      vertex  1.697056e+000 -9.899495e-001  1.222405e+002
      vertex  4.160475e+000  2.791156e+000  1.222405e+002
      vertex  4.411815e+000  2.374025e+000  1.222405e+002
    endloop
  endfacet
  facet normal  0.000000e+000  -0.000000e+000 -9.999999e-001
    outer loop
      vertex  1.697056e+000 -9.899495e-001  1.222405e+002
      vertex  4.411815e+000  2.374025e+000  1.222405e+002
      vertex  4.621467e+000  1.934461e+000  1.222405e+002
    endloop
  endfacet
  facet normal  4.999991e-001  4.999991e-001  7.071081e-001
    outer loop
      vertex  1.697056e+000 -9.899495e-001  1.222405e+002
      vertex  2.764787e+000  7.778174e-002  1.207305e+002
      vertex -9.899495e-001  1.697056e+000  1.222405e+002
    endloop
  endfacet
  facet normal  4.999991e-001  4.999991e-001  7.071081e-001
    outer loop
      vertex -9.899495e-001  1.697056e+000  1.222405e+002
      vertex  2.764787e+000  7.778174e-002  1.207305e+002
      vertex  7.778174e-002  2.764787e+000  1.207305e+002
    endloop
  endfacet
  facet normal  4.345028e-001  9.006703e-001  5.349623e-004
    outer loop
      vertex  2.259356e+000  4.471689e+000  1.242405e+002
      vertex  2.214284e+000  4.494112e+000  1.230962e+002
      vertex  2.095770e+000  4.550606e+000  1.242405e+002
    endloop
  endfacet
  facet normal  4.131397e-001  9.106650e-001 -2.171136e-003
    outer loop
      vertex  2.095770e+000  4.550606e+000  1.242405e+002
      vertex  2.214284e+000  4.494112e+000  1.230962e+002
      vertex  1.934461e+000  4.621467e+000  1.232674e+002
    endloop
  endfacet
  facet normal  4.021915e-001  9.155555e-001  -0.000000e+000
    outer loop
      vertex  2.095770e+000  4.550606e+000  1.242405e+002
      vertex  1.934461e+000  4.621467e+000  1.232674e+002
      vertex  1.934461e+000  4.621467e+000  1.242405e+002
    endloop
  endfacet
  facet normal  6.529552e-001  7.573959e-001 -9.350969e-004
    outer loop
      vertex  3.363850e+000  3.712764e+000  1.227477e+002
      vertex  3.177417e+000  3.873515e+000  1.227696e+002
      vertex  3.243979e+000  3.817948e+000  1.242405e+002
    endloop
  endfacet
  facet normal  6.153734e-001  7.882333e-001  1.930621e-003
    outer loop
      vertex  3.243979e+000  3.817948e+000  1.242405e+002
      vertex  3.177417e+000  3.873515e+000  1.227696e+002
      vertex  2.984504e+000  4.024032e+000  1.228064e+002
    endloop
  endfacet
  facet normal  6.164807e-001  7.873684e-001  1.605982e-003
    outer loop
      vertex  3.243979e+000  3.817948e+000  1.242405e+002
      vertex  2.984504e+000  4.024032e+000  1.228064e+002
      vertex  2.928259e+000  4.065145e+000  1.242405e+002
    endloop
  endfacet
  facet normal  5.759788e-001  8.174642e-001 -8.454196e-004
    outer loop
      vertex  2.928259e+000  4.065145e+000  1.242405e+002
      vertex  2.984504e+000  4.024032e+000  1.228064e+002
      vertex  2.786609e+000  4.163522e+000  1.228587e+002
    endloop
  endfacet
  facet normal  5.679500e-001  8.230630e-001  3.762528e-004
    outer loop
      vertex  2.928259e+000  4.065145e+000  1.242405e+002
      vertex  2.786609e+000  4.163522e+000  1.228587e+002
      vertex  2.761452e+000  4.180249e+000  1.242405e+002
    endloop
  endfacet
  facet normal  5.277934e-001  8.493726e-001 -6.733460e-004
    outer loop
      vertex  2.761452e+000  4.180249e+000  1.242405e+002
      vertex  2.786609e+000  4.163522e+000  1.228587e+002
      vertex  2.500635e+000  4.341304e+000  1.229605e+002
    endloop
  endfacet
  facet normal  5.263846e-001  8.502466e-001 -2.763007e-004
    outer loop
      vertex  2.761452e+000  4.180249e+000  1.242405e+002
      vertex  2.500635e+000  4.341304e+000  1.229605e+002
      vertex  2.509399e+000  4.336294e+000  1.242405e+002
    endloop
  endfacet
  facet normal  4.708826e-001  8.821958e-001  2.288033e-004
    outer loop
      vertex  2.509399e+000  4.336294e+000  1.242405e+002
      vertex  2.500635e+000  4.341304e+000  1.229605e+002
      vertex  2.214284e+000  4.494112e+000  1.230962e+002
    endloop
  endfacet
  facet normal  4.761592e-001  8.793578e-001 -1.523530e-003
    outer loop
      vertex  2.509399e+000  4.336294e+000  1.242405e+002
      vertex  2.214284e+000  4.494112e+000  1.230962e+002
      vertex  2.259356e+000  4.471689e+000  1.242405e+002
    endloop
  endfacet
  facet normal  6.894761e-001  7.243084e-001  0.000000e+000
    outer loop
      vertex  3.542605e+000  3.542605e+000  1.227405e+002
      vertex  3.363850e+000  3.712764e+000  1.227477e+002
      vertex  3.542605e+000  3.542605e+000  1.242405e+002
    endloop
  endfacet
  facet normal  6.778632e-001  7.351834e-001  2.630262e-003
    outer loop
      vertex  3.542605e+000  3.542605e+000  1.242405e+002
      vertex  3.363850e+000  3.712764e+000  1.227477e+002
      vertex  3.243979e+000  3.817948e+000  1.242405e+002
    endloop
  endfacet
  facet normal  7.573969e-001  6.529542e-001 -9.351639e-004
    outer loop
      vertex  3.873521e+000  3.177411e+000  1.227696e+002
      vertex  3.712766e+000  3.363847e+000  1.227477e+002
      vertex  3.817948e+000  3.243979e+000  1.242405e+002
    endloop
  endfacet
  facet normal  7.242138e-001  6.895618e-001  4.342604e-003
    outer loop
      vertex  3.817948e+000  3.243979e+000  1.242405e+002
      vertex  3.712766e+000  3.363847e+000  1.227477e+002
      vertex  3.542605e+000  3.542605e+000  1.227405e+002
    endloop
  endfacet
  facet normal  7.351859e-001  6.778656e-001  -0.000000e+000
    outer loop
      vertex  3.817948e+000  3.243979e+000  1.242405e+002
      vertex  3.542605e+000  3.542605e+000  1.227405e+002
      vertex  3.542605e+000  3.542605e+000  1.242405e+002
    endloop
  endfacet
  facet normal  9.006703e-001  4.345028e-001  5.351223e-004
    outer loop
      vertex  4.550606e+000  2.095770e+000  1.242405e+002
      vertex  4.494115e+000  2.214279e+000  1.230962e+002
      vertex  4.471689e+000  2.259356e+000  1.242405e+002
    endloop
  endfacet
  facet normal  8.824835e-001  4.703418e-001 -1.233161e-003
    outer loop
      vertex  4.471689e+000  2.259356e+000  1.242405e+002
      vertex  4.494115e+000  2.214279e+000  1.230962e+002
      vertex  4.341310e+000  2.500626e+000  1.229605e+002
    endloop
  endfacet
  facet normal  8.793588e-001  4.761598e-001  1.817966e-004
    outer loop
      vertex  4.471689e+000  2.259356e+000  1.242405e+002
      vertex  4.341310e+000  2.500626e+000  1.229605e+002
      vertex  4.336294e+000  2.509399e+000  1.242405e+002
    endloop
  endfacet
  facet normal  8.493130e-001  5.278897e-001 -2.905170e-004
    outer loop
      vertex  4.336294e+000  2.509399e+000  1.242405e+002
      vertex  4.341310e+000  2.500626e+000  1.229605e+002
      vertex  4.163531e+000  2.786595e+000  1.228587e+002
    endloop
  endfacet
  facet normal  8.502464e-001  5.263845e-001 -7.091777e-004
    outer loop
      vertex  4.336294e+000  2.509399e+000  1.242405e+002
      vertex  4.163531e+000  2.786595e+000  1.228587e+002
      vertex  4.180249e+000  2.761452e+000  1.242405e+002
    endloop
  endfacet
  facet normal  8.172873e-001  5.762303e-001  5.966162e-004
    outer loop
      vertex  4.180249e+000  2.761452e+000  1.242405e+002
      vertex  4.163531e+000  2.786595e+000  1.228587e+002
      vertex  4.024040e+000  2.984494e+000  1.228065e+002
    endloop
  endfacet
  facet normal  8.230623e-001  5.679495e-001 -1.320429e-003
    outer loop
      vertex  4.180249e+000  2.761452e+000  1.242405e+002
      vertex  4.024040e+000  2.984494e+000  1.228065e+002
      vertex  4.065145e+000  2.928259e+000  1.242405e+002
    endloop
  endfacet
  facet normal  7.882713e-001  6.153259e-001  1.534709e-003
    outer loop
      vertex  4.065145e+000  2.928259e+000  1.242405e+002
      vertex  4.024040e+000  2.984494e+000  1.228065e+002
      vertex  3.873521e+000  3.177411e+000  1.227696e+002
    endloop
  endfacet
  facet normal  7.873681e-001  6.164805e-001  1.847949e-003
    outer loop
      vertex  4.065145e+000  2.928259e+000  1.242405e+002
      vertex  3.873521e+000  3.177411e+000  1.227696e+002
      vertex  3.817948e+000  3.243979e+000  1.242405e+002
    endloop
  endfacet
  facet normal  9.155555e-001  4.021915e-001  -0.000000e+000
    outer loop
      vertex  4.621467e+000  1.934461e+000  1.242405e+002
      vertex  4.621467e+000  1.934461e+000  1.232674e+002
      vertex  4.550606e+000  2.095770e+000  1.242405e+002
    endloop
  endfacet
  facet normal  9.106654e-001  4.131390e-001 -2.170985e-003
    outer loop
      vertex  4.550606e+000  2.095770e+000  1.242405e+002
      vertex  4.621467e+000  1.934461e+000  1.232674e+002
      vertex  4.494115e+000  2.214279e+000  1.230962e+002
    endloop
  endfacet
  facet normal  0.000000e+000  0.000000e+000  1.000000e+000
    outer loop
      vertex  2.828427e+000  1.414214e-001  1.242405e+002
      vertex  4.621467e+000  1.934461e+000  1.242405e+002
      vertex  4.550606e+000  2.095770e+000  1.242405e+002
    endloop
  endfacet
  facet normal  0.000000e+000  0.000000e+000  1.000000e+000
    outer loop
      vertex  2.828427e+000  1.414214e-001  1.242405e+002
      vertex  4.550606e+000  2.095770e+000  1.242405e+002
      vertex  4.471689e+000  2.259356e+000  1.242405e+002
    endloop
  endfacet
  facet normal  0.000000e+000  0.000000e+000  1.000000e+000
    outer loop
      vertex  2.828427e+000  1.414214e-001  1.242405e+002
      vertex  4.471689e+000  2.259356e+000  1.242405e+002
      vertex  4.336294e+000  2.509399e+000  1.242405e+002
    endloop
  endfacet
  facet normal  0.000000e+000  0.000000e+000  1.000000e+000
    outer loop
      vertex  2.828427e+000  1.414214e-001  1.242405e+002
      vertex  4.336294e+000  2.509399e+000  1.242405e+002
      vertex  4.180249e+000  2.761452e+000  1.242405e+002
    endloop
  endfacet
  facet normal  0.000000e+000  0.000000e+000  1.000000e+000
    outer loop
      vertex  2.828427e+000  1.414214e-001  1.242405e+002
      vertex  4.180249e+000  2.761452e+000  1.242405e+002
      vertex  4.065145e+000  2.928259e+000  1.242405e+002
    endloop
  endfacet
  facet normal  0.000000e+000  0.000000e+000  9.999999e-001
    outer loop
      vertex  2.828427e+000  1.414214e-001  1.242405e+002
      vertex  4.065145e+000  2.928259e+000  1.242405e+002
      vertex  3.817948e+000  3.243979e+000  1.242405e+002
    endloop
  endfacet
  facet normal  0.000000e+000  0.000000e+000  1.000000e+000
    outer loop
      vertex  2.828427e+000  1.414214e-001  1.242405e+002
      vertex  3.817948e+000  3.243979e+000  1.242405e+002
      vertex  3.542605e+000  3.542605e+000  1.242405e+002
    endloop
  endfacet
  facet normal  0.000000e+000  0.000000e+000  1.000000e+000
    outer loop
      vertex  2.828427e+000  1.414214e-001  1.242405e+002
      vertex  3.542605e+000  3.542605e+000  1.242405e+002
      vertex  3.243979e+000  3.817948e+000  1.242405e+002
    endloop
  endfacet
  facet normal  0.000000e+000  0.000000e+000  1.000000e+000
    outer loop
      vertex  2.828427e+000  1.414214e-001  1.242405e+002
      vertex  3.243979e+000  3.817948e+000  1.242405e+002
      vertex  2.928259e+000  4.065145e+000  1.242405e+002
    endloop
  endfacet
  facet normal  0.000000e+000  0.000000e+000  1.000000e+000
    outer loop
      vertex  2.828427e+000  1.414214e-001  1.242405e+002
      vertex  2.928259e+000  4.065145e+000  1.242405e+002
      vertex  2.761452e+000  4.180249e+000  1.242405e+002
    endloop
  endfacet
  facet normal  0.000000e+000  0.000000e+000  1.000000e+000
    outer loop
      vertex  2.828427e+000  1.414214e-001  1.242405e+002
      vertex  2.761452e+000  4.180249e+000  1.242405e+002
      vertex  2.509399e+000  4.336294e+000  1.242405e+002
    endloop
  endfacet
  facet normal  0.000000e+000  0.000000e+000  1.000000e+000
    outer loop
      vertex  2.828427e+000  1.414214e-001  1.242405e+002
      vertex  2.509399e+000  4.336294e+000  1.242405e+002
      vertex  2.259356e+000  4.471689e+000  1.242405e+002
    endloop
  endfacet
  facet normal  0.000000e+000  0.000000e+000  1.000000e+000
    outer loop
      vertex  2.828427e+000  1.414214e-001  1.242405e+002
      vertex  2.259356e+000  4.471689e+000  1.242405e+002
      vertex  2.095770e+000  4.550606e+000  1.242405e+002
    endloop
  endfacet
  facet normal  0.000000e+000  0.000000e+000  1.000000e+000
    outer loop
      vertex  2.828427e+000  1.414214e-001  1.242405e+002
      vertex  2.095770e+000  4.550606e+000  1.242405e+002
      vertex  1.934461e+000  4.621467e+000  1.242405e+002
    endloop
  endfacet
  facet normal  0.000000e+000  0.000000e+000  1.000000e+000
    outer loop
      vertex  2.828427e+000  1.414214e-001  1.242405e+002
      vertex  1.934461e+000  4.621467e+000  1.242405e+002
      vertex  1.414214e-001  2.828427e+000  1.242405e+002
    endloop
  endfacet
  facet normal  0.000000e+000  0.000000e+000  1.000000e+000
    outer loop
      vertex  2.828427e-001 -2.404163e+000  1.242405e+002
      vertex  2.828427e+000  1.414214e-001  1.242405e+002
      vertex -2.404163e+000  2.828427e-001  1.242405e+002
    endloop
  endfacet
  facet normal  -0.000000e+000  0.000000e+000  1.000000e+000
    outer loop
      vertex -2.404163e+000  2.828427e-001  1.242405e+002
      vertex  2.828427e+000  1.414214e-001  1.242405e+002
      vertex  1.414214e-001  2.828427e+000  1.242405e+002
    endloop
  endfacet
  facet normal -7.071068e-001 -7.071068e-001  0.000000e+000
    outer loop
      vertex  2.828427e-001 -2.404163e+000  1.242405e+002
      vertex -2.404163e+000  2.828427e-001  1.242405e+002
      vertex  2.828427e-001 -2.404163e+000  1.209405e+002
    endloop
  endfacet
  facet normal -7.071068e-001 -7.071068e-001  0.000000e+000
    outer loop
      vertex  2.828427e-001 -2.404163e+000  1.209405e+002
      vertex -2.404163e+000  2.828427e-001  1.242405e+002
      vertex -2.404163e+000  2.828427e-001  1.209405e+002
    endloop
  endfacet
  facet normal  0.000000e+000  0.000000e+000  1.000000e+000
    outer loop
      vertex -7.778175e-001 -3.464823e+000  1.209405e+002
      vertex  2.828427e-001 -2.404163e+000  1.209405e+002
      vertex -3.464823e+000 -7.778175e-001  1.209405e+002
    endloop
  endfacet
  facet normal  -0.000000e+000  0.000000e+000  1.000000e+000
    outer loop
      vertex -3.464823e+000 -7.778175e-001  1.209405e+002
      vertex  2.828427e-001 -2.404163e+000  1.209405e+002
      vertex -2.404163e+000  2.828427e-001  1.209405e+002
    endloop
  endfacet
  facet normal -7.071068e-001 -7.071068e-001  -0.000000e+000
    outer loop
      vertex -7.778175e-001 -3.464823e+000  1.132405e+002
      vertex -7.778175e-001 -3.464823e+000  1.209405e+002
      vertex -3.464823e+000 -7.778175e-001  1.132405e+002
    endloop
  endfacet
  facet normal -7.071068e-001 -7.071068e-001  0.000000e+000
    outer loop
      vertex -3.464823e+000 -7.778175e-001  1.132405e+002
      vertex -7.778175e-001 -3.464823e+000  1.209405e+002
      vertex -3.464823e+000 -7.778175e-001  1.209405e+002
    endloop
  endfacet
  facet normal -7.071068e-001 -7.071068e-001  -0.000000e+000
    outer loop
      vertex -1.414214e-001 -2.828427e+000  1.086500e+002
      vertex -1.414214e-001 -2.828427e+000  1.097405e+002
      vertex -2.828427e+000 -1.414214e-001  1.086500e+002
    endloop
  endfacet
  facet normal -7.071068e-001 -7.071068e-001  0.000000e+000
    outer loop
      vertex -2.828427e+000 -1.414214e-001  1.086500e+002
      vertex -1.414214e-001 -2.828427e+000  1.097405e+002
      vertex -2.828427e+000 -1.414214e-001  1.097405e+002
    endloop
  endfacet
endsolid CATIA STL
