solid CATIA STL
  facet normal  4.999993e-001  4.999993e-001  7.071077e-001
    outer loop
      vertex  2.164788e+000 -5.222182e-001  1.222405e+002
      vertex  2.723366e+000  3.636039e-002  1.214505e+002
      vertex -5.222182e-001  2.164788e+000  1.222405e+002
    endloop
  endfacet
  facet normal  4.999993e-001  4.999994e-001  7.071077e-001
    outer loop
      vertex -5.222182e-001  2.164788e+000  1.222405e+002
      vertex  2.723366e+000  3.636039e-002  1.214505e+002
      vertex  3.636039e-002  2.723366e+000  1.214505e+002
    endloop
  endfacet
  facet normal -7.071068e-001  7.071067e-001 -2.692948e-007
    outer loop
      vertex  1.414214e-001  2.828427e+000  1.242405e+002
      vertex  1.397056e+000  4.084062e+000  1.242405e+002
      vertex  1.934461e+000  4.621467e+000  1.234805e+002
    endloop
  endfacet
  facet normal -7.071068e-001  7.071068e-001  0.000000e+000
    outer loop
      vertex  7.778174e-002  2.764787e+000  1.086500e+002
      vertex -1.343503e+000  1.343503e+000  1.111500e+002
      vertex  7.778174e-002  2.764787e+000  1.111500e+002
    endloop
  endfacet
  facet normal -7.071068e-001  7.071067e-001  0.000000e+000
    outer loop
      vertex -3.111270e+000 -4.242641e-001  1.147405e+002
      vertex -4.550756e+000 -1.863751e+000  1.112405e+002
      vertex -4.550756e+000 -1.863751e+000  1.147405e+002
    endloop
  endfacet
  facet normal -7.071068e-001  7.071068e-001 -1.109125e-007
    outer loop
      vertex -2.192031e+000  4.949747e-001  1.242405e+002
      vertex  1.414214e-001  2.828427e+000  1.242405e+002
      vertex  1.934461e+000  4.621467e+000  1.234805e+002
    endloop
  endfacet
  facet normal -7.071068e-001  7.071068e-001  0.000000e+000
    outer loop
      vertex -2.192031e+000  4.949747e-001  1.242405e+002
      vertex  1.934461e+000  4.621467e+000  1.234805e+002
      vertex  1.934461e+000  4.621467e+000  1.232674e+002
    endloop
  endfacet
  facet normal -7.071068e-001  7.071068e-001  0.000000e+000
    outer loop
      vertex -2.192031e+000  4.949747e-001  1.242405e+002
      vertex  1.934461e+000  4.621467e+000  1.232674e+002
      vertex  1.934461e+000  4.621467e+000  1.222405e+002
    endloop
  endfacet
  facet normal -7.071068e-001  7.071069e-001  1.415884e-007
    outer loop
      vertex -2.192031e+000  4.949747e-001  1.242405e+002
      vertex  1.934461e+000  4.621467e+000  1.222405e+002
      vertex -5.222182e-001  2.164788e+000  1.222405e+002
    endloop
  endfacet
  facet normal -7.071066e-001  7.071071e-001  4.639265e-007
    outer loop
      vertex -2.192031e+000  4.949747e-001  1.242405e+002
      vertex -5.222182e-001  2.164788e+000  1.222405e+002
      vertex  3.636039e-002  2.723366e+000  1.214505e+002
    endloop
  endfacet
  facet normal -7.071101e-001  7.071035e-001 -5.255199e-006
    outer loop
      vertex -2.192031e+000  4.949747e-001  1.242405e+002
      vertex  3.636039e-002  2.723366e+000  1.214505e+002
      vertex  6.701668e-002  2.754022e+000  1.213856e+002
    endloop
  endfacet
  facet normal -7.071066e-001  7.071069e-001  1.674454e-007
    outer loop
      vertex -2.192031e+000  4.949747e-001  1.242405e+002
      vertex  6.701668e-002  2.754022e+000  1.213856e+002
      vertex  7.778174e-002  2.764787e+000  1.213091e+002
    endloop
  endfacet
  facet normal -7.071068e-001  7.071068e-001  0.000000e+000
    outer loop
      vertex -2.192031e+000  4.949747e-001  1.242405e+002
      vertex  7.778174e-002  2.764787e+000  1.213091e+002
      vertex -2.192031e+000  4.949747e-001  1.209405e+002
    endloop
  endfacet
  facet normal -7.071068e-001  7.071068e-001  0.000000e+000
    outer loop
      vertex  7.778174e-002  2.764787e+000  1.086500e+002
      vertex -2.828427e+000 -1.414214e-001  1.086500e+002
      vertex -1.343503e+000  1.343503e+000  1.111500e+002
    endloop
  endfacet
  facet normal -7.071068e-001  7.071068e-001  0.000000e+000
    outer loop
      vertex -1.343503e+000  1.343503e+000  1.111500e+002
      vertex -2.828427e+000 -1.414214e-001  1.086500e+002
      vertex -2.828427e+000 -1.414214e-001  1.112405e+002
    endloop
  endfacet
  facet normal -7.071068e-001  7.071068e-001  0.000000e+000
    outer loop
      vertex -1.343503e+000  1.343503e+000  1.111500e+002
      vertex -2.828427e+000 -1.414214e-001  1.112405e+002
      vertex -1.343503e+000  1.343503e+000  1.178819e+002
    endloop
  endfacet
  facet normal -7.071068e-001  7.071068e-001  0.000000e+000
    outer loop
      vertex -2.828427e+000 -1.414214e-001  1.112405e+002
      vertex -4.550756e+000 -1.863751e+000  1.112405e+002
      vertex -1.343503e+000  1.343503e+000  1.178819e+002
    endloop
  endfacet
  facet normal -7.071066e-001  7.071070e-001 -1.623655e-007
    outer loop
      vertex -1.343503e+000  1.343503e+000  1.178819e+002
      vertex -4.550756e+000 -1.863751e+000  1.112405e+002
      vertex -3.111270e+000 -4.242641e-001  1.147405e+002
    endloop
  endfacet
  facet normal -7.071068e-001  7.071068e-001  0.000000e+000
    outer loop
      vertex -1.343503e+000  1.343503e+000  1.178819e+002
      vertex -3.111270e+000 -4.242641e-001  1.147405e+002
      vertex -3.111270e+000 -4.242641e-001  1.209405e+002
    endloop
  endfacet
  facet normal -7.071068e-001  7.071068e-001 -3.402634e-008
    outer loop
      vertex -1.343503e+000  1.343503e+000  1.178819e+002
      vertex -3.111270e+000 -4.242641e-001  1.209405e+002
      vertex  7.778174e-002  2.764787e+000  1.198919e+002
    endloop
  endfacet
  facet normal -7.071068e-001  7.071068e-001  0.000000e+000
    outer loop
      vertex  7.778174e-002  2.764787e+000  1.198919e+002
      vertex -3.111270e+000 -4.242641e-001  1.209405e+002
      vertex -2.192031e+000  4.949747e-001  1.209405e+002
    endloop
  endfacet
  facet normal -7.071068e-001  7.071068e-001  0.000000e+000
    outer loop
      vertex  7.778174e-002  2.764787e+000  1.198919e+002
      vertex -2.192031e+000  4.949747e-001  1.209405e+002
      vertex  7.778174e-002  2.764787e+000  1.213091e+002
    endloop
  endfacet
  facet normal  7.071068e-001  7.071068e-001  -0.000000e+000
    outer loop
      vertex  2.764787e+000  7.778174e-002  1.213091e+002
      vertex  2.764787e+000  7.778174e-002  1.198919e+002
      vertex  7.778174e-002  2.764787e+000  1.213091e+002
    endloop
  endfacet
  facet normal  7.071068e-001  7.071068e-001  0.000000e+000
    outer loop
      vertex  7.778174e-002  2.764787e+000  1.213091e+002
      vertex  2.764787e+000  7.778174e-002  1.198919e+002
      vertex  7.778174e-002  2.764787e+000  1.198919e+002
    endloop
  endfacet
  facet normal  7.071067e-001 -7.071068e-001 -2.692948e-007
    outer loop
      vertex  4.621467e+000  1.934461e+000  1.234805e+002
      vertex  4.084062e+000  1.397056e+000  1.242405e+002
      vertex  2.828427e+000  1.414214e-001  1.242405e+002
    endloop
  endfacet
  facet normal  7.071068e-001 -7.071068e-001  0.000000e+000
    outer loop
      vertex  2.764787e+000  7.778174e-002  1.111500e+002
      vertex  1.343503e+000 -1.343503e+000  1.111500e+002
      vertex  2.764787e+000  7.778174e-002  1.086500e+002
    endloop
  endfacet
  facet normal  7.071067e-001 -7.071068e-001  0.000000e+000
    outer loop
      vertex -1.863751e+000 -4.550756e+000  1.147405e+002
      vertex -1.863751e+000 -4.550756e+000  1.112405e+002
      vertex -4.242641e-001 -3.111270e+000  1.147405e+002
    endloop
  endfacet
  facet normal  7.071068e-001 -7.071068e-001  0.000000e+000
    outer loop
      vertex  4.949747e-001 -2.192031e+000  1.242405e+002
      vertex  4.949747e-001 -2.192031e+000  1.209405e+002
      vertex  2.764787e+000  7.778174e-002  1.213091e+002
    endloop
  endfacet
  facet normal  7.071069e-001 -7.071066e-001  1.682433e-007
    outer loop
      vertex  4.949747e-001 -2.192031e+000  1.242405e+002
      vertex  2.764787e+000  7.778174e-002  1.213091e+002
      vertex  2.754022e+000  6.701668e-002  1.213856e+002
    endloop
  endfacet
  facet normal  7.071034e-001 -7.071100e-001 -5.238793e-006
    outer loop
      vertex  4.949747e-001 -2.192031e+000  1.242405e+002
      vertex  2.754022e+000  6.701668e-002  1.213856e+002
      vertex  2.723366e+000  3.636039e-002  1.214505e+002
    endloop
  endfacet
  facet normal  7.071070e-001 -7.071065e-001  4.639262e-007
    outer loop
      vertex  4.949747e-001 -2.192031e+000  1.242405e+002
      vertex  2.723366e+000  3.636039e-002  1.214505e+002
      vertex  2.164788e+000 -5.222182e-001  1.222405e+002
    endloop
  endfacet
  facet normal  7.071069e-001 -7.071068e-001  9.944154e-008
    outer loop
      vertex  4.949747e-001 -2.192031e+000  1.242405e+002
      vertex  2.164788e+000 -5.222182e-001  1.222405e+002
      vertex  4.621467e+000  1.934461e+000  1.222405e+002
    endloop
  endfacet
  facet normal  7.071068e-001 -7.071068e-001  0.000000e+000
    outer loop
      vertex  4.949747e-001 -2.192031e+000  1.242405e+002
      vertex  4.621467e+000  1.934461e+000  1.222405e+002
      vertex  4.621467e+000  1.934461e+000  1.232674e+002
    endloop
  endfacet
  facet normal  7.071068e-001 -7.071068e-001  0.000000e+000
    outer loop
      vertex  4.949747e-001 -2.192031e+000  1.242405e+002
      vertex  4.621467e+000  1.934461e+000  1.232674e+002
      vertex  4.621467e+000  1.934461e+000  1.234805e+002
    endloop
  endfacet
  facet normal  7.071068e-001 -7.071068e-001 -1.961383e-007
    outer loop
      vertex  4.949747e-001 -2.192031e+000  1.242405e+002
      vertex  4.621467e+000  1.934461e+000  1.234805e+002
      vertex  2.828427e+000  1.414214e-001  1.242405e+002
    endloop
  endfacet
  facet normal  7.071068e-001 -7.071068e-001  0.000000e+000
    outer loop
      vertex  1.343503e+000 -1.343503e+000  1.178819e+002
      vertex -1.414214e-001 -2.828427e+000  1.112405e+002
      vertex  1.343503e+000 -1.343503e+000  1.111500e+002
    endloop
  endfacet
  facet normal  7.071068e-001 -7.071068e-001  0.000000e+000
    outer loop
      vertex  1.343503e+000 -1.343503e+000  1.111500e+002
      vertex -1.414214e-001 -2.828427e+000  1.112405e+002
      vertex -1.414214e-001 -2.828427e+000  1.086500e+002
    endloop
  endfacet
  facet normal  7.071068e-001 -7.071068e-001  0.000000e+000
    outer loop
      vertex  1.343503e+000 -1.343503e+000  1.111500e+002
      vertex -1.414214e-001 -2.828427e+000  1.086500e+002
      vertex  2.764787e+000  7.778174e-002  1.086500e+002
    endloop
  endfacet
  facet normal  7.071068e-001 -7.071068e-001  0.000000e+000
    outer loop
      vertex -4.242641e-001 -3.111270e+000  1.209405e+002
      vertex -4.242641e-001 -3.111270e+000  1.147405e+002
      vertex  1.343503e+000 -1.343503e+000  1.178819e+002
    endloop
  endfacet
  facet normal  7.071070e-001 -7.071066e-001 -1.623655e-007
    outer loop
      vertex  1.343503e+000 -1.343503e+000  1.178819e+002
      vertex -4.242641e-001 -3.111270e+000  1.147405e+002
      vertex -1.863751e+000 -4.550756e+000  1.112405e+002
    endloop
  endfacet
  facet normal  7.071068e-001 -7.071068e-001  0.000000e+000
    outer loop
      vertex  1.343503e+000 -1.343503e+000  1.178819e+002
      vertex -1.863751e+000 -4.550756e+000  1.112405e+002
      vertex -1.414214e-001 -2.828427e+000  1.112405e+002
    endloop
  endfacet
  facet normal  7.071068e-001 -7.071068e-001  0.000000e+000
    outer loop
      vertex  2.764787e+000  7.778174e-002  1.213091e+002
      vertex  4.949747e-001 -2.192031e+000  1.209405e+002
      vertex  2.764787e+000  7.778174e-002  1.198919e+002
    endloop
  endfacet
  facet normal  7.071068e-001 -7.071068e-001  0.000000e+000
    outer loop
      vertex  2.764787e+000  7.778174e-002  1.198919e+002
      vertex  4.949747e-001 -2.192031e+000  1.209405e+002
      vertex -4.242641e-001 -3.111270e+000  1.209405e+002
    endloop
  endfacet
  facet normal  7.071068e-001 -7.071068e-001 -3.402634e-008
    outer loop
      vertex  2.764787e+000  7.778174e-002  1.198919e+002
      vertex -4.242641e-001 -3.111270e+000  1.209405e+002
      vertex  1.343503e+000 -1.343503e+000  1.178819e+002
    endloop
  endfacet
  facet normal  6.935177e-001  6.935177e-001  1.951059e-001
    outer loop
      vertex  2.764787e+000  7.778174e-002  1.213091e+002
      vertex  7.778174e-002  2.764787e+000  1.213091e+002
      vertex  2.754022e+000  6.701668e-002  1.213856e+002
    endloop
  endfacet
  facet normal  6.935177e-001  6.935177e-001  1.951059e-001
    outer loop
      vertex  2.754022e+000  6.701668e-002  1.213856e+002
      vertex  7.778174e-002  2.764787e+000  1.213091e+002
      vertex  6.701668e-002  2.754022e+000  1.213856e+002
    endloop
  endfacet
  facet normal  5.879483e-001  5.879483e-001  5.555480e-001
    outer loop
      vertex  2.754022e+000  6.701668e-002  1.213856e+002
      vertex  6.701668e-002  2.754022e+000  1.213856e+002
      vertex  2.723366e+000  3.636039e-002  1.214505e+002
    endloop
  endfacet
  facet normal  5.879483e-001  5.879483e-001  5.555480e-001
    outer loop
      vertex  2.723366e+000  3.636039e-002  1.214505e+002
      vertex  6.701668e-002  2.754022e+000  1.213856e+002
      vertex  3.636039e-002  2.723366e+000  1.214505e+002
    endloop
  endfacet
  facet normal  0.000000e+000  0.000000e+000  1.000000e+000
    outer loop
      vertex -4.242641e-001 -3.111270e+000  1.147405e+002
      vertex -3.111270e+000 -4.242641e-001  1.147405e+002
      vertex -4.550756e+000 -1.863751e+000  1.147405e+002
    endloop
  endfacet
  facet normal  0.000000e+000  0.000000e+000  1.000000e+000
    outer loop
      vertex -4.242641e-001 -3.111270e+000  1.147405e+002
      vertex -4.550756e+000 -1.863751e+000  1.147405e+002
      vertex -4.341104e+000 -2.303314e+000  1.147405e+002
    endloop
  endfacet
  facet normal  0.000000e+000  0.000000e+000  1.000000e+000
    outer loop
      vertex -4.242641e-001 -3.111270e+000  1.147405e+002
      vertex -4.341104e+000 -2.303314e+000  1.147405e+002
      vertex -4.089764e+000 -2.720445e+000  1.147405e+002
    endloop
  endfacet
  facet normal  0.000000e+000  0.000000e+000  1.000000e+000
    outer loop
      vertex -4.242641e-001 -3.111270e+000  1.147405e+002
      vertex -4.089764e+000 -2.720445e+000  1.147405e+002
      vertex -3.799112e+000 -3.111202e+000  1.147405e+002
    endloop
  endfacet
  facet normal  0.000000e+000  0.000000e+000  1.000000e+000
    outer loop
      vertex -4.242641e-001 -3.111270e+000  1.147405e+002
      vertex -3.799112e+000 -3.111202e+000  1.147405e+002
      vertex -3.471894e+000 -3.471894e+000  1.147405e+002
    endloop
  endfacet
  facet normal  -0.000000e+000  0.000000e+000  1.000000e+000
    outer loop
      vertex -4.242641e-001 -3.111270e+000  1.147405e+002
      vertex -3.471894e+000 -3.471894e+000  1.147405e+002
      vertex -3.111202e+000 -3.799112e+000  1.147405e+002
    endloop
  endfacet
  facet normal  -0.000000e+000  0.000000e+000  1.000000e+000
    outer loop
      vertex -4.242641e-001 -3.111270e+000  1.147405e+002
      vertex -3.111202e+000 -3.799112e+000  1.147405e+002
      vertex -2.720445e+000 -4.089764e+000  1.147405e+002
    endloop
  endfacet
  facet normal  -0.000000e+000  0.000000e+000  9.999999e-001
    outer loop
      vertex -4.242641e-001 -3.111270e+000  1.147405e+002
      vertex -2.720445e+000 -4.089764e+000  1.147405e+002
      vertex -2.303314e+000 -4.341104e+000  1.147405e+002
    endloop
  endfacet
  facet normal  -0.000000e+000  0.000000e+000  1.000000e+000
    outer loop
      vertex -4.242641e-001 -3.111270e+000  1.147405e+002
      vertex -2.303314e+000 -4.341104e+000  1.147405e+002
      vertex -1.863751e+000 -4.550756e+000  1.147405e+002
    endloop
  endfacet
  facet normal  0.000000e+000  0.000000e+000 -1.000000e+000
    outer loop
      vertex -1.414214e-001 -2.828427e+000  1.112405e+002
      vertex -1.863751e+000 -4.550756e+000  1.112405e+002
      vertex -2.303314e+000 -4.341104e+000  1.112405e+002
    endloop
  endfacet
  facet normal  0.000000e+000  0.000000e+000 -1.000000e+000
    outer loop
      vertex -1.414214e-001 -2.828427e+000  1.112405e+002
      vertex -2.303314e+000 -4.341104e+000  1.112405e+002
      vertex -2.720445e+000 -4.089764e+000  1.112405e+002
    endloop
  endfacet
  facet normal  0.000000e+000  0.000000e+000 -1.000000e+000
    outer loop
      vertex -1.414214e-001 -2.828427e+000  1.112405e+002
      vertex -2.720445e+000 -4.089764e+000  1.112405e+002
      vertex -3.111202e+000 -3.799112e+000  1.112405e+002
    endloop
  endfacet
  facet normal  0.000000e+000  0.000000e+000 -1.000000e+000
    outer loop
      vertex -1.414214e-001 -2.828427e+000  1.112405e+002
      vertex -3.111202e+000 -3.799112e+000  1.112405e+002
      vertex -3.471894e+000 -3.471894e+000  1.112405e+002
    endloop
  endfacet
  facet normal  0.000000e+000  0.000000e+000 -1.000000e+000
    outer loop
      vertex -1.414214e-001 -2.828427e+000  1.112405e+002
      vertex -3.471894e+000 -3.471894e+000  1.112405e+002
      vertex -3.799112e+000 -3.111202e+000  1.112405e+002
    endloop
  endfacet
  facet normal  0.000000e+000  0.000000e+000 -1.000000e+000
    outer loop
      vertex -1.414214e-001 -2.828427e+000  1.112405e+002
      vertex -3.799112e+000 -3.111202e+000  1.112405e+002
      vertex -4.089764e+000 -2.720445e+000  1.112405e+002
    endloop
  endfacet
  facet normal  0.000000e+000  0.000000e+000 -9.999999e-001
    outer loop
      vertex -1.414214e-001 -2.828427e+000  1.112405e+002
      vertex -4.089764e+000 -2.720445e+000  1.112405e+002
      vertex -4.341104e+000 -2.303314e+000  1.112405e+002
    endloop
  endfacet
  facet normal  0.000000e+000  0.000000e+000 -1.000000e+000
    outer loop
      vertex -1.414214e-001 -2.828427e+000  1.112405e+002
      vertex -4.341104e+000 -2.303314e+000  1.112405e+002
      vertex -4.550756e+000 -1.863751e+000  1.112405e+002
    endloop
  endfacet
  facet normal  0.000000e+000  0.000000e+000 -1.000000e+000
    outer loop
      vertex -1.414214e-001 -2.828427e+000  1.112405e+002
      vertex -4.550756e+000 -1.863751e+000  1.112405e+002
      vertex -2.828427e+000 -1.414214e-001  1.112405e+002
    endloop
  endfacet
  facet normal -4.304969e-001 -9.025921e-001  -0.000000e+000
    outer loop
      vertex -1.863751e+000 -4.550756e+000  1.112405e+002
      vertex -1.863751e+000 -4.550756e+000  1.147405e+002
      vertex -2.303314e+000 -4.341104e+000  1.112405e+002
    endloop
  endfacet
  facet normal -4.304969e-001 -9.025921e-001  0.000000e+000
    outer loop
      vertex -2.303314e+000 -4.341104e+000  1.112405e+002
      vertex -1.863751e+000 -4.550756e+000  1.147405e+002
      vertex -2.303314e+000 -4.341104e+000  1.147405e+002
    endloop
  endfacet
  facet normal -5.160973e-001 -8.565299e-001  -0.000000e+000
    outer loop
      vertex -2.303314e+000 -4.341104e+000  1.112405e+002
      vertex -2.303314e+000 -4.341104e+000  1.147405e+002
      vertex -2.720445e+000 -4.089764e+000  1.112405e+002
    endloop
  endfacet
  facet normal -5.160973e-001 -8.565299e-001  0.000000e+000
    outer loop
      vertex -2.720445e+000 -4.089764e+000  1.112405e+002
      vertex -2.303314e+000 -4.341104e+000  1.147405e+002
      vertex -2.720445e+000 -4.089764e+000  1.147405e+002
    endloop
  endfacet
  facet normal -5.968201e-001 -8.023751e-001  -0.000000e+000
    outer loop
      vertex -2.720445e+000 -4.089764e+000  1.112405e+002
      vertex -2.720445e+000 -4.089764e+000  1.147405e+002
      vertex -3.111202e+000 -3.799112e+000  1.112405e+002
    endloop
  endfacet
  facet normal -5.968201e-001 -8.023751e-001  0.000000e+000
    outer loop
      vertex -3.111202e+000 -3.799112e+000  1.112405e+002
      vertex -2.720445e+000 -4.089764e+000  1.147405e+002
      vertex -3.111202e+000 -3.799112e+000  1.147405e+002
    endloop
  endfacet
  facet normal -6.719037e-001 -7.406386e-001  -0.000000e+000
    outer loop
      vertex -3.111202e+000 -3.799112e+000  1.112405e+002
      vertex -3.111202e+000 -3.799112e+000  1.147405e+002
      vertex -3.471894e+000 -3.471894e+000  1.112405e+002
    endloop
  endfacet
  facet normal -6.719037e-001 -7.406386e-001  0.000000e+000
    outer loop
      vertex -3.471894e+000 -3.471894e+000  1.112405e+002
      vertex -3.111202e+000 -3.799112e+000  1.147405e+002
      vertex -3.471894e+000 -3.471894e+000  1.147405e+002
    endloop
  endfacet
  facet normal -7.406386e-001 -6.719037e-001  -0.000000e+000
    outer loop
      vertex -3.471894e+000 -3.471894e+000  1.112405e+002
      vertex -3.471894e+000 -3.471894e+000  1.147405e+002
      vertex -3.799112e+000 -3.111202e+000  1.112405e+002
    endloop
  endfacet
  facet normal -7.406386e-001 -6.719037e-001  0.000000e+000
    outer loop
      vertex -3.799112e+000 -3.111202e+000  1.112405e+002
      vertex -3.471894e+000 -3.471894e+000  1.147405e+002
      vertex -3.799112e+000 -3.111202e+000  1.147405e+002
    endloop
  endfacet
  facet normal -8.023751e-001 -5.968201e-001  -0.000000e+000
    outer loop
      vertex -3.799112e+000 -3.111202e+000  1.112405e+002
      vertex -3.799112e+000 -3.111202e+000  1.147405e+002
      vertex -4.089764e+000 -2.720445e+000  1.112405e+002
    endloop
  endfacet
  facet normal -8.023751e-001 -5.968201e-001  0.000000e+000
    outer loop
      vertex -4.089764e+000 -2.720445e+000  1.112405e+002
      vertex -3.799112e+000 -3.111202e+000  1.147405e+002
      vertex -4.089764e+000 -2.720445e+000  1.147405e+002
    endloop
  endfacet
  facet normal -8.565299e-001 -5.160973e-001  -0.000000e+000
    outer loop
      vertex -4.089764e+000 -2.720445e+000  1.112405e+002
      vertex -4.089764e+000 -2.720445e+000  1.147405e+002
      vertex -4.341104e+000 -2.303314e+000  1.112405e+002
    endloop
  endfacet
  facet normal -8.565299e-001 -5.160973e-001  0.000000e+000
    outer loop
      vertex -4.341104e+000 -2.303314e+000  1.112405e+002
      vertex -4.089764e+000 -2.720445e+000  1.147405e+002
      vertex -4.341104e+000 -2.303314e+000  1.147405e+002
    endloop
  endfacet
  facet normal -9.025921e-001 -4.304969e-001  -0.000000e+000
    outer loop
      vertex -4.341104e+000 -2.303314e+000  1.112405e+002
      vertex -4.341104e+000 -2.303314e+000  1.147405e+002
      vertex -4.550756e+000 -1.863751e+000  1.112405e+002
    endloop
  endfacet
  facet normal -9.025921e-001 -4.304969e-001  0.000000e+000
    outer loop
      vertex -4.550756e+000 -1.863751e+000  1.112405e+002
      vertex -4.341104e+000 -2.303314e+000  1.147405e+002
      vertex -4.550756e+000 -1.863751e+000  1.147405e+002
    endloop
  endfacet
  facet normal  7.071068e-001  7.071068e-001  -0.000000e+000
    outer loop
      vertex  2.764787e+000  7.778174e-002  1.111500e+002
      vertex  2.764787e+000  7.778174e-002  1.086500e+002
      vertex  7.778174e-002  2.764787e+000  1.111500e+002
    endloop
  endfacet
  facet normal  7.071068e-001  7.071068e-001  0.000000e+000
    outer loop
      vertex  7.778174e-002  2.764787e+000  1.111500e+002
      vertex  2.764787e+000  7.778174e-002  1.086500e+002
      vertex  7.778174e-002  2.764787e+000  1.086500e+002
    endloop
  endfacet
  facet normal  7.071068e-001  7.071068e-001  -0.000000e+000
    outer loop
      vertex  1.343503e+000 -1.343503e+000  1.178819e+002
      vertex  1.343503e+000 -1.343503e+000  1.111500e+002
      vertex -1.343503e+000  1.343503e+000  1.178819e+002
    endloop
  endfacet
  facet normal  7.071068e-001  7.071068e-001  0.000000e+000
    outer loop
      vertex -1.343503e+000  1.343503e+000  1.178819e+002
      vertex  1.343503e+000 -1.343503e+000  1.111500e+002
      vertex -1.343503e+000  1.343503e+000  1.111500e+002
    endloop
  endfacet
  facet normal  0.000000e+000  0.000000e+000  9.999999e-001
    outer loop
      vertex  1.343503e+000 -1.343503e+000  1.111500e+002
      vertex  2.764787e+000  7.778174e-002  1.111500e+002
      vertex -1.343503e+000  1.343503e+000  1.111500e+002
    endloop
  endfacet
  facet normal  -0.000000e+000  0.000000e+000  9.999999e-001
    outer loop
      vertex -1.343503e+000  1.343503e+000  1.111500e+002
      vertex  2.764787e+000  7.778174e-002  1.111500e+002
      vertex  7.778174e-002  2.764787e+000  1.111500e+002
    endloop
  endfacet
  facet normal  5.000003e-001  5.000003e-001 -7.071064e-001
    outer loop
      vertex  1.343503e+000 -1.343503e+000  1.178819e+002
      vertex -1.343503e+000  1.343503e+000  1.178819e+002
      vertex  2.764787e+000  7.778174e-002  1.198919e+002
    endloop
  endfacet
  facet normal  5.000003e-001  5.000003e-001 -7.071064e-001
    outer loop
      vertex  2.764787e+000  7.778174e-002  1.198919e+002
      vertex -1.343503e+000  1.343503e+000  1.178819e+002
      vertex  7.778174e-002  2.764787e+000  1.198919e+002
    endloop
  endfacet
  facet normal  6.894761e-001  7.243084e-001  -0.000000e+000
    outer loop
      vertex  3.542605e+000  3.542605e+000  1.227405e+002
      vertex  3.542605e+000  3.542605e+000  1.222405e+002
      vertex  3.363850e+000  3.712764e+000  1.227477e+002
    endloop
  endfacet
  facet normal  6.718579e-001  7.405881e-001 -1.166959e-002
    outer loop
      vertex  3.363850e+000  3.712764e+000  1.227477e+002
      vertex  3.542605e+000  3.542605e+000  1.222405e+002
      vertex  3.181913e+000  3.869823e+000  1.222405e+002
    endloop
  endfacet
  facet normal  6.530362e-001  7.573266e-001  2.638035e-004
    outer loop
      vertex  3.363850e+000  3.712764e+000  1.227477e+002
      vertex  3.181913e+000  3.869823e+000  1.222405e+002
      vertex  3.177417e+000  3.873515e+000  1.227696e+002
    endloop
  endfacet
  facet normal  6.151128e-001  7.884392e-001 -2.755475e-004
    outer loop
      vertex  3.177417e+000  3.873515e+000  1.227696e+002
      vertex  3.181913e+000  3.869823e+000  1.222405e+002
      vertex  2.984504e+000  4.024032e+000  1.228064e+002
    endloop
  endfacet
  facet normal  5.967875e-001  8.023312e-001 -1.045240e-002
    outer loop
      vertex  2.984504e+000  4.024032e+000  1.228064e+002
      vertex  3.181913e+000  3.869823e+000  1.222405e+002
      vertex  2.791156e+000  4.160475e+000  1.222405e+002
    endloop
  endfacet
  facet normal  5.761650e-001  8.173334e-001  2.092188e-004
    outer loop
      vertex  2.984504e+000  4.024032e+000  1.228064e+002
      vertex  2.791156e+000  4.160475e+000  1.222405e+002
      vertex  2.786609e+000  4.163522e+000  1.228587e+002
    endloop
  endfacet
  facet normal  5.278884e-001  8.493137e-001 -3.034485e-004
    outer loop
      vertex  2.786609e+000  4.163522e+000  1.228587e+002
      vertex  2.791156e+000  4.160475e+000  1.222405e+002
      vertex  2.500635e+000  4.341304e+000  1.229605e+002
    endloop
  endfacet
  facet normal  5.160851e-001  8.565097e-001 -6.873100e-003
    outer loop
      vertex  2.500635e+000  4.341304e+000  1.229605e+002
      vertex  2.791156e+000  4.160475e+000  1.222405e+002
      vertex  2.374025e+000  4.411815e+000  1.222405e+002
    endloop
  endfacet
  facet normal  4.720235e-001  8.815797e-001  3.329709e-003
    outer loop
      vertex  2.500635e+000  4.341304e+000  1.229605e+002
      vertex  2.374025e+000  4.411815e+000  1.222405e+002
      vertex  2.214284e+000  4.494112e+000  1.230962e+002
    endloop
  endfacet
  facet normal  4.304880e-001  9.025733e-001 -6.442576e-003
    outer loop
      vertex  2.214284e+000  4.494112e+000  1.230962e+002
      vertex  2.374025e+000  4.411815e+000  1.222405e+002
      vertex  1.934461e+000  4.621467e+000  1.222405e+002
    endloop
  endfacet
  facet normal  4.142415e-001  9.101670e-001  -0.000000e+000
    outer loop
      vertex  2.214284e+000  4.494112e+000  1.230962e+002
      vertex  1.934461e+000  4.621467e+000  1.222405e+002
      vertex  1.934461e+000  4.621467e+000  1.232674e+002
    endloop
  endfacet
  facet normal  9.101674e-001  4.142406e-001  -0.000000e+000
    outer loop
      vertex  4.621467e+000  1.934461e+000  1.232674e+002
      vertex  4.621467e+000  1.934461e+000  1.222405e+002
      vertex  4.494115e+000  2.214279e+000  1.230962e+002
    endloop
  endfacet
  facet normal  9.025733e-001  4.304880e-001 -6.442755e-003
    outer loop
      vertex  4.494115e+000  2.214279e+000  1.230962e+002
      vertex  4.621467e+000  1.934461e+000  1.222405e+002
      vertex  4.411815e+000  2.374025e+000  1.222405e+002
    endloop
  endfacet
  facet normal  8.815804e-001  4.720225e-001  3.329469e-003
    outer loop
      vertex  4.494115e+000  2.214279e+000  1.230962e+002
      vertex  4.411815e+000  2.374025e+000  1.222405e+002
      vertex  4.341310e+000  2.500626e+000  1.229605e+002
    endloop
  endfacet
  facet normal  8.506830e-001  5.255998e-001 -9.116326e-003
    outer loop
      vertex  4.341310e+000  2.500626e+000  1.229605e+002
      vertex  4.411815e+000  2.374025e+000  1.222405e+002
      vertex  4.163531e+000  2.786595e+000  1.228587e+002
    endloop
  endfacet
  facet normal  8.565300e-001  5.160973e-001 -4.269394e-004
    outer loop
      vertex  4.163531e+000  2.786595e+000  1.228587e+002
      vertex  4.411815e+000  2.374025e+000  1.222405e+002
      vertex  4.160475e+000  2.791156e+000  1.222405e+002
    endloop
  endfacet
  facet normal  8.173354e-001  5.761621e-001  2.098747e-004
    outer loop
      vertex  4.163531e+000  2.786595e+000  1.228587e+002
      vertex  4.160475e+000  2.791156e+000  1.222405e+002
      vertex  4.024040e+000  2.984494e+000  1.228065e+002
    endloop
  endfacet
  facet normal  8.023313e-001  5.967875e-001 -1.045251e-002
    outer loop
      vertex  4.024040e+000  2.984494e+000  1.228065e+002
      vertex  4.160475e+000  2.791156e+000  1.222405e+002
      vertex  3.869823e+000  3.181913e+000  1.222405e+002
    endloop
  endfacet
  facet normal  7.884399e-001  6.151116e-001 -2.758949e-004
    outer loop
      vertex  4.024040e+000  2.984494e+000  1.228065e+002
      vertex  3.869823e+000  3.181913e+000  1.222405e+002
      vertex  3.873521e+000  3.177411e+000  1.227696e+002
    endloop
  endfacet
  facet normal  7.573276e-001  6.530351e-001  2.642246e-004
    outer loop
      vertex  3.873521e+000  3.177411e+000  1.227696e+002
      vertex  3.869823e+000  3.181913e+000  1.222405e+002
      vertex  3.712766e+000  3.363847e+000  1.227477e+002
    endloop
  endfacet
  facet normal  7.405881e-001  6.718579e-001 -1.166966e-002
    outer loop
      vertex  3.712766e+000  3.363847e+000  1.227477e+002
      vertex  3.869823e+000  3.181913e+000  1.222405e+002
      vertex  3.542605e+000  3.542605e+000  1.222405e+002
    endloop
  endfacet
  facet normal  7.243087e-001  6.894760e-001  -0.000000e+000
    outer loop
      vertex  3.712766e+000  3.363847e+000  1.227477e+002
      vertex  3.542605e+000  3.542605e+000  1.222405e+002
      vertex  3.542605e+000  3.542605e+000  1.227405e+002
    endloop
  endfacet
  facet normal  0.000000e+000  0.000000e+000 -1.000000e+000
    outer loop
      vertex  2.764787e+000  7.778174e-002  1.086500e+002
      vertex -1.414214e-001 -2.828427e+000  1.086500e+002
      vertex  7.778174e-002  2.764787e+000  1.086500e+002
    endloop
  endfacet
  facet normal  0.000000e+000  0.000000e+000 -1.000000e+000
    outer loop
      vertex  7.778174e-002  2.764787e+000  1.086500e+002
      vertex -1.414214e-001 -2.828427e+000  1.086500e+002
      vertex -2.828427e+000 -1.414214e-001  1.086500e+002
    endloop
  endfacet
  facet normal  0.000000e+000  0.000000e+000 -1.000000e+000
    outer loop
      vertex  2.164788e+000 -5.222182e-001  1.222405e+002
      vertex -5.222182e-001  2.164788e+000  1.222405e+002
      vertex  1.934461e+000  4.621467e+000  1.222405e+002
    endloop
  endfacet
  facet normal  0.000000e+000  0.000000e+000 -1.000000e+000
    outer loop
      vertex  2.164788e+000 -5.222182e-001  1.222405e+002
      vertex  1.934461e+000  4.621467e+000  1.222405e+002
      vertex  2.374025e+000  4.411815e+000  1.222405e+002
    endloop
  endfacet
  facet normal  0.000000e+000  -0.000000e+000 -1.000000e+000
    outer loop
      vertex  2.164788e+000 -5.222182e-001  1.222405e+002
      vertex  2.374025e+000  4.411815e+000  1.222405e+002
      vertex  2.791156e+000  4.160475e+000  1.222405e+002
    endloop
  endfacet
  facet normal  0.000000e+000  -0.000000e+000 -1.000000e+000
    outer loop
      vertex  2.164788e+000 -5.222182e-001  1.222405e+002
      vertex  2.791156e+000  4.160475e+000  1.222405e+002
      vertex  3.181913e+000  3.869823e+000  1.222405e+002
    endloop
  endfacet
  facet normal  0.000000e+000  -0.000000e+000 -1.000000e+000
    outer loop
      vertex  2.164788e+000 -5.222182e-001  1.222405e+002
      vertex  3.181913e+000  3.869823e+000  1.222405e+002
      vertex  3.542605e+000  3.542605e+000  1.222405e+002
    endloop
  endfacet
  facet normal  0.000000e+000  -0.000000e+000 -9.999999e-001
    outer loop
      vertex  2.164788e+000 -5.222182e-001  1.222405e+002
      vertex  3.542605e+000  3.542605e+000  1.222405e+002
      vertex  3.869823e+000  3.181913e+000  1.222405e+002
    endloop
  endfacet
  facet normal  0.000000e+000  -0.000000e+000 -1.000000e+000
    outer loop
      vertex  2.164788e+000 -5.222182e-001  1.222405e+002
      vertex  3.869823e+000  3.181913e+000  1.222405e+002
      vertex  4.160475e+000  2.791156e+000  1.222405e+002
    endloop
  endfacet
  facet normal  0.000000e+000  -0.000000e+000 -9.999999e-001
    outer loop
      vertex  2.164788e+000 -5.222182e-001  1.222405e+002
      vertex  4.160475e+000  2.791156e+000  1.222405e+002
      vertex  4.411815e+000  2.374025e+000  1.222405e+002
    endloop
  endfacet
  facet normal  0.000000e+000  -0.000000e+000 -9.999999e-001
    outer loop
      vertex  2.164788e+000 -5.222182e-001  1.222405e+002
      vertex  4.411815e+000  2.374025e+000  1.222405e+002
      vertex  4.621467e+000  1.934461e+000  1.222405e+002
    endloop
  endfacet
  facet normal  6.527673e-001  7.575496e-001 -3.664934e-003
    outer loop
      vertex  3.363850e+000  3.712764e+000  1.227477e+002
      vertex  3.177417e+000  3.873515e+000  1.227696e+002
      vertex  3.238199e+000  3.822852e+000  1.231233e+002
    endloop
  endfacet
  facet normal  6.159594e-001  7.877470e-001  6.986533e-003
    outer loop
      vertex  3.238199e+000  3.822852e+000  1.231233e+002
      vertex  3.177417e+000  3.873515e+000  1.227696e+002
      vertex  2.984504e+000  4.024032e+000  1.228064e+002
    endloop
  endfacet
  facet normal  6.153928e-001  7.881829e-001  7.716976e-003
    outer loop
      vertex  3.238199e+000  3.822852e+000  1.231233e+002
      vertex  2.984504e+000  4.024032e+000  1.228064e+002
      vertex  2.915629e+000  4.074213e+000  1.231736e+002
    endloop
  endfacet
  facet normal  5.754485e-001  8.178290e-001 -3.826875e-003
    outer loop
      vertex  2.915629e+000  4.074213e+000  1.231736e+002
      vertex  2.984504e+000  4.024032e+000  1.228064e+002
      vertex  2.786609e+000  4.163522e+000  1.228587e+002
    endloop
  endfacet
  facet normal  5.657741e-001  8.245578e-001  2.044626e-003
    outer loop
      vertex  2.915629e+000  4.074213e+000  1.231736e+002
      vertex  2.786609e+000  4.163522e+000  1.228587e+002
      vertex  2.749202e+000  4.188316e+000  1.232106e+002
    endloop
  endfacet
  facet normal  5.269701e-001  8.498750e-001 -3.863511e-003
    outer loop
      vertex  2.749202e+000  4.188316e+000  1.232106e+002
      vertex  2.786609e+000  4.163522e+000  1.228587e+002
      vertex  2.500635e+000  4.341304e+000  1.229605e+002
    endloop
  endfacet
  facet normal  5.239234e-001  8.517653e-001  3.202984e-004
    outer loop
      vertex  2.749202e+000  4.188316e+000  1.232106e+002
      vertex  2.500635e+000  4.341304e+000  1.229605e+002
      vertex  2.496257e+000  4.343877e+000  1.232795e+002
    endloop
  endfacet
  facet normal  4.705550e-001  8.823705e-001 -6.590066e-004
    outer loop
      vertex  2.496257e+000  4.343877e+000  1.232795e+002
      vertex  2.500635e+000  4.341304e+000  1.229605e+002
      vertex  2.214284e+000  4.494112e+000  1.230962e+002
    endloop
  endfacet
  facet normal  4.722606e-001  8.814497e-001 -4.037685e-003
    outer loop
      vertex  2.496257e+000  4.343877e+000  1.232795e+002
      vertex  2.214284e+000  4.494112e+000  1.230962e+002
      vertex  2.243927e+000  4.479448e+000  1.233621e+002
    endloop
  endfacet
  facet normal  4.161412e-001  9.092922e-001  3.755623e-003
    outer loop
      vertex  2.243927e+000  4.479448e+000  1.233621e+002
      vertex  2.214284e+000  4.494112e+000  1.230962e+002
      vertex  1.934461e+000  4.621467e+000  1.232674e+002
    endloop
  endfacet
  facet normal  4.170931e-001  9.088638e-001  -0.000000e+000
    outer loop
      vertex  2.243927e+000  4.479448e+000  1.233621e+002
      vertex  1.934461e+000  4.621467e+000  1.232674e+002
      vertex  1.934461e+000  4.621467e+000  1.234805e+002
    endloop
  endfacet
  facet normal  6.894761e-001  7.243084e-001  0.000000e+000
    outer loop
      vertex  3.542605e+000  3.542605e+000  1.227405e+002
      vertex  3.363850e+000  3.712764e+000  1.227477e+002
      vertex  3.542605e+000  3.542605e+000  1.231062e+002
    endloop
  endfacet
  facet normal  6.776060e-001  7.353404e-001  1.115538e-002
    outer loop
      vertex  3.542605e+000  3.542605e+000  1.231062e+002
      vertex  3.363850e+000  3.712764e+000  1.227477e+002
      vertex  3.238199e+000  3.822852e+000  1.231233e+002
    endloop
  endfacet
  facet normal  7.575506e-001  6.527661e-001 -3.665235e-003
    outer loop
      vertex  3.873521e+000  3.177411e+000  1.227696e+002
      vertex  3.712766e+000  3.363847e+000  1.227477e+002
      vertex  3.822852e+000  3.238199e+000  1.231233e+002
    endloop
  endfacet
  facet normal  7.238063e-001  6.897526e-001  1.859999e-002
    outer loop
      vertex  3.822852e+000  3.238199e+000  1.231233e+002
      vertex  3.712766e+000  3.363847e+000  1.227477e+002
      vertex  3.542605e+000  3.542605e+000  1.227405e+002
    endloop
  endfacet
  facet normal  7.356982e-001  6.773095e-001  -0.000000e+000
    outer loop
      vertex  3.822852e+000  3.238199e+000  1.231233e+002
      vertex  3.542605e+000  3.542605e+000  1.227405e+002
      vertex  3.542605e+000  3.542605e+000  1.231062e+002
    endloop
  endfacet
  facet normal  8.254706e-001  5.644024e-001 -6.941493e-003
    outer loop
      vertex  4.188316e+000  2.749202e+000  1.232106e+002
      vertex  4.024040e+000  2.984494e+000  1.228065e+002
      vertex  4.074213e+000  2.915629e+000  1.231736e+002
    endloop
  endfacet
  facet normal  7.876561e-001  6.160643e-001  7.914653e-003
    outer loop
      vertex  4.074213e+000  2.915629e+000  1.231736e+002
      vertex  4.024040e+000  2.984494e+000  1.228065e+002
      vertex  3.873521e+000  3.177411e+000  1.227696e+002
    endloop
  endfacet
  facet normal  7.882281e-001  6.153414e-001  7.162144e-003
    outer loop
      vertex  4.074213e+000  2.915629e+000  1.231736e+002
      vertex  3.873521e+000  3.177411e+000  1.227696e+002
      vertex  3.822852e+000  3.238199e+000  1.231233e+002
    endloop
  endfacet
  facet normal  8.168888e-001  5.767831e-001  3.753829e-003
    outer loop
      vertex  4.024040e+000  2.984494e+000  1.228065e+002
      vertex  4.188316e+000  2.749202e+000  1.232106e+002
      vertex  4.163531e+000  2.786595e+000  1.228587e+002
    endloop
  endfacet
  facet normal  8.523371e-001  5.229737e-001 -4.460019e-003
    outer loop
      vertex  4.163531e+000  2.786595e+000  1.228587e+002
      vertex  4.188316e+000  2.749202e+000  1.232106e+002
      vertex  4.343877e+000  2.496257e+000  1.232795e+002
    endloop
  endfacet
  facet normal  8.492032e-001  5.280660e-001  3.967845e-004
    outer loop
      vertex  4.163531e+000  2.786595e+000  1.228587e+002
      vertex  4.343877e+000  2.496257e+000  1.232795e+002
      vertex  4.341310e+000  2.500626e+000  1.229605e+002
    endloop
  endfacet
  facet normal  8.809900e-001  4.731346e-001 -6.114194e-004
    outer loop
      vertex  4.341310e+000  2.500626e+000  1.229605e+002
      vertex  4.343877e+000  2.496257e+000  1.232795e+002
      vertex  4.479448e+000  2.243927e+000  1.233621e+002
    endloop
  endfacet
  facet normal  8.829516e-001  4.694500e-001 -3.641637e-003
    outer loop
      vertex  4.341310e+000  2.500626e+000  1.229605e+002
      vertex  4.479448e+000  2.243927e+000  1.233621e+002
      vertex  4.494115e+000  2.214279e+000  1.230962e+002
    endloop
  endfacet
  facet normal  9.083533e-001  4.181890e-001  3.476622e-003
    outer loop
      vertex  4.494115e+000  2.214279e+000  1.230962e+002
      vertex  4.479448e+000  2.243927e+000  1.233621e+002
      vertex  4.621467e+000  1.934461e+000  1.234805e+002
    endloop
  endfacet
  facet normal  9.101674e-001  4.142406e-001  0.000000e+000
    outer loop
      vertex  4.494115e+000  2.214279e+000  1.230962e+002
      vertex  4.621467e+000  1.934461e+000  1.234805e+002
      vertex  4.621467e+000  1.934461e+000  1.232674e+002
    endloop
  endfacet
  facet normal  4.999988e-001  4.999988e-001  7.071084e-001
    outer loop
      vertex  1.397056e+000  4.084062e+000  1.242405e+002
      vertex  4.084062e+000  1.397056e+000  1.242405e+002
      vertex  4.621467e+000  1.934461e+000  1.234805e+002
    endloop
  endfacet
  facet normal  4.999978e-001  4.999964e-001  7.071108e-001
    outer loop
      vertex  1.397056e+000  4.084062e+000  1.242405e+002
      vertex  4.621467e+000  1.934461e+000  1.234805e+002
      vertex  4.479448e+000  2.243927e+000  1.233621e+002
    endloop
  endfacet
  facet normal  5.000022e-001  5.000097e-001  7.070984e-001
    outer loop
      vertex  1.397056e+000  4.084062e+000  1.242405e+002
      vertex  4.479448e+000  2.243927e+000  1.233621e+002
      vertex  4.343877e+000  2.496257e+000  1.232795e+002
    endloop
  endfacet
  facet normal  5.000011e-001  5.000055e-001  7.071020e-001
    outer loop
      vertex  1.397056e+000  4.084062e+000  1.242405e+002
      vertex  4.343877e+000  2.496257e+000  1.232795e+002
      vertex  4.188316e+000  2.749202e+000  1.232106e+002
    endloop
  endfacet
  facet normal  4.999976e-001  4.999851e-001  7.071190e-001
    outer loop
      vertex  1.397056e+000  4.084062e+000  1.242405e+002
      vertex  4.188316e+000  2.749202e+000  1.232106e+002
      vertex  4.074213e+000  2.915629e+000  1.231736e+002
    endloop
  endfacet
  facet normal  4.999998e-001  5.000035e-001  7.071044e-001
    outer loop
      vertex  1.397056e+000  4.084062e+000  1.242405e+002
      vertex  4.074213e+000  2.915629e+000  1.231736e+002
      vertex  3.822852e+000  3.238199e+000  1.231233e+002
    endloop
  endfacet
  facet normal  4.999997e-001  4.999977e-001  7.071086e-001
    outer loop
      vertex  1.397056e+000  4.084062e+000  1.242405e+002
      vertex  3.822852e+000  3.238199e+000  1.231233e+002
      vertex  3.542605e+000  3.542605e+000  1.231062e+002
    endloop
  endfacet
  facet normal  4.999994e-001  5.000017e-001  7.071061e-001
    outer loop
      vertex  1.397056e+000  4.084062e+000  1.242405e+002
      vertex  3.542605e+000  3.542605e+000  1.231062e+002
      vertex  3.238199e+000  3.822852e+000  1.231233e+002
    endloop
  endfacet
  facet normal  5.000007e-001  4.999951e-001  7.071097e-001
    outer loop
      vertex  1.397056e+000  4.084062e+000  1.242405e+002
      vertex  3.238199e+000  3.822852e+000  1.231233e+002
      vertex  2.915629e+000  4.074213e+000  1.231736e+002
    endloop
  endfacet
  facet normal  4.999937e-001  5.000165e-001  7.070996e-001
    outer loop
      vertex  1.397056e+000  4.084062e+000  1.242405e+002
      vertex  2.915629e+000  4.074213e+000  1.231736e+002
      vertex  2.749202e+000  4.188316e+000  1.232106e+002
    endloop
  endfacet
  facet normal  5.000029e-001  4.999935e-001  7.071093e-001
    outer loop
      vertex  1.397056e+000  4.084062e+000  1.242405e+002
      vertex  2.749202e+000  4.188316e+000  1.232106e+002
      vertex  2.496257e+000  4.343877e+000  1.232795e+002
    endloop
  endfacet
  facet normal  5.000060e-001  4.999876e-001  7.071113e-001
    outer loop
      vertex  1.397056e+000  4.084062e+000  1.242405e+002
      vertex  2.496257e+000  4.343877e+000  1.232795e+002
      vertex  2.243927e+000  4.479448e+000  1.233621e+002
    endloop
  endfacet
  facet normal  4.999969e-001  5.000008e-001  7.071084e-001
    outer loop
      vertex  1.397056e+000  4.084062e+000  1.242405e+002
      vertex  2.243927e+000  4.479448e+000  1.233621e+002
      vertex  1.934461e+000  4.621467e+000  1.234805e+002
    endloop
  endfacet
  facet normal  0.000000e+000  0.000000e+000  9.999999e-001
    outer loop
      vertex  2.828427e+000  1.414214e-001  1.242405e+002
      vertex  4.084062e+000  1.397056e+000  1.242405e+002
      vertex  1.414214e-001  2.828427e+000  1.242405e+002
    endloop
  endfacet
  facet normal  -0.000000e+000  0.000000e+000  1.000000e+000
    outer loop
      vertex  1.414214e-001  2.828427e+000  1.242405e+002
      vertex  4.084062e+000  1.397056e+000  1.242405e+002
      vertex  1.397056e+000  4.084062e+000  1.242405e+002
    endloop
  endfacet
  facet normal  0.000000e+000  0.000000e+000  1.000000e+000
    outer loop
      vertex  4.949747e-001 -2.192031e+000  1.242405e+002
      vertex  2.828427e+000  1.414214e-001  1.242405e+002
      vertex -2.192031e+000  4.949747e-001  1.242405e+002
    endloop
  endfacet
  facet normal  -0.000000e+000  0.000000e+000  1.000000e+000
    outer loop
      vertex -2.192031e+000  4.949747e-001  1.242405e+002
      vertex  2.828427e+000  1.414214e-001  1.242405e+002
      vertex  1.414214e-001  2.828427e+000  1.242405e+002
    endloop
  endfacet
  facet normal -7.071068e-001 -7.071068e-001  0.000000e+000
    outer loop
      vertex  4.949747e-001 -2.192031e+000  1.242405e+002
      vertex -2.192031e+000  4.949747e-001  1.242405e+002
      vertex  4.949747e-001 -2.192031e+000  1.209405e+002
    endloop
  endfacet
  facet normal -7.071068e-001 -7.071068e-001  0.000000e+000
    outer loop
      vertex  4.949747e-001 -2.192031e+000  1.209405e+002
      vertex -2.192031e+000  4.949747e-001  1.242405e+002
      vertex -2.192031e+000  4.949747e-001  1.209405e+002
    endloop
  endfacet
  facet normal  0.000000e+000  0.000000e+000  1.000000e+000
    outer loop
      vertex -4.242641e-001 -3.111270e+000  1.209405e+002
      vertex  4.949747e-001 -2.192031e+000  1.209405e+002
      vertex -3.111270e+000 -4.242641e-001  1.209405e+002
    endloop
  endfacet
  facet normal  -0.000000e+000  0.000000e+000  1.000000e+000
    outer loop
      vertex -3.111270e+000 -4.242641e-001  1.209405e+002
      vertex  4.949747e-001 -2.192031e+000  1.209405e+002
      vertex -2.192031e+000  4.949747e-001  1.209405e+002
    endloop
  endfacet
  facet normal -7.071068e-001 -7.071068e-001  -0.000000e+000
    outer loop
      vertex -4.242641e-001 -3.111270e+000  1.147405e+002
      vertex -4.242641e-001 -3.111270e+000  1.209405e+002
      vertex -3.111270e+000 -4.242641e-001  1.147405e+002
    endloop
  endfacet
  facet normal -7.071068e-001 -7.071068e-001  0.000000e+000
    outer loop
      vertex -3.111270e+000 -4.242641e-001  1.147405e+002
      vertex -4.242641e-001 -3.111270e+000  1.209405e+002
      vertex -3.111270e+000 -4.242641e-001  1.209405e+002
    endloop
  endfacet
  facet normal -7.071068e-001 -7.071068e-001  -0.000000e+000
    outer loop
      vertex -1.414214e-001 -2.828427e+000  1.086500e+002
      vertex -1.414214e-001 -2.828427e+000  1.112405e+002
      vertex -2.828427e+000 -1.414214e-001  1.086500e+002
    endloop
  endfacet
  facet normal -7.071068e-001 -7.071068e-001  0.000000e+000
    outer loop
      vertex -2.828427e+000 -1.414214e-001  1.086500e+002
      vertex -1.414214e-001 -2.828427e+000  1.112405e+002
      vertex -2.828427e+000 -1.414214e-001  1.112405e+002
    endloop
  endfacet
endsolid CATIA STL
